<?xml version="1.0" encoding="utf-8" standalone="no"?>
<!DOCTYPE svg PUBLIC "-//W3C//DTD SVG 1.1//EN"
  "http://www.w3.org/Graphics/SVG/1.1/DTD/svg11.dtd">
<svg xmlns:xlink="http://www.w3.org/1999/xlink" width="288pt" height="288pt" viewBox="0 0 288 288" xmlns="http://www.w3.org/2000/svg" version="1.1">
 <metadata>
  <rdf:RDF xmlns:dc="http://purl.org/dc/elements/1.1/" xmlns:cc="http://creativecommons.org/ns#" xmlns:rdf="http://www.w3.org/1999/02/22-rdf-syntax-ns#">
   <cc:Work>
    <dc:type rdf:resource="http://purl.org/dc/dcmitype/StillImage"/>
    <dc:date>2024-03-15T19:21:51.980955</dc:date>
    <dc:format>image/svg+xml</dc:format>
    <dc:creator>
     <cc:Agent>
      <dc:title>Matplotlib v3.7.2, https://matplotlib.org/</dc:title>
     </cc:Agent>
    </dc:creator>
   </cc:Work>
  </rdf:RDF>
 </metadata>
 <defs>
  <style type="text/css">*{stroke-linejoin: round; stroke-linecap: butt}</style>
 </defs>
 <g id="figure_1">
  <g id="patch_1">
   <path d="M 0 288 
L 288 288 
L 288 0 
L 0 0 
z
" style="fill: #ffffff"/>
  </g>
  <g id="axes_1">
   <g id="patch_2">
    <path d="M 26.19841 270.145354 
L 285.165354 270.145354 
L 285.165354 11.589846 
L 26.19841 11.589846 
z
" style="fill: #ffffff"/>
   </g>
   <g id="line2d_1">
    <path d="M 33.527663 262.827746 
L 39.728198 262.827746 
L 44.486035 262.827746 
L 52.030876 262.827746 
L 60.898146 262.827746 
L 70.41382 262.827746 
L 80.278724 262.827746 
L 94.887582 262.827746 
L 112.042209 262.827746 
L 133.540498 262.461499 
L 158.983798 251.474098 
L 191.193951 228.400557 
L 230.257729 206.425756 
L 277.836101 177.858515 
" clip-path="url(#p3c8ed81e13)" style="fill: none; stroke: #1f77b4; stroke-width: 1.95"/>
   </g>
   <g id="PolyCollection_1">
    <defs>
     <path id="md73bddfbc1" d="M 33.527663 -25.172254 
L 33.527663 -25.172254 
L 39.728198 -25.172254 
L 44.486035 -25.172254 
L 52.030876 -25.172254 
L 60.898146 -25.172254 
L 70.41382 -25.172254 
L 80.278724 -25.172254 
L 94.887582 -25.172254 
L 112.042209 -25.172254 
L 133.540498 -25.538501 
L 158.983798 -36.525902 
L 191.193951 -59.599443 
L 230.257729 -81.574244 
L 277.836101 -110.141485 
L 277.836101 -110.141485 
L 277.836101 -110.141485 
L 230.257729 -81.574244 
L 191.193951 -59.599443 
L 158.983798 -36.525902 
L 133.540498 -25.538501 
L 112.042209 -25.172254 
L 94.887582 -25.172254 
L 80.278724 -25.172254 
L 70.41382 -25.172254 
L 60.898146 -25.172254 
L 52.030876 -25.172254 
L 44.486035 -25.172254 
L 39.728198 -25.172254 
L 33.527663 -25.172254 
z
"/>
    </defs>
    <g clip-path="url(#p3c8ed81e13)">
     <use xlink:href="#md73bddfbc1" x="0" y="288" style="fill: #1f77b4; fill-opacity: 0.5"/>
    </g>
   </g>
   <g id="PathCollection_1">
    <defs>
     <path id="m6454f97e05" d="M 0 2.25 
C 0.596707 2.25 1.169055 2.012926 1.59099 1.59099 
C 2.012926 1.169055 2.25 0.596707 2.25 0 
C 2.25 -0.596707 2.012926 -1.169055 1.59099 -1.59099 
C 1.169055 -2.012926 0.596707 -2.25 0 -2.25 
C -0.596707 -2.25 -1.169055 -2.012926 -1.59099 -1.59099 
C -2.012926 -1.169055 -2.25 -0.596707 -2.25 0 
C -2.25 0.596707 -2.012926 1.169055 -1.59099 1.59099 
C -1.169055 2.012926 -0.596707 2.25 0 2.25 
z
"/>
    </defs>
    <g clip-path="url(#p3c8ed81e13)">
     <use xlink:href="#m6454f97e05" x="33.527663" y="262.827746" style="fill: #1f77b4"/>
     <use xlink:href="#m6454f97e05" x="39.728198" y="262.827746" style="fill: #1f77b4"/>
     <use xlink:href="#m6454f97e05" x="44.486035" y="262.827746" style="fill: #1f77b4"/>
     <use xlink:href="#m6454f97e05" x="52.030876" y="262.827746" style="fill: #1f77b4"/>
     <use xlink:href="#m6454f97e05" x="60.898146" y="262.827746" style="fill: #1f77b4"/>
     <use xlink:href="#m6454f97e05" x="70.41382" y="262.827746" style="fill: #1f77b4"/>
     <use xlink:href="#m6454f97e05" x="80.278724" y="262.827746" style="fill: #1f77b4"/>
     <use xlink:href="#m6454f97e05" x="94.887582" y="262.827746" style="fill: #1f77b4"/>
     <use xlink:href="#m6454f97e05" x="112.042209" y="262.827746" style="fill: #1f77b4"/>
     <use xlink:href="#m6454f97e05" x="133.540498" y="262.461499" style="fill: #1f77b4"/>
     <use xlink:href="#m6454f97e05" x="158.983798" y="251.474098" style="fill: #1f77b4"/>
     <use xlink:href="#m6454f97e05" x="191.193951" y="228.400557" style="fill: #1f77b4"/>
     <use xlink:href="#m6454f97e05" x="230.257729" y="206.425756" style="fill: #1f77b4"/>
     <use xlink:href="#m6454f97e05" x="277.836101" y="177.858515" style="fill: #1f77b4"/>
    </g>
   </g>
   <g id="matplotlib.axis_1">
    <g id="xtick_1">
     <g id="line2d_2">
      <defs>
       <path id="mc84c06fd92" d="M 0 0 
L 0 -3.75 
" style="stroke: #000000; stroke-width: 0.75"/>
      </defs>
      <g>
       <use xlink:href="#mc84c06fd92" x="65.895692" y="270.145354" style="stroke: #000000; stroke-width: 0.75"/>
      </g>
     </g>
     <g id="text_1">
      <!-- $0.1$ -->
      <g transform="translate(56.295692 282.763479) scale(0.12 -0.12)">
       <defs>
        <path id="DejaVuSans-30" d="M 2034 4250 
Q 1547 4250 1301 3770 
Q 1056 3291 1056 2328 
Q 1056 1369 1301 889 
Q 1547 409 2034 409 
Q 2525 409 2770 889 
Q 3016 1369 3016 2328 
Q 3016 3291 2770 3770 
Q 2525 4250 2034 4250 
z
M 2034 4750 
Q 2819 4750 3233 4129 
Q 3647 3509 3647 2328 
Q 3647 1150 3233 529 
Q 2819 -91 2034 -91 
Q 1250 -91 836 529 
Q 422 1150 422 2328 
Q 422 3509 836 4129 
Q 1250 4750 2034 4750 
z
" transform="scale(0.015625)"/>
        <path id="DejaVuSans-2e" d="M 684 794 
L 1344 794 
L 1344 0 
L 684 0 
L 684 794 
z
" transform="scale(0.015625)"/>
        <path id="DejaVuSans-31" d="M 794 531 
L 1825 531 
L 1825 4091 
L 703 3866 
L 703 4441 
L 1819 4666 
L 2450 4666 
L 2450 531 
L 3481 531 
L 3481 0 
L 794 0 
L 794 531 
z
" transform="scale(0.015625)"/>
       </defs>
       <use xlink:href="#DejaVuSans-30" transform="translate(0 0.78125)"/>
       <use xlink:href="#DejaVuSans-2e" transform="translate(63.623047 0.78125)"/>
       <use xlink:href="#DejaVuSans-31" transform="translate(95.410156 0.78125)"/>
      </g>
     </g>
    </g>
    <g id="xtick_2">
     <g id="line2d_3">
      <g>
       <use xlink:href="#mc84c06fd92" x="113.233135" y="270.145354" style="stroke: #000000; stroke-width: 0.75"/>
      </g>
     </g>
     <g id="text_2">
      <!-- $0.2$ -->
      <g transform="translate(103.993135 282.763479) scale(0.12 -0.12)">
       <defs>
        <path id="DejaVuSans-32" d="M 1228 531 
L 3431 531 
L 3431 0 
L 469 0 
L 469 531 
Q 828 903 1448 1529 
Q 2069 2156 2228 2338 
Q 2531 2678 2651 2914 
Q 2772 3150 2772 3378 
Q 2772 3750 2511 3984 
Q 2250 4219 1831 4219 
Q 1534 4219 1204 4116 
Q 875 4013 500 3803 
L 500 4441 
Q 881 4594 1212 4672 
Q 1544 4750 1819 4750 
Q 2544 4750 2975 4387 
Q 3406 4025 3406 3419 
Q 3406 3131 3298 2873 
Q 3191 2616 2906 2266 
Q 2828 2175 2409 1742 
Q 1991 1309 1228 531 
z
" transform="scale(0.015625)"/>
       </defs>
       <use xlink:href="#DejaVuSans-30" transform="translate(0 0.78125)"/>
       <use xlink:href="#DejaVuSans-2e" transform="translate(63.623047 0.78125)"/>
       <use xlink:href="#DejaVuSans-32" transform="translate(89.910156 0.78125)"/>
      </g>
     </g>
    </g>
    <g id="xtick_3">
     <g id="line2d_4">
      <g>
       <use xlink:href="#mc84c06fd92" x="160.570578" y="270.145354" style="stroke: #000000; stroke-width: 0.75"/>
      </g>
     </g>
     <g id="text_3">
      <!-- $0.3$ -->
      <g transform="translate(150.970578 282.763479) scale(0.12 -0.12)">
       <defs>
        <path id="DejaVuSans-33" d="M 2597 2516 
Q 3050 2419 3304 2112 
Q 3559 1806 3559 1356 
Q 3559 666 3084 287 
Q 2609 -91 1734 -91 
Q 1441 -91 1130 -33 
Q 819 25 488 141 
L 488 750 
Q 750 597 1062 519 
Q 1375 441 1716 441 
Q 2309 441 2620 675 
Q 2931 909 2931 1356 
Q 2931 1769 2642 2001 
Q 2353 2234 1838 2234 
L 1294 2234 
L 1294 2753 
L 1863 2753 
Q 2328 2753 2575 2939 
Q 2822 3125 2822 3475 
Q 2822 3834 2567 4026 
Q 2313 4219 1838 4219 
Q 1578 4219 1281 4162 
Q 984 4106 628 3988 
L 628 4550 
Q 988 4650 1302 4700 
Q 1616 4750 1894 4750 
Q 2613 4750 3031 4423 
Q 3450 4097 3450 3541 
Q 3450 3153 3228 2886 
Q 3006 2619 2597 2516 
z
" transform="scale(0.015625)"/>
       </defs>
       <use xlink:href="#DejaVuSans-30" transform="translate(0 0.78125)"/>
       <use xlink:href="#DejaVuSans-2e" transform="translate(63.623047 0.78125)"/>
       <use xlink:href="#DejaVuSans-33" transform="translate(95.410156 0.78125)"/>
      </g>
     </g>
    </g>
    <g id="xtick_4">
     <g id="line2d_5">
      <g>
       <use xlink:href="#mc84c06fd92" x="207.90802" y="270.145354" style="stroke: #000000; stroke-width: 0.75"/>
      </g>
     </g>
     <g id="text_4">
      <!-- $0.4$ -->
      <g transform="translate(198.30802 282.763479) scale(0.12 -0.12)">
       <defs>
        <path id="DejaVuSans-34" d="M 2419 4116 
L 825 1625 
L 2419 1625 
L 2419 4116 
z
M 2253 4666 
L 3047 4666 
L 3047 1625 
L 3713 1625 
L 3713 1100 
L 3047 1100 
L 3047 0 
L 2419 0 
L 2419 1100 
L 313 1100 
L 313 1709 
L 2253 4666 
z
" transform="scale(0.015625)"/>
       </defs>
       <use xlink:href="#DejaVuSans-30" transform="translate(0 0.78125)"/>
       <use xlink:href="#DejaVuSans-2e" transform="translate(63.623047 0.78125)"/>
       <use xlink:href="#DejaVuSans-34" transform="translate(95.410156 0.78125)"/>
      </g>
     </g>
    </g>
    <g id="xtick_5">
     <g id="line2d_6">
      <g>
       <use xlink:href="#mc84c06fd92" x="255.245463" y="270.145354" style="stroke: #000000; stroke-width: 0.75"/>
      </g>
     </g>
     <g id="text_5">
      <!-- $0.5$ -->
      <g transform="translate(245.645463 282.763479) scale(0.12 -0.12)">
       <defs>
        <path id="DejaVuSans-35" d="M 691 4666 
L 3169 4666 
L 3169 4134 
L 1269 4134 
L 1269 2991 
Q 1406 3038 1543 3061 
Q 1681 3084 1819 3084 
Q 2600 3084 3056 2656 
Q 3513 2228 3513 1497 
Q 3513 744 3044 326 
Q 2575 -91 1722 -91 
Q 1428 -91 1123 -41 
Q 819 9 494 109 
L 494 744 
Q 775 591 1075 516 
Q 1375 441 1709 441 
Q 2250 441 2565 725 
Q 2881 1009 2881 1497 
Q 2881 1984 2565 2268 
Q 2250 2553 1709 2553 
Q 1456 2553 1204 2497 
Q 953 2441 691 2322 
L 691 4666 
z
" transform="scale(0.015625)"/>
       </defs>
       <use xlink:href="#DejaVuSans-30" transform="translate(0 0.78125)"/>
       <use xlink:href="#DejaVuSans-2e" transform="translate(63.623047 0.78125)"/>
       <use xlink:href="#DejaVuSans-35" transform="translate(95.410156 0.78125)"/>
      </g>
     </g>
    </g>
   </g>
   <g id="matplotlib.axis_2">
    <g id="ytick_1">
     <g id="line2d_7">
      <defs>
       <path id="maf3019f267" d="M 0 0 
L 3.75 0 
" style="stroke: #000000; stroke-width: 0.75"/>
      </defs>
      <g>
       <use xlink:href="#maf3019f267" x="26.19841" y="262.827746" style="stroke: #000000; stroke-width: 0.75"/>
      </g>
     </g>
     <g id="text_6">
      <!-- $0.0$ -->
      <g transform="translate(3.49841 267.386808) scale(0.12 -0.12)">
       <use xlink:href="#DejaVuSans-30" transform="translate(0 0.78125)"/>
       <use xlink:href="#DejaVuSans-2e" transform="translate(63.623047 0.78125)"/>
       <use xlink:href="#DejaVuSans-30" transform="translate(95.410156 0.78125)"/>
      </g>
     </g>
    </g>
    <g id="ytick_2">
     <g id="line2d_8">
      <g>
       <use xlink:href="#maf3019f267" x="26.19841" y="204.228276" style="stroke: #000000; stroke-width: 0.75"/>
      </g>
     </g>
     <g id="text_7">
      <!-- $0.1$ -->
      <g transform="translate(3.49841 208.787339) scale(0.12 -0.12)">
       <use xlink:href="#DejaVuSans-30" transform="translate(0 0.78125)"/>
       <use xlink:href="#DejaVuSans-2e" transform="translate(63.623047 0.78125)"/>
       <use xlink:href="#DejaVuSans-31" transform="translate(95.410156 0.78125)"/>
      </g>
     </g>
    </g>
    <g id="ytick_3">
     <g id="line2d_9">
      <g>
       <use xlink:href="#maf3019f267" x="26.19841" y="145.628807" style="stroke: #000000; stroke-width: 0.75"/>
      </g>
     </g>
     <g id="text_8">
      <!-- $0.2$ -->
      <g transform="translate(4.21841 150.187869) scale(0.12 -0.12)">
       <use xlink:href="#DejaVuSans-30" transform="translate(0 0.78125)"/>
       <use xlink:href="#DejaVuSans-2e" transform="translate(63.623047 0.78125)"/>
       <use xlink:href="#DejaVuSans-32" transform="translate(89.910156 0.78125)"/>
      </g>
     </g>
    </g>
    <g id="ytick_4">
     <g id="line2d_10">
      <g>
       <use xlink:href="#maf3019f267" x="26.19841" y="87.029338" style="stroke: #000000; stroke-width: 0.75"/>
      </g>
     </g>
     <g id="text_9">
      <!-- $0.3$ -->
      <g transform="translate(3.49841 91.5884) scale(0.12 -0.12)">
       <use xlink:href="#DejaVuSans-30" transform="translate(0 0.78125)"/>
       <use xlink:href="#DejaVuSans-2e" transform="translate(63.623047 0.78125)"/>
       <use xlink:href="#DejaVuSans-33" transform="translate(95.410156 0.78125)"/>
      </g>
     </g>
    </g>
    <g id="ytick_5">
     <g id="line2d_11">
      <g>
       <use xlink:href="#maf3019f267" x="26.19841" y="28.429868" style="stroke: #000000; stroke-width: 0.75"/>
      </g>
     </g>
     <g id="text_10">
      <!-- $0.4$ -->
      <g transform="translate(3.49841 32.988931) scale(0.12 -0.12)">
       <use xlink:href="#DejaVuSans-30" transform="translate(0 0.78125)"/>
       <use xlink:href="#DejaVuSans-2e" transform="translate(63.623047 0.78125)"/>
       <use xlink:href="#DejaVuSans-34" transform="translate(95.410156 0.78125)"/>
      </g>
     </g>
    </g>
   </g>
   <g id="line2d_12">
    <path d="M 33.527663 262.827746 
L 39.728198 262.827746 
L 44.486035 262.827746 
L 52.030876 262.827746 
L 60.898146 262.827746 
L 70.41382 262.827746 
L 80.278724 262.827746 
L 94.887582 262.827746 
L 112.042209 259.531525 
L 133.540498 247.811632 
L 158.983798 230.598037 
L 191.193951 213.75069 
L 230.257729 189.578409 
L 277.836101 158.081194 
" clip-path="url(#p3c8ed81e13)" style="fill: none; stroke: #ff7f0e; stroke-width: 1.95"/>
   </g>
   <g id="PolyCollection_2">
    <defs>
     <path id="m8e22316bc1" d="M 33.527663 -25.172254 
L 33.527663 -25.172254 
L 39.728198 -25.172254 
L 44.486035 -25.172254 
L 52.030876 -25.172254 
L 60.898146 -25.172254 
L 70.41382 -25.172254 
L 80.278724 -25.172254 
L 94.887582 -25.172254 
L 112.042209 -28.468475 
L 133.540498 -40.188368 
L 158.983798 -57.401963 
L 191.193951 -74.24931 
L 230.257729 -98.421591 
L 277.836101 -129.918806 
L 277.836101 -129.918806 
L 277.836101 -129.918806 
L 230.257729 -98.421591 
L 191.193951 -74.24931 
L 158.983798 -57.401963 
L 133.540498 -40.188368 
L 112.042209 -28.468475 
L 94.887582 -25.172254 
L 80.278724 -25.172254 
L 70.41382 -25.172254 
L 60.898146 -25.172254 
L 52.030876 -25.172254 
L 44.486035 -25.172254 
L 39.728198 -25.172254 
L 33.527663 -25.172254 
z
"/>
    </defs>
    <g clip-path="url(#p3c8ed81e13)">
     <use xlink:href="#m8e22316bc1" x="0" y="288" style="fill: #ff7f0e; fill-opacity: 0.5"/>
    </g>
   </g>
   <g id="PathCollection_2">
    <defs>
     <path id="mdbe50447dd" d="M 0 2.25 
C 0.596707 2.25 1.169055 2.012926 1.59099 1.59099 
C 2.012926 1.169055 2.25 0.596707 2.25 0 
C 2.25 -0.596707 2.012926 -1.169055 1.59099 -1.59099 
C 1.169055 -2.012926 0.596707 -2.25 0 -2.25 
C -0.596707 -2.25 -1.169055 -2.012926 -1.59099 -1.59099 
C -2.012926 -1.169055 -2.25 -0.596707 -2.25 0 
C -2.25 0.596707 -2.012926 1.169055 -1.59099 1.59099 
C -1.169055 2.012926 -0.596707 2.25 0 2.25 
z
"/>
    </defs>
    <g clip-path="url(#p3c8ed81e13)">
     <use xlink:href="#mdbe50447dd" x="33.527663" y="262.827746" style="fill: #ff7f0e"/>
     <use xlink:href="#mdbe50447dd" x="39.728198" y="262.827746" style="fill: #ff7f0e"/>
     <use xlink:href="#mdbe50447dd" x="44.486035" y="262.827746" style="fill: #ff7f0e"/>
     <use xlink:href="#mdbe50447dd" x="52.030876" y="262.827746" style="fill: #ff7f0e"/>
     <use xlink:href="#mdbe50447dd" x="60.898146" y="262.827746" style="fill: #ff7f0e"/>
     <use xlink:href="#mdbe50447dd" x="70.41382" y="262.827746" style="fill: #ff7f0e"/>
     <use xlink:href="#mdbe50447dd" x="80.278724" y="262.827746" style="fill: #ff7f0e"/>
     <use xlink:href="#mdbe50447dd" x="94.887582" y="262.827746" style="fill: #ff7f0e"/>
     <use xlink:href="#mdbe50447dd" x="112.042209" y="259.531525" style="fill: #ff7f0e"/>
     <use xlink:href="#mdbe50447dd" x="133.540498" y="247.811632" style="fill: #ff7f0e"/>
     <use xlink:href="#mdbe50447dd" x="158.983798" y="230.598037" style="fill: #ff7f0e"/>
     <use xlink:href="#mdbe50447dd" x="191.193951" y="213.75069" style="fill: #ff7f0e"/>
     <use xlink:href="#mdbe50447dd" x="230.257729" y="189.578409" style="fill: #ff7f0e"/>
     <use xlink:href="#mdbe50447dd" x="277.836101" y="158.081194" style="fill: #ff7f0e"/>
    </g>
   </g>
   <g id="patch_3">
    <path d="M 26.19841 270.145354 
L 26.19841 11.589846 
" style="fill: none; stroke: #000000; stroke-width: 1.5; stroke-linejoin: miter; stroke-linecap: square"/>
   </g>
   <g id="patch_4">
    <path d="M 285.165354 270.145354 
L 285.165354 11.589846 
" style="fill: none; stroke: #000000; stroke-width: 1.5; stroke-linejoin: miter; stroke-linecap: square"/>
   </g>
   <g id="patch_5">
    <path d="M 26.19841 270.145354 
L 285.165354 270.145354 
" style="fill: none; stroke: #000000; stroke-width: 1.5; stroke-linejoin: miter; stroke-linecap: square"/>
   </g>
   <g id="patch_6">
    <path d="M 26.19841 11.589846 
L 285.165354 11.589846 
" style="fill: none; stroke: #000000; stroke-width: 1.5; stroke-linejoin: miter; stroke-linecap: square"/>
   </g>
   <g id="line2d_13">
    <path d="M 33.527663 262.827746 
L 39.728198 262.827746 
L 44.486035 262.827746 
L 52.030876 262.827746 
L 60.898146 262.827746 
L 70.41382 262.827746 
L 80.278724 262.461499 
L 94.887582 256.967799 
L 112.042209 251.107852 
L 133.540498 234.260504 
L 158.983798 222.174364 
L 191.193951 203.86203 
L 230.257729 180.422242 
L 277.836101 148.55878 
" clip-path="url(#p3c8ed81e13)" style="fill: none; stroke: #2ca02c; stroke-width: 1.95"/>
   </g>
   <g id="PolyCollection_3">
    <defs>
     <path id="m4861fc6b58" d="M 33.527663 -25.172254 
L 33.527663 -25.172254 
L 39.728198 -25.172254 
L 44.486035 -25.172254 
L 52.030876 -25.172254 
L 60.898146 -25.172254 
L 70.41382 -25.172254 
L 80.278724 -25.538501 
L 94.887582 -31.032201 
L 112.042209 -36.892148 
L 133.540498 -53.739496 
L 158.983798 -65.825636 
L 191.193951 -84.13797 
L 230.257729 -107.577758 
L 277.836101 -139.44122 
L 277.836101 -139.44122 
L 277.836101 -139.44122 
L 230.257729 -107.577758 
L 191.193951 -84.13797 
L 158.983798 -65.825636 
L 133.540498 -53.739496 
L 112.042209 -36.892148 
L 94.887582 -31.032201 
L 80.278724 -25.538501 
L 70.41382 -25.172254 
L 60.898146 -25.172254 
L 52.030876 -25.172254 
L 44.486035 -25.172254 
L 39.728198 -25.172254 
L 33.527663 -25.172254 
z
"/>
    </defs>
    <g clip-path="url(#p3c8ed81e13)">
     <use xlink:href="#m4861fc6b58" x="0" y="288" style="fill: #2ca02c; fill-opacity: 0.5"/>
    </g>
   </g>
   <g id="PathCollection_3">
    <defs>
     <path id="m10e6b80706" d="M 0 2.25 
C 0.596707 2.25 1.169055 2.012926 1.59099 1.59099 
C 2.012926 1.169055 2.25 0.596707 2.25 0 
C 2.25 -0.596707 2.012926 -1.169055 1.59099 -1.59099 
C 1.169055 -2.012926 0.596707 -2.25 0 -2.25 
C -0.596707 -2.25 -1.169055 -2.012926 -1.59099 -1.59099 
C -2.012926 -1.169055 -2.25 -0.596707 -2.25 0 
C -2.25 0.596707 -2.012926 1.169055 -1.59099 1.59099 
C -1.169055 2.012926 -0.596707 2.25 0 2.25 
z
"/>
    </defs>
    <g clip-path="url(#p3c8ed81e13)">
     <use xlink:href="#m10e6b80706" x="33.527663" y="262.827746" style="fill: #2ca02c"/>
     <use xlink:href="#m10e6b80706" x="39.728198" y="262.827746" style="fill: #2ca02c"/>
     <use xlink:href="#m10e6b80706" x="44.486035" y="262.827746" style="fill: #2ca02c"/>
     <use xlink:href="#m10e6b80706" x="52.030876" y="262.827746" style="fill: #2ca02c"/>
     <use xlink:href="#m10e6b80706" x="60.898146" y="262.827746" style="fill: #2ca02c"/>
     <use xlink:href="#m10e6b80706" x="70.41382" y="262.827746" style="fill: #2ca02c"/>
     <use xlink:href="#m10e6b80706" x="80.278724" y="262.461499" style="fill: #2ca02c"/>
     <use xlink:href="#m10e6b80706" x="94.887582" y="256.967799" style="fill: #2ca02c"/>
     <use xlink:href="#m10e6b80706" x="112.042209" y="251.107852" style="fill: #2ca02c"/>
     <use xlink:href="#m10e6b80706" x="133.540498" y="234.260504" style="fill: #2ca02c"/>
     <use xlink:href="#m10e6b80706" x="158.983798" y="222.174364" style="fill: #2ca02c"/>
     <use xlink:href="#m10e6b80706" x="191.193951" y="203.86203" style="fill: #2ca02c"/>
     <use xlink:href="#m10e6b80706" x="230.257729" y="180.422242" style="fill: #2ca02c"/>
     <use xlink:href="#m10e6b80706" x="277.836101" y="148.55878" style="fill: #2ca02c"/>
    </g>
   </g>
   <g id="line2d_14">
    <path d="M 33.527663 259.531525 
L 39.728198 256.967799 
L 44.486035 256.967799 
L 52.030876 251.107852 
L 60.898146 248.910372 
L 70.41382 244.515411 
L 80.278724 237.556724 
L 94.887582 231.330531 
L 112.042209 222.906857 
L 133.540498 211.186963 
L 158.983798 196.170849 
L 191.193951 175.661035 
L 230.257729 150.75626 
L 277.836101 107.539152 
" clip-path="url(#p3c8ed81e13)" style="fill: none; stroke: #d62728; stroke-width: 1.95"/>
   </g>
   <g id="PolyCollection_4">
    <defs>
     <path id="m01b4482289" d="M 33.527663 -28.468475 
L 33.527663 -28.468475 
L 39.728198 -31.032201 
L 44.486035 -31.032201 
L 52.030876 -36.892148 
L 60.898146 -39.089628 
L 70.41382 -43.484589 
L 80.278724 -50.443276 
L 94.887582 -56.669469 
L 112.042209 -65.093143 
L 133.540498 -76.813037 
L 158.983798 -91.829151 
L 191.193951 -112.338965 
L 230.257729 -137.24374 
L 277.836101 -180.460848 
L 277.836101 -180.460848 
L 277.836101 -180.460848 
L 230.257729 -137.24374 
L 191.193951 -112.338965 
L 158.983798 -91.829151 
L 133.540498 -76.813037 
L 112.042209 -65.093143 
L 94.887582 -56.669469 
L 80.278724 -50.443276 
L 70.41382 -43.484589 
L 60.898146 -39.089628 
L 52.030876 -36.892148 
L 44.486035 -31.032201 
L 39.728198 -31.032201 
L 33.527663 -28.468475 
z
"/>
    </defs>
    <g clip-path="url(#p3c8ed81e13)">
     <use xlink:href="#m01b4482289" x="0" y="288" style="fill: #d62728; fill-opacity: 0.5"/>
    </g>
   </g>
   <g id="PathCollection_4">
    <defs>
     <path id="mecfe641843" d="M 0 2.25 
C 0.596707 2.25 1.169055 2.012926 1.59099 1.59099 
C 2.012926 1.169055 2.25 0.596707 2.25 0 
C 2.25 -0.596707 2.012926 -1.169055 1.59099 -1.59099 
C 1.169055 -2.012926 0.596707 -2.25 0 -2.25 
C -0.596707 -2.25 -1.169055 -2.012926 -1.59099 -1.59099 
C -2.012926 -1.169055 -2.25 -0.596707 -2.25 0 
C -2.25 0.596707 -2.012926 1.169055 -1.59099 1.59099 
C -1.169055 2.012926 -0.596707 2.25 0 2.25 
z
"/>
    </defs>
    <g clip-path="url(#p3c8ed81e13)">
     <use xlink:href="#mecfe641843" x="33.527663" y="259.531525" style="fill: #d62728"/>
     <use xlink:href="#mecfe641843" x="39.728198" y="256.967799" style="fill: #d62728"/>
     <use xlink:href="#mecfe641843" x="44.486035" y="256.967799" style="fill: #d62728"/>
     <use xlink:href="#mecfe641843" x="52.030876" y="251.107852" style="fill: #d62728"/>
     <use xlink:href="#mecfe641843" x="60.898146" y="248.910372" style="fill: #d62728"/>
     <use xlink:href="#mecfe641843" x="70.41382" y="244.515411" style="fill: #d62728"/>
     <use xlink:href="#mecfe641843" x="80.278724" y="237.556724" style="fill: #d62728"/>
     <use xlink:href="#mecfe641843" x="94.887582" y="231.330531" style="fill: #d62728"/>
     <use xlink:href="#mecfe641843" x="112.042209" y="222.906857" style="fill: #d62728"/>
     <use xlink:href="#mecfe641843" x="133.540498" y="211.186963" style="fill: #d62728"/>
     <use xlink:href="#mecfe641843" x="158.983798" y="196.170849" style="fill: #d62728"/>
     <use xlink:href="#mecfe641843" x="191.193951" y="175.661035" style="fill: #d62728"/>
     <use xlink:href="#mecfe641843" x="230.257729" y="150.75626" style="fill: #d62728"/>
     <use xlink:href="#mecfe641843" x="277.836101" y="107.539152" style="fill: #d62728"/>
    </g>
   </g>
   <g id="line2d_15">
    <path d="M 33.527663 248.544125 
L 39.728198 248.910372 
L 44.486035 242.317931 
L 52.030876 243.050425 
L 60.898146 239.387958 
L 70.41382 238.289218 
L 80.278724 232.429271 
L 94.887582 225.104337 
L 112.042209 211.919457 
L 133.540498 202.397043 
L 158.983798 186.648435 
L 191.193951 160.278674 
L 230.257729 131.345186 
L 277.836101 88.860571 
" clip-path="url(#p3c8ed81e13)" style="fill: none; stroke: #9467bd; stroke-width: 1.95"/>
   </g>
   <g id="PolyCollection_5">
    <defs>
     <path id="ma19fe2c44c" d="M 33.527663 -39.455875 
L 33.527663 -39.455875 
L 39.728198 -39.089628 
L 44.486035 -45.682069 
L 52.030876 -44.949575 
L 60.898146 -48.612042 
L 70.41382 -49.710782 
L 80.278724 -55.570729 
L 94.887582 -62.895663 
L 112.042209 -76.080543 
L 133.540498 -85.602957 
L 158.983798 -101.351565 
L 191.193951 -127.721326 
L 230.257729 -156.654814 
L 277.836101 -199.139429 
L 277.836101 -199.139429 
L 277.836101 -199.139429 
L 230.257729 -156.654814 
L 191.193951 -127.721326 
L 158.983798 -101.351565 
L 133.540498 -85.602957 
L 112.042209 -76.080543 
L 94.887582 -62.895663 
L 80.278724 -55.570729 
L 70.41382 -49.710782 
L 60.898146 -48.612042 
L 52.030876 -44.949575 
L 44.486035 -45.682069 
L 39.728198 -39.089628 
L 33.527663 -39.455875 
z
"/>
    </defs>
    <g clip-path="url(#p3c8ed81e13)">
     <use xlink:href="#ma19fe2c44c" x="0" y="288" style="fill: #9467bd; fill-opacity: 0.5"/>
    </g>
   </g>
   <g id="PathCollection_5">
    <defs>
     <path id="mff4a17f637" d="M 0 2.25 
C 0.596707 2.25 1.169055 2.012926 1.59099 1.59099 
C 2.012926 1.169055 2.25 0.596707 2.25 0 
C 2.25 -0.596707 2.012926 -1.169055 1.59099 -1.59099 
C 1.169055 -2.012926 0.596707 -2.25 0 -2.25 
C -0.596707 -2.25 -1.169055 -2.012926 -1.59099 -1.59099 
C -2.012926 -1.169055 -2.25 -0.596707 -2.25 0 
C -2.25 0.596707 -2.012926 1.169055 -1.59099 1.59099 
C -1.169055 2.012926 -0.596707 2.25 0 2.25 
z
"/>
    </defs>
    <g clip-path="url(#p3c8ed81e13)">
     <use xlink:href="#mff4a17f637" x="33.527663" y="248.544125" style="fill: #9467bd"/>
     <use xlink:href="#mff4a17f637" x="39.728198" y="248.910372" style="fill: #9467bd"/>
     <use xlink:href="#mff4a17f637" x="44.486035" y="242.317931" style="fill: #9467bd"/>
     <use xlink:href="#mff4a17f637" x="52.030876" y="243.050425" style="fill: #9467bd"/>
     <use xlink:href="#mff4a17f637" x="60.898146" y="239.387958" style="fill: #9467bd"/>
     <use xlink:href="#mff4a17f637" x="70.41382" y="238.289218" style="fill: #9467bd"/>
     <use xlink:href="#mff4a17f637" x="80.278724" y="232.429271" style="fill: #9467bd"/>
     <use xlink:href="#mff4a17f637" x="94.887582" y="225.104337" style="fill: #9467bd"/>
     <use xlink:href="#mff4a17f637" x="112.042209" y="211.919457" style="fill: #9467bd"/>
     <use xlink:href="#mff4a17f637" x="133.540498" y="202.397043" style="fill: #9467bd"/>
     <use xlink:href="#mff4a17f637" x="158.983798" y="186.648435" style="fill: #9467bd"/>
     <use xlink:href="#mff4a17f637" x="191.193951" y="160.278674" style="fill: #9467bd"/>
     <use xlink:href="#mff4a17f637" x="230.257729" y="131.345186" style="fill: #9467bd"/>
     <use xlink:href="#mff4a17f637" x="277.836101" y="88.860571" style="fill: #9467bd"/>
    </g>
   </g>
   <g id="line2d_16">
    <path d="M 33.527663 240.486698 
L 39.728198 238.289218 
L 44.486035 237.922971 
L 52.030876 233.528011 
L 60.898146 232.063024 
L 70.41382 228.034311 
L 80.278724 225.104337 
L 94.887582 214.116937 
L 112.042209 204.594523 
L 133.540498 192.142136 
L 158.983798 172.731061 
L 191.193951 147.46004 
L 230.257729 116.329072 
L 277.836101 66.88577 
" clip-path="url(#p3c8ed81e13)" style="fill: none; stroke: #8c564b; stroke-width: 1.95"/>
   </g>
   <g id="PolyCollection_6">
    <defs>
     <path id="mfce6c47181" d="M 33.527663 -47.513302 
L 33.527663 -47.513302 
L 39.728198 -49.710782 
L 44.486035 -50.077029 
L 52.030876 -54.471989 
L 60.898146 -55.936976 
L 70.41382 -59.965689 
L 80.278724 -62.895663 
L 94.887582 -73.883063 
L 112.042209 -83.405477 
L 133.540498 -95.857864 
L 158.983798 -115.268939 
L 191.193951 -140.53996 
L 230.257729 -171.670928 
L 277.836101 -221.11423 
L 277.836101 -221.11423 
L 277.836101 -221.11423 
L 230.257729 -171.670928 
L 191.193951 -140.53996 
L 158.983798 -115.268939 
L 133.540498 -95.857864 
L 112.042209 -83.405477 
L 94.887582 -73.883063 
L 80.278724 -62.895663 
L 70.41382 -59.965689 
L 60.898146 -55.936976 
L 52.030876 -54.471989 
L 44.486035 -50.077029 
L 39.728198 -49.710782 
L 33.527663 -47.513302 
z
"/>
    </defs>
    <g clip-path="url(#p3c8ed81e13)">
     <use xlink:href="#mfce6c47181" x="0" y="288" style="fill: #8c564b; fill-opacity: 0.5"/>
    </g>
   </g>
   <g id="PathCollection_6">
    <defs>
     <path id="m66615c2001" d="M 0 2.25 
C 0.596707 2.25 1.169055 2.012926 1.59099 1.59099 
C 2.012926 1.169055 2.25 0.596707 2.25 0 
C 2.25 -0.596707 2.012926 -1.169055 1.59099 -1.59099 
C 1.169055 -2.012926 0.596707 -2.25 0 -2.25 
C -0.596707 -2.25 -1.169055 -2.012926 -1.59099 -1.59099 
C -2.012926 -1.169055 -2.25 -0.596707 -2.25 0 
C -2.25 0.596707 -2.012926 1.169055 -1.59099 1.59099 
C -1.169055 2.012926 -0.596707 2.25 0 2.25 
z
"/>
    </defs>
    <g clip-path="url(#p3c8ed81e13)">
     <use xlink:href="#m66615c2001" x="33.527663" y="240.486698" style="fill: #8c564b"/>
     <use xlink:href="#m66615c2001" x="39.728198" y="238.289218" style="fill: #8c564b"/>
     <use xlink:href="#m66615c2001" x="44.486035" y="237.922971" style="fill: #8c564b"/>
     <use xlink:href="#m66615c2001" x="52.030876" y="233.528011" style="fill: #8c564b"/>
     <use xlink:href="#m66615c2001" x="60.898146" y="232.063024" style="fill: #8c564b"/>
     <use xlink:href="#m66615c2001" x="70.41382" y="228.034311" style="fill: #8c564b"/>
     <use xlink:href="#m66615c2001" x="80.278724" y="225.104337" style="fill: #8c564b"/>
     <use xlink:href="#m66615c2001" x="94.887582" y="214.116937" style="fill: #8c564b"/>
     <use xlink:href="#m66615c2001" x="112.042209" y="204.594523" style="fill: #8c564b"/>
     <use xlink:href="#m66615c2001" x="133.540498" y="192.142136" style="fill: #8c564b"/>
     <use xlink:href="#m66615c2001" x="158.983798" y="172.731061" style="fill: #8c564b"/>
     <use xlink:href="#m66615c2001" x="191.193951" y="147.46004" style="fill: #8c564b"/>
     <use xlink:href="#m66615c2001" x="230.257729" y="116.329072" style="fill: #8c564b"/>
     <use xlink:href="#m66615c2001" x="277.836101" y="66.88577" style="fill: #8c564b"/>
    </g>
   </g>
   <g id="line2d_17">
    <path d="M 33.527663 213.75069 
L 39.728198 214.483183 
L 44.486035 211.919457 
L 52.030876 211.919457 
L 60.898146 211.186963 
L 70.41382 206.425756 
L 80.278724 199.100823 
L 94.887582 188.845916 
L 112.042209 179.323502 
L 133.540498 163.574894 
L 158.983798 139.76886 
L 191.193951 111.201619 
L 230.257729 73.111964 
L 277.836101 18.907454 
" clip-path="url(#p3c8ed81e13)" style="fill: none; stroke: #e377c2; stroke-width: 1.95"/>
   </g>
   <g id="PolyCollection_7">
    <defs>
     <path id="m8db5611f25" d="M 33.527663 -74.24931 
L 33.527663 -74.24931 
L 39.728198 -73.516817 
L 44.486035 -76.080543 
L 52.030876 -76.080543 
L 60.898146 -76.813037 
L 70.41382 -81.574244 
L 80.278724 -88.899177 
L 94.887582 -99.154084 
L 112.042209 -108.676498 
L 133.540498 -124.425106 
L 158.983798 -148.23114 
L 191.193951 -176.798381 
L 230.257729 -214.888036 
L 277.836101 -269.092546 
L 277.836101 -269.092546 
L 277.836101 -269.092546 
L 230.257729 -214.888036 
L 191.193951 -176.798381 
L 158.983798 -148.23114 
L 133.540498 -124.425106 
L 112.042209 -108.676498 
L 94.887582 -99.154084 
L 80.278724 -88.899177 
L 70.41382 -81.574244 
L 60.898146 -76.813037 
L 52.030876 -76.080543 
L 44.486035 -76.080543 
L 39.728198 -73.516817 
L 33.527663 -74.24931 
z
"/>
    </defs>
    <g clip-path="url(#p3c8ed81e13)">
     <use xlink:href="#m8db5611f25" x="0" y="288" style="fill: #e377c2; fill-opacity: 0.5"/>
    </g>
   </g>
   <g id="PathCollection_7">
    <defs>
     <path id="m28030615af" d="M 0 2.25 
C 0.596707 2.25 1.169055 2.012926 1.59099 1.59099 
C 2.012926 1.169055 2.25 0.596707 2.25 0 
C 2.25 -0.596707 2.012926 -1.169055 1.59099 -1.59099 
C 1.169055 -2.012926 0.596707 -2.25 0 -2.25 
C -0.596707 -2.25 -1.169055 -2.012926 -1.59099 -1.59099 
C -2.012926 -1.169055 -2.25 -0.596707 -2.25 0 
C -2.25 0.596707 -2.012926 1.169055 -1.59099 1.59099 
C -1.169055 2.012926 -0.596707 2.25 0 2.25 
z
"/>
    </defs>
    <g clip-path="url(#p3c8ed81e13)">
     <use xlink:href="#m28030615af" x="33.527663" y="213.75069" style="fill: #e377c2"/>
     <use xlink:href="#m28030615af" x="39.728198" y="214.483183" style="fill: #e377c2"/>
     <use xlink:href="#m28030615af" x="44.486035" y="211.919457" style="fill: #e377c2"/>
     <use xlink:href="#m28030615af" x="52.030876" y="211.919457" style="fill: #e377c2"/>
     <use xlink:href="#m28030615af" x="60.898146" y="211.186963" style="fill: #e377c2"/>
     <use xlink:href="#m28030615af" x="70.41382" y="206.425756" style="fill: #e377c2"/>
     <use xlink:href="#m28030615af" x="80.278724" y="199.100823" style="fill: #e377c2"/>
     <use xlink:href="#m28030615af" x="94.887582" y="188.845916" style="fill: #e377c2"/>
     <use xlink:href="#m28030615af" x="112.042209" y="179.323502" style="fill: #e377c2"/>
     <use xlink:href="#m28030615af" x="133.540498" y="163.574894" style="fill: #e377c2"/>
     <use xlink:href="#m28030615af" x="158.983798" y="139.76886" style="fill: #e377c2"/>
     <use xlink:href="#m28030615af" x="191.193951" y="111.201619" style="fill: #e377c2"/>
     <use xlink:href="#m28030615af" x="230.257729" y="73.111964" style="fill: #e377c2"/>
     <use xlink:href="#m28030615af" x="277.836101" y="18.907454" style="fill: #e377c2"/>
    </g>
   </g>
   <g id="text_11">
    <!-- $\sigma_c$ -->
    <g transform="translate(35.103266 32.7661) scale(0.225 -0.225)">
     <defs>
      <path id="DejaVuSans-Oblique-3c3" d="M 2219 3044 
Q 1744 3044 1422 2700 
Q 1081 2341 969 1747 
Q 844 1119 1044 756 
Q 1241 397 1706 397 
Q 2166 397 2503 759 
Q 2844 1122 2966 1747 
Q 3075 2319 2881 2700 
Q 2700 3044 2219 3044 
z
M 2309 3503 
L 4219 3500 
L 4106 2925 
L 3463 2925 
Q 3706 2438 3575 1747 
Q 3406 888 2884 400 
Q 2359 -91 1609 -91 
Q 856 -91 525 400 
Q 194 888 363 1747 
Q 528 2609 1050 3097 
Q 1484 3503 2309 3503 
z
" transform="scale(0.015625)"/>
      <path id="DejaVuSans-Oblique-63" d="M 3431 3366 
L 3316 2797 
Q 3109 2947 2876 3022 
Q 2644 3097 2394 3097 
Q 2119 3097 1870 3000 
Q 1622 2903 1453 2725 
Q 1184 2453 1037 2087 
Q 891 1722 891 1331 
Q 891 859 1127 628 
Q 1363 397 1844 397 
Q 2081 397 2348 469 
Q 2616 541 2906 684 
L 2797 116 
Q 2547 13 2283 -39 
Q 2019 -91 1741 -91 
Q 1044 -91 669 257 
Q 294 606 294 1253 
Q 294 1797 489 2255 
Q 684 2713 1069 3078 
Q 1331 3328 1684 3456 
Q 2038 3584 2456 3584 
Q 2700 3584 2940 3529 
Q 3181 3475 3431 3366 
z
" transform="scale(0.015625)"/>
     </defs>
     <use xlink:href="#DejaVuSans-Oblique-3c3" transform="translate(0 0.265625)"/>
     <use xlink:href="#DejaVuSans-Oblique-63" transform="translate(63.378906 -16.140625) scale(0.7)"/>
    </g>
   </g>
   <g id="text_12">
    <!-- $\sqrt{v_0}$ -->
    <g transform="translate(235.19149 257.709392) scale(0.225 -0.225)">
     <defs>
      <path id="STIXSizeOneSym-Regular-221a" d="M 6970 9933 
L 3373 -1888 
L 3104 -1888 
L 1626 2918 
Q 1555 3149 1465 3251 
Q 1376 3354 1229 3354 
Q 1011 3354 794 3181 
L 717 3309 
L 1766 4115 
L 1926 4115 
L 3379 -602 
L 3405 -602 
L 6605 9933 
L 6970 9933 
z
" transform="scale(0.015625)"/>
      <path id="DejaVuSans-Oblique-76" d="M 459 3500 
L 1069 3500 
L 1581 525 
L 3256 3500 
L 3866 3500 
L 1875 0 
L 1100 0 
L 459 3500 
z
" transform="scale(0.015625)"/>
     </defs>
     <use xlink:href="#STIXSizeOneSym-Regular-221a" transform="translate(0 -0.8125) scale(0.559487)"/>
     <use xlink:href="#DejaVuSans-Oblique-76" transform="translate(71.625931 0.0625)"/>
     <use xlink:href="#DejaVuSans-30" transform="translate(130.805618 -16.34375) scale(0.7)"/>
     <path d="M 59.125931 79.5 
L 59.125931 85.75 
L 190.576126 85.75 
L 190.576126 79.5 
L 59.125931 79.5 
z
"/>
    </g>
   </g>
   <g id="legend_1">
    <g id="patch_7">
     <path d="M 32.19841 181.407592 
L 158.19841 181.407592 
L 158.19841 43.540717 
L 32.19841 43.540717 
z
" style="fill: #ffffff; stroke: #000000; stroke-width: 1.5; stroke-linejoin: miter"/>
    </g>
    <g id="patch_8">
     <path d="M 41.79841 62.258842 
L 65.79841 62.258842 
L 65.79841 53.858842 
L 41.79841 53.858842 
z
" style="fill: #1f77b4; fill-opacity: 0.5; stroke: #1f77b4; stroke-width: 1.95; stroke-linejoin: miter"/>
    </g>
    <g id="text_13">
     <!-- $ρ = $1.0 -->
     <g transform="translate(75.39841 62.258842) scale(0.12 -0.12)">
      <defs>
       <path id="DejaVuSans-Oblique-3c1" d="M 1203 2875 
Q 1453 3194 1981 3475 
Q 2188 3584 2756 3584 
Q 3394 3584 3694 3078 
Q 3994 2572 3834 1747 
Q 3672 922 3175 415 
Q 2678 -91 2041 -91 
Q 1656 -91 1409 63 
Q 1163 213 1044 525 
L 681 -1331 
L 103 -1331 
L 697 1716 
Q 838 2438 1203 2875 
z
M 3238 1747 
Q 3359 2381 3169 2744 
Q 2978 3103 2522 3103 
Q 2066 3103 1734 2744 
Q 1403 2381 1281 1747 
Q 1156 1113 1347 750 
Q 1538 391 1994 391 
Q 2450 391 2781 750 
Q 3113 1113 3238 1747 
z
" transform="scale(0.015625)"/>
       <path id="DejaVuSans-3d" d="M 678 2906 
L 4684 2906 
L 4684 2381 
L 678 2381 
L 678 2906 
z
M 678 1631 
L 4684 1631 
L 4684 1100 
L 678 1100 
L 678 1631 
z
" transform="scale(0.015625)"/>
      </defs>
      <use xlink:href="#DejaVuSans-Oblique-3c1" transform="translate(0 0.78125)"/>
      <use xlink:href="#DejaVuSans-3d" transform="translate(82.958984 0.78125)"/>
      <use xlink:href="#DejaVuSans-31" transform="translate(186.230469 0.78125)"/>
      <use xlink:href="#DejaVuSans-2e" transform="translate(249.853516 0.78125)"/>
      <use xlink:href="#DejaVuSans-30" transform="translate(281.640625 0.78125)"/>
     </g>
    </g>
    <g id="patch_9">
     <path d="M 41.79841 79.896967 
L 65.79841 79.896967 
L 65.79841 71.496967 
L 41.79841 71.496967 
z
" style="fill: #ff7f0e; fill-opacity: 0.5; stroke: #ff7f0e; stroke-width: 1.95; stroke-linejoin: miter"/>
    </g>
    <g id="text_14">
     <!-- $ρ = $1.1 -->
     <g transform="translate(75.39841 79.896967) scale(0.12 -0.12)">
      <use xlink:href="#DejaVuSans-Oblique-3c1" transform="translate(0 0.09375)"/>
      <use xlink:href="#DejaVuSans-3d" transform="translate(82.958984 0.09375)"/>
      <use xlink:href="#DejaVuSans-31" transform="translate(186.230469 0.09375)"/>
      <use xlink:href="#DejaVuSans-2e" transform="translate(249.853516 0.09375)"/>
      <use xlink:href="#DejaVuSans-31" transform="translate(281.640625 0.09375)"/>
     </g>
    </g>
    <g id="patch_10">
     <path d="M 41.79841 97.535092 
L 65.79841 97.535092 
L 65.79841 89.135092 
L 41.79841 89.135092 
z
" style="fill: #2ca02c; fill-opacity: 0.5; stroke: #2ca02c; stroke-width: 1.95; stroke-linejoin: miter"/>
    </g>
    <g id="text_15">
     <!-- $ρ = $1.2 -->
     <g transform="translate(75.39841 97.535092) scale(0.12 -0.12)">
      <use xlink:href="#DejaVuSans-Oblique-3c1" transform="translate(0 0.78125)"/>
      <use xlink:href="#DejaVuSans-3d" transform="translate(82.958984 0.78125)"/>
      <use xlink:href="#DejaVuSans-31" transform="translate(186.230469 0.78125)"/>
      <use xlink:href="#DejaVuSans-2e" transform="translate(249.853516 0.78125)"/>
      <use xlink:href="#DejaVuSans-32" transform="translate(276.140625 0.78125)"/>
     </g>
    </g>
    <g id="patch_11">
     <path d="M 41.79841 115.173217 
L 65.79841 115.173217 
L 65.79841 106.773217 
L 41.79841 106.773217 
z
" style="fill: #d62728; fill-opacity: 0.5; stroke: #d62728; stroke-width: 1.95; stroke-linejoin: miter"/>
    </g>
    <g id="text_16">
     <!-- $ρ_{perco} = 1.44$ -->
     <g transform="translate(75.39841 115.173217) scale(0.12 -0.12)">
      <defs>
       <path id="DejaVuSans-Oblique-70" d="M 3175 2156 
Q 3175 2616 2975 2859 
Q 2775 3103 2400 3103 
Q 2144 3103 1911 2972 
Q 1678 2841 1497 2591 
Q 1319 2344 1212 1994 
Q 1106 1644 1106 1300 
Q 1106 863 1306 627 
Q 1506 391 1875 391 
Q 2147 391 2380 519 
Q 2613 647 2778 891 
Q 2956 1147 3065 1494 
Q 3175 1841 3175 2156 
z
M 1394 2969 
Q 1625 3272 1939 3428 
Q 2253 3584 2638 3584 
Q 3175 3584 3472 3232 
Q 3769 2881 3769 2247 
Q 3769 1728 3584 1258 
Q 3400 788 3053 416 
Q 2822 169 2531 39 
Q 2241 -91 1919 -91 
Q 1547 -91 1294 64 
Q 1041 219 916 525 
L 556 -1331 
L -19 -1331 
L 922 3500 
L 1497 3500 
L 1394 2969 
z
" transform="scale(0.015625)"/>
       <path id="DejaVuSans-Oblique-65" d="M 3078 2063 
Q 3088 2113 3092 2166 
Q 3097 2219 3097 2272 
Q 3097 2653 2873 2875 
Q 2650 3097 2266 3097 
Q 1838 3097 1509 2826 
Q 1181 2556 1013 2059 
L 3078 2063 
z
M 3578 1613 
L 903 1613 
Q 884 1494 878 1425 
Q 872 1356 872 1306 
Q 872 872 1139 634 
Q 1406 397 1894 397 
Q 2269 397 2603 481 
Q 2938 566 3225 728 
L 3116 159 
Q 2806 34 2476 -28 
Q 2147 -91 1806 -91 
Q 1078 -91 686 257 
Q 294 606 294 1247 
Q 294 1794 489 2264 
Q 684 2734 1063 3103 
Q 1306 3334 1642 3459 
Q 1978 3584 2356 3584 
Q 2950 3584 3301 3228 
Q 3653 2872 3653 2272 
Q 3653 2128 3634 1964 
Q 3616 1800 3578 1613 
z
" transform="scale(0.015625)"/>
       <path id="DejaVuSans-Oblique-72" d="M 2853 2969 
Q 2766 3016 2653 3041 
Q 2541 3066 2413 3066 
Q 1953 3066 1609 2717 
Q 1266 2369 1153 1784 
L 800 0 
L 225 0 
L 909 3500 
L 1484 3500 
L 1375 2956 
Q 1603 3259 1920 3421 
Q 2238 3584 2597 3584 
Q 2691 3584 2781 3573 
Q 2872 3563 2963 3538 
L 2853 2969 
z
" transform="scale(0.015625)"/>
       <path id="DejaVuSans-Oblique-6f" d="M 1625 -91 
Q 1009 -91 651 289 
Q 294 669 294 1325 
Q 294 1706 417 2101 
Q 541 2497 738 2766 
Q 1047 3184 1428 3384 
Q 1809 3584 2291 3584 
Q 2888 3584 3255 3212 
Q 3622 2841 3622 2241 
Q 3622 1825 3500 1412 
Q 3378 1000 3181 728 
Q 2875 309 2494 109 
Q 2113 -91 1625 -91 
z
M 891 1344 
Q 891 869 1089 633 
Q 1288 397 1691 397 
Q 2269 397 2648 901 
Q 3028 1406 3028 2181 
Q 3028 2634 2825 2865 
Q 2622 3097 2228 3097 
Q 1903 3097 1650 2945 
Q 1397 2794 1197 2484 
Q 1050 2253 970 1956 
Q 891 1659 891 1344 
z
" transform="scale(0.015625)"/>
      </defs>
      <use xlink:href="#DejaVuSans-Oblique-3c1" transform="translate(0 0.09375)"/>
      <use xlink:href="#DejaVuSans-Oblique-70" transform="translate(63.476562 -16.3125) scale(0.7)"/>
      <use xlink:href="#DejaVuSans-Oblique-65" transform="translate(107.910156 -16.3125) scale(0.7)"/>
      <use xlink:href="#DejaVuSans-Oblique-72" transform="translate(150.976562 -16.3125) scale(0.7)"/>
      <use xlink:href="#DejaVuSans-Oblique-63" transform="translate(179.755859 -16.3125) scale(0.7)"/>
      <use xlink:href="#DejaVuSans-Oblique-6f" transform="translate(218.242188 -16.3125) scale(0.7)"/>
      <use xlink:href="#DejaVuSans-3d" transform="translate(283.286133 0.09375)"/>
      <use xlink:href="#DejaVuSans-31" transform="translate(386.557617 0.09375)"/>
      <use xlink:href="#DejaVuSans-2e" transform="translate(450.180664 0.09375)"/>
      <use xlink:href="#DejaVuSans-34" transform="translate(481.967773 0.09375)"/>
      <use xlink:href="#DejaVuSans-34" transform="translate(545.59082 0.09375)"/>
     </g>
    </g>
    <g id="patch_12">
     <path d="M 41.79841 134.011342 
L 65.79841 134.011342 
L 65.79841 125.611342 
L 41.79841 125.611342 
z
" style="fill: #9467bd; fill-opacity: 0.5; stroke: #9467bd; stroke-width: 1.95; stroke-linejoin: miter"/>
    </g>
    <g id="text_17">
     <!-- $ρ = $1.6 -->
     <g transform="translate(75.39841 134.011342) scale(0.12 -0.12)">
      <defs>
       <path id="DejaVuSans-36" d="M 2113 2584 
Q 1688 2584 1439 2293 
Q 1191 2003 1191 1497 
Q 1191 994 1439 701 
Q 1688 409 2113 409 
Q 2538 409 2786 701 
Q 3034 994 3034 1497 
Q 3034 2003 2786 2293 
Q 2538 2584 2113 2584 
z
M 3366 4563 
L 3366 3988 
Q 3128 4100 2886 4159 
Q 2644 4219 2406 4219 
Q 1781 4219 1451 3797 
Q 1122 3375 1075 2522 
Q 1259 2794 1537 2939 
Q 1816 3084 2150 3084 
Q 2853 3084 3261 2657 
Q 3669 2231 3669 1497 
Q 3669 778 3244 343 
Q 2819 -91 2113 -91 
Q 1303 -91 875 529 
Q 447 1150 447 2328 
Q 447 3434 972 4092 
Q 1497 4750 2381 4750 
Q 2619 4750 2861 4703 
Q 3103 4656 3366 4563 
z
" transform="scale(0.015625)"/>
      </defs>
      <use xlink:href="#DejaVuSans-Oblique-3c1" transform="translate(0 0.78125)"/>
      <use xlink:href="#DejaVuSans-3d" transform="translate(82.958984 0.78125)"/>
      <use xlink:href="#DejaVuSans-31" transform="translate(186.230469 0.78125)"/>
      <use xlink:href="#DejaVuSans-2e" transform="translate(249.853516 0.78125)"/>
      <use xlink:href="#DejaVuSans-36" transform="translate(281.640625 0.78125)"/>
     </g>
    </g>
    <g id="patch_13">
     <path d="M 41.79841 151.649467 
L 65.79841 151.649467 
L 65.79841 143.249467 
L 41.79841 143.249467 
z
" style="fill: #8c564b; fill-opacity: 0.5; stroke: #8c564b; stroke-width: 1.95; stroke-linejoin: miter"/>
    </g>
    <g id="text_18">
     <!-- $ρ = $1.8 -->
     <g transform="translate(75.39841 151.649467) scale(0.12 -0.12)">
      <defs>
       <path id="DejaVuSans-38" d="M 2034 2216 
Q 1584 2216 1326 1975 
Q 1069 1734 1069 1313 
Q 1069 891 1326 650 
Q 1584 409 2034 409 
Q 2484 409 2743 651 
Q 3003 894 3003 1313 
Q 3003 1734 2745 1975 
Q 2488 2216 2034 2216 
z
M 1403 2484 
Q 997 2584 770 2862 
Q 544 3141 544 3541 
Q 544 4100 942 4425 
Q 1341 4750 2034 4750 
Q 2731 4750 3128 4425 
Q 3525 4100 3525 3541 
Q 3525 3141 3298 2862 
Q 3072 2584 2669 2484 
Q 3125 2378 3379 2068 
Q 3634 1759 3634 1313 
Q 3634 634 3220 271 
Q 2806 -91 2034 -91 
Q 1263 -91 848 271 
Q 434 634 434 1313 
Q 434 1759 690 2068 
Q 947 2378 1403 2484 
z
M 1172 3481 
Q 1172 3119 1398 2916 
Q 1625 2713 2034 2713 
Q 2441 2713 2670 2916 
Q 2900 3119 2900 3481 
Q 2900 3844 2670 4047 
Q 2441 4250 2034 4250 
Q 1625 4250 1398 4047 
Q 1172 3844 1172 3481 
z
" transform="scale(0.015625)"/>
      </defs>
      <use xlink:href="#DejaVuSans-Oblique-3c1" transform="translate(0 0.78125)"/>
      <use xlink:href="#DejaVuSans-3d" transform="translate(82.958984 0.78125)"/>
      <use xlink:href="#DejaVuSans-31" transform="translate(186.230469 0.78125)"/>
      <use xlink:href="#DejaVuSans-2e" transform="translate(249.853516 0.78125)"/>
      <use xlink:href="#DejaVuSans-38" transform="translate(279.015625 0.78125)"/>
     </g>
    </g>
    <g id="patch_14">
     <path d="M 41.79841 169.287592 
L 65.79841 169.287592 
L 65.79841 160.887592 
L 41.79841 160.887592 
z
" style="fill: #e377c2; fill-opacity: 0.5; stroke: #e377c2; stroke-width: 1.95; stroke-linejoin: miter"/>
    </g>
    <g id="text_19">
     <!-- $ρ = $2.0 -->
     <g transform="translate(75.39841 169.287592) scale(0.12 -0.12)">
      <use xlink:href="#DejaVuSans-Oblique-3c1" transform="translate(0 0.78125)"/>
      <use xlink:href="#DejaVuSans-3d" transform="translate(82.958984 0.78125)"/>
      <use xlink:href="#DejaVuSans-32" transform="translate(186.230469 0.78125)"/>
      <use xlink:href="#DejaVuSans-2e" transform="translate(249.853516 0.78125)"/>
      <use xlink:href="#DejaVuSans-30" transform="translate(281.640625 0.78125)"/>
     </g>
    </g>
   </g>
  </g>
 </g>
 <defs>
  <clipPath id="p3c8ed81e13">
   <rect x="26.19841" y="11.589846" width="258.966944" height="258.555509"/>
  </clipPath>
 </defs>
</svg>
