<?xml version="1.0" encoding="utf-8" standalone="no"?>
<!DOCTYPE svg PUBLIC "-//W3C//DTD SVG 1.1//EN"
  "http://www.w3.org/Graphics/SVG/1.1/DTD/svg11.dtd">
<svg xmlns:xlink="http://www.w3.org/1999/xlink" width="288pt" height="288pt" viewBox="0 0 288 288" xmlns="http://www.w3.org/2000/svg" version="1.1">
 <metadata>
  <rdf:RDF xmlns:dc="http://purl.org/dc/elements/1.1/" xmlns:cc="http://creativecommons.org/ns#" xmlns:rdf="http://www.w3.org/1999/02/22-rdf-syntax-ns#">
   <cc:Work>
    <dc:type rdf:resource="http://purl.org/dc/dcmitype/StillImage"/>
    <dc:date>2023-10-23T14:50:36.149969</dc:date>
    <dc:format>image/svg+xml</dc:format>
    <dc:creator>
     <cc:Agent>
      <dc:title>Matplotlib v3.7.2, https://matplotlib.org/</dc:title>
     </cc:Agent>
    </dc:creator>
   </cc:Work>
  </rdf:RDF>
 </metadata>
 <defs>
  <style type="text/css">*{stroke-linejoin: round; stroke-linecap: butt}</style>
 </defs>
 <g id="figure_1">
  <g id="patch_1">
   <path d="M 0 288 
L 288 288 
L 288 0 
L 0 0 
z
" style="fill: #ffffff"/>
  </g>
  <g id="axes_1">
   <g id="patch_2">
    <path d="M 26.19841 270.145354 
L 285.165354 270.145354 
L 285.165354 7.557846 
L 26.19841 7.557846 
z
" style="fill: #ffffff"/>
   </g>
   <g id="line2d_1">
    <path d="M 33.527663 262.713632 
L 39.728198 262.713632 
L 44.486035 262.713632 
L 52.030876 262.713632 
L 60.898146 262.713632 
L 70.41382 262.713632 
L 80.278724 262.713632 
L 94.887582 262.713632 
L 112.042209 262.713632 
L 133.540498 262.341674 
L 158.983798 251.182933 
L 191.193951 227.749575 
L 230.257729 205.432092 
L 277.836101 176.419364 
" clip-path="url(#pe0a008efd4)" style="fill: none; stroke: #1f77b4; stroke-width: 1.95"/>
   </g>
   <g id="PolyCollection_1">
    <defs>
     <path id="mf19323b978" d="M 33.527663 -25.286368 
L 33.527663 -25.286368 
L 39.728198 -25.286368 
L 44.486035 -25.286368 
L 52.030876 -25.286368 
L 60.898146 -25.286368 
L 70.41382 -25.286368 
L 80.278724 -25.286368 
L 94.887582 -25.286368 
L 112.042209 -25.286368 
L 133.540498 -25.658326 
L 158.983798 -36.817067 
L 191.193951 -60.250425 
L 230.257729 -82.567908 
L 277.836101 -111.580636 
L 277.836101 -111.580636 
L 277.836101 -111.580636 
L 230.257729 -82.567908 
L 191.193951 -60.250425 
L 158.983798 -36.817067 
L 133.540498 -25.658326 
L 112.042209 -25.286368 
L 94.887582 -25.286368 
L 80.278724 -25.286368 
L 70.41382 -25.286368 
L 60.898146 -25.286368 
L 52.030876 -25.286368 
L 44.486035 -25.286368 
L 39.728198 -25.286368 
L 33.527663 -25.286368 
z
"/>
    </defs>
    <g clip-path="url(#pe0a008efd4)">
     <use xlink:href="#mf19323b978" x="0" y="288" style="fill: #1f77b4; fill-opacity: 0.5"/>
    </g>
   </g>
   <g id="PathCollection_1">
    <defs>
     <path id="m32da50375f" d="M 0 2.25 
C 0.596707 2.25 1.169055 2.012926 1.59099 1.59099 
C 2.012926 1.169055 2.25 0.596707 2.25 0 
C 2.25 -0.596707 2.012926 -1.169055 1.59099 -1.59099 
C 1.169055 -2.012926 0.596707 -2.25 0 -2.25 
C -0.596707 -2.25 -1.169055 -2.012926 -1.59099 -1.59099 
C -2.012926 -1.169055 -2.25 -0.596707 -2.25 0 
C -2.25 0.596707 -2.012926 1.169055 -1.59099 1.59099 
C -1.169055 2.012926 -0.596707 2.25 0 2.25 
z
"/>
    </defs>
    <g clip-path="url(#pe0a008efd4)">
     <use xlink:href="#m32da50375f" x="33.527663" y="262.713632" style="fill: #1f77b4"/>
     <use xlink:href="#m32da50375f" x="39.728198" y="262.713632" style="fill: #1f77b4"/>
     <use xlink:href="#m32da50375f" x="44.486035" y="262.713632" style="fill: #1f77b4"/>
     <use xlink:href="#m32da50375f" x="52.030876" y="262.713632" style="fill: #1f77b4"/>
     <use xlink:href="#m32da50375f" x="60.898146" y="262.713632" style="fill: #1f77b4"/>
     <use xlink:href="#m32da50375f" x="70.41382" y="262.713632" style="fill: #1f77b4"/>
     <use xlink:href="#m32da50375f" x="80.278724" y="262.713632" style="fill: #1f77b4"/>
     <use xlink:href="#m32da50375f" x="94.887582" y="262.713632" style="fill: #1f77b4"/>
     <use xlink:href="#m32da50375f" x="112.042209" y="262.713632" style="fill: #1f77b4"/>
     <use xlink:href="#m32da50375f" x="133.540498" y="262.341674" style="fill: #1f77b4"/>
     <use xlink:href="#m32da50375f" x="158.983798" y="251.182933" style="fill: #1f77b4"/>
     <use xlink:href="#m32da50375f" x="191.193951" y="227.749575" style="fill: #1f77b4"/>
     <use xlink:href="#m32da50375f" x="230.257729" y="205.432092" style="fill: #1f77b4"/>
     <use xlink:href="#m32da50375f" x="277.836101" y="176.419364" style="fill: #1f77b4"/>
    </g>
   </g>
   <g id="matplotlib.axis_1">
    <g id="xtick_1">
     <g id="line2d_2">
      <defs>
       <path id="m247f77285d" d="M 0 0 
L 0 -3.75 
" style="stroke: #000000; stroke-width: 0.75"/>
      </defs>
      <g>
       <use xlink:href="#m247f77285d" x="65.895692" y="270.145354" style="stroke: #000000; stroke-width: 0.75"/>
      </g>
     </g>
     <g id="text_1">
      <!-- $0.1$ -->
      <g transform="translate(56.295692 282.763479) scale(0.12 -0.12)">
       <defs>
        <path id="DejaVuSans-30" d="M 2034 4250 
Q 1547 4250 1301 3770 
Q 1056 3291 1056 2328 
Q 1056 1369 1301 889 
Q 1547 409 2034 409 
Q 2525 409 2770 889 
Q 3016 1369 3016 2328 
Q 3016 3291 2770 3770 
Q 2525 4250 2034 4250 
z
M 2034 4750 
Q 2819 4750 3233 4129 
Q 3647 3509 3647 2328 
Q 3647 1150 3233 529 
Q 2819 -91 2034 -91 
Q 1250 -91 836 529 
Q 422 1150 422 2328 
Q 422 3509 836 4129 
Q 1250 4750 2034 4750 
z
" transform="scale(0.015625)"/>
        <path id="DejaVuSans-2e" d="M 684 794 
L 1344 794 
L 1344 0 
L 684 0 
L 684 794 
z
" transform="scale(0.015625)"/>
        <path id="DejaVuSans-31" d="M 794 531 
L 1825 531 
L 1825 4091 
L 703 3866 
L 703 4441 
L 1819 4666 
L 2450 4666 
L 2450 531 
L 3481 531 
L 3481 0 
L 794 0 
L 794 531 
z
" transform="scale(0.015625)"/>
       </defs>
       <use xlink:href="#DejaVuSans-30" transform="translate(0 0.78125)"/>
       <use xlink:href="#DejaVuSans-2e" transform="translate(63.623047 0.78125)"/>
       <use xlink:href="#DejaVuSans-31" transform="translate(95.410156 0.78125)"/>
      </g>
     </g>
    </g>
    <g id="xtick_2">
     <g id="line2d_3">
      <g>
       <use xlink:href="#m247f77285d" x="113.233135" y="270.145354" style="stroke: #000000; stroke-width: 0.75"/>
      </g>
     </g>
     <g id="text_2">
      <!-- $0.2$ -->
      <g transform="translate(103.993135 282.763479) scale(0.12 -0.12)">
       <defs>
        <path id="DejaVuSans-32" d="M 1228 531 
L 3431 531 
L 3431 0 
L 469 0 
L 469 531 
Q 828 903 1448 1529 
Q 2069 2156 2228 2338 
Q 2531 2678 2651 2914 
Q 2772 3150 2772 3378 
Q 2772 3750 2511 3984 
Q 2250 4219 1831 4219 
Q 1534 4219 1204 4116 
Q 875 4013 500 3803 
L 500 4441 
Q 881 4594 1212 4672 
Q 1544 4750 1819 4750 
Q 2544 4750 2975 4387 
Q 3406 4025 3406 3419 
Q 3406 3131 3298 2873 
Q 3191 2616 2906 2266 
Q 2828 2175 2409 1742 
Q 1991 1309 1228 531 
z
" transform="scale(0.015625)"/>
       </defs>
       <use xlink:href="#DejaVuSans-30" transform="translate(0 0.78125)"/>
       <use xlink:href="#DejaVuSans-2e" transform="translate(63.623047 0.78125)"/>
       <use xlink:href="#DejaVuSans-32" transform="translate(89.910156 0.78125)"/>
      </g>
     </g>
    </g>
    <g id="xtick_3">
     <g id="line2d_4">
      <g>
       <use xlink:href="#m247f77285d" x="160.570578" y="270.145354" style="stroke: #000000; stroke-width: 0.75"/>
      </g>
     </g>
     <g id="text_3">
      <!-- $0.3$ -->
      <g transform="translate(150.970578 282.763479) scale(0.12 -0.12)">
       <defs>
        <path id="DejaVuSans-33" d="M 2597 2516 
Q 3050 2419 3304 2112 
Q 3559 1806 3559 1356 
Q 3559 666 3084 287 
Q 2609 -91 1734 -91 
Q 1441 -91 1130 -33 
Q 819 25 488 141 
L 488 750 
Q 750 597 1062 519 
Q 1375 441 1716 441 
Q 2309 441 2620 675 
Q 2931 909 2931 1356 
Q 2931 1769 2642 2001 
Q 2353 2234 1838 2234 
L 1294 2234 
L 1294 2753 
L 1863 2753 
Q 2328 2753 2575 2939 
Q 2822 3125 2822 3475 
Q 2822 3834 2567 4026 
Q 2313 4219 1838 4219 
Q 1578 4219 1281 4162 
Q 984 4106 628 3988 
L 628 4550 
Q 988 4650 1302 4700 
Q 1616 4750 1894 4750 
Q 2613 4750 3031 4423 
Q 3450 4097 3450 3541 
Q 3450 3153 3228 2886 
Q 3006 2619 2597 2516 
z
" transform="scale(0.015625)"/>
       </defs>
       <use xlink:href="#DejaVuSans-30" transform="translate(0 0.78125)"/>
       <use xlink:href="#DejaVuSans-2e" transform="translate(63.623047 0.78125)"/>
       <use xlink:href="#DejaVuSans-33" transform="translate(95.410156 0.78125)"/>
      </g>
     </g>
    </g>
    <g id="xtick_4">
     <g id="line2d_5">
      <g>
       <use xlink:href="#m247f77285d" x="207.90802" y="270.145354" style="stroke: #000000; stroke-width: 0.75"/>
      </g>
     </g>
     <g id="text_4">
      <!-- $0.4$ -->
      <g transform="translate(198.30802 282.763479) scale(0.12 -0.12)">
       <defs>
        <path id="DejaVuSans-34" d="M 2419 4116 
L 825 1625 
L 2419 1625 
L 2419 4116 
z
M 2253 4666 
L 3047 4666 
L 3047 1625 
L 3713 1625 
L 3713 1100 
L 3047 1100 
L 3047 0 
L 2419 0 
L 2419 1100 
L 313 1100 
L 313 1709 
L 2253 4666 
z
" transform="scale(0.015625)"/>
       </defs>
       <use xlink:href="#DejaVuSans-30" transform="translate(0 0.78125)"/>
       <use xlink:href="#DejaVuSans-2e" transform="translate(63.623047 0.78125)"/>
       <use xlink:href="#DejaVuSans-34" transform="translate(95.410156 0.78125)"/>
      </g>
     </g>
    </g>
    <g id="xtick_5">
     <g id="line2d_6">
      <g>
       <use xlink:href="#m247f77285d" x="255.245463" y="270.145354" style="stroke: #000000; stroke-width: 0.75"/>
      </g>
     </g>
     <g id="text_5">
      <!-- $0.5$ -->
      <g transform="translate(245.645463 282.763479) scale(0.12 -0.12)">
       <defs>
        <path id="DejaVuSans-35" d="M 691 4666 
L 3169 4666 
L 3169 4134 
L 1269 4134 
L 1269 2991 
Q 1406 3038 1543 3061 
Q 1681 3084 1819 3084 
Q 2600 3084 3056 2656 
Q 3513 2228 3513 1497 
Q 3513 744 3044 326 
Q 2575 -91 1722 -91 
Q 1428 -91 1123 -41 
Q 819 9 494 109 
L 494 744 
Q 775 591 1075 516 
Q 1375 441 1709 441 
Q 2250 441 2565 725 
Q 2881 1009 2881 1497 
Q 2881 1984 2565 2268 
Q 2250 2553 1709 2553 
Q 1456 2553 1204 2497 
Q 953 2441 691 2322 
L 691 4666 
z
" transform="scale(0.015625)"/>
       </defs>
       <use xlink:href="#DejaVuSans-30" transform="translate(0 0.78125)"/>
       <use xlink:href="#DejaVuSans-2e" transform="translate(63.623047 0.78125)"/>
       <use xlink:href="#DejaVuSans-35" transform="translate(95.410156 0.78125)"/>
      </g>
     </g>
    </g>
   </g>
   <g id="matplotlib.axis_2">
    <g id="ytick_1">
     <g id="line2d_7">
      <defs>
       <path id="m9b2ce284ca" d="M 0 0 
L 3.75 0 
" style="stroke: #000000; stroke-width: 0.75"/>
      </defs>
      <g>
       <use xlink:href="#m9b2ce284ca" x="26.19841" y="262.713632" style="stroke: #000000; stroke-width: 0.75"/>
      </g>
     </g>
     <g id="text_6">
      <!-- $0.0$ -->
      <g transform="translate(3.49841 267.272695) scale(0.12 -0.12)">
       <use xlink:href="#DejaVuSans-30" transform="translate(0 0.78125)"/>
       <use xlink:href="#DejaVuSans-2e" transform="translate(63.623047 0.78125)"/>
       <use xlink:href="#DejaVuSans-30" transform="translate(95.410156 0.78125)"/>
      </g>
     </g>
    </g>
    <g id="ytick_2">
     <g id="line2d_8">
      <g>
       <use xlink:href="#m9b2ce284ca" x="26.19841" y="203.200344" style="stroke: #000000; stroke-width: 0.75"/>
      </g>
     </g>
     <g id="text_7">
      <!-- $0.1$ -->
      <g transform="translate(3.49841 207.759406) scale(0.12 -0.12)">
       <use xlink:href="#DejaVuSans-30" transform="translate(0 0.78125)"/>
       <use xlink:href="#DejaVuSans-2e" transform="translate(63.623047 0.78125)"/>
       <use xlink:href="#DejaVuSans-31" transform="translate(95.410156 0.78125)"/>
      </g>
     </g>
    </g>
    <g id="ytick_3">
     <g id="line2d_9">
      <g>
       <use xlink:href="#m9b2ce284ca" x="26.19841" y="143.687055" style="stroke: #000000; stroke-width: 0.75"/>
      </g>
     </g>
     <g id="text_8">
      <!-- $0.2$ -->
      <g transform="translate(4.21841 148.246117) scale(0.12 -0.12)">
       <use xlink:href="#DejaVuSans-30" transform="translate(0 0.78125)"/>
       <use xlink:href="#DejaVuSans-2e" transform="translate(63.623047 0.78125)"/>
       <use xlink:href="#DejaVuSans-32" transform="translate(89.910156 0.78125)"/>
      </g>
     </g>
    </g>
    <g id="ytick_4">
     <g id="line2d_10">
      <g>
       <use xlink:href="#m9b2ce284ca" x="26.19841" y="84.173766" style="stroke: #000000; stroke-width: 0.75"/>
      </g>
     </g>
     <g id="text_9">
      <!-- $0.3$ -->
      <g transform="translate(3.49841 88.732828) scale(0.12 -0.12)">
       <use xlink:href="#DejaVuSans-30" transform="translate(0 0.78125)"/>
       <use xlink:href="#DejaVuSans-2e" transform="translate(63.623047 0.78125)"/>
       <use xlink:href="#DejaVuSans-33" transform="translate(95.410156 0.78125)"/>
      </g>
     </g>
    </g>
    <g id="ytick_5">
     <g id="line2d_11">
      <g>
       <use xlink:href="#m9b2ce284ca" x="26.19841" y="24.660477" style="stroke: #000000; stroke-width: 0.75"/>
      </g>
     </g>
     <g id="text_10">
      <!-- $0.4$ -->
      <g transform="translate(3.49841 29.21954) scale(0.12 -0.12)">
       <use xlink:href="#DejaVuSans-30" transform="translate(0 0.78125)"/>
       <use xlink:href="#DejaVuSans-2e" transform="translate(63.623047 0.78125)"/>
       <use xlink:href="#DejaVuSans-34" transform="translate(95.410156 0.78125)"/>
      </g>
     </g>
    </g>
   </g>
   <g id="line2d_12">
    <path d="M 33.527663 262.713632 
L 39.728198 262.713632 
L 44.486035 262.713632 
L 52.030876 262.713632 
L 60.898146 262.713632 
L 70.41382 262.713632 
L 80.278724 262.713632 
L 94.887582 262.713632 
L 112.042209 259.36601 
L 133.540498 247.463352 
L 158.983798 229.981324 
L 191.193951 212.871253 
L 230.257729 188.322021 
L 277.836101 156.333629 
" clip-path="url(#pe0a008efd4)" style="fill: none; stroke: #ff7f0e; stroke-width: 1.95"/>
   </g>
   <g id="PolyCollection_2">
    <defs>
     <path id="mc6055a1d1b" d="M 33.527663 -25.286368 
L 33.527663 -25.286368 
L 39.728198 -25.286368 
L 44.486035 -25.286368 
L 52.030876 -25.286368 
L 60.898146 -25.286368 
L 70.41382 -25.286368 
L 80.278724 -25.286368 
L 94.887582 -25.286368 
L 112.042209 -28.63399 
L 133.540498 -40.536648 
L 158.983798 -58.018676 
L 191.193951 -75.128747 
L 230.257729 -99.677979 
L 277.836101 -131.666371 
L 277.836101 -131.666371 
L 277.836101 -131.666371 
L 230.257729 -99.677979 
L 191.193951 -75.128747 
L 158.983798 -58.018676 
L 133.540498 -40.536648 
L 112.042209 -28.63399 
L 94.887582 -25.286368 
L 80.278724 -25.286368 
L 70.41382 -25.286368 
L 60.898146 -25.286368 
L 52.030876 -25.286368 
L 44.486035 -25.286368 
L 39.728198 -25.286368 
L 33.527663 -25.286368 
z
"/>
    </defs>
    <g clip-path="url(#pe0a008efd4)">
     <use xlink:href="#mc6055a1d1b" x="0" y="288" style="fill: #ff7f0e; fill-opacity: 0.5"/>
    </g>
   </g>
   <g id="PathCollection_2">
    <defs>
     <path id="m4b08abc602" d="M 0 2.25 
C 0.596707 2.25 1.169055 2.012926 1.59099 1.59099 
C 2.012926 1.169055 2.25 0.596707 2.25 0 
C 2.25 -0.596707 2.012926 -1.169055 1.59099 -1.59099 
C 1.169055 -2.012926 0.596707 -2.25 0 -2.25 
C -0.596707 -2.25 -1.169055 -2.012926 -1.59099 -1.59099 
C -2.012926 -1.169055 -2.25 -0.596707 -2.25 0 
C -2.25 0.596707 -2.012926 1.169055 -1.59099 1.59099 
C -1.169055 2.012926 -0.596707 2.25 0 2.25 
z
"/>
    </defs>
    <g clip-path="url(#pe0a008efd4)">
     <use xlink:href="#m4b08abc602" x="33.527663" y="262.713632" style="fill: #ff7f0e"/>
     <use xlink:href="#m4b08abc602" x="39.728198" y="262.713632" style="fill: #ff7f0e"/>
     <use xlink:href="#m4b08abc602" x="44.486035" y="262.713632" style="fill: #ff7f0e"/>
     <use xlink:href="#m4b08abc602" x="52.030876" y="262.713632" style="fill: #ff7f0e"/>
     <use xlink:href="#m4b08abc602" x="60.898146" y="262.713632" style="fill: #ff7f0e"/>
     <use xlink:href="#m4b08abc602" x="70.41382" y="262.713632" style="fill: #ff7f0e"/>
     <use xlink:href="#m4b08abc602" x="80.278724" y="262.713632" style="fill: #ff7f0e"/>
     <use xlink:href="#m4b08abc602" x="94.887582" y="262.713632" style="fill: #ff7f0e"/>
     <use xlink:href="#m4b08abc602" x="112.042209" y="259.36601" style="fill: #ff7f0e"/>
     <use xlink:href="#m4b08abc602" x="133.540498" y="247.463352" style="fill: #ff7f0e"/>
     <use xlink:href="#m4b08abc602" x="158.983798" y="229.981324" style="fill: #ff7f0e"/>
     <use xlink:href="#m4b08abc602" x="191.193951" y="212.871253" style="fill: #ff7f0e"/>
     <use xlink:href="#m4b08abc602" x="230.257729" y="188.322021" style="fill: #ff7f0e"/>
     <use xlink:href="#m4b08abc602" x="277.836101" y="156.333629" style="fill: #ff7f0e"/>
    </g>
   </g>
   <g id="patch_3">
    <path d="M 26.19841 270.145354 
L 26.19841 7.557846 
" style="fill: none; stroke: #000000; stroke-width: 1.5; stroke-linejoin: miter; stroke-linecap: square"/>
   </g>
   <g id="patch_4">
    <path d="M 285.165354 270.145354 
L 285.165354 7.557846 
" style="fill: none; stroke: #000000; stroke-width: 1.5; stroke-linejoin: miter; stroke-linecap: square"/>
   </g>
   <g id="patch_5">
    <path d="M 26.19841 270.145354 
L 285.165354 270.145354 
" style="fill: none; stroke: #000000; stroke-width: 1.5; stroke-linejoin: miter; stroke-linecap: square"/>
   </g>
   <g id="patch_6">
    <path d="M 26.19841 7.557846 
L 285.165354 7.557846 
" style="fill: none; stroke: #000000; stroke-width: 1.5; stroke-linejoin: miter; stroke-linecap: square"/>
   </g>
   <g id="line2d_13">
    <path d="M 33.527663 262.713632 
L 39.728198 262.713632 
L 44.486035 262.713632 
L 52.030876 262.713632 
L 60.898146 262.713632 
L 70.41382 262.713632 
L 80.278724 262.341674 
L 94.887582 256.762304 
L 112.042209 250.810975 
L 133.540498 233.700904 
L 158.983798 221.426288 
L 191.193951 202.828385 
L 230.257729 179.02307 
L 277.836101 146.662719 
" clip-path="url(#pe0a008efd4)" style="fill: none; stroke: #2ca02c; stroke-width: 1.95"/>
   </g>
   <g id="PolyCollection_3">
    <defs>
     <path id="ma5019e50d7" d="M 33.527663 -25.286368 
L 33.527663 -25.286368 
L 39.728198 -25.286368 
L 44.486035 -25.286368 
L 52.030876 -25.286368 
L 60.898146 -25.286368 
L 70.41382 -25.286368 
L 80.278724 -25.658326 
L 94.887582 -31.237696 
L 112.042209 -37.189025 
L 133.540498 -54.299096 
L 158.983798 -66.573712 
L 191.193951 -85.171615 
L 230.257729 -108.97693 
L 277.836101 -141.337281 
L 277.836101 -141.337281 
L 277.836101 -141.337281 
L 230.257729 -108.97693 
L 191.193951 -85.171615 
L 158.983798 -66.573712 
L 133.540498 -54.299096 
L 112.042209 -37.189025 
L 94.887582 -31.237696 
L 80.278724 -25.658326 
L 70.41382 -25.286368 
L 60.898146 -25.286368 
L 52.030876 -25.286368 
L 44.486035 -25.286368 
L 39.728198 -25.286368 
L 33.527663 -25.286368 
z
"/>
    </defs>
    <g clip-path="url(#pe0a008efd4)">
     <use xlink:href="#ma5019e50d7" x="0" y="288" style="fill: #2ca02c; fill-opacity: 0.5"/>
    </g>
   </g>
   <g id="PathCollection_3">
    <defs>
     <path id="m123c32645c" d="M 0 2.25 
C 0.596707 2.25 1.169055 2.012926 1.59099 1.59099 
C 2.012926 1.169055 2.25 0.596707 2.25 0 
C 2.25 -0.596707 2.012926 -1.169055 1.59099 -1.59099 
C 1.169055 -2.012926 0.596707 -2.25 0 -2.25 
C -0.596707 -2.25 -1.169055 -2.012926 -1.59099 -1.59099 
C -2.012926 -1.169055 -2.25 -0.596707 -2.25 0 
C -2.25 0.596707 -2.012926 1.169055 -1.59099 1.59099 
C -1.169055 2.012926 -0.596707 2.25 0 2.25 
z
"/>
    </defs>
    <g clip-path="url(#pe0a008efd4)">
     <use xlink:href="#m123c32645c" x="33.527663" y="262.713632" style="fill: #2ca02c"/>
     <use xlink:href="#m123c32645c" x="39.728198" y="262.713632" style="fill: #2ca02c"/>
     <use xlink:href="#m123c32645c" x="44.486035" y="262.713632" style="fill: #2ca02c"/>
     <use xlink:href="#m123c32645c" x="52.030876" y="262.713632" style="fill: #2ca02c"/>
     <use xlink:href="#m123c32645c" x="60.898146" y="262.713632" style="fill: #2ca02c"/>
     <use xlink:href="#m123c32645c" x="70.41382" y="262.713632" style="fill: #2ca02c"/>
     <use xlink:href="#m123c32645c" x="80.278724" y="262.341674" style="fill: #2ca02c"/>
     <use xlink:href="#m123c32645c" x="94.887582" y="256.762304" style="fill: #2ca02c"/>
     <use xlink:href="#m123c32645c" x="112.042209" y="250.810975" style="fill: #2ca02c"/>
     <use xlink:href="#m123c32645c" x="133.540498" y="233.700904" style="fill: #2ca02c"/>
     <use xlink:href="#m123c32645c" x="158.983798" y="221.426288" style="fill: #2ca02c"/>
     <use xlink:href="#m123c32645c" x="191.193951" y="202.828385" style="fill: #2ca02c"/>
     <use xlink:href="#m123c32645c" x="230.257729" y="179.02307" style="fill: #2ca02c"/>
     <use xlink:href="#m123c32645c" x="277.836101" y="146.662719" style="fill: #2ca02c"/>
    </g>
   </g>
   <g id="line2d_14">
    <path d="M 33.527663 259.36601 
L 39.728198 256.762304 
L 44.486035 256.762304 
L 52.030876 250.810975 
L 60.898146 248.579226 
L 70.41382 244.11573 
L 80.278724 237.048527 
L 94.887582 230.72524 
L 112.042209 222.170204 
L 133.540498 210.267547 
L 158.983798 195.017266 
L 191.193951 174.187615 
L 230.257729 148.894467 
L 277.836101 105.003417 
" clip-path="url(#pe0a008efd4)" style="fill: none; stroke: #d62728; stroke-width: 1.95"/>
   </g>
   <g id="PolyCollection_4">
    <defs>
     <path id="m927087b687" d="M 33.527663 -28.63399 
L 33.527663 -28.63399 
L 39.728198 -31.237696 
L 44.486035 -31.237696 
L 52.030876 -37.189025 
L 60.898146 -39.420774 
L 70.41382 -43.88427 
L 80.278724 -50.951473 
L 94.887582 -57.27476 
L 112.042209 -65.829796 
L 133.540498 -77.732453 
L 158.983798 -92.982734 
L 191.193951 -113.812385 
L 230.257729 -139.105533 
L 277.836101 -182.996583 
L 277.836101 -182.996583 
L 277.836101 -182.996583 
L 230.257729 -139.105533 
L 191.193951 -113.812385 
L 158.983798 -92.982734 
L 133.540498 -77.732453 
L 112.042209 -65.829796 
L 94.887582 -57.27476 
L 80.278724 -50.951473 
L 70.41382 -43.88427 
L 60.898146 -39.420774 
L 52.030876 -37.189025 
L 44.486035 -31.237696 
L 39.728198 -31.237696 
L 33.527663 -28.63399 
z
"/>
    </defs>
    <g clip-path="url(#pe0a008efd4)">
     <use xlink:href="#m927087b687" x="0" y="288" style="fill: #d62728; fill-opacity: 0.5"/>
    </g>
   </g>
   <g id="PathCollection_4">
    <defs>
     <path id="macfe5647c7" d="M 0 2.25 
C 0.596707 2.25 1.169055 2.012926 1.59099 1.59099 
C 2.012926 1.169055 2.25 0.596707 2.25 0 
C 2.25 -0.596707 2.012926 -1.169055 1.59099 -1.59099 
C 1.169055 -2.012926 0.596707 -2.25 0 -2.25 
C -0.596707 -2.25 -1.169055 -2.012926 -1.59099 -1.59099 
C -2.012926 -1.169055 -2.25 -0.596707 -2.25 0 
C -2.25 0.596707 -2.012926 1.169055 -1.59099 1.59099 
C -1.169055 2.012926 -0.596707 2.25 0 2.25 
z
"/>
    </defs>
    <g clip-path="url(#pe0a008efd4)">
     <use xlink:href="#macfe5647c7" x="33.527663" y="259.36601" style="fill: #d62728"/>
     <use xlink:href="#macfe5647c7" x="39.728198" y="256.762304" style="fill: #d62728"/>
     <use xlink:href="#macfe5647c7" x="44.486035" y="256.762304" style="fill: #d62728"/>
     <use xlink:href="#macfe5647c7" x="52.030876" y="250.810975" style="fill: #d62728"/>
     <use xlink:href="#macfe5647c7" x="60.898146" y="248.579226" style="fill: #d62728"/>
     <use xlink:href="#macfe5647c7" x="70.41382" y="244.11573" style="fill: #d62728"/>
     <use xlink:href="#macfe5647c7" x="80.278724" y="237.048527" style="fill: #d62728"/>
     <use xlink:href="#macfe5647c7" x="94.887582" y="230.72524" style="fill: #d62728"/>
     <use xlink:href="#macfe5647c7" x="112.042209" y="222.170204" style="fill: #d62728"/>
     <use xlink:href="#macfe5647c7" x="133.540498" y="210.267547" style="fill: #d62728"/>
     <use xlink:href="#macfe5647c7" x="158.983798" y="195.017266" style="fill: #d62728"/>
     <use xlink:href="#macfe5647c7" x="191.193951" y="174.187615" style="fill: #d62728"/>
     <use xlink:href="#macfe5647c7" x="230.257729" y="148.894467" style="fill: #d62728"/>
     <use xlink:href="#macfe5647c7" x="277.836101" y="105.003417" style="fill: #d62728"/>
    </g>
   </g>
   <g id="line2d_15">
    <path d="M 33.527663 248.207268 
L 39.728198 248.579226 
L 44.486035 241.883981 
L 52.030876 242.627897 
L 60.898146 238.908317 
L 70.41382 237.792443 
L 80.278724 231.841114 
L 94.887582 224.401953 
L 112.042209 211.011463 
L 133.540498 201.340553 
L 158.983798 185.346357 
L 191.193951 158.565377 
L 230.257729 129.180691 
L 277.836101 86.033556 
" clip-path="url(#pe0a008efd4)" style="fill: none; stroke: #9467bd; stroke-width: 1.95"/>
   </g>
   <g id="PolyCollection_5">
    <defs>
     <path id="m3a80fcadc6" d="M 33.527663 -39.792732 
L 33.527663 -39.792732 
L 39.728198 -39.420774 
L 44.486035 -46.116019 
L 52.030876 -45.372103 
L 60.898146 -49.091683 
L 70.41382 -50.207557 
L 80.278724 -56.158886 
L 94.887582 -63.598047 
L 112.042209 -76.988537 
L 133.540498 -86.659447 
L 158.983798 -102.653643 
L 191.193951 -129.434623 
L 230.257729 -158.819309 
L 277.836101 -201.966444 
L 277.836101 -201.966444 
L 277.836101 -201.966444 
L 230.257729 -158.819309 
L 191.193951 -129.434623 
L 158.983798 -102.653643 
L 133.540498 -86.659447 
L 112.042209 -76.988537 
L 94.887582 -63.598047 
L 80.278724 -56.158886 
L 70.41382 -50.207557 
L 60.898146 -49.091683 
L 52.030876 -45.372103 
L 44.486035 -46.116019 
L 39.728198 -39.420774 
L 33.527663 -39.792732 
z
"/>
    </defs>
    <g clip-path="url(#pe0a008efd4)">
     <use xlink:href="#m3a80fcadc6" x="0" y="288" style="fill: #9467bd; fill-opacity: 0.5"/>
    </g>
   </g>
   <g id="PathCollection_5">
    <defs>
     <path id="m34a1ca2ea5" d="M 0 2.25 
C 0.596707 2.25 1.169055 2.012926 1.59099 1.59099 
C 2.012926 1.169055 2.25 0.596707 2.25 0 
C 2.25 -0.596707 2.012926 -1.169055 1.59099 -1.59099 
C 1.169055 -2.012926 0.596707 -2.25 0 -2.25 
C -0.596707 -2.25 -1.169055 -2.012926 -1.59099 -1.59099 
C -2.012926 -1.169055 -2.25 -0.596707 -2.25 0 
C -2.25 0.596707 -2.012926 1.169055 -1.59099 1.59099 
C -1.169055 2.012926 -0.596707 2.25 0 2.25 
z
"/>
    </defs>
    <g clip-path="url(#pe0a008efd4)">
     <use xlink:href="#m34a1ca2ea5" x="33.527663" y="248.207268" style="fill: #9467bd"/>
     <use xlink:href="#m34a1ca2ea5" x="39.728198" y="248.579226" style="fill: #9467bd"/>
     <use xlink:href="#m34a1ca2ea5" x="44.486035" y="241.883981" style="fill: #9467bd"/>
     <use xlink:href="#m34a1ca2ea5" x="52.030876" y="242.627897" style="fill: #9467bd"/>
     <use xlink:href="#m34a1ca2ea5" x="60.898146" y="238.908317" style="fill: #9467bd"/>
     <use xlink:href="#m34a1ca2ea5" x="70.41382" y="237.792443" style="fill: #9467bd"/>
     <use xlink:href="#m34a1ca2ea5" x="80.278724" y="231.841114" style="fill: #9467bd"/>
     <use xlink:href="#m34a1ca2ea5" x="94.887582" y="224.401953" style="fill: #9467bd"/>
     <use xlink:href="#m34a1ca2ea5" x="112.042209" y="211.011463" style="fill: #9467bd"/>
     <use xlink:href="#m34a1ca2ea5" x="133.540498" y="201.340553" style="fill: #9467bd"/>
     <use xlink:href="#m34a1ca2ea5" x="158.983798" y="185.346357" style="fill: #9467bd"/>
     <use xlink:href="#m34a1ca2ea5" x="191.193951" y="158.565377" style="fill: #9467bd"/>
     <use xlink:href="#m34a1ca2ea5" x="230.257729" y="129.180691" style="fill: #9467bd"/>
     <use xlink:href="#m34a1ca2ea5" x="277.836101" y="86.033556" style="fill: #9467bd"/>
    </g>
   </g>
   <g id="line2d_16">
    <path d="M 33.527663 240.024191 
L 39.728198 237.792443 
L 44.486035 237.420485 
L 52.030876 232.956988 
L 60.898146 231.469156 
L 70.41382 227.377617 
L 80.278724 224.401953 
L 94.887582 213.243211 
L 112.042209 203.572302 
L 133.540498 190.925728 
L 158.983798 171.211951 
L 191.193951 145.546845 
L 230.257729 113.93041 
L 277.836101 63.716073 
" clip-path="url(#pe0a008efd4)" style="fill: none; stroke: #8c564b; stroke-width: 1.95"/>
   </g>
   <g id="PolyCollection_6">
    <defs>
     <path id="mc98a08164c" d="M 33.527663 -47.975809 
L 33.527663 -47.975809 
L 39.728198 -50.207557 
L 44.486035 -50.579515 
L 52.030876 -55.043012 
L 60.898146 -56.530844 
L 70.41382 -60.622383 
L 80.278724 -63.598047 
L 94.887582 -74.756789 
L 112.042209 -84.427698 
L 133.540498 -97.074272 
L 158.983798 -116.788049 
L 191.193951 -142.453155 
L 230.257729 -174.06959 
L 277.836101 -224.283927 
L 277.836101 -224.283927 
L 277.836101 -224.283927 
L 230.257729 -174.06959 
L 191.193951 -142.453155 
L 158.983798 -116.788049 
L 133.540498 -97.074272 
L 112.042209 -84.427698 
L 94.887582 -74.756789 
L 80.278724 -63.598047 
L 70.41382 -60.622383 
L 60.898146 -56.530844 
L 52.030876 -55.043012 
L 44.486035 -50.579515 
L 39.728198 -50.207557 
L 33.527663 -47.975809 
z
"/>
    </defs>
    <g clip-path="url(#pe0a008efd4)">
     <use xlink:href="#mc98a08164c" x="0" y="288" style="fill: #8c564b; fill-opacity: 0.5"/>
    </g>
   </g>
   <g id="PathCollection_6">
    <defs>
     <path id="m7d53d8daa4" d="M 0 2.25 
C 0.596707 2.25 1.169055 2.012926 1.59099 1.59099 
C 2.012926 1.169055 2.25 0.596707 2.25 0 
C 2.25 -0.596707 2.012926 -1.169055 1.59099 -1.59099 
C 1.169055 -2.012926 0.596707 -2.25 0 -2.25 
C -0.596707 -2.25 -1.169055 -2.012926 -1.59099 -1.59099 
C -2.012926 -1.169055 -2.25 -0.596707 -2.25 0 
C -2.25 0.596707 -2.012926 1.169055 -1.59099 1.59099 
C -1.169055 2.012926 -0.596707 2.25 0 2.25 
z
"/>
    </defs>
    <g clip-path="url(#pe0a008efd4)">
     <use xlink:href="#m7d53d8daa4" x="33.527663" y="240.024191" style="fill: #8c564b"/>
     <use xlink:href="#m7d53d8daa4" x="39.728198" y="237.792443" style="fill: #8c564b"/>
     <use xlink:href="#m7d53d8daa4" x="44.486035" y="237.420485" style="fill: #8c564b"/>
     <use xlink:href="#m7d53d8daa4" x="52.030876" y="232.956988" style="fill: #8c564b"/>
     <use xlink:href="#m7d53d8daa4" x="60.898146" y="231.469156" style="fill: #8c564b"/>
     <use xlink:href="#m7d53d8daa4" x="70.41382" y="227.377617" style="fill: #8c564b"/>
     <use xlink:href="#m7d53d8daa4" x="80.278724" y="224.401953" style="fill: #8c564b"/>
     <use xlink:href="#m7d53d8daa4" x="94.887582" y="213.243211" style="fill: #8c564b"/>
     <use xlink:href="#m7d53d8daa4" x="112.042209" y="203.572302" style="fill: #8c564b"/>
     <use xlink:href="#m7d53d8daa4" x="133.540498" y="190.925728" style="fill: #8c564b"/>
     <use xlink:href="#m7d53d8daa4" x="158.983798" y="171.211951" style="fill: #8c564b"/>
     <use xlink:href="#m7d53d8daa4" x="191.193951" y="145.546845" style="fill: #8c564b"/>
     <use xlink:href="#m7d53d8daa4" x="230.257729" y="113.93041" style="fill: #8c564b"/>
     <use xlink:href="#m7d53d8daa4" x="277.836101" y="63.716073" style="fill: #8c564b"/>
    </g>
   </g>
   <g id="line2d_17">
    <path d="M 33.527663 212.871253 
L 39.728198 213.615169 
L 44.486035 211.011463 
L 52.030876 211.011463 
L 60.898146 210.267547 
L 70.41382 205.432092 
L 80.278724 197.992931 
L 94.887582 187.578105 
L 112.042209 177.907196 
L 133.540498 161.912999 
L 158.983798 137.735726 
L 191.193951 108.722998 
L 230.257729 70.03936 
L 277.836101 14.989568 
" clip-path="url(#pe0a008efd4)" style="fill: none; stroke: #e377c2; stroke-width: 1.95"/>
   </g>
   <g id="PolyCollection_7">
    <defs>
     <path id="m8f6a43be84" d="M 33.527663 -75.128747 
L 33.527663 -75.128747 
L 39.728198 -74.384831 
L 44.486035 -76.988537 
L 52.030876 -76.988537 
L 60.898146 -77.732453 
L 70.41382 -82.567908 
L 80.278724 -90.007069 
L 94.887582 -100.421895 
L 112.042209 -110.092804 
L 133.540498 -126.087001 
L 158.983798 -150.264274 
L 191.193951 -179.277002 
L 230.257729 -217.96064 
L 277.836101 -273.010432 
L 277.836101 -273.010432 
L 277.836101 -273.010432 
L 230.257729 -217.96064 
L 191.193951 -179.277002 
L 158.983798 -150.264274 
L 133.540498 -126.087001 
L 112.042209 -110.092804 
L 94.887582 -100.421895 
L 80.278724 -90.007069 
L 70.41382 -82.567908 
L 60.898146 -77.732453 
L 52.030876 -76.988537 
L 44.486035 -76.988537 
L 39.728198 -74.384831 
L 33.527663 -75.128747 
z
"/>
    </defs>
    <g clip-path="url(#pe0a008efd4)">
     <use xlink:href="#m8f6a43be84" x="0" y="288" style="fill: #e377c2; fill-opacity: 0.5"/>
    </g>
   </g>
   <g id="PathCollection_7">
    <defs>
     <path id="m62afe34c0f" d="M 0 2.25 
C 0.596707 2.25 1.169055 2.012926 1.59099 1.59099 
C 2.012926 1.169055 2.25 0.596707 2.25 0 
C 2.25 -0.596707 2.012926 -1.169055 1.59099 -1.59099 
C 1.169055 -2.012926 0.596707 -2.25 0 -2.25 
C -0.596707 -2.25 -1.169055 -2.012926 -1.59099 -1.59099 
C -2.012926 -1.169055 -2.25 -0.596707 -2.25 0 
C -2.25 0.596707 -2.012926 1.169055 -1.59099 1.59099 
C -1.169055 2.012926 -0.596707 2.25 0 2.25 
z
"/>
    </defs>
    <g clip-path="url(#pe0a008efd4)">
     <use xlink:href="#m62afe34c0f" x="33.527663" y="212.871253" style="fill: #e377c2"/>
     <use xlink:href="#m62afe34c0f" x="39.728198" y="213.615169" style="fill: #e377c2"/>
     <use xlink:href="#m62afe34c0f" x="44.486035" y="211.011463" style="fill: #e377c2"/>
     <use xlink:href="#m62afe34c0f" x="52.030876" y="211.011463" style="fill: #e377c2"/>
     <use xlink:href="#m62afe34c0f" x="60.898146" y="210.267547" style="fill: #e377c2"/>
     <use xlink:href="#m62afe34c0f" x="70.41382" y="205.432092" style="fill: #e377c2"/>
     <use xlink:href="#m62afe34c0f" x="80.278724" y="197.992931" style="fill: #e377c2"/>
     <use xlink:href="#m62afe34c0f" x="94.887582" y="187.578105" style="fill: #e377c2"/>
     <use xlink:href="#m62afe34c0f" x="112.042209" y="177.907196" style="fill: #e377c2"/>
     <use xlink:href="#m62afe34c0f" x="133.540498" y="161.912999" style="fill: #e377c2"/>
     <use xlink:href="#m62afe34c0f" x="158.983798" y="137.735726" style="fill: #e377c2"/>
     <use xlink:href="#m62afe34c0f" x="191.193951" y="108.722998" style="fill: #e377c2"/>
     <use xlink:href="#m62afe34c0f" x="230.257729" y="70.03936" style="fill: #e377c2"/>
     <use xlink:href="#m62afe34c0f" x="277.836101" y="14.989568" style="fill: #e377c2"/>
    </g>
   </g>
   <g id="text_11">
    <!-- $\sigma_c$ -->
    <g transform="translate(35.103266 29.1373) scale(0.225 -0.225)">
     <defs>
      <path id="DejaVuSans-Oblique-3c3" d="M 2219 3044 
Q 1744 3044 1422 2700 
Q 1081 2341 969 1747 
Q 844 1119 1044 756 
Q 1241 397 1706 397 
Q 2166 397 2503 759 
Q 2844 1122 2966 1747 
Q 3075 2319 2881 2700 
Q 2700 3044 2219 3044 
z
M 2309 3503 
L 4219 3500 
L 4106 2925 
L 3463 2925 
Q 3706 2438 3575 1747 
Q 3406 888 2884 400 
Q 2359 -91 1609 -91 
Q 856 -91 525 400 
Q 194 888 363 1747 
Q 528 2609 1050 3097 
Q 1484 3503 2309 3503 
z
" transform="scale(0.015625)"/>
      <path id="DejaVuSans-Oblique-63" d="M 3431 3366 
L 3316 2797 
Q 3109 2947 2876 3022 
Q 2644 3097 2394 3097 
Q 2119 3097 1870 3000 
Q 1622 2903 1453 2725 
Q 1184 2453 1037 2087 
Q 891 1722 891 1331 
Q 891 859 1127 628 
Q 1363 397 1844 397 
Q 2081 397 2348 469 
Q 2616 541 2906 684 
L 2797 116 
Q 2547 13 2283 -39 
Q 2019 -91 1741 -91 
Q 1044 -91 669 257 
Q 294 606 294 1253 
Q 294 1797 489 2255 
Q 684 2713 1069 3078 
Q 1331 3328 1684 3456 
Q 2038 3584 2456 3584 
Q 2700 3584 2940 3529 
Q 3181 3475 3431 3366 
z
" transform="scale(0.015625)"/>
     </defs>
     <use xlink:href="#DejaVuSans-Oblique-3c3" transform="translate(0 0.265625)"/>
     <use xlink:href="#DejaVuSans-Oblique-63" transform="translate(63.378906 -16.140625) scale(0.7)"/>
    </g>
   </g>
   <g id="text_12">
    <!-- $\sqrt{v_0}$ -->
    <g transform="translate(235.19149 257.588432) scale(0.225 -0.225)">
     <defs>
      <path id="STIXSizeOneSym-Regular-221a" d="M 6970 9933 
L 3373 -1888 
L 3104 -1888 
L 1626 2918 
Q 1555 3149 1465 3251 
Q 1376 3354 1229 3354 
Q 1011 3354 794 3181 
L 717 3309 
L 1766 4115 
L 1926 4115 
L 3379 -602 
L 3405 -602 
L 6605 9933 
L 6970 9933 
z
" transform="scale(0.015625)"/>
      <path id="DejaVuSans-Oblique-76" d="M 459 3500 
L 1069 3500 
L 1581 525 
L 3256 3500 
L 3866 3500 
L 1875 0 
L 1100 0 
L 459 3500 
z
" transform="scale(0.015625)"/>
     </defs>
     <use xlink:href="#STIXSizeOneSym-Regular-221a" transform="translate(0 -0.8125) scale(0.559487)"/>
     <use xlink:href="#DejaVuSans-Oblique-76" transform="translate(71.625931 0.0625)"/>
     <use xlink:href="#DejaVuSans-30" transform="translate(130.805618 -16.34375) scale(0.7)"/>
     <path d="M 59.125931 79.5 
L 59.125931 85.75 
L 190.576126 85.75 
L 190.576126 79.5 
L 59.125931 79.5 
z
"/>
    </g>
   </g>
   <g id="legend_1">
    <g id="patch_7">
     <path d="M 32.19841 180.117352 
L 126.51841 180.117352 
L 126.51841 43.450477 
L 32.19841 43.450477 
z
" style="fill: #ffffff; stroke: #000000; stroke-width: 1.5; stroke-linejoin: miter"/>
    </g>
    <g id="patch_8">
     <path d="M 41.79841 62.168602 
L 65.79841 62.168602 
L 65.79841 53.768602 
L 41.79841 53.768602 
z
" style="fill: #1f77b4; fill-opacity: 0.5; stroke: #1f77b4; stroke-width: 1.95; stroke-linejoin: miter"/>
    </g>
    <g id="text_13">
     <!-- $ρ = $1.0 -->
     <g transform="translate(75.39841 62.168602) scale(0.12 -0.12)">
      <defs>
       <path id="DejaVuSans-Oblique-3c1" d="M 1203 2875 
Q 1453 3194 1981 3475 
Q 2188 3584 2756 3584 
Q 3394 3584 3694 3078 
Q 3994 2572 3834 1747 
Q 3672 922 3175 415 
Q 2678 -91 2041 -91 
Q 1656 -91 1409 63 
Q 1163 213 1044 525 
L 681 -1331 
L 103 -1331 
L 697 1716 
Q 838 2438 1203 2875 
z
M 3238 1747 
Q 3359 2381 3169 2744 
Q 2978 3103 2522 3103 
Q 2066 3103 1734 2744 
Q 1403 2381 1281 1747 
Q 1156 1113 1347 750 
Q 1538 391 1994 391 
Q 2450 391 2781 750 
Q 3113 1113 3238 1747 
z
" transform="scale(0.015625)"/>
       <path id="DejaVuSans-3d" d="M 678 2906 
L 4684 2906 
L 4684 2381 
L 678 2381 
L 678 2906 
z
M 678 1631 
L 4684 1631 
L 4684 1100 
L 678 1100 
L 678 1631 
z
" transform="scale(0.015625)"/>
      </defs>
      <use xlink:href="#DejaVuSans-Oblique-3c1" transform="translate(0 0.78125)"/>
      <use xlink:href="#DejaVuSans-3d" transform="translate(82.958984 0.78125)"/>
      <use xlink:href="#DejaVuSans-31" transform="translate(186.230469 0.78125)"/>
      <use xlink:href="#DejaVuSans-2e" transform="translate(249.853516 0.78125)"/>
      <use xlink:href="#DejaVuSans-30" transform="translate(281.640625 0.78125)"/>
     </g>
    </g>
    <g id="patch_9">
     <path d="M 41.79841 79.806727 
L 65.79841 79.806727 
L 65.79841 71.406727 
L 41.79841 71.406727 
z
" style="fill: #ff7f0e; fill-opacity: 0.5; stroke: #ff7f0e; stroke-width: 1.95; stroke-linejoin: miter"/>
    </g>
    <g id="text_14">
     <!-- $ρ = $1.1 -->
     <g transform="translate(75.39841 79.806727) scale(0.12 -0.12)">
      <use xlink:href="#DejaVuSans-Oblique-3c1" transform="translate(0 0.09375)"/>
      <use xlink:href="#DejaVuSans-3d" transform="translate(82.958984 0.09375)"/>
      <use xlink:href="#DejaVuSans-31" transform="translate(186.230469 0.09375)"/>
      <use xlink:href="#DejaVuSans-2e" transform="translate(249.853516 0.09375)"/>
      <use xlink:href="#DejaVuSans-31" transform="translate(281.640625 0.09375)"/>
     </g>
    </g>
    <g id="patch_10">
     <path d="M 41.79841 97.444852 
L 65.79841 97.444852 
L 65.79841 89.044852 
L 41.79841 89.044852 
z
" style="fill: #2ca02c; fill-opacity: 0.5; stroke: #2ca02c; stroke-width: 1.95; stroke-linejoin: miter"/>
    </g>
    <g id="text_15">
     <!-- $ρ = $1.2 -->
     <g transform="translate(75.39841 97.444852) scale(0.12 -0.12)">
      <use xlink:href="#DejaVuSans-Oblique-3c1" transform="translate(0 0.78125)"/>
      <use xlink:href="#DejaVuSans-3d" transform="translate(82.958984 0.78125)"/>
      <use xlink:href="#DejaVuSans-31" transform="translate(186.230469 0.78125)"/>
      <use xlink:href="#DejaVuSans-2e" transform="translate(249.853516 0.78125)"/>
      <use xlink:href="#DejaVuSans-32" transform="translate(276.140625 0.78125)"/>
     </g>
    </g>
    <g id="patch_11">
     <path d="M 41.79841 115.082977 
L 65.79841 115.082977 
L 65.79841 106.682977 
L 41.79841 106.682977 
z
" style="fill: #d62728; fill-opacity: 0.5; stroke: #d62728; stroke-width: 1.95; stroke-linejoin: miter"/>
    </g>
    <g id="text_16">
     <!-- $ρ = ρ_c$ -->
     <g transform="translate(75.39841 115.082977) scale(0.12 -0.12)">
      <use xlink:href="#DejaVuSans-Oblique-3c1"/>
      <use xlink:href="#DejaVuSans-3d" transform="translate(82.958984 0)"/>
      <use xlink:href="#DejaVuSans-Oblique-3c1" transform="translate(186.230469 0)"/>
      <use xlink:href="#DejaVuSans-Oblique-63" transform="translate(249.707031 -16.40625) scale(0.7)"/>
     </g>
    </g>
    <g id="patch_12">
     <path d="M 41.79841 132.721102 
L 65.79841 132.721102 
L 65.79841 124.321102 
L 41.79841 124.321102 
z
" style="fill: #9467bd; fill-opacity: 0.5; stroke: #9467bd; stroke-width: 1.95; stroke-linejoin: miter"/>
    </g>
    <g id="text_17">
     <!-- $ρ = $1.6 -->
     <g transform="translate(75.39841 132.721102) scale(0.12 -0.12)">
      <defs>
       <path id="DejaVuSans-36" d="M 2113 2584 
Q 1688 2584 1439 2293 
Q 1191 2003 1191 1497 
Q 1191 994 1439 701 
Q 1688 409 2113 409 
Q 2538 409 2786 701 
Q 3034 994 3034 1497 
Q 3034 2003 2786 2293 
Q 2538 2584 2113 2584 
z
M 3366 4563 
L 3366 3988 
Q 3128 4100 2886 4159 
Q 2644 4219 2406 4219 
Q 1781 4219 1451 3797 
Q 1122 3375 1075 2522 
Q 1259 2794 1537 2939 
Q 1816 3084 2150 3084 
Q 2853 3084 3261 2657 
Q 3669 2231 3669 1497 
Q 3669 778 3244 343 
Q 2819 -91 2113 -91 
Q 1303 -91 875 529 
Q 447 1150 447 2328 
Q 447 3434 972 4092 
Q 1497 4750 2381 4750 
Q 2619 4750 2861 4703 
Q 3103 4656 3366 4563 
z
" transform="scale(0.015625)"/>
      </defs>
      <use xlink:href="#DejaVuSans-Oblique-3c1" transform="translate(0 0.78125)"/>
      <use xlink:href="#DejaVuSans-3d" transform="translate(82.958984 0.78125)"/>
      <use xlink:href="#DejaVuSans-31" transform="translate(186.230469 0.78125)"/>
      <use xlink:href="#DejaVuSans-2e" transform="translate(249.853516 0.78125)"/>
      <use xlink:href="#DejaVuSans-36" transform="translate(281.640625 0.78125)"/>
     </g>
    </g>
    <g id="patch_13">
     <path d="M 41.79841 150.359227 
L 65.79841 150.359227 
L 65.79841 141.959227 
L 41.79841 141.959227 
z
" style="fill: #8c564b; fill-opacity: 0.5; stroke: #8c564b; stroke-width: 1.95; stroke-linejoin: miter"/>
    </g>
    <g id="text_18">
     <!-- $ρ = $1.8 -->
     <g transform="translate(75.39841 150.359227) scale(0.12 -0.12)">
      <defs>
       <path id="DejaVuSans-38" d="M 2034 2216 
Q 1584 2216 1326 1975 
Q 1069 1734 1069 1313 
Q 1069 891 1326 650 
Q 1584 409 2034 409 
Q 2484 409 2743 651 
Q 3003 894 3003 1313 
Q 3003 1734 2745 1975 
Q 2488 2216 2034 2216 
z
M 1403 2484 
Q 997 2584 770 2862 
Q 544 3141 544 3541 
Q 544 4100 942 4425 
Q 1341 4750 2034 4750 
Q 2731 4750 3128 4425 
Q 3525 4100 3525 3541 
Q 3525 3141 3298 2862 
Q 3072 2584 2669 2484 
Q 3125 2378 3379 2068 
Q 3634 1759 3634 1313 
Q 3634 634 3220 271 
Q 2806 -91 2034 -91 
Q 1263 -91 848 271 
Q 434 634 434 1313 
Q 434 1759 690 2068 
Q 947 2378 1403 2484 
z
M 1172 3481 
Q 1172 3119 1398 2916 
Q 1625 2713 2034 2713 
Q 2441 2713 2670 2916 
Q 2900 3119 2900 3481 
Q 2900 3844 2670 4047 
Q 2441 4250 2034 4250 
Q 1625 4250 1398 4047 
Q 1172 3844 1172 3481 
z
" transform="scale(0.015625)"/>
      </defs>
      <use xlink:href="#DejaVuSans-Oblique-3c1" transform="translate(0 0.78125)"/>
      <use xlink:href="#DejaVuSans-3d" transform="translate(82.958984 0.78125)"/>
      <use xlink:href="#DejaVuSans-31" transform="translate(186.230469 0.78125)"/>
      <use xlink:href="#DejaVuSans-2e" transform="translate(249.853516 0.78125)"/>
      <use xlink:href="#DejaVuSans-38" transform="translate(279.015625 0.78125)"/>
     </g>
    </g>
    <g id="patch_14">
     <path d="M 41.79841 167.997352 
L 65.79841 167.997352 
L 65.79841 159.597352 
L 41.79841 159.597352 
z
" style="fill: #e377c2; fill-opacity: 0.5; stroke: #e377c2; stroke-width: 1.95; stroke-linejoin: miter"/>
    </g>
    <g id="text_19">
     <!-- $ρ = $2.0 -->
     <g transform="translate(75.39841 167.997352) scale(0.12 -0.12)">
      <use xlink:href="#DejaVuSans-Oblique-3c1" transform="translate(0 0.78125)"/>
      <use xlink:href="#DejaVuSans-3d" transform="translate(82.958984 0.78125)"/>
      <use xlink:href="#DejaVuSans-32" transform="translate(186.230469 0.78125)"/>
      <use xlink:href="#DejaVuSans-2e" transform="translate(249.853516 0.78125)"/>
      <use xlink:href="#DejaVuSans-30" transform="translate(281.640625 0.78125)"/>
     </g>
    </g>
   </g>
  </g>
 </g>
 <defs>
  <clipPath id="pe0a008efd4">
   <rect x="26.19841" y="7.557846" width="258.966944" height="262.587509"/>
  </clipPath>
 </defs>
</svg>
