<?xml version="1.0" encoding="utf-8" standalone="no"?>
<!DOCTYPE svg PUBLIC "-//W3C//DTD SVG 1.1//EN"
  "http://www.w3.org/Graphics/SVG/1.1/DTD/svg11.dtd">
<svg xmlns:xlink="http://www.w3.org/1999/xlink" width="180pt" height="180pt" viewBox="0 0 180 180" xmlns="http://www.w3.org/2000/svg" version="1.1">
 <metadata>
  <rdf:RDF xmlns:dc="http://purl.org/dc/elements/1.1/" xmlns:cc="http://creativecommons.org/ns#" xmlns:rdf="http://www.w3.org/1999/02/22-rdf-syntax-ns#">
   <cc:Work>
    <dc:type rdf:resource="http://purl.org/dc/dcmitype/StillImage"/>
    <dc:date>2023-10-24T12:28:16.379241</dc:date>
    <dc:format>image/svg+xml</dc:format>
    <dc:creator>
     <cc:Agent>
      <dc:title>Matplotlib v3.7.2, https://matplotlib.org/</dc:title>
     </cc:Agent>
    </dc:creator>
   </cc:Work>
  </rdf:RDF>
 </metadata>
 <defs>
  <style type="text/css">*{stroke-linejoin: round; stroke-linecap: butt}</style>
 </defs>
 <g id="figure_1">
  <g id="patch_1">
   <path d="M 0 180 
L 180 180 
L 180 0 
L 0 0 
z
" style="fill: #ffffff"/>
  </g>
  <g id="axes_1">
   <g id="patch_2">
    <path d="M 22.249111 159.337354 
L 177.165354 159.337354 
L 177.165354 2.834646 
L 22.249111 2.834646 
z
" style="fill: #ffffff"/>
   </g>
   <g id="patch_3">
    <path d="M 42.90461 154.28888 
L 42.90461 159.337354 
L 45.486548 159.337354 
L 45.486548 154.28888 
L 42.90461 154.28888 
" clip-path="url(#pa13d3716f9)" style="fill: #17becf; stroke: #000000; stroke-width: 0.6; stroke-linejoin: miter"/>
   </g>
   <g id="patch_4">
    <path d="M 45.486548 132.412157 
L 45.486548 159.337354 
L 48.068485 159.337354 
L 48.068485 132.412157 
L 45.486548 132.412157 
" clip-path="url(#pa13d3716f9)" style="fill: #17becf; stroke: #000000; stroke-width: 0.6; stroke-linejoin: miter"/>
   </g>
   <g id="patch_5">
    <path d="M 48.068485 97.072836 
L 48.068485 159.337354 
L 50.650422 159.337354 
L 50.650422 97.072836 
L 48.068485 97.072836 
" clip-path="url(#pa13d3716f9)" style="fill: #17becf; stroke: #000000; stroke-width: 0.6; stroke-linejoin: miter"/>
   </g>
   <g id="patch_6">
    <path d="M 50.650422 68.464814 
L 50.650422 159.337354 
L 53.23236 159.337354 
L 53.23236 68.464814 
L 50.650422 68.464814 
" clip-path="url(#pa13d3716f9)" style="fill: #17becf; stroke: #000000; stroke-width: 0.6; stroke-linejoin: miter"/>
   </g>
   <g id="patch_7">
    <path d="M 53.23236 24.711368 
L 53.23236 159.337354 
L 55.814297 159.337354 
L 55.814297 24.711368 
L 53.23236 24.711368 
" clip-path="url(#pa13d3716f9)" style="fill: #17becf; stroke: #000000; stroke-width: 0.6; stroke-linejoin: miter"/>
   </g>
   <g id="patch_8">
    <path d="M 55.814297 76.878938 
L 55.814297 159.337354 
L 58.396234 159.337354 
L 58.396234 76.878938 
L 55.814297 76.878938 
" clip-path="url(#pa13d3716f9)" style="fill: #17becf; stroke: #000000; stroke-width: 0.6; stroke-linejoin: miter"/>
   </g>
   <g id="patch_9">
    <path d="M 58.396234 125.680858 
L 58.396234 159.337354 
L 60.978172 159.337354 
L 60.978172 125.680858 
L 58.396234 125.680858 
" clip-path="url(#pa13d3716f9)" style="fill: #17becf; stroke: #000000; stroke-width: 0.6; stroke-linejoin: miter"/>
   </g>
   <g id="patch_10">
    <path d="M 60.978172 157.65453 
L 60.978172 159.337354 
L 63.560109 159.337354 
L 63.560109 157.65453 
L 60.978172 157.65453 
" clip-path="url(#pa13d3716f9)" style="fill: #17becf; stroke: #000000; stroke-width: 0.6; stroke-linejoin: miter"/>
   </g>
   <g id="PathCollection_1">
    <defs>
     <path id="m8c72132fdb" d="M 0 0 
C 0 0 0 0 0 0 
C 0 0 0 0 0 0 
C 0 0 0 0 0 0 
C 0 0 0 0 0 0 
C 0 0 0 0 0 0 
C 0 0 0 0 0 0 
C 0 0 0 0 0 0 
C 0 0 0 0 0 0 
z
"/>
    </defs>
    <g clip-path="url(#pa13d3716f9)">
     <use xlink:href="#m8c72132fdb" x="44.195579" y="154.28888" style="fill: #17becf; fill-opacity: 0"/>
     <use xlink:href="#m8c72132fdb" x="46.777516" y="132.412157" style="fill: #17becf; fill-opacity: 0"/>
     <use xlink:href="#m8c72132fdb" x="49.359454" y="97.072836" style="fill: #17becf; fill-opacity: 0"/>
     <use xlink:href="#m8c72132fdb" x="51.941391" y="68.464814" style="fill: #17becf; fill-opacity: 0"/>
     <use xlink:href="#m8c72132fdb" x="54.523328" y="24.711368" style="fill: #17becf; fill-opacity: 0"/>
     <use xlink:href="#m8c72132fdb" x="57.105266" y="76.878938" style="fill: #17becf; fill-opacity: 0"/>
     <use xlink:href="#m8c72132fdb" x="59.687203" y="125.680858" style="fill: #17becf; fill-opacity: 0"/>
     <use xlink:href="#m8c72132fdb" x="62.269141" y="157.65453" style="fill: #17becf; fill-opacity: 0"/>
    </g>
   </g>
   <g id="matplotlib.axis_1">
    <g id="xtick_1">
     <g id="line2d_1">
      <defs>
       <path id="mdb69eab158" d="M 0 0 
L 0 -3.75 
" style="stroke: #000000; stroke-width: 0.75"/>
      </defs>
      <g>
       <use xlink:href="#mdb69eab158" x="22.249111" y="159.337354" style="stroke: #000000; stroke-width: 0.75"/>
      </g>
     </g>
     <g id="text_1">
      <!-- $10^{1}$ -->
      <g transform="translate(11.689111 171.955479) scale(0.12 -0.12)">
       <defs>
        <path id="DejaVuSans-31" d="M 794 531 
L 1825 531 
L 1825 4091 
L 703 3866 
L 703 4441 
L 1819 4666 
L 2450 4666 
L 2450 531 
L 3481 531 
L 3481 0 
L 794 0 
L 794 531 
z
" transform="scale(0.015625)"/>
        <path id="DejaVuSans-30" d="M 2034 4250 
Q 1547 4250 1301 3770 
Q 1056 3291 1056 2328 
Q 1056 1369 1301 889 
Q 1547 409 2034 409 
Q 2525 409 2770 889 
Q 3016 1369 3016 2328 
Q 3016 3291 2770 3770 
Q 2525 4250 2034 4250 
z
M 2034 4750 
Q 2819 4750 3233 4129 
Q 3647 3509 3647 2328 
Q 3647 1150 3233 529 
Q 2819 -91 2034 -91 
Q 1250 -91 836 529 
Q 422 1150 422 2328 
Q 422 3509 836 4129 
Q 1250 4750 2034 4750 
z
" transform="scale(0.015625)"/>
       </defs>
       <use xlink:href="#DejaVuSans-31" transform="translate(0 0.684375)"/>
       <use xlink:href="#DejaVuSans-30" transform="translate(63.623047 0.684375)"/>
       <use xlink:href="#DejaVuSans-31" transform="translate(128.203125 38.965625) scale(0.7)"/>
      </g>
     </g>
    </g>
    <g id="xtick_2">
     <g id="line2d_2">
      <g>
       <use xlink:href="#mdb69eab158" x="73.887859" y="159.337354" style="stroke: #000000; stroke-width: 0.75"/>
      </g>
     </g>
     <g id="text_2">
      <!-- $10^{2}$ -->
      <g transform="translate(63.327859 171.955479) scale(0.12 -0.12)">
       <defs>
        <path id="DejaVuSans-32" d="M 1228 531 
L 3431 531 
L 3431 0 
L 469 0 
L 469 531 
Q 828 903 1448 1529 
Q 2069 2156 2228 2338 
Q 2531 2678 2651 2914 
Q 2772 3150 2772 3378 
Q 2772 3750 2511 3984 
Q 2250 4219 1831 4219 
Q 1534 4219 1204 4116 
Q 875 4013 500 3803 
L 500 4441 
Q 881 4594 1212 4672 
Q 1544 4750 1819 4750 
Q 2544 4750 2975 4387 
Q 3406 4025 3406 3419 
Q 3406 3131 3298 2873 
Q 3191 2616 2906 2266 
Q 2828 2175 2409 1742 
Q 1991 1309 1228 531 
z
" transform="scale(0.015625)"/>
       </defs>
       <use xlink:href="#DejaVuSans-31" transform="translate(0 0.765625)"/>
       <use xlink:href="#DejaVuSans-30" transform="translate(63.623047 0.765625)"/>
       <use xlink:href="#DejaVuSans-32" transform="translate(128.203125 39.046875) scale(0.7)"/>
      </g>
     </g>
    </g>
    <g id="xtick_3">
     <g id="line2d_3">
      <g>
       <use xlink:href="#mdb69eab158" x="125.526607" y="159.337354" style="stroke: #000000; stroke-width: 0.75"/>
      </g>
     </g>
     <g id="text_3">
      <!-- $10^{3}$ -->
      <g transform="translate(114.966607 171.955479) scale(0.12 -0.12)">
       <defs>
        <path id="DejaVuSans-33" d="M 2597 2516 
Q 3050 2419 3304 2112 
Q 3559 1806 3559 1356 
Q 3559 666 3084 287 
Q 2609 -91 1734 -91 
Q 1441 -91 1130 -33 
Q 819 25 488 141 
L 488 750 
Q 750 597 1062 519 
Q 1375 441 1716 441 
Q 2309 441 2620 675 
Q 2931 909 2931 1356 
Q 2931 1769 2642 2001 
Q 2353 2234 1838 2234 
L 1294 2234 
L 1294 2753 
L 1863 2753 
Q 2328 2753 2575 2939 
Q 2822 3125 2822 3475 
Q 2822 3834 2567 4026 
Q 2313 4219 1838 4219 
Q 1578 4219 1281 4162 
Q 984 4106 628 3988 
L 628 4550 
Q 988 4650 1302 4700 
Q 1616 4750 1894 4750 
Q 2613 4750 3031 4423 
Q 3450 4097 3450 3541 
Q 3450 3153 3228 2886 
Q 3006 2619 2597 2516 
z
" transform="scale(0.015625)"/>
       </defs>
       <use xlink:href="#DejaVuSans-31" transform="translate(0 0.765625)"/>
       <use xlink:href="#DejaVuSans-30" transform="translate(63.623047 0.765625)"/>
       <use xlink:href="#DejaVuSans-33" transform="translate(128.203125 39.046875) scale(0.7)"/>
      </g>
     </g>
    </g>
   </g>
   <g id="matplotlib.axis_2">
    <g id="ytick_1">
     <g id="line2d_4">
      <defs>
       <path id="me751578e67" d="M 0 0 
L 3.75 0 
" style="stroke: #000000; stroke-width: 0.75"/>
      </defs>
      <g>
       <use xlink:href="#me751578e67" x="22.249111" y="159.337354" style="stroke: #000000; stroke-width: 0.75"/>
      </g>
     </g>
     <g id="text_4">
      <!-- $0$ -->
      <g transform="translate(11.069111 163.896417) scale(0.12 -0.12)">
       <use xlink:href="#DejaVuSans-30" transform="translate(0 0.78125)"/>
      </g>
     </g>
    </g>
    <g id="ytick_2">
     <g id="line2d_5">
      <g>
       <use xlink:href="#me751578e67" x="22.249111" y="125.680858" style="stroke: #000000; stroke-width: 0.75"/>
      </g>
     </g>
     <g id="text_5">
      <!-- $20$ -->
      <g transform="translate(3.389111 130.23992) scale(0.12 -0.12)">
       <use xlink:href="#DejaVuSans-32" transform="translate(0 0.78125)"/>
       <use xlink:href="#DejaVuSans-30" transform="translate(63.623047 0.78125)"/>
      </g>
     </g>
    </g>
    <g id="ytick_3">
     <g id="line2d_6">
      <g>
       <use xlink:href="#me751578e67" x="22.249111" y="92.024361" style="stroke: #000000; stroke-width: 0.75"/>
      </g>
     </g>
     <g id="text_6">
      <!-- $40$ -->
      <g transform="translate(3.389111 96.583424) scale(0.12 -0.12)">
       <defs>
        <path id="DejaVuSans-34" d="M 2419 4116 
L 825 1625 
L 2419 1625 
L 2419 4116 
z
M 2253 4666 
L 3047 4666 
L 3047 1625 
L 3713 1625 
L 3713 1100 
L 3047 1100 
L 3047 0 
L 2419 0 
L 2419 1100 
L 313 1100 
L 313 1709 
L 2253 4666 
z
" transform="scale(0.015625)"/>
       </defs>
       <use xlink:href="#DejaVuSans-34" transform="translate(0 0.78125)"/>
       <use xlink:href="#DejaVuSans-30" transform="translate(63.623047 0.78125)"/>
      </g>
     </g>
    </g>
    <g id="ytick_4">
     <g id="line2d_7">
      <g>
       <use xlink:href="#me751578e67" x="22.249111" y="58.367865" style="stroke: #000000; stroke-width: 0.75"/>
      </g>
     </g>
     <g id="text_7">
      <!-- $60$ -->
      <g transform="translate(3.389111 62.926927) scale(0.12 -0.12)">
       <defs>
        <path id="DejaVuSans-36" d="M 2113 2584 
Q 1688 2584 1439 2293 
Q 1191 2003 1191 1497 
Q 1191 994 1439 701 
Q 1688 409 2113 409 
Q 2538 409 2786 701 
Q 3034 994 3034 1497 
Q 3034 2003 2786 2293 
Q 2538 2584 2113 2584 
z
M 3366 4563 
L 3366 3988 
Q 3128 4100 2886 4159 
Q 2644 4219 2406 4219 
Q 1781 4219 1451 3797 
Q 1122 3375 1075 2522 
Q 1259 2794 1537 2939 
Q 1816 3084 2150 3084 
Q 2853 3084 3261 2657 
Q 3669 2231 3669 1497 
Q 3669 778 3244 343 
Q 2819 -91 2113 -91 
Q 1303 -91 875 529 
Q 447 1150 447 2328 
Q 447 3434 972 4092 
Q 1497 4750 2381 4750 
Q 2619 4750 2861 4703 
Q 3103 4656 3366 4563 
z
" transform="scale(0.015625)"/>
       </defs>
       <use xlink:href="#DejaVuSans-36" transform="translate(0 0.78125)"/>
       <use xlink:href="#DejaVuSans-30" transform="translate(63.623047 0.78125)"/>
      </g>
     </g>
    </g>
    <g id="ytick_5">
     <g id="line2d_8">
      <g>
       <use xlink:href="#me751578e67" x="22.249111" y="24.711368" style="stroke: #000000; stroke-width: 0.75"/>
      </g>
     </g>
     <g id="text_8">
      <!-- $80$ -->
      <g transform="translate(3.389111 29.270431) scale(0.12 -0.12)">
       <defs>
        <path id="DejaVuSans-38" d="M 2034 2216 
Q 1584 2216 1326 1975 
Q 1069 1734 1069 1313 
Q 1069 891 1326 650 
Q 1584 409 2034 409 
Q 2484 409 2743 651 
Q 3003 894 3003 1313 
Q 3003 1734 2745 1975 
Q 2488 2216 2034 2216 
z
M 1403 2484 
Q 997 2584 770 2862 
Q 544 3141 544 3541 
Q 544 4100 942 4425 
Q 1341 4750 2034 4750 
Q 2731 4750 3128 4425 
Q 3525 4100 3525 3541 
Q 3525 3141 3298 2862 
Q 3072 2584 2669 2484 
Q 3125 2378 3379 2068 
Q 3634 1759 3634 1313 
Q 3634 634 3220 271 
Q 2806 -91 2034 -91 
Q 1263 -91 848 271 
Q 434 634 434 1313 
Q 434 1759 690 2068 
Q 947 2378 1403 2484 
z
M 1172 3481 
Q 1172 3119 1398 2916 
Q 1625 2713 2034 2713 
Q 2441 2713 2670 2916 
Q 2900 3119 2900 3481 
Q 2900 3844 2670 4047 
Q 2441 4250 2034 4250 
Q 1625 4250 1398 4047 
Q 1172 3844 1172 3481 
z
" transform="scale(0.015625)"/>
       </defs>
       <use xlink:href="#DejaVuSans-38" transform="translate(0 0.78125)"/>
       <use xlink:href="#DejaVuSans-30" transform="translate(63.623047 0.78125)"/>
      </g>
     </g>
    </g>
   </g>
   <g id="patch_11">
    <path d="M 66.142047 154.28888 
L 66.142047 159.337354 
L 68.723984 159.337354 
L 68.723984 154.28888 
L 66.142047 154.28888 
" clip-path="url(#pa13d3716f9)" style="fill: #9467bd; stroke: #000000; stroke-width: 0.6; stroke-linejoin: miter"/>
   </g>
   <g id="patch_12">
    <path d="M 68.723984 155.971705 
L 68.723984 159.337354 
L 71.305921 159.337354 
L 71.305921 155.971705 
L 68.723984 155.971705 
" clip-path="url(#pa13d3716f9)" style="fill: #9467bd; stroke: #000000; stroke-width: 0.6; stroke-linejoin: miter"/>
   </g>
   <g id="patch_13">
    <path d="M 71.305921 142.509106 
L 71.305921 159.337354 
L 73.887859 159.337354 
L 73.887859 142.509106 
L 71.305921 142.509106 
" clip-path="url(#pa13d3716f9)" style="fill: #9467bd; stroke: #000000; stroke-width: 0.6; stroke-linejoin: miter"/>
   </g>
   <g id="patch_14">
    <path d="M 73.887859 137.460632 
L 73.887859 159.337354 
L 76.469796 159.337354 
L 76.469796 137.460632 
L 73.887859 137.460632 
" clip-path="url(#pa13d3716f9)" style="fill: #9467bd; stroke: #000000; stroke-width: 0.6; stroke-linejoin: miter"/>
   </g>
   <g id="patch_15">
    <path d="M 76.469796 123.998033 
L 76.469796 159.337354 
L 79.051734 159.337354 
L 79.051734 123.998033 
L 76.469796 123.998033 
" clip-path="url(#pa13d3716f9)" style="fill: #9467bd; stroke: #000000; stroke-width: 0.6; stroke-linejoin: miter"/>
   </g>
   <g id="patch_16">
    <path d="M 79.051734 86.975887 
L 79.051734 159.337354 
L 81.633671 159.337354 
L 81.633671 86.975887 
L 79.051734 86.975887 
" clip-path="url(#pa13d3716f9)" style="fill: #9467bd; stroke: #000000; stroke-width: 0.6; stroke-linejoin: miter"/>
   </g>
   <g id="patch_17">
    <path d="M 81.633671 81.927412 
L 81.633671 159.337354 
L 84.215608 159.337354 
L 84.215608 81.927412 
L 81.633671 81.927412 
" clip-path="url(#pa13d3716f9)" style="fill: #9467bd; stroke: #000000; stroke-width: 0.6; stroke-linejoin: miter"/>
   </g>
   <g id="patch_18">
    <path d="M 84.215608 76.878938 
L 84.215608 159.337354 
L 86.797546 159.337354 
L 86.797546 76.878938 
L 84.215608 76.878938 
" clip-path="url(#pa13d3716f9)" style="fill: #9467bd; stroke: #000000; stroke-width: 0.6; stroke-linejoin: miter"/>
   </g>
   <g id="patch_19">
    <path d="M 86.797546 103.804135 
L 86.797546 159.337354 
L 89.379483 159.337354 
L 89.379483 103.804135 
L 86.797546 103.804135 
" clip-path="url(#pa13d3716f9)" style="fill: #9467bd; stroke: #000000; stroke-width: 0.6; stroke-linejoin: miter"/>
   </g>
   <g id="patch_20">
    <path d="M 89.379483 115.583909 
L 89.379483 159.337354 
L 91.96142 159.337354 
L 91.96142 115.583909 
L 89.379483 115.583909 
" clip-path="url(#pa13d3716f9)" style="fill: #9467bd; stroke: #000000; stroke-width: 0.6; stroke-linejoin: miter"/>
   </g>
   <g id="patch_21">
    <path d="M 91.96142 145.874756 
L 91.96142 159.337354 
L 94.543358 159.337354 
L 94.543358 145.874756 
L 91.96142 145.874756 
" clip-path="url(#pa13d3716f9)" style="fill: #9467bd; stroke: #000000; stroke-width: 0.6; stroke-linejoin: miter"/>
   </g>
   <g id="patch_22">
    <path d="M 94.543358 149.240405 
L 94.543358 159.337354 
L 97.125295 159.337354 
L 97.125295 149.240405 
L 94.543358 149.240405 
" clip-path="url(#pa13d3716f9)" style="fill: #9467bd; stroke: #000000; stroke-width: 0.6; stroke-linejoin: miter"/>
   </g>
   <g id="PathCollection_2">
    <defs>
     <path id="mf489e55e07" d="M 0 0 
C 0 0 0 0 0 0 
C 0 0 0 0 0 0 
C 0 0 0 0 0 0 
C 0 0 0 0 0 0 
C 0 0 0 0 0 0 
C 0 0 0 0 0 0 
C 0 0 0 0 0 0 
C 0 0 0 0 0 0 
z
"/>
    </defs>
    <g clip-path="url(#pa13d3716f9)">
     <use xlink:href="#mf489e55e07" x="67.433015" y="154.28888" style="fill: #9467bd; fill-opacity: 0"/>
     <use xlink:href="#mf489e55e07" x="70.014953" y="155.971705" style="fill: #9467bd; fill-opacity: 0"/>
     <use xlink:href="#mf489e55e07" x="72.59689" y="142.509106" style="fill: #9467bd; fill-opacity: 0"/>
     <use xlink:href="#mf489e55e07" x="75.178827" y="137.460632" style="fill: #9467bd; fill-opacity: 0"/>
     <use xlink:href="#mf489e55e07" x="77.760765" y="123.998033" style="fill: #9467bd; fill-opacity: 0"/>
     <use xlink:href="#mf489e55e07" x="80.342702" y="86.975887" style="fill: #9467bd; fill-opacity: 0"/>
     <use xlink:href="#mf489e55e07" x="82.92464" y="81.927412" style="fill: #9467bd; fill-opacity: 0"/>
     <use xlink:href="#mf489e55e07" x="85.506577" y="76.878938" style="fill: #9467bd; fill-opacity: 0"/>
     <use xlink:href="#mf489e55e07" x="88.088514" y="103.804135" style="fill: #9467bd; fill-opacity: 0"/>
     <use xlink:href="#mf489e55e07" x="90.670452" y="115.583909" style="fill: #9467bd; fill-opacity: 0"/>
     <use xlink:href="#mf489e55e07" x="93.252389" y="145.874756" style="fill: #9467bd; fill-opacity: 0"/>
     <use xlink:href="#mf489e55e07" x="95.834327" y="149.240405" style="fill: #9467bd; fill-opacity: 0"/>
    </g>
   </g>
   <g id="patch_23">
    <path d="M 22.249111 159.337354 
L 22.249111 2.834646 
" style="fill: none; stroke: #000000; stroke-width: 1.5; stroke-linejoin: miter; stroke-linecap: square"/>
   </g>
   <g id="patch_24">
    <path d="M 177.165354 159.337354 
L 177.165354 2.834646 
" style="fill: none; stroke: #000000; stroke-width: 1.5; stroke-linejoin: miter; stroke-linecap: square"/>
   </g>
   <g id="patch_25">
    <path d="M 22.249111 159.337354 
L 177.165354 159.337354 
" style="fill: none; stroke: #000000; stroke-width: 1.5; stroke-linejoin: miter; stroke-linecap: square"/>
   </g>
   <g id="patch_26">
    <path d="M 22.249111 2.834646 
L 177.165354 2.834646 
" style="fill: none; stroke: #000000; stroke-width: 1.5; stroke-linejoin: miter; stroke-linecap: square"/>
   </g>
   <g id="patch_27">
    <path d="M 86.797546 157.65453 
L 86.797546 159.337354 
L 89.379483 159.337354 
L 89.379483 157.65453 
L 86.797546 157.65453 
" clip-path="url(#pa13d3716f9)" style="fill: #1f77b4; stroke: #000000; stroke-width: 0.6; stroke-linejoin: miter"/>
   </g>
   <g id="patch_28">
    <path d="M 89.379483 159.337354 
L 89.379483 159.337354 
L 91.96142 159.337354 
L 91.96142 159.337354 
L 89.379483 159.337354 
" clip-path="url(#pa13d3716f9)" style="fill: #1f77b4; stroke: #000000; stroke-width: 0.6; stroke-linejoin: miter"/>
   </g>
   <g id="patch_29">
    <path d="M 91.96142 154.28888 
L 91.96142 159.337354 
L 94.543358 159.337354 
L 94.543358 154.28888 
L 91.96142 154.28888 
" clip-path="url(#pa13d3716f9)" style="fill: #1f77b4; stroke: #000000; stroke-width: 0.6; stroke-linejoin: miter"/>
   </g>
   <g id="patch_30">
    <path d="M 94.543358 155.971705 
L 94.543358 159.337354 
L 97.125295 159.337354 
L 97.125295 155.971705 
L 94.543358 155.971705 
" clip-path="url(#pa13d3716f9)" style="fill: #1f77b4; stroke: #000000; stroke-width: 0.6; stroke-linejoin: miter"/>
   </g>
   <g id="patch_31">
    <path d="M 97.125295 154.28888 
L 97.125295 159.337354 
L 99.707233 159.337354 
L 99.707233 154.28888 
L 97.125295 154.28888 
" clip-path="url(#pa13d3716f9)" style="fill: #1f77b4; stroke: #000000; stroke-width: 0.6; stroke-linejoin: miter"/>
   </g>
   <g id="patch_32">
    <path d="M 99.707233 154.28888 
L 99.707233 159.337354 
L 102.28917 159.337354 
L 102.28917 154.28888 
L 99.707233 154.28888 
" clip-path="url(#pa13d3716f9)" style="fill: #1f77b4; stroke: #000000; stroke-width: 0.6; stroke-linejoin: miter"/>
   </g>
   <g id="patch_33">
    <path d="M 102.28917 152.606055 
L 102.28917 159.337354 
L 104.871107 159.337354 
L 104.871107 152.606055 
L 102.28917 152.606055 
" clip-path="url(#pa13d3716f9)" style="fill: #1f77b4; stroke: #000000; stroke-width: 0.6; stroke-linejoin: miter"/>
   </g>
   <g id="patch_34">
    <path d="M 104.871107 150.92323 
L 104.871107 159.337354 
L 107.453045 159.337354 
L 107.453045 150.92323 
L 104.871107 150.92323 
" clip-path="url(#pa13d3716f9)" style="fill: #1f77b4; stroke: #000000; stroke-width: 0.6; stroke-linejoin: miter"/>
   </g>
   <g id="patch_35">
    <path d="M 107.453045 139.143456 
L 107.453045 159.337354 
L 110.034982 159.337354 
L 110.034982 139.143456 
L 107.453045 139.143456 
" clip-path="url(#pa13d3716f9)" style="fill: #1f77b4; stroke: #000000; stroke-width: 0.6; stroke-linejoin: miter"/>
   </g>
   <g id="patch_36">
    <path d="M 110.034982 134.094982 
L 110.034982 159.337354 
L 112.61692 159.337354 
L 112.61692 134.094982 
L 110.034982 134.094982 
" clip-path="url(#pa13d3716f9)" style="fill: #1f77b4; stroke: #000000; stroke-width: 0.6; stroke-linejoin: miter"/>
   </g>
   <g id="patch_37">
    <path d="M 112.61692 117.266734 
L 112.61692 159.337354 
L 115.198857 159.337354 
L 115.198857 117.266734 
L 112.61692 117.266734 
" clip-path="url(#pa13d3716f9)" style="fill: #1f77b4; stroke: #000000; stroke-width: 0.6; stroke-linejoin: miter"/>
   </g>
   <g id="patch_38">
    <path d="M 115.198857 122.315208 
L 115.198857 159.337354 
L 117.780794 159.337354 
L 117.780794 122.315208 
L 115.198857 122.315208 
" clip-path="url(#pa13d3716f9)" style="fill: #1f77b4; stroke: #000000; stroke-width: 0.6; stroke-linejoin: miter"/>
   </g>
   <g id="patch_39">
    <path d="M 117.780794 123.998033 
L 117.780794 159.337354 
L 120.362732 159.337354 
L 120.362732 123.998033 
L 117.780794 123.998033 
" clip-path="url(#pa13d3716f9)" style="fill: #1f77b4; stroke: #000000; stroke-width: 0.6; stroke-linejoin: miter"/>
   </g>
   <g id="patch_40">
    <path d="M 120.362732 122.315208 
L 120.362732 159.337354 
L 122.944669 159.337354 
L 122.944669 122.315208 
L 120.362732 122.315208 
" clip-path="url(#pa13d3716f9)" style="fill: #1f77b4; stroke: #000000; stroke-width: 0.6; stroke-linejoin: miter"/>
   </g>
   <g id="patch_41">
    <path d="M 122.944669 129.046507 
L 122.944669 159.337354 
L 125.526607 159.337354 
L 125.526607 129.046507 
L 122.944669 129.046507 
" clip-path="url(#pa13d3716f9)" style="fill: #1f77b4; stroke: #000000; stroke-width: 0.6; stroke-linejoin: miter"/>
   </g>
   <g id="patch_42">
    <path d="M 125.526607 123.998033 
L 125.526607 159.337354 
L 128.108544 159.337354 
L 128.108544 123.998033 
L 125.526607 123.998033 
" clip-path="url(#pa13d3716f9)" style="fill: #1f77b4; stroke: #000000; stroke-width: 0.6; stroke-linejoin: miter"/>
   </g>
   <g id="patch_43">
    <path d="M 128.108544 134.094982 
L 128.108544 159.337354 
L 130.690481 159.337354 
L 130.690481 134.094982 
L 128.108544 134.094982 
" clip-path="url(#pa13d3716f9)" style="fill: #1f77b4; stroke: #000000; stroke-width: 0.6; stroke-linejoin: miter"/>
   </g>
   <g id="patch_44">
    <path d="M 130.690481 110.535434 
L 130.690481 159.337354 
L 133.272419 159.337354 
L 133.272419 110.535434 
L 130.690481 110.535434 
" clip-path="url(#pa13d3716f9)" style="fill: #1f77b4; stroke: #000000; stroke-width: 0.6; stroke-linejoin: miter"/>
   </g>
   <g id="patch_45">
    <path d="M 133.272419 144.191931 
L 133.272419 159.337354 
L 135.854356 159.337354 
L 135.854356 144.191931 
L 133.272419 144.191931 
" clip-path="url(#pa13d3716f9)" style="fill: #1f77b4; stroke: #000000; stroke-width: 0.6; stroke-linejoin: miter"/>
   </g>
   <g id="patch_46">
    <path d="M 135.854356 139.143456 
L 135.854356 159.337354 
L 138.436293 159.337354 
L 138.436293 139.143456 
L 135.854356 139.143456 
" clip-path="url(#pa13d3716f9)" style="fill: #1f77b4; stroke: #000000; stroke-width: 0.6; stroke-linejoin: miter"/>
   </g>
   <g id="patch_47">
    <path d="M 138.436293 144.191931 
L 138.436293 159.337354 
L 141.018231 159.337354 
L 141.018231 144.191931 
L 138.436293 144.191931 
" clip-path="url(#pa13d3716f9)" style="fill: #1f77b4; stroke: #000000; stroke-width: 0.6; stroke-linejoin: miter"/>
   </g>
   <g id="patch_48">
    <path d="M 141.018231 150.92323 
L 141.018231 159.337354 
L 143.600168 159.337354 
L 143.600168 150.92323 
L 141.018231 150.92323 
" clip-path="url(#pa13d3716f9)" style="fill: #1f77b4; stroke: #000000; stroke-width: 0.6; stroke-linejoin: miter"/>
   </g>
   <g id="patch_49">
    <path d="M 143.600168 154.28888 
L 143.600168 159.337354 
L 146.182106 159.337354 
L 146.182106 154.28888 
L 143.600168 154.28888 
" clip-path="url(#pa13d3716f9)" style="fill: #1f77b4; stroke: #000000; stroke-width: 0.6; stroke-linejoin: miter"/>
   </g>
   <g id="patch_50">
    <path d="M 146.182106 157.65453 
L 146.182106 159.337354 
L 148.764043 159.337354 
L 148.764043 157.65453 
L 146.182106 157.65453 
" clip-path="url(#pa13d3716f9)" style="fill: #1f77b4; stroke: #000000; stroke-width: 0.6; stroke-linejoin: miter"/>
   </g>
   <g id="PathCollection_3">
    <defs>
     <path id="mdc69dc9a02" d="M 0 0 
C 0 0 0 0 0 0 
C 0 0 0 0 0 0 
C 0 0 0 0 0 0 
C 0 0 0 0 0 0 
C 0 0 0 0 0 0 
C 0 0 0 0 0 0 
C 0 0 0 0 0 0 
C 0 0 0 0 0 0 
z
"/>
    </defs>
    <g clip-path="url(#pa13d3716f9)">
     <use xlink:href="#mdc69dc9a02" x="88.088514" y="157.65453" style="fill: #1f77b4; fill-opacity: 0"/>
     <use xlink:href="#mdc69dc9a02" x="90.670452" y="159.337354" style="fill: #1f77b4; fill-opacity: 0"/>
     <use xlink:href="#mdc69dc9a02" x="93.252389" y="154.28888" style="fill: #1f77b4; fill-opacity: 0"/>
     <use xlink:href="#mdc69dc9a02" x="95.834327" y="155.971705" style="fill: #1f77b4; fill-opacity: 0"/>
     <use xlink:href="#mdc69dc9a02" x="98.416264" y="154.28888" style="fill: #1f77b4; fill-opacity: 0"/>
     <use xlink:href="#mdc69dc9a02" x="100.998201" y="154.28888" style="fill: #1f77b4; fill-opacity: 0"/>
     <use xlink:href="#mdc69dc9a02" x="103.580139" y="152.606055" style="fill: #1f77b4; fill-opacity: 0"/>
     <use xlink:href="#mdc69dc9a02" x="106.162076" y="150.92323" style="fill: #1f77b4; fill-opacity: 0"/>
     <use xlink:href="#mdc69dc9a02" x="108.744014" y="139.143456" style="fill: #1f77b4; fill-opacity: 0"/>
     <use xlink:href="#mdc69dc9a02" x="111.325951" y="134.094982" style="fill: #1f77b4; fill-opacity: 0"/>
     <use xlink:href="#mdc69dc9a02" x="113.907888" y="117.266734" style="fill: #1f77b4; fill-opacity: 0"/>
     <use xlink:href="#mdc69dc9a02" x="116.489826" y="122.315208" style="fill: #1f77b4; fill-opacity: 0"/>
     <use xlink:href="#mdc69dc9a02" x="119.071763" y="123.998033" style="fill: #1f77b4; fill-opacity: 0"/>
     <use xlink:href="#mdc69dc9a02" x="121.6537" y="122.315208" style="fill: #1f77b4; fill-opacity: 0"/>
     <use xlink:href="#mdc69dc9a02" x="124.235638" y="129.046507" style="fill: #1f77b4; fill-opacity: 0"/>
     <use xlink:href="#mdc69dc9a02" x="126.817575" y="123.998033" style="fill: #1f77b4; fill-opacity: 0"/>
     <use xlink:href="#mdc69dc9a02" x="129.399513" y="134.094982" style="fill: #1f77b4; fill-opacity: 0"/>
     <use xlink:href="#mdc69dc9a02" x="131.98145" y="110.535434" style="fill: #1f77b4; fill-opacity: 0"/>
     <use xlink:href="#mdc69dc9a02" x="134.563387" y="144.191931" style="fill: #1f77b4; fill-opacity: 0"/>
     <use xlink:href="#mdc69dc9a02" x="137.145325" y="139.143456" style="fill: #1f77b4; fill-opacity: 0"/>
     <use xlink:href="#mdc69dc9a02" x="139.727262" y="144.191931" style="fill: #1f77b4; fill-opacity: 0"/>
     <use xlink:href="#mdc69dc9a02" x="142.3092" y="150.92323" style="fill: #1f77b4; fill-opacity: 0"/>
     <use xlink:href="#mdc69dc9a02" x="144.891137" y="154.28888" style="fill: #1f77b4; fill-opacity: 0"/>
     <use xlink:href="#mdc69dc9a02" x="147.473074" y="157.65453" style="fill: #1f77b4; fill-opacity: 0"/>
    </g>
   </g>
   <g id="text_9">
    <!-- Distribution of $\tau$ -->
    <g transform="translate(27.347233 21.001587) scale(0.18 -0.18)">
     <defs>
      <path id="DejaVuSans-44" d="M 1259 4147 
L 1259 519 
L 2022 519 
Q 2988 519 3436 956 
Q 3884 1394 3884 2338 
Q 3884 3275 3436 3711 
Q 2988 4147 2022 4147 
L 1259 4147 
z
M 628 4666 
L 1925 4666 
Q 3281 4666 3915 4102 
Q 4550 3538 4550 2338 
Q 4550 1131 3912 565 
Q 3275 0 1925 0 
L 628 0 
L 628 4666 
z
" transform="scale(0.015625)"/>
      <path id="DejaVuSans-69" d="M 603 3500 
L 1178 3500 
L 1178 0 
L 603 0 
L 603 3500 
z
M 603 4863 
L 1178 4863 
L 1178 4134 
L 603 4134 
L 603 4863 
z
" transform="scale(0.015625)"/>
      <path id="DejaVuSans-73" d="M 2834 3397 
L 2834 2853 
Q 2591 2978 2328 3040 
Q 2066 3103 1784 3103 
Q 1356 3103 1142 2972 
Q 928 2841 928 2578 
Q 928 2378 1081 2264 
Q 1234 2150 1697 2047 
L 1894 2003 
Q 2506 1872 2764 1633 
Q 3022 1394 3022 966 
Q 3022 478 2636 193 
Q 2250 -91 1575 -91 
Q 1294 -91 989 -36 
Q 684 19 347 128 
L 347 722 
Q 666 556 975 473 
Q 1284 391 1588 391 
Q 1994 391 2212 530 
Q 2431 669 2431 922 
Q 2431 1156 2273 1281 
Q 2116 1406 1581 1522 
L 1381 1569 
Q 847 1681 609 1914 
Q 372 2147 372 2553 
Q 372 3047 722 3315 
Q 1072 3584 1716 3584 
Q 2034 3584 2315 3537 
Q 2597 3491 2834 3397 
z
" transform="scale(0.015625)"/>
      <path id="DejaVuSans-74" d="M 1172 4494 
L 1172 3500 
L 2356 3500 
L 2356 3053 
L 1172 3053 
L 1172 1153 
Q 1172 725 1289 603 
Q 1406 481 1766 481 
L 2356 481 
L 2356 0 
L 1766 0 
Q 1100 0 847 248 
Q 594 497 594 1153 
L 594 3053 
L 172 3053 
L 172 3500 
L 594 3500 
L 594 4494 
L 1172 4494 
z
" transform="scale(0.015625)"/>
      <path id="DejaVuSans-72" d="M 2631 2963 
Q 2534 3019 2420 3045 
Q 2306 3072 2169 3072 
Q 1681 3072 1420 2755 
Q 1159 2438 1159 1844 
L 1159 0 
L 581 0 
L 581 3500 
L 1159 3500 
L 1159 2956 
Q 1341 3275 1631 3429 
Q 1922 3584 2338 3584 
Q 2397 3584 2469 3576 
Q 2541 3569 2628 3553 
L 2631 2963 
z
" transform="scale(0.015625)"/>
      <path id="DejaVuSans-62" d="M 3116 1747 
Q 3116 2381 2855 2742 
Q 2594 3103 2138 3103 
Q 1681 3103 1420 2742 
Q 1159 2381 1159 1747 
Q 1159 1113 1420 752 
Q 1681 391 2138 391 
Q 2594 391 2855 752 
Q 3116 1113 3116 1747 
z
M 1159 2969 
Q 1341 3281 1617 3432 
Q 1894 3584 2278 3584 
Q 2916 3584 3314 3078 
Q 3713 2572 3713 1747 
Q 3713 922 3314 415 
Q 2916 -91 2278 -91 
Q 1894 -91 1617 61 
Q 1341 213 1159 525 
L 1159 0 
L 581 0 
L 581 4863 
L 1159 4863 
L 1159 2969 
z
" transform="scale(0.015625)"/>
      <path id="DejaVuSans-75" d="M 544 1381 
L 544 3500 
L 1119 3500 
L 1119 1403 
Q 1119 906 1312 657 
Q 1506 409 1894 409 
Q 2359 409 2629 706 
Q 2900 1003 2900 1516 
L 2900 3500 
L 3475 3500 
L 3475 0 
L 2900 0 
L 2900 538 
Q 2691 219 2414 64 
Q 2138 -91 1772 -91 
Q 1169 -91 856 284 
Q 544 659 544 1381 
z
M 1991 3584 
L 1991 3584 
z
" transform="scale(0.015625)"/>
      <path id="DejaVuSans-6f" d="M 1959 3097 
Q 1497 3097 1228 2736 
Q 959 2375 959 1747 
Q 959 1119 1226 758 
Q 1494 397 1959 397 
Q 2419 397 2687 759 
Q 2956 1122 2956 1747 
Q 2956 2369 2687 2733 
Q 2419 3097 1959 3097 
z
M 1959 3584 
Q 2709 3584 3137 3096 
Q 3566 2609 3566 1747 
Q 3566 888 3137 398 
Q 2709 -91 1959 -91 
Q 1206 -91 779 398 
Q 353 888 353 1747 
Q 353 2609 779 3096 
Q 1206 3584 1959 3584 
z
" transform="scale(0.015625)"/>
      <path id="DejaVuSans-6e" d="M 3513 2113 
L 3513 0 
L 2938 0 
L 2938 2094 
Q 2938 2591 2744 2837 
Q 2550 3084 2163 3084 
Q 1697 3084 1428 2787 
Q 1159 2491 1159 1978 
L 1159 0 
L 581 0 
L 581 3500 
L 1159 3500 
L 1159 2956 
Q 1366 3272 1645 3428 
Q 1925 3584 2291 3584 
Q 2894 3584 3203 3211 
Q 3513 2838 3513 2113 
z
" transform="scale(0.015625)"/>
      <path id="DejaVuSans-20" transform="scale(0.015625)"/>
      <path id="DejaVuSans-66" d="M 2375 4863 
L 2375 4384 
L 1825 4384 
Q 1516 4384 1395 4259 
Q 1275 4134 1275 3809 
L 1275 3500 
L 2222 3500 
L 2222 3053 
L 1275 3053 
L 1275 0 
L 697 0 
L 697 3053 
L 147 3053 
L 147 3500 
L 697 3500 
L 697 3744 
Q 697 4328 969 4595 
Q 1241 4863 1831 4863 
L 2375 4863 
z
" transform="scale(0.015625)"/>
      <path id="DejaVuSans-Oblique-3c4" d="M 2103 638 
Q 2188 488 2525 488 
L 2800 488 
L 2706 0 
L 2363 0 
Q 1800 0 1600 300 
Q 1403 606 1534 1269 
L 1856 2925 
L 541 2925 
L 653 3500 
L 3881 3500 
L 3769 2925 
L 2444 2925 
L 2113 1234 
Q 2025 781 2103 638 
z
" transform="scale(0.015625)"/>
     </defs>
     <use xlink:href="#DejaVuSans-44" transform="translate(0 0.015625)"/>
     <use xlink:href="#DejaVuSans-69" transform="translate(77.001953 0.015625)"/>
     <use xlink:href="#DejaVuSans-73" transform="translate(104.785156 0.015625)"/>
     <use xlink:href="#DejaVuSans-74" transform="translate(156.884766 0.015625)"/>
     <use xlink:href="#DejaVuSans-72" transform="translate(196.09375 0.015625)"/>
     <use xlink:href="#DejaVuSans-69" transform="translate(237.207031 0.015625)"/>
     <use xlink:href="#DejaVuSans-62" transform="translate(264.990234 0.015625)"/>
     <use xlink:href="#DejaVuSans-75" transform="translate(328.466797 0.015625)"/>
     <use xlink:href="#DejaVuSans-74" transform="translate(391.845703 0.015625)"/>
     <use xlink:href="#DejaVuSans-69" transform="translate(431.054688 0.015625)"/>
     <use xlink:href="#DejaVuSans-6f" transform="translate(458.837891 0.015625)"/>
     <use xlink:href="#DejaVuSans-6e" transform="translate(520.019531 0.015625)"/>
     <use xlink:href="#DejaVuSans-20" transform="translate(583.398438 0.015625)"/>
     <use xlink:href="#DejaVuSans-6f" transform="translate(615.185547 0.015625)"/>
     <use xlink:href="#DejaVuSans-66" transform="translate(676.367188 0.015625)"/>
     <use xlink:href="#DejaVuSans-20" transform="translate(711.572266 0.015625)"/>
     <use xlink:href="#DejaVuSans-Oblique-3c4" transform="translate(743.359375 0.015625)"/>
    </g>
   </g>
   <g id="text_10">
    <!-- $\tau$ -->
    <g transform="translate(160.373717 152.15191) scale(0.195 -0.195)">
     <use xlink:href="#DejaVuSans-Oblique-3c4" transform="translate(0 0.3125)"/>
    </g>
   </g>
   <g id="legend_1">
    <g id="patch_51">
     <path d="M 71.685354 74.875896 
L 171.165354 74.875896 
L 171.165354 8.834646 
L 71.685354 8.834646 
z
" style="fill: #ffffff; stroke: #000000; stroke-width: 1.5; stroke-linejoin: miter"/>
    </g>
    <g id="patch_52">
     <path d="M 81.285354 27.552771 
L 105.285354 27.552771 
L 105.285354 19.152771 
L 81.285354 19.152771 
z
" style="fill: #17becf; stroke: #000000; stroke-width: 0.6; stroke-linejoin: miter"/>
    </g>
    <g id="text_11">
     <!-- $v_0 = 5$ -->
     <g transform="translate(114.885354 27.552771) scale(0.12 -0.12)">
      <defs>
       <path id="DejaVuSans-Oblique-76" d="M 459 3500 
L 1069 3500 
L 1581 525 
L 3256 3500 
L 3866 3500 
L 1875 0 
L 1100 0 
L 459 3500 
z
" transform="scale(0.015625)"/>
       <path id="DejaVuSans-3d" d="M 678 2906 
L 4684 2906 
L 4684 2381 
L 678 2381 
L 678 2906 
z
M 678 1631 
L 4684 1631 
L 4684 1100 
L 678 1100 
L 678 1631 
z
" transform="scale(0.015625)"/>
       <path id="DejaVuSans-35" d="M 691 4666 
L 3169 4666 
L 3169 4134 
L 1269 4134 
L 1269 2991 
Q 1406 3038 1543 3061 
Q 1681 3084 1819 3084 
Q 2600 3084 3056 2656 
Q 3513 2228 3513 1497 
Q 3513 744 3044 326 
Q 2575 -91 1722 -91 
Q 1428 -91 1123 -41 
Q 819 9 494 109 
L 494 744 
Q 775 591 1075 516 
Q 1375 441 1709 441 
Q 2250 441 2565 725 
Q 2881 1009 2881 1497 
Q 2881 1984 2565 2268 
Q 2250 2553 1709 2553 
Q 1456 2553 1204 2497 
Q 953 2441 691 2322 
L 691 4666 
z
" transform="scale(0.015625)"/>
      </defs>
      <use xlink:href="#DejaVuSans-Oblique-76" transform="translate(0 0.09375)"/>
      <use xlink:href="#DejaVuSans-30" transform="translate(59.179688 -16.3125) scale(0.7)"/>
      <use xlink:href="#DejaVuSans-3d" transform="translate(125.932617 0.09375)"/>
      <use xlink:href="#DejaVuSans-35" transform="translate(229.204102 0.09375)"/>
     </g>
    </g>
    <g id="patch_53">
     <path d="M 81.285354 45.166521 
L 105.285354 45.166521 
L 105.285354 36.766521 
L 81.285354 36.766521 
z
" style="fill: #9467bd; stroke: #000000; stroke-width: 0.6; stroke-linejoin: miter"/>
    </g>
    <g id="text_12">
     <!-- $v_0 = 2.5$ -->
     <g transform="translate(114.885354 45.166521) scale(0.12 -0.12)">
      <defs>
       <path id="DejaVuSans-2e" d="M 684 794 
L 1344 794 
L 1344 0 
L 684 0 
L 684 794 
z
" transform="scale(0.015625)"/>
      </defs>
      <use xlink:href="#DejaVuSans-Oblique-76" transform="translate(0 0.78125)"/>
      <use xlink:href="#DejaVuSans-30" transform="translate(59.179688 -15.625) scale(0.7)"/>
      <use xlink:href="#DejaVuSans-3d" transform="translate(125.932617 0.78125)"/>
      <use xlink:href="#DejaVuSans-32" transform="translate(229.204102 0.78125)"/>
      <use xlink:href="#DejaVuSans-2e" transform="translate(292.827148 0.78125)"/>
      <use xlink:href="#DejaVuSans-35" transform="translate(324.614258 0.78125)"/>
     </g>
    </g>
    <g id="patch_54">
     <path d="M 81.285354 62.780271 
L 105.285354 62.780271 
L 105.285354 54.380271 
L 81.285354 54.380271 
z
" style="fill: #1f77b4; stroke: #000000; stroke-width: 0.6; stroke-linejoin: miter"/>
    </g>
    <g id="text_13">
     <!-- $v_0 = 0.5$ -->
     <g transform="translate(114.885354 62.780271) scale(0.12 -0.12)">
      <use xlink:href="#DejaVuSans-Oblique-76" transform="translate(0 0.78125)"/>
      <use xlink:href="#DejaVuSans-30" transform="translate(59.179688 -15.625) scale(0.7)"/>
      <use xlink:href="#DejaVuSans-3d" transform="translate(125.932617 0.78125)"/>
      <use xlink:href="#DejaVuSans-30" transform="translate(229.204102 0.78125)"/>
      <use xlink:href="#DejaVuSans-2e" transform="translate(292.827148 0.78125)"/>
      <use xlink:href="#DejaVuSans-35" transform="translate(324.614258 0.78125)"/>
     </g>
    </g>
   </g>
  </g>
 </g>
 <defs>
  <clipPath id="pa13d3716f9">
   <rect x="22.249111" y="2.834646" width="154.916243" height="156.502709"/>
  </clipPath>
 </defs>
</svg>
