<?xml version="1.0" encoding="utf-8" standalone="no"?>
<!DOCTYPE svg PUBLIC "-//W3C//DTD SVG 1.1//EN"
  "http://www.w3.org/Graphics/SVG/1.1/DTD/svg11.dtd">
<svg xmlns:xlink="http://www.w3.org/1999/xlink" width="165.6pt" height="252pt" viewBox="0 0 165.6 252" xmlns="http://www.w3.org/2000/svg" version="1.1">
 <metadata>
  <rdf:RDF xmlns:dc="http://purl.org/dc/elements/1.1/" xmlns:cc="http://creativecommons.org/ns#" xmlns:rdf="http://www.w3.org/1999/02/22-rdf-syntax-ns#">
   <cc:Work>
    <dc:type rdf:resource="http://purl.org/dc/dcmitype/StillImage"/>
    <dc:date>2023-10-28T10:03:47.452090</dc:date>
    <dc:format>image/svg+xml</dc:format>
    <dc:creator>
     <cc:Agent>
      <dc:title>Matplotlib v3.7.2, https://matplotlib.org/</dc:title>
     </cc:Agent>
    </dc:creator>
   </cc:Work>
  </rdf:RDF>
 </metadata>
 <defs>
  <style type="text/css">*{stroke-linejoin: round; stroke-linecap: butt}</style>
 </defs>
 <g id="figure_1">
  <g id="patch_1">
   <path d="M 0 252 
L 165.6 252 
L 165.6 0 
L 0 0 
z
" style="fill: #ffffff"/>
  </g>
  <g id="axes_1">
   <g id="patch_2">
    <path d="M 22.249111 231.337354 
L 157.69414 231.337354 
L 157.69414 2.834646 
L 22.249111 2.834646 
z
" style="fill: #ffffff"/>
   </g>
   <g id="patch_3">
    <path d="M 78.68454 228.880336 
L 78.68454 231.337354 
L 80.941957 231.337354 
L 80.941957 228.880336 
L 78.68454 228.880336 
" clip-path="url(#pf8569ef878)" style="fill: #1f77b4; stroke: #000000; stroke-width: 0.3; stroke-linejoin: miter"/>
   </g>
   <g id="patch_4">
    <path d="M 80.941957 231.337354 
L 80.941957 231.337354 
L 83.199374 231.337354 
L 83.199374 231.337354 
L 80.941957 231.337354 
" clip-path="url(#pf8569ef878)" style="fill: #1f77b4; stroke: #000000; stroke-width: 0.3; stroke-linejoin: miter"/>
   </g>
   <g id="patch_5">
    <path d="M 83.199374 223.966299 
L 83.199374 231.337354 
L 85.456791 231.337354 
L 85.456791 223.966299 
L 83.199374 223.966299 
" clip-path="url(#pf8569ef878)" style="fill: #1f77b4; stroke: #000000; stroke-width: 0.3; stroke-linejoin: miter"/>
   </g>
   <g id="patch_6">
    <path d="M 85.456791 226.423318 
L 85.456791 231.337354 
L 87.714208 231.337354 
L 87.714208 226.423318 
L 85.456791 226.423318 
" clip-path="url(#pf8569ef878)" style="fill: #1f77b4; stroke: #000000; stroke-width: 0.3; stroke-linejoin: miter"/>
   </g>
   <g id="patch_7">
    <path d="M 87.714208 223.966299 
L 87.714208 231.337354 
L 89.971625 231.337354 
L 89.971625 223.966299 
L 87.714208 223.966299 
" clip-path="url(#pf8569ef878)" style="fill: #1f77b4; stroke: #000000; stroke-width: 0.3; stroke-linejoin: miter"/>
   </g>
   <g id="patch_8">
    <path d="M 89.971625 223.966299 
L 89.971625 231.337354 
L 92.229042 231.337354 
L 92.229042 223.966299 
L 89.971625 223.966299 
" clip-path="url(#pf8569ef878)" style="fill: #1f77b4; stroke: #000000; stroke-width: 0.3; stroke-linejoin: miter"/>
   </g>
   <g id="patch_9">
    <path d="M 92.229042 221.509281 
L 92.229042 231.337354 
L 94.48646 231.337354 
L 94.48646 221.509281 
L 92.229042 221.509281 
" clip-path="url(#pf8569ef878)" style="fill: #1f77b4; stroke: #000000; stroke-width: 0.3; stroke-linejoin: miter"/>
   </g>
   <g id="patch_10">
    <path d="M 94.48646 219.052262 
L 94.48646 231.337354 
L 96.743877 231.337354 
L 96.743877 219.052262 
L 94.48646 219.052262 
" clip-path="url(#pf8569ef878)" style="fill: #1f77b4; stroke: #000000; stroke-width: 0.3; stroke-linejoin: miter"/>
   </g>
   <g id="patch_11">
    <path d="M 96.743877 201.853134 
L 96.743877 231.337354 
L 99.001294 231.337354 
L 99.001294 201.853134 
L 96.743877 201.853134 
" clip-path="url(#pf8569ef878)" style="fill: #1f77b4; stroke: #000000; stroke-width: 0.3; stroke-linejoin: miter"/>
   </g>
   <g id="patch_12">
    <path d="M 99.001294 194.482079 
L 99.001294 231.337354 
L 101.258711 231.337354 
L 101.258711 194.482079 
L 99.001294 194.482079 
" clip-path="url(#pf8569ef878)" style="fill: #1f77b4; stroke: #000000; stroke-width: 0.3; stroke-linejoin: miter"/>
   </g>
   <g id="patch_13">
    <path d="M 101.258711 169.911895 
L 101.258711 231.337354 
L 103.516128 231.337354 
L 103.516128 169.911895 
L 101.258711 169.911895 
" clip-path="url(#pf8569ef878)" style="fill: #1f77b4; stroke: #000000; stroke-width: 0.3; stroke-linejoin: miter"/>
   </g>
   <g id="patch_14">
    <path d="M 103.516128 177.28295 
L 103.516128 231.337354 
L 105.773545 231.337354 
L 105.773545 177.28295 
L 103.516128 177.28295 
" clip-path="url(#pf8569ef878)" style="fill: #1f77b4; stroke: #000000; stroke-width: 0.3; stroke-linejoin: miter"/>
   </g>
   <g id="patch_15">
    <path d="M 105.773545 179.739969 
L 105.773545 231.337354 
L 108.030962 231.337354 
L 108.030962 179.739969 
L 105.773545 179.739969 
" clip-path="url(#pf8569ef878)" style="fill: #1f77b4; stroke: #000000; stroke-width: 0.3; stroke-linejoin: miter"/>
   </g>
   <g id="patch_16">
    <path d="M 108.030962 177.28295 
L 108.030962 231.337354 
L 110.28838 231.337354 
L 110.28838 177.28295 
L 108.030962 177.28295 
" clip-path="url(#pf8569ef878)" style="fill: #1f77b4; stroke: #000000; stroke-width: 0.3; stroke-linejoin: miter"/>
   </g>
   <g id="patch_17">
    <path d="M 110.28838 187.111024 
L 110.28838 231.337354 
L 112.545797 231.337354 
L 112.545797 187.111024 
L 110.28838 187.111024 
" clip-path="url(#pf8569ef878)" style="fill: #1f77b4; stroke: #000000; stroke-width: 0.3; stroke-linejoin: miter"/>
   </g>
   <g id="patch_18">
    <path d="M 112.545797 179.739969 
L 112.545797 231.337354 
L 114.803214 231.337354 
L 114.803214 179.739969 
L 112.545797 179.739969 
" clip-path="url(#pf8569ef878)" style="fill: #1f77b4; stroke: #000000; stroke-width: 0.3; stroke-linejoin: miter"/>
   </g>
   <g id="patch_19">
    <path d="M 114.803214 194.482079 
L 114.803214 231.337354 
L 117.060631 231.337354 
L 117.060631 194.482079 
L 114.803214 194.482079 
" clip-path="url(#pf8569ef878)" style="fill: #1f77b4; stroke: #000000; stroke-width: 0.3; stroke-linejoin: miter"/>
   </g>
   <g id="patch_20">
    <path d="M 117.060631 160.083822 
L 117.060631 231.337354 
L 119.318048 231.337354 
L 119.318048 160.083822 
L 117.060631 160.083822 
" clip-path="url(#pf8569ef878)" style="fill: #1f77b4; stroke: #000000; stroke-width: 0.3; stroke-linejoin: miter"/>
   </g>
   <g id="patch_21">
    <path d="M 119.318048 209.224189 
L 119.318048 231.337354 
L 121.575465 231.337354 
L 121.575465 209.224189 
L 119.318048 209.224189 
" clip-path="url(#pf8569ef878)" style="fill: #1f77b4; stroke: #000000; stroke-width: 0.3; stroke-linejoin: miter"/>
   </g>
   <g id="patch_22">
    <path d="M 121.575465 201.853134 
L 121.575465 231.337354 
L 123.832883 231.337354 
L 123.832883 201.853134 
L 121.575465 201.853134 
" clip-path="url(#pf8569ef878)" style="fill: #1f77b4; stroke: #000000; stroke-width: 0.3; stroke-linejoin: miter"/>
   </g>
   <g id="patch_23">
    <path d="M 123.832883 209.224189 
L 123.832883 231.337354 
L 126.0903 231.337354 
L 126.0903 209.224189 
L 123.832883 209.224189 
" clip-path="url(#pf8569ef878)" style="fill: #1f77b4; stroke: #000000; stroke-width: 0.3; stroke-linejoin: miter"/>
   </g>
   <g id="patch_24">
    <path d="M 126.0903 219.052262 
L 126.0903 231.337354 
L 128.347717 231.337354 
L 128.347717 219.052262 
L 126.0903 219.052262 
" clip-path="url(#pf8569ef878)" style="fill: #1f77b4; stroke: #000000; stroke-width: 0.3; stroke-linejoin: miter"/>
   </g>
   <g id="patch_25">
    <path d="M 128.347717 223.966299 
L 128.347717 231.337354 
L 130.605134 231.337354 
L 130.605134 223.966299 
L 128.347717 223.966299 
" clip-path="url(#pf8569ef878)" style="fill: #1f77b4; stroke: #000000; stroke-width: 0.3; stroke-linejoin: miter"/>
   </g>
   <g id="patch_26">
    <path d="M 130.605134 228.880336 
L 130.605134 231.337354 
L 132.862551 231.337354 
L 132.862551 228.880336 
L 130.605134 228.880336 
" clip-path="url(#pf8569ef878)" style="fill: #1f77b4; stroke: #000000; stroke-width: 0.3; stroke-linejoin: miter"/>
   </g>
   <g id="PathCollection_1">
    <defs>
     <path id="m5323dd2163" d="M 0 0 
C 0 0 0 0 0 0 
C 0 0 0 0 0 0 
C 0 0 0 0 0 0 
C 0 0 0 0 0 0 
C 0 0 0 0 0 0 
C 0 0 0 0 0 0 
C 0 0 0 0 0 0 
C 0 0 0 0 0 0 
z
"/>
    </defs>
    <g clip-path="url(#pf8569ef878)">
     <use xlink:href="#m5323dd2163" x="79.813248" y="228.880336" style="fill: #1f77b4; fill-opacity: 0"/>
     <use xlink:href="#m5323dd2163" x="82.070665" y="231.337354" style="fill: #1f77b4; fill-opacity: 0"/>
     <use xlink:href="#m5323dd2163" x="84.328082" y="223.966299" style="fill: #1f77b4; fill-opacity: 0"/>
     <use xlink:href="#m5323dd2163" x="86.5855" y="226.423318" style="fill: #1f77b4; fill-opacity: 0"/>
     <use xlink:href="#m5323dd2163" x="88.842917" y="223.966299" style="fill: #1f77b4; fill-opacity: 0"/>
     <use xlink:href="#m5323dd2163" x="91.100334" y="223.966299" style="fill: #1f77b4; fill-opacity: 0"/>
     <use xlink:href="#m5323dd2163" x="93.357751" y="221.509281" style="fill: #1f77b4; fill-opacity: 0"/>
     <use xlink:href="#m5323dd2163" x="95.615168" y="219.052262" style="fill: #1f77b4; fill-opacity: 0"/>
     <use xlink:href="#m5323dd2163" x="97.872585" y="201.853134" style="fill: #1f77b4; fill-opacity: 0"/>
     <use xlink:href="#m5323dd2163" x="100.130002" y="194.482079" style="fill: #1f77b4; fill-opacity: 0"/>
     <use xlink:href="#m5323dd2163" x="102.38742" y="169.911895" style="fill: #1f77b4; fill-opacity: 0"/>
     <use xlink:href="#m5323dd2163" x="104.644837" y="177.28295" style="fill: #1f77b4; fill-opacity: 0"/>
     <use xlink:href="#m5323dd2163" x="106.902254" y="179.739969" style="fill: #1f77b4; fill-opacity: 0"/>
     <use xlink:href="#m5323dd2163" x="109.159671" y="177.28295" style="fill: #1f77b4; fill-opacity: 0"/>
     <use xlink:href="#m5323dd2163" x="111.417088" y="187.111024" style="fill: #1f77b4; fill-opacity: 0"/>
     <use xlink:href="#m5323dd2163" x="113.674505" y="179.739969" style="fill: #1f77b4; fill-opacity: 0"/>
     <use xlink:href="#m5323dd2163" x="115.931923" y="194.482079" style="fill: #1f77b4; fill-opacity: 0"/>
     <use xlink:href="#m5323dd2163" x="118.18934" y="160.083822" style="fill: #1f77b4; fill-opacity: 0"/>
     <use xlink:href="#m5323dd2163" x="120.446757" y="209.224189" style="fill: #1f77b4; fill-opacity: 0"/>
     <use xlink:href="#m5323dd2163" x="122.704174" y="201.853134" style="fill: #1f77b4; fill-opacity: 0"/>
     <use xlink:href="#m5323dd2163" x="124.961591" y="209.224189" style="fill: #1f77b4; fill-opacity: 0"/>
     <use xlink:href="#m5323dd2163" x="127.219008" y="219.052262" style="fill: #1f77b4; fill-opacity: 0"/>
     <use xlink:href="#m5323dd2163" x="129.476425" y="223.966299" style="fill: #1f77b4; fill-opacity: 0"/>
     <use xlink:href="#m5323dd2163" x="131.733843" y="228.880336" style="fill: #1f77b4; fill-opacity: 0"/>
    </g>
   </g>
   <g id="matplotlib.axis_1">
    <g id="xtick_1">
     <g id="line2d_1">
      <defs>
       <path id="m8bde4b0e8d" d="M 0 0 
L 0 -3.75 
" style="stroke: #000000; stroke-width: 0.75"/>
      </defs>
      <g>
       <use xlink:href="#m8bde4b0e8d" x="22.249111" y="231.337354" style="stroke: #000000; stroke-width: 0.75"/>
      </g>
     </g>
     <g id="text_1">
      <!-- $10^{1}$ -->
      <g transform="translate(11.689111 243.955479) scale(0.12 -0.12)">
       <defs>
        <path id="DejaVuSans-31" d="M 794 531 
L 1825 531 
L 1825 4091 
L 703 3866 
L 703 4441 
L 1819 4666 
L 2450 4666 
L 2450 531 
L 3481 531 
L 3481 0 
L 794 0 
L 794 531 
z
" transform="scale(0.015625)"/>
        <path id="DejaVuSans-30" d="M 2034 4250 
Q 1547 4250 1301 3770 
Q 1056 3291 1056 2328 
Q 1056 1369 1301 889 
Q 1547 409 2034 409 
Q 2525 409 2770 889 
Q 3016 1369 3016 2328 
Q 3016 3291 2770 3770 
Q 2525 4250 2034 4250 
z
M 2034 4750 
Q 2819 4750 3233 4129 
Q 3647 3509 3647 2328 
Q 3647 1150 3233 529 
Q 2819 -91 2034 -91 
Q 1250 -91 836 529 
Q 422 1150 422 2328 
Q 422 3509 836 4129 
Q 1250 4750 2034 4750 
z
" transform="scale(0.015625)"/>
       </defs>
       <use xlink:href="#DejaVuSans-31" transform="translate(0 0.684375)"/>
       <use xlink:href="#DejaVuSans-30" transform="translate(63.623047 0.684375)"/>
       <use xlink:href="#DejaVuSans-31" transform="translate(128.203125 38.965625) scale(0.7)"/>
      </g>
     </g>
    </g>
    <g id="xtick_2">
     <g id="line2d_2">
      <g>
       <use xlink:href="#m8bde4b0e8d" x="67.397454" y="231.337354" style="stroke: #000000; stroke-width: 0.75"/>
      </g>
     </g>
     <g id="text_2">
      <!-- $10^{2}$ -->
      <g transform="translate(56.837454 243.955479) scale(0.12 -0.12)">
       <defs>
        <path id="DejaVuSans-32" d="M 1228 531 
L 3431 531 
L 3431 0 
L 469 0 
L 469 531 
Q 828 903 1448 1529 
Q 2069 2156 2228 2338 
Q 2531 2678 2651 2914 
Q 2772 3150 2772 3378 
Q 2772 3750 2511 3984 
Q 2250 4219 1831 4219 
Q 1534 4219 1204 4116 
Q 875 4013 500 3803 
L 500 4441 
Q 881 4594 1212 4672 
Q 1544 4750 1819 4750 
Q 2544 4750 2975 4387 
Q 3406 4025 3406 3419 
Q 3406 3131 3298 2873 
Q 3191 2616 2906 2266 
Q 2828 2175 2409 1742 
Q 1991 1309 1228 531 
z
" transform="scale(0.015625)"/>
       </defs>
       <use xlink:href="#DejaVuSans-31" transform="translate(0 0.765625)"/>
       <use xlink:href="#DejaVuSans-30" transform="translate(63.623047 0.765625)"/>
       <use xlink:href="#DejaVuSans-32" transform="translate(128.203125 39.046875) scale(0.7)"/>
      </g>
     </g>
    </g>
    <g id="xtick_3">
     <g id="line2d_3">
      <g>
       <use xlink:href="#m8bde4b0e8d" x="112.545797" y="231.337354" style="stroke: #000000; stroke-width: 0.75"/>
      </g>
     </g>
     <g id="text_3">
      <!-- $10^{3}$ -->
      <g transform="translate(101.985797 243.955479) scale(0.12 -0.12)">
       <defs>
        <path id="DejaVuSans-33" d="M 2597 2516 
Q 3050 2419 3304 2112 
Q 3559 1806 3559 1356 
Q 3559 666 3084 287 
Q 2609 -91 1734 -91 
Q 1441 -91 1130 -33 
Q 819 25 488 141 
L 488 750 
Q 750 597 1062 519 
Q 1375 441 1716 441 
Q 2309 441 2620 675 
Q 2931 909 2931 1356 
Q 2931 1769 2642 2001 
Q 2353 2234 1838 2234 
L 1294 2234 
L 1294 2753 
L 1863 2753 
Q 2328 2753 2575 2939 
Q 2822 3125 2822 3475 
Q 2822 3834 2567 4026 
Q 2313 4219 1838 4219 
Q 1578 4219 1281 4162 
Q 984 4106 628 3988 
L 628 4550 
Q 988 4650 1302 4700 
Q 1616 4750 1894 4750 
Q 2613 4750 3031 4423 
Q 3450 4097 3450 3541 
Q 3450 3153 3228 2886 
Q 3006 2619 2597 2516 
z
" transform="scale(0.015625)"/>
       </defs>
       <use xlink:href="#DejaVuSans-31" transform="translate(0 0.765625)"/>
       <use xlink:href="#DejaVuSans-30" transform="translate(63.623047 0.765625)"/>
       <use xlink:href="#DejaVuSans-33" transform="translate(128.203125 39.046875) scale(0.7)"/>
      </g>
     </g>
    </g>
   </g>
   <g id="matplotlib.axis_2">
    <g id="ytick_1">
     <g id="line2d_4">
      <defs>
       <path id="m85607647a5" d="M 0 0 
L 3.75 0 
" style="stroke: #000000; stroke-width: 0.75"/>
      </defs>
      <g>
       <use xlink:href="#m85607647a5" x="22.249111" y="231.337354" style="stroke: #000000; stroke-width: 0.75"/>
      </g>
     </g>
     <g id="text_4">
      <!-- $0$ -->
      <g transform="translate(11.069111 235.896417) scale(0.12 -0.12)">
       <use xlink:href="#DejaVuSans-30" transform="translate(0 0.78125)"/>
      </g>
     </g>
    </g>
    <g id="ytick_2">
     <g id="line2d_5">
      <g>
       <use xlink:href="#m85607647a5" x="22.249111" y="182.196987" style="stroke: #000000; stroke-width: 0.75"/>
      </g>
     </g>
     <g id="text_5">
      <!-- $20$ -->
      <g transform="translate(3.389111 186.756049) scale(0.12 -0.12)">
       <use xlink:href="#DejaVuSans-32" transform="translate(0 0.78125)"/>
       <use xlink:href="#DejaVuSans-30" transform="translate(63.623047 0.78125)"/>
      </g>
     </g>
    </g>
    <g id="ytick_3">
     <g id="line2d_6">
      <g>
       <use xlink:href="#m85607647a5" x="22.249111" y="133.056619" style="stroke: #000000; stroke-width: 0.75"/>
      </g>
     </g>
     <g id="text_6">
      <!-- $40$ -->
      <g transform="translate(3.389111 137.615682) scale(0.12 -0.12)">
       <defs>
        <path id="DejaVuSans-34" d="M 2419 4116 
L 825 1625 
L 2419 1625 
L 2419 4116 
z
M 2253 4666 
L 3047 4666 
L 3047 1625 
L 3713 1625 
L 3713 1100 
L 3047 1100 
L 3047 0 
L 2419 0 
L 2419 1100 
L 313 1100 
L 313 1709 
L 2253 4666 
z
" transform="scale(0.015625)"/>
       </defs>
       <use xlink:href="#DejaVuSans-34" transform="translate(0 0.78125)"/>
       <use xlink:href="#DejaVuSans-30" transform="translate(63.623047 0.78125)"/>
      </g>
     </g>
    </g>
    <g id="ytick_4">
     <g id="line2d_7">
      <g>
       <use xlink:href="#m85607647a5" x="22.249111" y="83.916252" style="stroke: #000000; stroke-width: 0.75"/>
      </g>
     </g>
     <g id="text_7">
      <!-- $60$ -->
      <g transform="translate(3.389111 88.475314) scale(0.12 -0.12)">
       <defs>
        <path id="DejaVuSans-36" d="M 2113 2584 
Q 1688 2584 1439 2293 
Q 1191 2003 1191 1497 
Q 1191 994 1439 701 
Q 1688 409 2113 409 
Q 2538 409 2786 701 
Q 3034 994 3034 1497 
Q 3034 2003 2786 2293 
Q 2538 2584 2113 2584 
z
M 3366 4563 
L 3366 3988 
Q 3128 4100 2886 4159 
Q 2644 4219 2406 4219 
Q 1781 4219 1451 3797 
Q 1122 3375 1075 2522 
Q 1259 2794 1537 2939 
Q 1816 3084 2150 3084 
Q 2853 3084 3261 2657 
Q 3669 2231 3669 1497 
Q 3669 778 3244 343 
Q 2819 -91 2113 -91 
Q 1303 -91 875 529 
Q 447 1150 447 2328 
Q 447 3434 972 4092 
Q 1497 4750 2381 4750 
Q 2619 4750 2861 4703 
Q 3103 4656 3366 4563 
z
" transform="scale(0.015625)"/>
       </defs>
       <use xlink:href="#DejaVuSans-36" transform="translate(0 0.78125)"/>
       <use xlink:href="#DejaVuSans-30" transform="translate(63.623047 0.78125)"/>
      </g>
     </g>
    </g>
    <g id="ytick_5">
     <g id="line2d_8">
      <g>
       <use xlink:href="#m85607647a5" x="22.249111" y="34.775885" style="stroke: #000000; stroke-width: 0.75"/>
      </g>
     </g>
     <g id="text_8">
      <!-- $80$ -->
      <g transform="translate(3.389111 39.334947) scale(0.12 -0.12)">
       <defs>
        <path id="DejaVuSans-38" d="M 2034 2216 
Q 1584 2216 1326 1975 
Q 1069 1734 1069 1313 
Q 1069 891 1326 650 
Q 1584 409 2034 409 
Q 2484 409 2743 651 
Q 3003 894 3003 1313 
Q 3003 1734 2745 1975 
Q 2488 2216 2034 2216 
z
M 1403 2484 
Q 997 2584 770 2862 
Q 544 3141 544 3541 
Q 544 4100 942 4425 
Q 1341 4750 2034 4750 
Q 2731 4750 3128 4425 
Q 3525 4100 3525 3541 
Q 3525 3141 3298 2862 
Q 3072 2584 2669 2484 
Q 3125 2378 3379 2068 
Q 3634 1759 3634 1313 
Q 3634 634 3220 271 
Q 2806 -91 2034 -91 
Q 1263 -91 848 271 
Q 434 634 434 1313 
Q 434 1759 690 2068 
Q 947 2378 1403 2484 
z
M 1172 3481 
Q 1172 3119 1398 2916 
Q 1625 2713 2034 2713 
Q 2441 2713 2670 2916 
Q 2900 3119 2900 3481 
Q 2900 3844 2670 4047 
Q 2441 4250 2034 4250 
Q 1625 4250 1398 4047 
Q 1172 3844 1172 3481 
z
" transform="scale(0.015625)"/>
       </defs>
       <use xlink:href="#DejaVuSans-38" transform="translate(0 0.78125)"/>
       <use xlink:href="#DejaVuSans-30" transform="translate(63.623047 0.78125)"/>
      </g>
     </g>
    </g>
   </g>
   <g id="patch_27">
    <path d="M 60.625202 223.966299 
L 60.625202 231.337354 
L 62.88262 231.337354 
L 62.88262 223.966299 
L 60.625202 223.966299 
" clip-path="url(#pf8569ef878)" style="fill: #9467bd; stroke: #000000; stroke-width: 0.3; stroke-linejoin: miter"/>
   </g>
   <g id="patch_28">
    <path d="M 62.88262 226.423318 
L 62.88262 231.337354 
L 65.140037 231.337354 
L 65.140037 226.423318 
L 62.88262 226.423318 
" clip-path="url(#pf8569ef878)" style="fill: #9467bd; stroke: #000000; stroke-width: 0.3; stroke-linejoin: miter"/>
   </g>
   <g id="patch_29">
    <path d="M 65.140037 206.767171 
L 65.140037 231.337354 
L 67.397454 231.337354 
L 67.397454 206.767171 
L 65.140037 206.767171 
" clip-path="url(#pf8569ef878)" style="fill: #9467bd; stroke: #000000; stroke-width: 0.3; stroke-linejoin: miter"/>
   </g>
   <g id="patch_30">
    <path d="M 67.397454 199.396115 
L 67.397454 231.337354 
L 69.654871 231.337354 
L 69.654871 199.396115 
L 67.397454 199.396115 
" clip-path="url(#pf8569ef878)" style="fill: #9467bd; stroke: #000000; stroke-width: 0.3; stroke-linejoin: miter"/>
   </g>
   <g id="patch_31">
    <path d="M 69.654871 179.739969 
L 69.654871 231.337354 
L 71.912288 231.337354 
L 71.912288 179.739969 
L 69.654871 179.739969 
" clip-path="url(#pf8569ef878)" style="fill: #9467bd; stroke: #000000; stroke-width: 0.3; stroke-linejoin: miter"/>
   </g>
   <g id="patch_32">
    <path d="M 71.912288 125.685564 
L 71.912288 231.337354 
L 74.169705 231.337354 
L 74.169705 125.685564 
L 71.912288 125.685564 
" clip-path="url(#pf8569ef878)" style="fill: #9467bd; stroke: #000000; stroke-width: 0.3; stroke-linejoin: miter"/>
   </g>
   <g id="patch_33">
    <path d="M 74.169705 118.314509 
L 74.169705 231.337354 
L 76.427122 231.337354 
L 76.427122 118.314509 
L 74.169705 118.314509 
" clip-path="url(#pf8569ef878)" style="fill: #9467bd; stroke: #000000; stroke-width: 0.3; stroke-linejoin: miter"/>
   </g>
   <g id="patch_34">
    <path d="M 76.427122 110.943454 
L 76.427122 231.337354 
L 78.68454 231.337354 
L 78.68454 110.943454 
L 76.427122 110.943454 
" clip-path="url(#pf8569ef878)" style="fill: #9467bd; stroke: #000000; stroke-width: 0.3; stroke-linejoin: miter"/>
   </g>
   <g id="patch_35">
    <path d="M 78.68454 150.255748 
L 78.68454 231.337354 
L 80.941957 231.337354 
L 80.941957 150.255748 
L 78.68454 150.255748 
" clip-path="url(#pf8569ef878)" style="fill: #9467bd; stroke: #000000; stroke-width: 0.3; stroke-linejoin: miter"/>
   </g>
   <g id="patch_36">
    <path d="M 80.941957 167.454877 
L 80.941957 231.337354 
L 83.199374 231.337354 
L 83.199374 167.454877 
L 80.941957 167.454877 
" clip-path="url(#pf8569ef878)" style="fill: #9467bd; stroke: #000000; stroke-width: 0.3; stroke-linejoin: miter"/>
   </g>
   <g id="patch_37">
    <path d="M 83.199374 211.681207 
L 83.199374 231.337354 
L 85.456791 231.337354 
L 85.456791 211.681207 
L 83.199374 211.681207 
" clip-path="url(#pf8569ef878)" style="fill: #9467bd; stroke: #000000; stroke-width: 0.3; stroke-linejoin: miter"/>
   </g>
   <g id="patch_38">
    <path d="M 85.456791 216.595244 
L 85.456791 231.337354 
L 87.714208 231.337354 
L 87.714208 216.595244 
L 85.456791 216.595244 
" clip-path="url(#pf8569ef878)" style="fill: #9467bd; stroke: #000000; stroke-width: 0.3; stroke-linejoin: miter"/>
   </g>
   <g id="PathCollection_2">
    <defs>
     <path id="m10619af2c8" d="M 0 0 
C 0 0 0 0 0 0 
C 0 0 0 0 0 0 
C 0 0 0 0 0 0 
C 0 0 0 0 0 0 
C 0 0 0 0 0 0 
C 0 0 0 0 0 0 
C 0 0 0 0 0 0 
C 0 0 0 0 0 0 
z
"/>
    </defs>
    <g clip-path="url(#pf8569ef878)">
     <use xlink:href="#m10619af2c8" x="61.753911" y="223.966299" style="fill: #9467bd; fill-opacity: 0"/>
     <use xlink:href="#m10619af2c8" x="64.011328" y="226.423318" style="fill: #9467bd; fill-opacity: 0"/>
     <use xlink:href="#m10619af2c8" x="66.268745" y="206.767171" style="fill: #9467bd; fill-opacity: 0"/>
     <use xlink:href="#m10619af2c8" x="68.526162" y="199.396115" style="fill: #9467bd; fill-opacity: 0"/>
     <use xlink:href="#m10619af2c8" x="70.78358" y="179.739969" style="fill: #9467bd; fill-opacity: 0"/>
     <use xlink:href="#m10619af2c8" x="73.040997" y="125.685564" style="fill: #9467bd; fill-opacity: 0"/>
     <use xlink:href="#m10619af2c8" x="75.298414" y="118.314509" style="fill: #9467bd; fill-opacity: 0"/>
     <use xlink:href="#m10619af2c8" x="77.555831" y="110.943454" style="fill: #9467bd; fill-opacity: 0"/>
     <use xlink:href="#m10619af2c8" x="79.813248" y="150.255748" style="fill: #9467bd; fill-opacity: 0"/>
     <use xlink:href="#m10619af2c8" x="82.070665" y="167.454877" style="fill: #9467bd; fill-opacity: 0"/>
     <use xlink:href="#m10619af2c8" x="84.328082" y="211.681207" style="fill: #9467bd; fill-opacity: 0"/>
     <use xlink:href="#m10619af2c8" x="86.5855" y="216.595244" style="fill: #9467bd; fill-opacity: 0"/>
    </g>
   </g>
   <g id="patch_39">
    <path d="M 22.249111 231.337354 
L 22.249111 2.834646 
" style="fill: none; stroke: #000000; stroke-width: 1.5; stroke-linejoin: miter; stroke-linecap: square"/>
   </g>
   <g id="patch_40">
    <path d="M 157.69414 231.337354 
L 157.69414 2.834646 
" style="fill: none; stroke: #000000; stroke-width: 1.5; stroke-linejoin: miter; stroke-linecap: square"/>
   </g>
   <g id="patch_41">
    <path d="M 22.249111 231.337354 
L 157.69414 231.337354 
" style="fill: none; stroke: #000000; stroke-width: 1.5; stroke-linejoin: miter; stroke-linecap: square"/>
   </g>
   <g id="patch_42">
    <path d="M 22.249111 2.834646 
L 157.69414 2.834646 
" style="fill: none; stroke: #000000; stroke-width: 1.5; stroke-linejoin: miter; stroke-linecap: square"/>
   </g>
   <g id="patch_43">
    <path d="M 40.308448 223.966299 
L 40.308448 231.337354 
L 42.565865 231.337354 
L 42.565865 223.966299 
L 40.308448 223.966299 
" clip-path="url(#pf8569ef878)" style="fill: #17becf; stroke: #000000; stroke-width: 0.3; stroke-linejoin: miter"/>
   </g>
   <g id="patch_44">
    <path d="M 42.565865 192.02506 
L 42.565865 231.337354 
L 44.823282 231.337354 
L 44.823282 192.02506 
L 42.565865 192.02506 
" clip-path="url(#pf8569ef878)" style="fill: #17becf; stroke: #000000; stroke-width: 0.3; stroke-linejoin: miter"/>
   </g>
   <g id="patch_45">
    <path d="M 44.823282 140.427675 
L 44.823282 231.337354 
L 47.0807 231.337354 
L 47.0807 140.427675 
L 44.823282 140.427675 
" clip-path="url(#pf8569ef878)" style="fill: #17becf; stroke: #000000; stroke-width: 0.3; stroke-linejoin: miter"/>
   </g>
   <g id="patch_46">
    <path d="M 47.0807 98.658362 
L 47.0807 231.337354 
L 49.338117 231.337354 
L 49.338117 98.658362 
L 47.0807 98.658362 
" clip-path="url(#pf8569ef878)" style="fill: #17becf; stroke: #000000; stroke-width: 0.3; stroke-linejoin: miter"/>
   </g>
   <g id="patch_47">
    <path d="M 49.338117 34.775885 
L 49.338117 231.337354 
L 51.595534 231.337354 
L 51.595534 34.775885 
L 49.338117 34.775885 
" clip-path="url(#pf8569ef878)" style="fill: #17becf; stroke: #000000; stroke-width: 0.3; stroke-linejoin: miter"/>
   </g>
   <g id="patch_48">
    <path d="M 51.595534 110.943454 
L 51.595534 231.337354 
L 53.852951 231.337354 
L 53.852951 110.943454 
L 51.595534 110.943454 
" clip-path="url(#pf8569ef878)" style="fill: #17becf; stroke: #000000; stroke-width: 0.3; stroke-linejoin: miter"/>
   </g>
   <g id="patch_49">
    <path d="M 53.852951 182.196987 
L 53.852951 231.337354 
L 56.110368 231.337354 
L 56.110368 182.196987 
L 53.852951 182.196987 
" clip-path="url(#pf8569ef878)" style="fill: #17becf; stroke: #000000; stroke-width: 0.3; stroke-linejoin: miter"/>
   </g>
   <g id="patch_50">
    <path d="M 56.110368 228.880336 
L 56.110368 231.337354 
L 58.367785 231.337354 
L 58.367785 228.880336 
L 56.110368 228.880336 
" clip-path="url(#pf8569ef878)" style="fill: #17becf; stroke: #000000; stroke-width: 0.3; stroke-linejoin: miter"/>
   </g>
   <g id="PathCollection_3">
    <defs>
     <path id="m401fe43aaf" d="M 0 0 
C 0 0 0 0 0 0 
C 0 0 0 0 0 0 
C 0 0 0 0 0 0 
C 0 0 0 0 0 0 
C 0 0 0 0 0 0 
C 0 0 0 0 0 0 
C 0 0 0 0 0 0 
C 0 0 0 0 0 0 
z
"/>
    </defs>
    <g clip-path="url(#pf8569ef878)">
     <use xlink:href="#m401fe43aaf" x="41.437157" y="223.966299" style="fill: #17becf; fill-opacity: 0"/>
     <use xlink:href="#m401fe43aaf" x="43.694574" y="192.02506" style="fill: #17becf; fill-opacity: 0"/>
     <use xlink:href="#m401fe43aaf" x="45.951991" y="140.427675" style="fill: #17becf; fill-opacity: 0"/>
     <use xlink:href="#m401fe43aaf" x="48.209408" y="98.658362" style="fill: #17becf; fill-opacity: 0"/>
     <use xlink:href="#m401fe43aaf" x="50.466825" y="34.775885" style="fill: #17becf; fill-opacity: 0"/>
     <use xlink:href="#m401fe43aaf" x="52.724242" y="110.943454" style="fill: #17becf; fill-opacity: 0"/>
     <use xlink:href="#m401fe43aaf" x="54.98166" y="182.196987" style="fill: #17becf; fill-opacity: 0"/>
     <use xlink:href="#m401fe43aaf" x="57.239077" y="228.880336" style="fill: #17becf; fill-opacity: 0"/>
    </g>
   </g>
   <g id="text_9">
    <!-- Distribution of $\tau$ -->
    <g transform="translate(23.641625 22.253432) scale(0.165 -0.165)">
     <defs>
      <path id="DejaVuSans-44" d="M 1259 4147 
L 1259 519 
L 2022 519 
Q 2988 519 3436 956 
Q 3884 1394 3884 2338 
Q 3884 3275 3436 3711 
Q 2988 4147 2022 4147 
L 1259 4147 
z
M 628 4666 
L 1925 4666 
Q 3281 4666 3915 4102 
Q 4550 3538 4550 2338 
Q 4550 1131 3912 565 
Q 3275 0 1925 0 
L 628 0 
L 628 4666 
z
" transform="scale(0.015625)"/>
      <path id="DejaVuSans-69" d="M 603 3500 
L 1178 3500 
L 1178 0 
L 603 0 
L 603 3500 
z
M 603 4863 
L 1178 4863 
L 1178 4134 
L 603 4134 
L 603 4863 
z
" transform="scale(0.015625)"/>
      <path id="DejaVuSans-73" d="M 2834 3397 
L 2834 2853 
Q 2591 2978 2328 3040 
Q 2066 3103 1784 3103 
Q 1356 3103 1142 2972 
Q 928 2841 928 2578 
Q 928 2378 1081 2264 
Q 1234 2150 1697 2047 
L 1894 2003 
Q 2506 1872 2764 1633 
Q 3022 1394 3022 966 
Q 3022 478 2636 193 
Q 2250 -91 1575 -91 
Q 1294 -91 989 -36 
Q 684 19 347 128 
L 347 722 
Q 666 556 975 473 
Q 1284 391 1588 391 
Q 1994 391 2212 530 
Q 2431 669 2431 922 
Q 2431 1156 2273 1281 
Q 2116 1406 1581 1522 
L 1381 1569 
Q 847 1681 609 1914 
Q 372 2147 372 2553 
Q 372 3047 722 3315 
Q 1072 3584 1716 3584 
Q 2034 3584 2315 3537 
Q 2597 3491 2834 3397 
z
" transform="scale(0.015625)"/>
      <path id="DejaVuSans-74" d="M 1172 4494 
L 1172 3500 
L 2356 3500 
L 2356 3053 
L 1172 3053 
L 1172 1153 
Q 1172 725 1289 603 
Q 1406 481 1766 481 
L 2356 481 
L 2356 0 
L 1766 0 
Q 1100 0 847 248 
Q 594 497 594 1153 
L 594 3053 
L 172 3053 
L 172 3500 
L 594 3500 
L 594 4494 
L 1172 4494 
z
" transform="scale(0.015625)"/>
      <path id="DejaVuSans-72" d="M 2631 2963 
Q 2534 3019 2420 3045 
Q 2306 3072 2169 3072 
Q 1681 3072 1420 2755 
Q 1159 2438 1159 1844 
L 1159 0 
L 581 0 
L 581 3500 
L 1159 3500 
L 1159 2956 
Q 1341 3275 1631 3429 
Q 1922 3584 2338 3584 
Q 2397 3584 2469 3576 
Q 2541 3569 2628 3553 
L 2631 2963 
z
" transform="scale(0.015625)"/>
      <path id="DejaVuSans-62" d="M 3116 1747 
Q 3116 2381 2855 2742 
Q 2594 3103 2138 3103 
Q 1681 3103 1420 2742 
Q 1159 2381 1159 1747 
Q 1159 1113 1420 752 
Q 1681 391 2138 391 
Q 2594 391 2855 752 
Q 3116 1113 3116 1747 
z
M 1159 2969 
Q 1341 3281 1617 3432 
Q 1894 3584 2278 3584 
Q 2916 3584 3314 3078 
Q 3713 2572 3713 1747 
Q 3713 922 3314 415 
Q 2916 -91 2278 -91 
Q 1894 -91 1617 61 
Q 1341 213 1159 525 
L 1159 0 
L 581 0 
L 581 4863 
L 1159 4863 
L 1159 2969 
z
" transform="scale(0.015625)"/>
      <path id="DejaVuSans-75" d="M 544 1381 
L 544 3500 
L 1119 3500 
L 1119 1403 
Q 1119 906 1312 657 
Q 1506 409 1894 409 
Q 2359 409 2629 706 
Q 2900 1003 2900 1516 
L 2900 3500 
L 3475 3500 
L 3475 0 
L 2900 0 
L 2900 538 
Q 2691 219 2414 64 
Q 2138 -91 1772 -91 
Q 1169 -91 856 284 
Q 544 659 544 1381 
z
M 1991 3584 
L 1991 3584 
z
" transform="scale(0.015625)"/>
      <path id="DejaVuSans-6f" d="M 1959 3097 
Q 1497 3097 1228 2736 
Q 959 2375 959 1747 
Q 959 1119 1226 758 
Q 1494 397 1959 397 
Q 2419 397 2687 759 
Q 2956 1122 2956 1747 
Q 2956 2369 2687 2733 
Q 2419 3097 1959 3097 
z
M 1959 3584 
Q 2709 3584 3137 3096 
Q 3566 2609 3566 1747 
Q 3566 888 3137 398 
Q 2709 -91 1959 -91 
Q 1206 -91 779 398 
Q 353 888 353 1747 
Q 353 2609 779 3096 
Q 1206 3584 1959 3584 
z
" transform="scale(0.015625)"/>
      <path id="DejaVuSans-6e" d="M 3513 2113 
L 3513 0 
L 2938 0 
L 2938 2094 
Q 2938 2591 2744 2837 
Q 2550 3084 2163 3084 
Q 1697 3084 1428 2787 
Q 1159 2491 1159 1978 
L 1159 0 
L 581 0 
L 581 3500 
L 1159 3500 
L 1159 2956 
Q 1366 3272 1645 3428 
Q 1925 3584 2291 3584 
Q 2894 3584 3203 3211 
Q 3513 2838 3513 2113 
z
" transform="scale(0.015625)"/>
      <path id="DejaVuSans-20" transform="scale(0.015625)"/>
      <path id="DejaVuSans-66" d="M 2375 4863 
L 2375 4384 
L 1825 4384 
Q 1516 4384 1395 4259 
Q 1275 4134 1275 3809 
L 1275 3500 
L 2222 3500 
L 2222 3053 
L 1275 3053 
L 1275 0 
L 697 0 
L 697 3053 
L 147 3053 
L 147 3500 
L 697 3500 
L 697 3744 
Q 697 4328 969 4595 
Q 1241 4863 1831 4863 
L 2375 4863 
z
" transform="scale(0.015625)"/>
      <path id="DejaVuSans-Oblique-3c4" d="M 2103 638 
Q 2188 488 2525 488 
L 2800 488 
L 2706 0 
L 2363 0 
Q 1800 0 1600 300 
Q 1403 606 1534 1269 
L 1856 2925 
L 541 2925 
L 653 3500 
L 3881 3500 
L 3769 2925 
L 2444 2925 
L 2113 1234 
Q 2025 781 2103 638 
z
" transform="scale(0.015625)"/>
     </defs>
     <use xlink:href="#DejaVuSans-44" transform="translate(0 0.015625)"/>
     <use xlink:href="#DejaVuSans-69" transform="translate(77.001953 0.015625)"/>
     <use xlink:href="#DejaVuSans-73" transform="translate(104.785156 0.015625)"/>
     <use xlink:href="#DejaVuSans-74" transform="translate(156.884766 0.015625)"/>
     <use xlink:href="#DejaVuSans-72" transform="translate(196.09375 0.015625)"/>
     <use xlink:href="#DejaVuSans-69" transform="translate(237.207031 0.015625)"/>
     <use xlink:href="#DejaVuSans-62" transform="translate(264.990234 0.015625)"/>
     <use xlink:href="#DejaVuSans-75" transform="translate(328.466797 0.015625)"/>
     <use xlink:href="#DejaVuSans-74" transform="translate(391.845703 0.015625)"/>
     <use xlink:href="#DejaVuSans-69" transform="translate(431.054688 0.015625)"/>
     <use xlink:href="#DejaVuSans-6f" transform="translate(458.837891 0.015625)"/>
     <use xlink:href="#DejaVuSans-6e" transform="translate(520.019531 0.015625)"/>
     <use xlink:href="#DejaVuSans-20" transform="translate(583.398438 0.015625)"/>
     <use xlink:href="#DejaVuSans-6f" transform="translate(615.185547 0.015625)"/>
     <use xlink:href="#DejaVuSans-66" transform="translate(676.367188 0.015625)"/>
     <use xlink:href="#DejaVuSans-20" transform="translate(711.572266 0.015625)"/>
     <use xlink:href="#DejaVuSans-Oblique-3c4" transform="translate(743.359375 0.015625)"/>
    </g>
   </g>
   <g id="text_10">
    <!-- $\tau$ -->
    <g transform="translate(142.265488 222.71191) scale(0.195 -0.195)">
     <use xlink:href="#DejaVuSans-Oblique-3c4" transform="translate(0 0.3125)"/>
    </g>
   </g>
   <g id="legend_1">
    <g id="patch_51">
     <path d="M 86.490473 133.936271 
L 158.490473 133.936271 
L 158.490473 45.926115 
L 86.490473 45.926115 
z
" style="fill: #ffffff; stroke: #000000; stroke-width: 1.5; stroke-linejoin: miter"/>
    </g>
    <g id="text_11">
     <!-- $v_0$ -->
     <g transform="translate(113.662973 68.063536) scale(0.165 -0.165)">
      <defs>
       <path id="DejaVuSans-Oblique-76" d="M 459 3500 
L 1069 3500 
L 1581 525 
L 3256 3500 
L 3866 3500 
L 1875 0 
L 1100 0 
L 459 3500 
z
" transform="scale(0.015625)"/>
      </defs>
      <use xlink:href="#DejaVuSans-Oblique-76" transform="translate(0 0.3125)"/>
      <use xlink:href="#DejaVuSans-30" transform="translate(59.179688 -16.09375) scale(0.7)"/>
     </g>
    </g>
    <g id="patch_52">
     <path d="M 96.090473 86.613146 
L 120.090473 86.613146 
L 120.090473 78.213146 
L 96.090473 78.213146 
z
" style="fill: #1f77b4; stroke: #000000; stroke-width: 0.3; stroke-linejoin: miter"/>
    </g>
    <g id="text_12">
     <!-- $0.5$ -->
     <g transform="translate(129.690473 86.613146) scale(0.12 -0.12)">
      <defs>
       <path id="DejaVuSans-2e" d="M 684 794 
L 1344 794 
L 1344 0 
L 684 0 
L 684 794 
z
" transform="scale(0.015625)"/>
       <path id="DejaVuSans-35" d="M 691 4666 
L 3169 4666 
L 3169 4134 
L 1269 4134 
L 1269 2991 
Q 1406 3038 1543 3061 
Q 1681 3084 1819 3084 
Q 2600 3084 3056 2656 
Q 3513 2228 3513 1497 
Q 3513 744 3044 326 
Q 2575 -91 1722 -91 
Q 1428 -91 1123 -41 
Q 819 9 494 109 
L 494 744 
Q 775 591 1075 516 
Q 1375 441 1709 441 
Q 2250 441 2565 725 
Q 2881 1009 2881 1497 
Q 2881 1984 2565 2268 
Q 2250 2553 1709 2553 
Q 1456 2553 1204 2497 
Q 953 2441 691 2322 
L 691 4666 
z
" transform="scale(0.015625)"/>
      </defs>
      <use xlink:href="#DejaVuSans-30" transform="translate(0 0.78125)"/>
      <use xlink:href="#DejaVuSans-2e" transform="translate(63.623047 0.78125)"/>
      <use xlink:href="#DejaVuSans-35" transform="translate(95.410156 0.78125)"/>
     </g>
    </g>
    <g id="patch_53">
     <path d="M 96.090473 104.226896 
L 120.090473 104.226896 
L 120.090473 95.826896 
L 96.090473 95.826896 
z
" style="fill: #9467bd; stroke: #000000; stroke-width: 0.3; stroke-linejoin: miter"/>
    </g>
    <g id="text_13">
     <!-- $2.5$ -->
     <g transform="translate(129.690473 104.226896) scale(0.12 -0.12)">
      <use xlink:href="#DejaVuSans-32" transform="translate(0 0.78125)"/>
      <use xlink:href="#DejaVuSans-2e" transform="translate(63.623047 0.78125)"/>
      <use xlink:href="#DejaVuSans-35" transform="translate(95.410156 0.78125)"/>
     </g>
    </g>
    <g id="patch_54">
     <path d="M 96.090473 121.840646 
L 120.090473 121.840646 
L 120.090473 113.440646 
L 96.090473 113.440646 
z
" style="fill: #17becf; stroke: #000000; stroke-width: 0.3; stroke-linejoin: miter"/>
    </g>
    <g id="text_14">
     <!-- $5$ -->
     <g transform="translate(129.690473 121.840646) scale(0.12 -0.12)">
      <use xlink:href="#DejaVuSans-35" transform="translate(0 0.09375)"/>
     </g>
    </g>
   </g>
  </g>
 </g>
 <defs>
  <clipPath id="pf8569ef878">
   <rect x="22.249111" y="2.834646" width="135.445029" height="228.502709"/>
  </clipPath>
 </defs>
</svg>
