<?xml version="1.0" encoding="utf-8" standalone="no"?>
<!DOCTYPE svg PUBLIC "-//W3C//DTD SVG 1.1//EN"
  "http://www.w3.org/Graphics/SVG/1.1/DTD/svg11.dtd">
<svg xmlns:xlink="http://www.w3.org/1999/xlink" width="180pt" height="144pt" viewBox="0 0 180 144" xmlns="http://www.w3.org/2000/svg" version="1.1">
 <metadata>
  <rdf:RDF xmlns:dc="http://purl.org/dc/elements/1.1/" xmlns:cc="http://creativecommons.org/ns#" xmlns:rdf="http://www.w3.org/1999/02/22-rdf-syntax-ns#">
   <cc:Work>
    <dc:type rdf:resource="http://purl.org/dc/dcmitype/StillImage"/>
    <dc:date>2024-04-11T16:07:31.493280</dc:date>
    <dc:format>image/svg+xml</dc:format>
    <dc:creator>
     <cc:Agent>
      <dc:title>Matplotlib v3.7.2, https://matplotlib.org/</dc:title>
     </cc:Agent>
    </dc:creator>
   </cc:Work>
  </rdf:RDF>
 </metadata>
 <defs>
  <style type="text/css">*{stroke-linejoin: round; stroke-linecap: butt}</style>
 </defs>
 <g id="figure_1">
  <g id="patch_1">
   <path d="M 0 144 
L 180 144 
L 180 0 
L 0 0 
z
" style="fill: #ffffff"/>
  </g>
  <g id="axes_1">
   <g id="patch_2">
    <path d="M 26.19841 123.337354 
L 166.346689 123.337354 
L 166.346689 2.834646 
L 26.19841 2.834646 
z
" style="fill: #ffffff"/>
   </g>
   <g id="line2d_1">
    <path d="M -1 63.086 
L 181 63.086 
" clip-path="url(#pb20e980bd3)" style="fill: none; stroke: #000000; stroke-width: 1.2"/>
   </g>
   <g id="matplotlib.axis_1">
    <g id="xtick_1">
     <g id="line2d_2">
      <defs>
       <path id="m5decc96df5" d="M 0 0 
L 0 -3.75 
" style="stroke: #000000; stroke-width: 0.75"/>
      </defs>
      <g>
       <use xlink:href="#m5decc96df5" x="30.141141" y="123.337354" style="stroke: #000000; stroke-width: 0.75"/>
      </g>
     </g>
     <g id="text_1">
      <!-- $10^{0}$ -->
      <g transform="translate(19.581141 135.955479) scale(0.12 -0.12)">
       <defs>
        <path id="DejaVuSans-31" d="M 794 531 
L 1825 531 
L 1825 4091 
L 703 3866 
L 703 4441 
L 1819 4666 
L 2450 4666 
L 2450 531 
L 3481 531 
L 3481 0 
L 794 0 
L 794 531 
z
" transform="scale(0.015625)"/>
        <path id="DejaVuSans-30" d="M 2034 4250 
Q 1547 4250 1301 3770 
Q 1056 3291 1056 2328 
Q 1056 1369 1301 889 
Q 1547 409 2034 409 
Q 2525 409 2770 889 
Q 3016 1369 3016 2328 
Q 3016 3291 2770 3770 
Q 2525 4250 2034 4250 
z
M 2034 4750 
Q 2819 4750 3233 4129 
Q 3647 3509 3647 2328 
Q 3647 1150 3233 529 
Q 2819 -91 2034 -91 
Q 1250 -91 836 529 
Q 422 1150 422 2328 
Q 422 3509 836 4129 
Q 1250 4750 2034 4750 
z
" transform="scale(0.015625)"/>
       </defs>
       <use xlink:href="#DejaVuSans-31" transform="translate(0 0.765625)"/>
       <use xlink:href="#DejaVuSans-30" transform="translate(63.623047 0.765625)"/>
       <use xlink:href="#DejaVuSans-30" transform="translate(128.203125 39.046875) scale(0.7)"/>
      </g>
     </g>
    </g>
    <g id="xtick_2">
     <g id="line2d_3">
      <g>
       <use xlink:href="#m5decc96df5" x="64.192528" y="123.337354" style="stroke: #000000; stroke-width: 0.75"/>
      </g>
     </g>
    </g>
    <g id="xtick_3">
     <g id="line2d_4">
      <g>
       <use xlink:href="#m5decc96df5" x="98.243915" y="123.337354" style="stroke: #000000; stroke-width: 0.75"/>
      </g>
     </g>
     <g id="text_2">
      <!-- $10^{2}$ -->
      <g transform="translate(87.683915 135.955479) scale(0.12 -0.12)">
       <defs>
        <path id="DejaVuSans-32" d="M 1228 531 
L 3431 531 
L 3431 0 
L 469 0 
L 469 531 
Q 828 903 1448 1529 
Q 2069 2156 2228 2338 
Q 2531 2678 2651 2914 
Q 2772 3150 2772 3378 
Q 2772 3750 2511 3984 
Q 2250 4219 1831 4219 
Q 1534 4219 1204 4116 
Q 875 4013 500 3803 
L 500 4441 
Q 881 4594 1212 4672 
Q 1544 4750 1819 4750 
Q 2544 4750 2975 4387 
Q 3406 4025 3406 3419 
Q 3406 3131 3298 2873 
Q 3191 2616 2906 2266 
Q 2828 2175 2409 1742 
Q 1991 1309 1228 531 
z
" transform="scale(0.015625)"/>
       </defs>
       <use xlink:href="#DejaVuSans-31" transform="translate(0 0.765625)"/>
       <use xlink:href="#DejaVuSans-30" transform="translate(63.623047 0.765625)"/>
       <use xlink:href="#DejaVuSans-32" transform="translate(128.203125 39.046875) scale(0.7)"/>
      </g>
     </g>
    </g>
    <g id="xtick_4">
     <g id="line2d_5">
      <g>
       <use xlink:href="#m5decc96df5" x="132.295302" y="123.337354" style="stroke: #000000; stroke-width: 0.75"/>
      </g>
     </g>
    </g>
    <g id="xtick_5">
     <g id="line2d_6">
      <g>
       <use xlink:href="#m5decc96df5" x="166.346689" y="123.337354" style="stroke: #000000; stroke-width: 0.75"/>
      </g>
     </g>
     <g id="text_3">
      <!-- $10^{4}$ -->
      <g transform="translate(155.786689 135.955479) scale(0.12 -0.12)">
       <defs>
        <path id="DejaVuSans-34" d="M 2419 4116 
L 825 1625 
L 2419 1625 
L 2419 4116 
z
M 2253 4666 
L 3047 4666 
L 3047 1625 
L 3713 1625 
L 3713 1100 
L 3047 1100 
L 3047 0 
L 2419 0 
L 2419 1100 
L 313 1100 
L 313 1709 
L 2253 4666 
z
" transform="scale(0.015625)"/>
       </defs>
       <use xlink:href="#DejaVuSans-31" transform="translate(0 0.684375)"/>
       <use xlink:href="#DejaVuSans-30" transform="translate(63.623047 0.684375)"/>
       <use xlink:href="#DejaVuSans-34" transform="translate(128.203125 38.965625) scale(0.7)"/>
      </g>
     </g>
    </g>
   </g>
   <g id="matplotlib.axis_2">
    <g id="ytick_1">
     <g id="line2d_7">
      <defs>
       <path id="mbff2ada44d" d="M 0 0 
L 3.75 0 
" style="stroke: #000000; stroke-width: 0.75"/>
      </defs>
      <g>
       <use xlink:href="#mbff2ada44d" x="26.19841" y="106.122682" style="stroke: #000000; stroke-width: 0.75"/>
      </g>
     </g>
     <g id="text_4">
      <!-- $0.4$ -->
      <g transform="translate(3.49841 110.681744) scale(0.12 -0.12)">
       <defs>
        <path id="DejaVuSans-2e" d="M 684 794 
L 1344 794 
L 1344 0 
L 684 0 
L 684 794 
z
" transform="scale(0.015625)"/>
       </defs>
       <use xlink:href="#DejaVuSans-30" transform="translate(0 0.78125)"/>
       <use xlink:href="#DejaVuSans-2e" transform="translate(63.623047 0.78125)"/>
       <use xlink:href="#DejaVuSans-34" transform="translate(95.410156 0.78125)"/>
      </g>
     </g>
    </g>
    <g id="ytick_2">
     <g id="line2d_8">
      <g>
       <use xlink:href="#mbff2ada44d" x="26.19841" y="63.086" style="stroke: #000000; stroke-width: 0.75"/>
      </g>
     </g>
     <g id="text_5">
      <!-- $0.5$ -->
      <g transform="translate(3.49841 67.645062) scale(0.12 -0.12)">
       <defs>
        <path id="DejaVuSans-35" d="M 691 4666 
L 3169 4666 
L 3169 4134 
L 1269 4134 
L 1269 2991 
Q 1406 3038 1543 3061 
Q 1681 3084 1819 3084 
Q 2600 3084 3056 2656 
Q 3513 2228 3513 1497 
Q 3513 744 3044 326 
Q 2575 -91 1722 -91 
Q 1428 -91 1123 -41 
Q 819 9 494 109 
L 494 744 
Q 775 591 1075 516 
Q 1375 441 1709 441 
Q 2250 441 2565 725 
Q 2881 1009 2881 1497 
Q 2881 1984 2565 2268 
Q 2250 2553 1709 2553 
Q 1456 2553 1204 2497 
Q 953 2441 691 2322 
L 691 4666 
z
" transform="scale(0.015625)"/>
       </defs>
       <use xlink:href="#DejaVuSans-30" transform="translate(0 0.78125)"/>
       <use xlink:href="#DejaVuSans-2e" transform="translate(63.623047 0.78125)"/>
       <use xlink:href="#DejaVuSans-35" transform="translate(95.410156 0.78125)"/>
      </g>
     </g>
    </g>
    <g id="ytick_3">
     <g id="line2d_9">
      <g>
       <use xlink:href="#mbff2ada44d" x="26.19841" y="20.049318" style="stroke: #000000; stroke-width: 0.75"/>
      </g>
     </g>
     <g id="text_6">
      <!-- $0.6$ -->
      <g transform="translate(3.49841 24.608381) scale(0.12 -0.12)">
       <defs>
        <path id="DejaVuSans-36" d="M 2113 2584 
Q 1688 2584 1439 2293 
Q 1191 2003 1191 1497 
Q 1191 994 1439 701 
Q 1688 409 2113 409 
Q 2538 409 2786 701 
Q 3034 994 3034 1497 
Q 3034 2003 2786 2293 
Q 2538 2584 2113 2584 
z
M 3366 4563 
L 3366 3988 
Q 3128 4100 2886 4159 
Q 2644 4219 2406 4219 
Q 1781 4219 1451 3797 
Q 1122 3375 1075 2522 
Q 1259 2794 1537 2939 
Q 1816 3084 2150 3084 
Q 2853 3084 3261 2657 
Q 3669 2231 3669 1497 
Q 3669 778 3244 343 
Q 2819 -91 2113 -91 
Q 1303 -91 875 529 
Q 447 1150 447 2328 
Q 447 3434 972 4092 
Q 1497 4750 2381 4750 
Q 2619 4750 2861 4703 
Q 3103 4656 3366 4563 
z
" transform="scale(0.015625)"/>
       </defs>
       <use xlink:href="#DejaVuSans-30" transform="translate(0 0.78125)"/>
       <use xlink:href="#DejaVuSans-2e" transform="translate(63.623047 0.78125)"/>
       <use xlink:href="#DejaVuSans-36" transform="translate(95.410156 0.78125)"/>
      </g>
     </g>
    </g>
   </g>
   <g id="line2d_10">
    <path d="M 35.117003 59.864858 
L 40.39163 58.699984 
L 45.886434 56.237739 
L 51.007281 52.243326 
L 56.389721 49.983905 
L 61.614132 49.82128 
L 66.888759 46.082218 
L 72.212598 49.886013 
L 77.444173 40.69597 
L 82.718799 45.317112 
L 87.96382 50.446598 
L 93.220654 54.167291 
L 98.478655 60.727595 
L 103.738719 51.68297 
L 108.995998 58.169606 
L 114.252029 51.103544 
L 119.50861 54.133185 
L 124.765671 49.511267 
L 130.023556 54.056999 
L 135.280756 50.706547 
L 140.537244 59.308763 
L 145.794752 55.794241 
L 151.051323 52.974284 
L 156.308508 51.407549 
L 161.565485 57.50101 
" clip-path="url(#pb20e980bd3)" style="fill: none; stroke: #ff0c00; stroke-width: 1.485"/>
   </g>
   <g id="patch_3">
    <path d="M 26.19841 123.337354 
L 26.19841 2.834646 
" style="fill: none; stroke: #000000; stroke-width: 1.5; stroke-linejoin: miter; stroke-linecap: square"/>
   </g>
   <g id="patch_4">
    <path d="M 166.346689 123.337354 
L 166.346689 2.834646 
" style="fill: none; stroke: #000000; stroke-width: 1.5; stroke-linejoin: miter; stroke-linecap: square"/>
   </g>
   <g id="patch_5">
    <path d="M 26.19841 123.337354 
L 166.346689 123.337354 
" style="fill: none; stroke: #000000; stroke-width: 1.5; stroke-linejoin: miter; stroke-linecap: square"/>
   </g>
   <g id="patch_6">
    <path d="M 26.19841 2.834646 
L 166.346689 2.834646 
" style="fill: none; stroke: #000000; stroke-width: 1.5; stroke-linejoin: miter; stroke-linecap: square"/>
   </g>
   <g id="line2d_11">
    <path d="M 35.117003 59.868744 
L 40.39163 56.64019 
L 45.886434 54.45219 
L 51.007281 51.711044 
L 56.389721 49.111485 
L 61.614132 50.731068 
L 66.888759 52.343402 
L 72.212598 53.654083 
L 77.444173 57.120456 
L 82.718799 56.095874 
L 87.96382 59.055494 
L 93.220654 58.837581 
L 98.478655 60.392238 
L 103.738719 59.720373 
L 108.995998 57.451455 
L 114.252029 64.663693 
L 119.50861 58.752003 
L 124.765671 56.840914 
L 130.023556 59.269407 
L 135.280756 53.697752 
L 140.537244 56.486353 
L 145.794752 61.404623 
L 151.051323 60.280303 
L 156.308508 49.6149 
L 161.565485 65.26374 
" clip-path="url(#pb20e980bd3)" style="fill: none; stroke: #ff0f00; stroke-width: 1.485"/>
   </g>
   <g id="line2d_12">
    <path d="M 35.117003 57.16716 
L 40.39163 53.285219 
L 45.886434 48.672359 
L 51.007281 47.465677 
L 56.389721 45.942883 
L 61.614132 47.381848 
L 66.888759 51.170676 
L 72.212598 52.818598 
L 77.444173 55.04917 
L 82.718799 61.447528 
L 87.96382 60.057181 
L 93.220654 57.322113 
L 98.478655 53.209494 
L 103.738719 51.120927 
L 108.995998 68.360602 
L 114.252029 59.58865 
L 119.50861 58.399959 
L 124.765671 61.30289 
L 130.023556 49.793785 
L 135.280756 55.191369 
L 140.537244 70.223152 
L 145.794752 61.44361 
L 151.051323 60.59092 
L 156.308508 53.728535 
L 161.565485 64.412689 
" clip-path="url(#pb20e980bd3)" style="fill: none; stroke: #ff1000; stroke-width: 1.485"/>
   </g>
   <g id="line2d_13">
    <path d="M 35.117003 60.401465 
L 40.39163 58.875584 
L 45.886434 58.120576 
L 51.007281 53.218879 
L 56.389721 44.766126 
L 61.614132 46.561081 
L 66.888759 49.988208 
L 72.212598 54.047376 
L 77.444173 56.51374 
L 82.718799 60.303469 
L 87.96382 59.606112 
L 93.220654 60.488713 
L 98.478655 57.015555 
L 103.738719 63.141668 
L 108.995998 62.044397 
L 114.252029 66.036817 
L 119.50861 61.208291 
L 124.765671 59.393615 
L 130.023556 64.749245 
L 135.280756 54.331578 
L 140.537244 64.563727 
L 145.794752 59.399248 
L 151.051323 57.700704 
L 156.308508 63.650016 
L 161.565485 63.083083 
" clip-path="url(#pb20e980bd3)" style="fill: none; stroke: #ff1500; stroke-width: 1.485"/>
   </g>
   <g id="line2d_14">
    <path d="M 35.117003 61.07194 
L 40.39163 58.71662 
L 45.886434 54.302018 
L 51.007281 45.474654 
L 56.389721 42.849861 
L 61.614132 43.455973 
L 66.888759 43.21626 
L 72.212598 49.500721 
L 77.444173 52.299427 
L 82.718799 54.064895 
L 87.96382 59.758469 
L 93.220654 60.327802 
L 98.478655 60.665721 
L 103.738719 73.463225 
L 108.995998 59.075661 
L 114.252029 58.920912 
L 119.50861 63.716848 
L 124.765671 66.978275 
L 130.023556 71.611235 
L 135.280756 65.081283 
L 140.537244 70.121733 
L 145.794752 68.554922 
L 151.051323 64.306581 
L 156.308508 61.968847 
L 161.565485 79.198883 
" clip-path="url(#pb20e980bd3)" style="fill: none; stroke: #ff1f00; stroke-width: 1.485"/>
   </g>
   <g id="line2d_15">
    <path d="M 35.117003 58.798071 
L 40.39163 55.408842 
L 45.886434 48.688425 
L 51.007281 44.697304 
L 56.389721 40.962702 
L 61.614132 43.460457 
L 66.888759 37.862657 
L 72.212598 42.414604 
L 77.444173 52.963817 
L 82.718799 51.585877 
L 87.96382 74.450398 
L 93.220654 67.320237 
L 98.478655 63.784719 
L 103.738719 58.372008 
L 108.995998 60.926751 
L 114.252029 68.539966 
L 119.50861 76.048662 
L 124.765671 64.777972 
L 130.023556 65.572795 
L 135.280756 76.327154 
L 140.537244 53.613682 
L 145.794752 75.408764 
L 151.051323 54.252396 
L 156.308508 49.300773 
L 161.565485 57.619629 
" clip-path="url(#pb20e980bd3)" style="fill: none; stroke: #ff4900; stroke-width: 1.485"/>
   </g>
   <g id="line2d_16">
    <path d="M 35.117003 60.282751 
L 40.39163 58.216709 
L 45.886434 51.093692 
L 51.007281 43.945699 
L 56.389721 41.098851 
L 61.614132 42.844749 
L 66.888759 46.430765 
L 72.212598 53.846405 
L 77.444173 55.813255 
L 82.718799 60.573333 
L 87.96382 50.963407 
L 93.220654 54.422061 
L 98.478655 64.851372 
L 103.738719 72.257824 
L 108.995998 79.154976 
L 114.252029 80.730992 
L 119.50861 80.169676 
L 124.765671 82.134022 
L 130.023556 97.263921 
L 135.280756 74.085818 
L 140.537244 85.836122 
L 145.794752 75.872497 
L 151.051323 100.976594 
L 156.308508 78.710398 
L 161.565485 75.856536 
" clip-path="url(#pb20e980bd3)" style="fill: none; stroke: #d59f00; stroke-width: 1.485"/>
   </g>
   <g id="line2d_17">
    <path d="M 35.117003 60.602732 
L 40.39163 58.444425 
L 45.886434 55.513619 
L 51.007281 55.312638 
L 56.389721 55.451325 
L 61.614132 52.114732 
L 66.888759 44.112804 
L 72.212598 51.554916 
L 77.444173 51.023635 
L 82.718799 56.487794 
L 87.96382 53.083601 
L 93.220654 54.348707 
L 98.478655 57.591694 
L 103.738719 68.723148 
L 108.995998 64.79008 
L 114.252029 76.964922 
L 119.50861 84.345715 
L 124.765671 79.300912 
L 130.023556 99.220166 
L 135.280756 94.708916 
L 140.537244 96.583626 
L 145.794752 100.817606 
" clip-path="url(#pb20e980bd3)" style="fill: none; stroke: #9a9600; stroke-width: 1.485"/>
   </g>
   <g id="line2d_18">
    <path d="M 35.117003 67.367734 
L 40.39163 61.424932 
L 45.886434 55.463652 
L 51.007281 47.920483 
L 56.389721 45.889359 
L 61.614132 48.142377 
L 66.888759 43.949022 
L 72.212598 41.336665 
L 77.444173 30.720192 
L 82.718799 37.311189 
L 87.96382 62.129011 
L 93.220654 50.005858 
L 98.478655 50.468212 
L 103.738719 53.940107 
L 108.995998 67.885375 
L 114.252029 63.55995 
L 119.50861 76.388065 
L 124.765671 70.717173 
L 130.023556 72.346389 
L 135.280756 58.899813 
" clip-path="url(#pb20e980bd3)" style="fill: none; stroke: #759100; stroke-width: 1.485"/>
   </g>
   <g id="line2d_19">
    <path d="M 35.117003 67.592689 
L 40.39163 67.567883 
L 45.886434 64.761666 
L 51.007281 49.892102 
L 56.389721 52.123825 
L 61.614132 43.910665 
L 66.888759 41.940941 
L 72.212598 43.852194 
L 77.444173 47.908453 
L 82.718799 47.776422 
L 87.96382 48.484343 
L 93.220654 43.819395 
L 98.478655 59.602592 
L 103.738719 49.180262 
L 108.995998 53.866388 
L 114.252029 58.372673 
L 119.50861 55.607614 
L 124.765671 65.690837 
L 130.023556 65.898884 
L 135.280756 43.341103 
" clip-path="url(#pb20e980bd3)" style="fill: none; stroke: #5b8d00; stroke-width: 1.485"/>
   </g>
   <g id="text_7">
    <!-- $ξ\,\sqrt{n}/L$ -->
    <g transform="translate(32.765862 22.119944) scale(0.18 -0.18)">
     <defs>
      <path id="DejaVuSans-Oblique-3be" d="M 2016 397 
Q 2428 394 2628 159 
Q 2844 -88 2772 -463 
Q 2700 -822 2422 -1072 
Q 2119 -1344 1609 -1344 
Q 1656 -1109 1700 -872 
Q 1913 -888 2072 -750 
Q 2194 -641 2216 -525 
Q 2247 -359 2175 -222 
Q 2100 -91 1922 -91 
Q -25 -91 241 1275 
Q 422 2213 1516 2488 
Q 663 2600 822 3413 
Q 941 4028 1678 4284 
L 1028 4284 
L 1141 4863 
L 3606 4863 
L 3494 4284 
Q 1528 4284 1350 3375 
Q 1234 2778 2881 2750 
L 2778 2219 
Q 1009 2288 819 1275 
Q 659 428 2016 397 
z
" transform="scale(0.015625)"/>
      <path id="DejaVuSans-221a" d="M 3488 5191 
L 4078 5191 
L 4078 4891 
L 3719 4891 
L 1863 -128 
L 1656 -128 
L 659 2631 
L 269 2491 
L 191 2741 
L 1075 3047 
L 1875 831 
L 3488 5191 
z
" transform="scale(0.015625)"/>
      <path id="DejaVuSans-Oblique-6e" d="M 3566 2113 
L 3156 0 
L 2578 0 
L 2988 2091 
Q 3016 2238 3031 2350 
Q 3047 2463 3047 2528 
Q 3047 2791 2881 2937 
Q 2716 3084 2419 3084 
Q 1956 3084 1622 2776 
Q 1288 2469 1184 1941 
L 800 0 
L 225 0 
L 903 3500 
L 1478 3500 
L 1363 2950 
Q 1603 3253 1940 3418 
Q 2278 3584 2650 3584 
Q 3113 3584 3367 3334 
Q 3622 3084 3622 2631 
Q 3622 2519 3608 2391 
Q 3594 2263 3566 2113 
z
" transform="scale(0.015625)"/>
      <path id="DejaVuSans-2f" d="M 1625 4666 
L 2156 4666 
L 531 -594 
L 0 -594 
L 1625 4666 
z
" transform="scale(0.015625)"/>
      <path id="DejaVuSans-Oblique-4c" d="M 1075 4666 
L 1709 4666 
L 909 525 
L 3181 525 
L 3078 0 
L 172 0 
L 1075 4666 
z
" transform="scale(0.015625)"/>
     </defs>
     <use xlink:href="#DejaVuSans-Oblique-3be" transform="translate(0 0.890625)"/>
     <use xlink:href="#DejaVuSans-221a" transform="translate(71.997395 0.890625)"/>
     <use xlink:href="#DejaVuSans-Oblique-6e" transform="translate(148.218098 0.75)"/>
     <use xlink:href="#DejaVuSans-2f" transform="translate(224.097004 0.890625)"/>
     <use xlink:href="#DejaVuSans-Oblique-4c" transform="translate(257.788411 0.890625)"/>
     <path d="M 135.718098 75.5 
L 135.718098 81.75 
L 224.097004 81.75 
L 224.097004 75.5 
L 135.718098 75.5 
z
"/>
    </g>
   </g>
   <g id="text_8">
    <!-- $t$ -->
    <g transform="translate(152.156529 118.664013) scale(0.18 -0.18)">
     <defs>
      <path id="DejaVuSans-Oblique-74" d="M 2706 3500 
L 2619 3053 
L 1472 3053 
L 1100 1153 
Q 1081 1047 1072 975 
Q 1063 903 1063 863 
Q 1063 663 1183 572 
Q 1303 481 1569 481 
L 2150 481 
L 2053 0 
L 1503 0 
Q 991 0 739 200 
Q 488 400 488 806 
Q 488 878 497 964 
Q 506 1050 525 1153 
L 897 3053 
L 409 3053 
L 500 3500 
L 978 3500 
L 1172 4494 
L 1747 4494 
L 1556 3500 
L 2706 3500 
z
" transform="scale(0.015625)"/>
     </defs>
     <use xlink:href="#DejaVuSans-Oblique-74" transform="translate(0 0.78125)"/>
    </g>
   </g>
  </g>
 </g>
 <defs>
  <clipPath id="pb20e980bd3">
   <rect x="26.19841" y="2.834646" width="140.148279" height="120.502709"/>
  </clipPath>
 </defs>
</svg>
