<?xml version="1.0" encoding="utf-8" standalone="no"?>
<!DOCTYPE svg PUBLIC "-//W3C//DTD SVG 1.1//EN"
  "http://www.w3.org/Graphics/SVG/1.1/DTD/svg11.dtd">
<svg xmlns:xlink="http://www.w3.org/1999/xlink" width="180pt" height="180pt" viewBox="0 0 180 180" xmlns="http://www.w3.org/2000/svg" version="1.1">
 <metadata>
  <rdf:RDF xmlns:dc="http://purl.org/dc/elements/1.1/" xmlns:cc="http://creativecommons.org/ns#" xmlns:rdf="http://www.w3.org/1999/02/22-rdf-syntax-ns#">
   <cc:Work>
    <dc:type rdf:resource="http://purl.org/dc/dcmitype/StillImage"/>
    <dc:date>2024-03-15T20:46:54.409392</dc:date>
    <dc:format>image/svg+xml</dc:format>
    <dc:creator>
     <cc:Agent>
      <dc:title>Matplotlib v3.7.2, https://matplotlib.org/</dc:title>
     </cc:Agent>
    </dc:creator>
   </cc:Work>
  </rdf:RDF>
 </metadata>
 <defs>
  <style type="text/css">*{stroke-linejoin: round; stroke-linecap: butt}</style>
 </defs>
 <g id="figure_1">
  <g id="patch_1">
   <path d="M 0 180 
L 180 180 
L 180 0 
L 0 0 
z
" style="fill: #ffffff"/>
  </g>
  <g id="axes_1">
   <g id="patch_2">
    <path d="M 26.19841 159.337354 
L 169.146654 159.337354 
L 169.146654 2.834646 
L 26.19841 2.834646 
z
" style="fill: #ffffff"/>
   </g>
   <g id="line2d_1">
    <path d="M 31.31578 76.205305 
L 37.482455 74.44028 
L 42.907085 70.70947 
L 48.382328 64.65711 
L 53.947783 61.23362 
L 59.615761 60.98721 
L 65.091003 55.321758 
L 70.656458 61.085293 
L 76.211358 47.160479 
L 81.760328 54.162464 
L 87.337852 61.934695 
L 92.882153 67.572314 
L 98.442713 77.51253 
L 104.000951 63.808055 
L 109.559189 73.636647 
L 115.116263 62.930104 
L 120.673066 67.520636 
L 126.22981 60.517476 
L 131.788264 67.405199 
L 137.345093 62.328571 
L 142.902458 75.362707 
L 148.460176 70.037478 
L 154.017372 65.764662 
L 159.574783 63.390735 
L 165.132163 72.623586 
" clip-path="url(#p74d211cf3d)" style="fill: none; stroke: #ff0c00; stroke-width: 1.2"/>
   </g>
   <g id="PathCollection_1">
    <defs>
     <path id="m9db65cd114" d="M 0 1.5 
C 0.397805 1.5 0.77937 1.341951 1.06066 1.06066 
C 1.341951 0.77937 1.5 0.397805 1.5 0 
C 1.5 -0.397805 1.341951 -0.77937 1.06066 -1.06066 
C 0.77937 -1.341951 0.397805 -1.5 0 -1.5 
C -0.397805 -1.5 -0.77937 -1.341951 -1.06066 -1.06066 
C -1.341951 -0.77937 -1.5 -0.397805 -1.5 0 
C -1.5 0.397805 -1.341951 0.77937 -1.06066 1.06066 
C -0.77937 1.341951 -0.397805 1.5 0 1.5 
z
"/>
    </defs>
    <g clip-path="url(#p74d211cf3d)">
     <use xlink:href="#m9db65cd114" x="31.31578" y="76.205305" style="fill: #ff0c00"/>
     <use xlink:href="#m9db65cd114" x="37.482455" y="74.44028" style="fill: #ff0c00"/>
     <use xlink:href="#m9db65cd114" x="42.907085" y="70.70947" style="fill: #ff0c00"/>
     <use xlink:href="#m9db65cd114" x="48.382328" y="64.65711" style="fill: #ff0c00"/>
     <use xlink:href="#m9db65cd114" x="53.947783" y="61.23362" style="fill: #ff0c00"/>
     <use xlink:href="#m9db65cd114" x="59.615761" y="60.98721" style="fill: #ff0c00"/>
     <use xlink:href="#m9db65cd114" x="65.091003" y="55.321758" style="fill: #ff0c00"/>
     <use xlink:href="#m9db65cd114" x="70.656458" y="61.085293" style="fill: #ff0c00"/>
     <use xlink:href="#m9db65cd114" x="76.211358" y="47.160479" style="fill: #ff0c00"/>
     <use xlink:href="#m9db65cd114" x="81.760328" y="54.162464" style="fill: #ff0c00"/>
     <use xlink:href="#m9db65cd114" x="87.337852" y="61.934695" style="fill: #ff0c00"/>
     <use xlink:href="#m9db65cd114" x="92.882153" y="67.572314" style="fill: #ff0c00"/>
     <use xlink:href="#m9db65cd114" x="98.442713" y="77.51253" style="fill: #ff0c00"/>
     <use xlink:href="#m9db65cd114" x="104.000951" y="63.808055" style="fill: #ff0c00"/>
     <use xlink:href="#m9db65cd114" x="109.559189" y="73.636647" style="fill: #ff0c00"/>
     <use xlink:href="#m9db65cd114" x="115.116263" y="62.930104" style="fill: #ff0c00"/>
     <use xlink:href="#m9db65cd114" x="120.673066" y="67.520636" style="fill: #ff0c00"/>
     <use xlink:href="#m9db65cd114" x="126.22981" y="60.517476" style="fill: #ff0c00"/>
     <use xlink:href="#m9db65cd114" x="131.788264" y="67.405199" style="fill: #ff0c00"/>
     <use xlink:href="#m9db65cd114" x="137.345093" y="62.328571" style="fill: #ff0c00"/>
     <use xlink:href="#m9db65cd114" x="142.902458" y="75.362707" style="fill: #ff0c00"/>
     <use xlink:href="#m9db65cd114" x="148.460176" y="70.037478" style="fill: #ff0c00"/>
     <use xlink:href="#m9db65cd114" x="154.017372" y="65.764662" style="fill: #ff0c00"/>
     <use xlink:href="#m9db65cd114" x="159.574783" y="63.390735" style="fill: #ff0c00"/>
     <use xlink:href="#m9db65cd114" x="165.132163" y="72.623586" style="fill: #ff0c00"/>
    </g>
   </g>
   <g id="matplotlib.axis_1">
    <g id="xtick_1">
     <g id="line2d_2">
      <defs>
       <path id="m910a5c6139" d="M 0 0 
L 0 -3.75 
" style="stroke: #000000; stroke-width: 0.75"/>
      </defs>
      <g>
       <use xlink:href="#m910a5c6139" x="26.19841" y="159.337354" style="stroke: #000000; stroke-width: 0.75"/>
      </g>
     </g>
     <g id="text_1">
      <!-- $10^{0}$ -->
      <g transform="translate(15.63841 171.955479) scale(0.12 -0.12)">
       <defs>
        <path id="DejaVuSans-31" d="M 794 531 
L 1825 531 
L 1825 4091 
L 703 3866 
L 703 4441 
L 1819 4666 
L 2450 4666 
L 2450 531 
L 3481 531 
L 3481 0 
L 794 0 
L 794 531 
z
" transform="scale(0.015625)"/>
        <path id="DejaVuSans-30" d="M 2034 4250 
Q 1547 4250 1301 3770 
Q 1056 3291 1056 2328 
Q 1056 1369 1301 889 
Q 1547 409 2034 409 
Q 2525 409 2770 889 
Q 3016 1369 3016 2328 
Q 3016 3291 2770 3770 
Q 2525 4250 2034 4250 
z
M 2034 4750 
Q 2819 4750 3233 4129 
Q 3647 3509 3647 2328 
Q 3647 1150 3233 529 
Q 2819 -91 2034 -91 
Q 1250 -91 836 529 
Q 422 1150 422 2328 
Q 422 3509 836 4129 
Q 1250 4750 2034 4750 
z
" transform="scale(0.015625)"/>
       </defs>
       <use xlink:href="#DejaVuSans-31" transform="translate(0 0.765625)"/>
       <use xlink:href="#DejaVuSans-30" transform="translate(63.623047 0.765625)"/>
       <use xlink:href="#DejaVuSans-30" transform="translate(128.203125 39.046875) scale(0.7)"/>
      </g>
     </g>
    </g>
    <g id="xtick_2">
     <g id="line2d_3">
      <g>
       <use xlink:href="#m910a5c6139" x="61.218177" y="159.337354" style="stroke: #000000; stroke-width: 0.75"/>
      </g>
     </g>
    </g>
    <g id="xtick_3">
     <g id="line2d_4">
      <g>
       <use xlink:href="#m910a5c6139" x="96.237944" y="159.337354" style="stroke: #000000; stroke-width: 0.75"/>
      </g>
     </g>
     <g id="text_2">
      <!-- $10^{2}$ -->
      <g transform="translate(85.677944 171.955479) scale(0.12 -0.12)">
       <defs>
        <path id="DejaVuSans-32" d="M 1228 531 
L 3431 531 
L 3431 0 
L 469 0 
L 469 531 
Q 828 903 1448 1529 
Q 2069 2156 2228 2338 
Q 2531 2678 2651 2914 
Q 2772 3150 2772 3378 
Q 2772 3750 2511 3984 
Q 2250 4219 1831 4219 
Q 1534 4219 1204 4116 
Q 875 4013 500 3803 
L 500 4441 
Q 881 4594 1212 4672 
Q 1544 4750 1819 4750 
Q 2544 4750 2975 4387 
Q 3406 4025 3406 3419 
Q 3406 3131 3298 2873 
Q 3191 2616 2906 2266 
Q 2828 2175 2409 1742 
Q 1991 1309 1228 531 
z
" transform="scale(0.015625)"/>
       </defs>
       <use xlink:href="#DejaVuSans-31" transform="translate(0 0.765625)"/>
       <use xlink:href="#DejaVuSans-30" transform="translate(63.623047 0.765625)"/>
       <use xlink:href="#DejaVuSans-32" transform="translate(128.203125 39.046875) scale(0.7)"/>
      </g>
     </g>
    </g>
    <g id="xtick_4">
     <g id="line2d_5">
      <g>
       <use xlink:href="#m910a5c6139" x="131.257711" y="159.337354" style="stroke: #000000; stroke-width: 0.75"/>
      </g>
     </g>
    </g>
    <g id="xtick_5">
     <g id="line2d_6">
      <g>
       <use xlink:href="#m910a5c6139" x="166.277478" y="159.337354" style="stroke: #000000; stroke-width: 0.75"/>
      </g>
     </g>
     <g id="text_3">
      <!-- $10^{4}$ -->
      <g transform="translate(155.717478 171.955479) scale(0.12 -0.12)">
       <defs>
        <path id="DejaVuSans-34" d="M 2419 4116 
L 825 1625 
L 2419 1625 
L 2419 4116 
z
M 2253 4666 
L 3047 4666 
L 3047 1625 
L 3713 1625 
L 3713 1100 
L 3047 1100 
L 3047 0 
L 2419 0 
L 2419 1100 
L 313 1100 
L 313 1709 
L 2253 4666 
z
" transform="scale(0.015625)"/>
       </defs>
       <use xlink:href="#DejaVuSans-31" transform="translate(0 0.684375)"/>
       <use xlink:href="#DejaVuSans-30" transform="translate(63.623047 0.684375)"/>
       <use xlink:href="#DejaVuSans-34" transform="translate(128.203125 38.965625) scale(0.7)"/>
      </g>
     </g>
    </g>
   </g>
   <g id="matplotlib.axis_2">
    <g id="ytick_1">
     <g id="line2d_7">
      <defs>
       <path id="m970025e1de" d="M 0 0 
L 3.75 0 
" style="stroke: #000000; stroke-width: 0.75"/>
      </defs>
      <g>
       <use xlink:href="#m970025e1de" x="26.19841" y="146.295462" style="stroke: #000000; stroke-width: 0.75"/>
      </g>
     </g>
     <g id="text_4">
      <!-- $0.4$ -->
      <g transform="translate(3.49841 150.854524) scale(0.12 -0.12)">
       <defs>
        <path id="DejaVuSans-2e" d="M 684 794 
L 1344 794 
L 1344 0 
L 684 0 
L 684 794 
z
" transform="scale(0.015625)"/>
       </defs>
       <use xlink:href="#DejaVuSans-30" transform="translate(0 0.78125)"/>
       <use xlink:href="#DejaVuSans-2e" transform="translate(63.623047 0.78125)"/>
       <use xlink:href="#DejaVuSans-34" transform="translate(95.410156 0.78125)"/>
      </g>
     </g>
    </g>
    <g id="ytick_2">
     <g id="line2d_8">
      <g>
       <use xlink:href="#m970025e1de" x="26.19841" y="81.086" style="stroke: #000000; stroke-width: 0.75"/>
      </g>
     </g>
     <g id="text_5">
      <!-- $0.5$ -->
      <g transform="translate(3.49841 85.645062) scale(0.12 -0.12)">
       <defs>
        <path id="DejaVuSans-35" d="M 691 4666 
L 3169 4666 
L 3169 4134 
L 1269 4134 
L 1269 2991 
Q 1406 3038 1543 3061 
Q 1681 3084 1819 3084 
Q 2600 3084 3056 2656 
Q 3513 2228 3513 1497 
Q 3513 744 3044 326 
Q 2575 -91 1722 -91 
Q 1428 -91 1123 -41 
Q 819 9 494 109 
L 494 744 
Q 775 591 1075 516 
Q 1375 441 1709 441 
Q 2250 441 2565 725 
Q 2881 1009 2881 1497 
Q 2881 1984 2565 2268 
Q 2250 2553 1709 2553 
Q 1456 2553 1204 2497 
Q 953 2441 691 2322 
L 691 4666 
z
" transform="scale(0.015625)"/>
       </defs>
       <use xlink:href="#DejaVuSans-30" transform="translate(0 0.78125)"/>
       <use xlink:href="#DejaVuSans-2e" transform="translate(63.623047 0.78125)"/>
       <use xlink:href="#DejaVuSans-35" transform="translate(95.410156 0.78125)"/>
      </g>
     </g>
    </g>
    <g id="ytick_3">
     <g id="line2d_9">
      <g>
       <use xlink:href="#m970025e1de" x="26.19841" y="15.876538" style="stroke: #000000; stroke-width: 0.75"/>
      </g>
     </g>
     <g id="text_6">
      <!-- $0.6$ -->
      <g transform="translate(3.49841 20.435601) scale(0.12 -0.12)">
       <defs>
        <path id="DejaVuSans-36" d="M 2113 2584 
Q 1688 2584 1439 2293 
Q 1191 2003 1191 1497 
Q 1191 994 1439 701 
Q 1688 409 2113 409 
Q 2538 409 2786 701 
Q 3034 994 3034 1497 
Q 3034 2003 2786 2293 
Q 2538 2584 2113 2584 
z
M 3366 4563 
L 3366 3988 
Q 3128 4100 2886 4159 
Q 2644 4219 2406 4219 
Q 1781 4219 1451 3797 
Q 1122 3375 1075 2522 
Q 1259 2794 1537 2939 
Q 1816 3084 2150 3084 
Q 2853 3084 3261 2657 
Q 3669 2231 3669 1497 
Q 3669 778 3244 343 
Q 2819 -91 2113 -91 
Q 1303 -91 875 529 
Q 447 1150 447 2328 
Q 447 3434 972 4092 
Q 1497 4750 2381 4750 
Q 2619 4750 2861 4703 
Q 3103 4656 3366 4563 
z
" transform="scale(0.015625)"/>
       </defs>
       <use xlink:href="#DejaVuSans-30" transform="translate(0 0.78125)"/>
       <use xlink:href="#DejaVuSans-2e" transform="translate(63.623047 0.78125)"/>
       <use xlink:href="#DejaVuSans-36" transform="translate(95.410156 0.78125)"/>
      </g>
     </g>
    </g>
   </g>
   <g id="line2d_10">
    <path d="M 31.31578 76.211193 
L 37.482455 71.319266 
L 42.907085 68.003995 
L 48.382328 63.850592 
L 53.947783 59.911723 
L 59.615761 62.365726 
L 65.091003 64.808746 
L 70.656458 66.794698 
L 76.211358 72.046969 
L 81.760328 70.494515 
L 87.337852 74.978951 
L 92.882153 74.648768 
L 98.442713 77.004393 
L 104.000951 75.98638 
L 109.559189 72.548501 
L 115.116263 83.47653 
L 120.673066 74.519099 
L 126.22981 71.623405 
L 131.788264 75.303074 
L 137.345093 66.860865 
L 142.902458 71.086171 
L 148.460176 78.538367 
L 154.017372 76.83479 
L 159.574783 60.674501 
L 165.132163 84.385726 
" clip-path="url(#p74d211cf3d)" style="fill: none; stroke: #ff0f00; stroke-width: 1.2"/>
   </g>
   <g id="PathCollection_2">
    <defs>
     <path id="m8137587ff5" d="M 0 1.5 
C 0.397805 1.5 0.77937 1.341951 1.06066 1.06066 
C 1.341951 0.77937 1.5 0.397805 1.5 0 
C 1.5 -0.397805 1.341951 -0.77937 1.06066 -1.06066 
C 0.77937 -1.341951 0.397805 -1.5 0 -1.5 
C -0.397805 -1.5 -0.77937 -1.341951 -1.06066 -1.06066 
C -1.341951 -0.77937 -1.5 -0.397805 -1.5 0 
C -1.5 0.397805 -1.341951 0.77937 -1.06066 1.06066 
C -0.77937 1.341951 -0.397805 1.5 0 1.5 
z
"/>
    </defs>
    <g clip-path="url(#p74d211cf3d)">
     <use xlink:href="#m8137587ff5" x="31.31578" y="76.211193" style="fill: #ff0f00"/>
     <use xlink:href="#m8137587ff5" x="37.482455" y="71.319266" style="fill: #ff0f00"/>
     <use xlink:href="#m8137587ff5" x="42.907085" y="68.003995" style="fill: #ff0f00"/>
     <use xlink:href="#m8137587ff5" x="48.382328" y="63.850592" style="fill: #ff0f00"/>
     <use xlink:href="#m8137587ff5" x="53.947783" y="59.911723" style="fill: #ff0f00"/>
     <use xlink:href="#m8137587ff5" x="59.615761" y="62.365726" style="fill: #ff0f00"/>
     <use xlink:href="#m8137587ff5" x="65.091003" y="64.808746" style="fill: #ff0f00"/>
     <use xlink:href="#m8137587ff5" x="70.656458" y="66.794698" style="fill: #ff0f00"/>
     <use xlink:href="#m8137587ff5" x="76.211358" y="72.046969" style="fill: #ff0f00"/>
     <use xlink:href="#m8137587ff5" x="81.760328" y="70.494515" style="fill: #ff0f00"/>
     <use xlink:href="#m8137587ff5" x="87.337852" y="74.978951" style="fill: #ff0f00"/>
     <use xlink:href="#m8137587ff5" x="92.882153" y="74.648768" style="fill: #ff0f00"/>
     <use xlink:href="#m8137587ff5" x="98.442713" y="77.004393" style="fill: #ff0f00"/>
     <use xlink:href="#m8137587ff5" x="104.000951" y="75.98638" style="fill: #ff0f00"/>
     <use xlink:href="#m8137587ff5" x="109.559189" y="72.548501" style="fill: #ff0f00"/>
     <use xlink:href="#m8137587ff5" x="115.116263" y="83.47653" style="fill: #ff0f00"/>
     <use xlink:href="#m8137587ff5" x="120.673066" y="74.519099" style="fill: #ff0f00"/>
     <use xlink:href="#m8137587ff5" x="126.22981" y="71.623405" style="fill: #ff0f00"/>
     <use xlink:href="#m8137587ff5" x="131.788264" y="75.303074" style="fill: #ff0f00"/>
     <use xlink:href="#m8137587ff5" x="137.345093" y="66.860865" style="fill: #ff0f00"/>
     <use xlink:href="#m8137587ff5" x="142.902458" y="71.086171" style="fill: #ff0f00"/>
     <use xlink:href="#m8137587ff5" x="148.460176" y="78.538367" style="fill: #ff0f00"/>
     <use xlink:href="#m8137587ff5" x="154.017372" y="76.83479" style="fill: #ff0f00"/>
     <use xlink:href="#m8137587ff5" x="159.574783" y="60.674501" style="fill: #ff0f00"/>
     <use xlink:href="#m8137587ff5" x="165.132163" y="84.385726" style="fill: #ff0f00"/>
    </g>
   </g>
   <g id="patch_3">
    <path d="M 26.19841 159.337354 
L 26.19841 2.834646 
" style="fill: none; stroke: #000000; stroke-width: 1.5; stroke-linejoin: miter; stroke-linecap: square"/>
   </g>
   <g id="patch_4">
    <path d="M 169.146654 159.337354 
L 169.146654 2.834646 
" style="fill: none; stroke: #000000; stroke-width: 1.5; stroke-linejoin: miter; stroke-linecap: square"/>
   </g>
   <g id="patch_5">
    <path d="M 26.19841 159.337354 
L 169.146654 159.337354 
" style="fill: none; stroke: #000000; stroke-width: 1.5; stroke-linejoin: miter; stroke-linecap: square"/>
   </g>
   <g id="patch_6">
    <path d="M 26.19841 2.834646 
L 169.146654 2.834646 
" style="fill: none; stroke: #000000; stroke-width: 1.5; stroke-linejoin: miter; stroke-linecap: square"/>
   </g>
   <g id="line2d_11">
    <path d="M 31.31578 72.117735 
L 37.482455 66.235792 
L 42.907085 59.246357 
L 48.382328 57.417984 
L 53.947783 55.110636 
L 59.615761 57.290966 
L 65.091003 63.031823 
L 70.656458 65.528765 
L 76.211358 68.908542 
L 81.760328 78.603376 
L 87.337852 76.496713 
L 92.882153 72.35252 
L 98.442713 66.121053 
L 104.000951 62.956443 
L 109.559189 89.078111 
L 115.116263 75.786793 
L 120.673066 73.985679 
L 126.22981 78.38422 
L 131.788264 60.945549 
L 137.345093 69.124004 
L 142.902458 91.90026 
L 148.460176 78.59744 
L 154.017372 77.305438 
L 159.574783 66.907508 
L 165.132163 83.096207 
" clip-path="url(#p74d211cf3d)" style="fill: none; stroke: #ff1000; stroke-width: 1.2"/>
   </g>
   <g id="PathCollection_3">
    <defs>
     <path id="m722b267e5e" d="M 0 1.5 
C 0.397805 1.5 0.77937 1.341951 1.06066 1.06066 
C 1.341951 0.77937 1.5 0.397805 1.5 0 
C 1.5 -0.397805 1.341951 -0.77937 1.06066 -1.06066 
C 0.77937 -1.341951 0.397805 -1.5 0 -1.5 
C -0.397805 -1.5 -0.77937 -1.341951 -1.06066 -1.06066 
C -1.341951 -0.77937 -1.5 -0.397805 -1.5 0 
C -1.5 0.397805 -1.341951 0.77937 -1.06066 1.06066 
C -0.77937 1.341951 -0.397805 1.5 0 1.5 
z
"/>
    </defs>
    <g clip-path="url(#p74d211cf3d)">
     <use xlink:href="#m722b267e5e" x="31.31578" y="72.117735" style="fill: #ff1000"/>
     <use xlink:href="#m722b267e5e" x="37.482455" y="66.235792" style="fill: #ff1000"/>
     <use xlink:href="#m722b267e5e" x="42.907085" y="59.246357" style="fill: #ff1000"/>
     <use xlink:href="#m722b267e5e" x="48.382328" y="57.417984" style="fill: #ff1000"/>
     <use xlink:href="#m722b267e5e" x="53.947783" y="55.110636" style="fill: #ff1000"/>
     <use xlink:href="#m722b267e5e" x="59.615761" y="57.290966" style="fill: #ff1000"/>
     <use xlink:href="#m722b267e5e" x="65.091003" y="63.031823" style="fill: #ff1000"/>
     <use xlink:href="#m722b267e5e" x="70.656458" y="65.528765" style="fill: #ff1000"/>
     <use xlink:href="#m722b267e5e" x="76.211358" y="68.908542" style="fill: #ff1000"/>
     <use xlink:href="#m722b267e5e" x="81.760328" y="78.603376" style="fill: #ff1000"/>
     <use xlink:href="#m722b267e5e" x="87.337852" y="76.496713" style="fill: #ff1000"/>
     <use xlink:href="#m722b267e5e" x="92.882153" y="72.35252" style="fill: #ff1000"/>
     <use xlink:href="#m722b267e5e" x="98.442713" y="66.121053" style="fill: #ff1000"/>
     <use xlink:href="#m722b267e5e" x="104.000951" y="62.956443" style="fill: #ff1000"/>
     <use xlink:href="#m722b267e5e" x="109.559189" y="89.078111" style="fill: #ff1000"/>
     <use xlink:href="#m722b267e5e" x="115.116263" y="75.786793" style="fill: #ff1000"/>
     <use xlink:href="#m722b267e5e" x="120.673066" y="73.985679" style="fill: #ff1000"/>
     <use xlink:href="#m722b267e5e" x="126.22981" y="78.38422" style="fill: #ff1000"/>
     <use xlink:href="#m722b267e5e" x="131.788264" y="60.945549" style="fill: #ff1000"/>
     <use xlink:href="#m722b267e5e" x="137.345093" y="69.124004" style="fill: #ff1000"/>
     <use xlink:href="#m722b267e5e" x="142.902458" y="91.90026" style="fill: #ff1000"/>
     <use xlink:href="#m722b267e5e" x="148.460176" y="78.59744" style="fill: #ff1000"/>
     <use xlink:href="#m722b267e5e" x="154.017372" y="77.305438" style="fill: #ff1000"/>
     <use xlink:href="#m722b267e5e" x="159.574783" y="66.907508" style="fill: #ff1000"/>
     <use xlink:href="#m722b267e5e" x="165.132163" y="83.096207" style="fill: #ff1000"/>
    </g>
   </g>
   <g id="line2d_12">
    <path d="M 31.31578 77.018376 
L 37.482455 74.706351 
L 42.907085 73.562357 
L 48.382328 66.135274 
L 53.947783 53.327607 
L 59.615761 56.047335 
L 65.091003 61.24014 
L 70.656458 67.390618 
L 76.211358 71.127669 
L 81.760328 76.869891 
L 87.337852 75.81325 
L 92.882153 77.150574 
L 98.442713 71.888021 
L 104.000951 81.170348 
L 109.559189 79.507757 
L 115.116263 85.557098 
L 120.673066 78.240884 
L 126.22981 75.491273 
L 131.788264 83.60616 
L 137.345093 67.821242 
L 142.902458 83.325062 
L 148.460176 75.499809 
L 154.017372 72.926165 
L 159.574783 81.940601 
L 165.132163 81.08158 
" clip-path="url(#p74d211cf3d)" style="fill: none; stroke: #ff1500; stroke-width: 1.2"/>
   </g>
   <g id="PathCollection_4">
    <defs>
     <path id="mb98d5e1ee1" d="M 0 1.5 
C 0.397805 1.5 0.77937 1.341951 1.06066 1.06066 
C 1.341951 0.77937 1.5 0.397805 1.5 0 
C 1.5 -0.397805 1.341951 -0.77937 1.06066 -1.06066 
C 0.77937 -1.341951 0.397805 -1.5 0 -1.5 
C -0.397805 -1.5 -0.77937 -1.341951 -1.06066 -1.06066 
C -1.341951 -0.77937 -1.5 -0.397805 -1.5 0 
C -1.5 0.397805 -1.341951 0.77937 -1.06066 1.06066 
C -0.77937 1.341951 -0.397805 1.5 0 1.5 
z
"/>
    </defs>
    <g clip-path="url(#p74d211cf3d)">
     <use xlink:href="#mb98d5e1ee1" x="31.31578" y="77.018376" style="fill: #ff1500"/>
     <use xlink:href="#mb98d5e1ee1" x="37.482455" y="74.706351" style="fill: #ff1500"/>
     <use xlink:href="#mb98d5e1ee1" x="42.907085" y="73.562357" style="fill: #ff1500"/>
     <use xlink:href="#mb98d5e1ee1" x="48.382328" y="66.135274" style="fill: #ff1500"/>
     <use xlink:href="#mb98d5e1ee1" x="53.947783" y="53.327607" style="fill: #ff1500"/>
     <use xlink:href="#mb98d5e1ee1" x="59.615761" y="56.047335" style="fill: #ff1500"/>
     <use xlink:href="#mb98d5e1ee1" x="65.091003" y="61.24014" style="fill: #ff1500"/>
     <use xlink:href="#mb98d5e1ee1" x="70.656458" y="67.390618" style="fill: #ff1500"/>
     <use xlink:href="#mb98d5e1ee1" x="76.211358" y="71.127669" style="fill: #ff1500"/>
     <use xlink:href="#mb98d5e1ee1" x="81.760328" y="76.869891" style="fill: #ff1500"/>
     <use xlink:href="#mb98d5e1ee1" x="87.337852" y="75.81325" style="fill: #ff1500"/>
     <use xlink:href="#mb98d5e1ee1" x="92.882153" y="77.150574" style="fill: #ff1500"/>
     <use xlink:href="#mb98d5e1ee1" x="98.442713" y="71.888021" style="fill: #ff1500"/>
     <use xlink:href="#mb98d5e1ee1" x="104.000951" y="81.170348" style="fill: #ff1500"/>
     <use xlink:href="#mb98d5e1ee1" x="109.559189" y="79.507757" style="fill: #ff1500"/>
     <use xlink:href="#mb98d5e1ee1" x="115.116263" y="85.557098" style="fill: #ff1500"/>
     <use xlink:href="#mb98d5e1ee1" x="120.673066" y="78.240884" style="fill: #ff1500"/>
     <use xlink:href="#mb98d5e1ee1" x="126.22981" y="75.491273" style="fill: #ff1500"/>
     <use xlink:href="#mb98d5e1ee1" x="131.788264" y="83.60616" style="fill: #ff1500"/>
     <use xlink:href="#mb98d5e1ee1" x="137.345093" y="67.821242" style="fill: #ff1500"/>
     <use xlink:href="#mb98d5e1ee1" x="142.902458" y="83.325062" style="fill: #ff1500"/>
     <use xlink:href="#mb98d5e1ee1" x="148.460176" y="75.499809" style="fill: #ff1500"/>
     <use xlink:href="#mb98d5e1ee1" x="154.017372" y="72.926165" style="fill: #ff1500"/>
     <use xlink:href="#mb98d5e1ee1" x="159.574783" y="81.940601" style="fill: #ff1500"/>
     <use xlink:href="#mb98d5e1ee1" x="165.132163" y="81.08158" style="fill: #ff1500"/>
    </g>
   </g>
   <g id="line2d_13">
    <path d="M 31.31578 78.034283 
L 37.482455 74.465487 
L 42.907085 67.776453 
L 48.382328 54.401174 
L 53.947783 50.424069 
L 59.615761 51.342454 
L 65.091003 50.979239 
L 70.656458 60.501497 
L 76.211358 64.742114 
L 81.760328 67.417163 
L 87.337852 76.044103 
L 92.882153 76.90676 
L 98.442713 77.418778 
L 104.000951 96.80964 
L 109.559189 75.009509 
L 115.116263 74.775032 
L 120.673066 82.041865 
L 126.22981 86.983601 
L 131.788264 94.003492 
L 137.345093 84.109266 
L 142.902458 91.746588 
L 148.460176 89.372547 
L 154.017372 82.935432 
L 159.574783 79.393282 
L 165.132163 105.500346 
" clip-path="url(#p74d211cf3d)" style="fill: none; stroke: #ff1f00; stroke-width: 1.2"/>
   </g>
   <g id="PathCollection_5">
    <defs>
     <path id="mf24b957d9b" d="M 0 1.5 
C 0.397805 1.5 0.77937 1.341951 1.06066 1.06066 
C 1.341951 0.77937 1.5 0.397805 1.5 0 
C 1.5 -0.397805 1.341951 -0.77937 1.06066 -1.06066 
C 0.77937 -1.341951 0.397805 -1.5 0 -1.5 
C -0.397805 -1.5 -0.77937 -1.341951 -1.06066 -1.06066 
C -1.341951 -0.77937 -1.5 -0.397805 -1.5 0 
C -1.5 0.397805 -1.341951 0.77937 -1.06066 1.06066 
C -0.77937 1.341951 -0.397805 1.5 0 1.5 
z
"/>
    </defs>
    <g clip-path="url(#p74d211cf3d)">
     <use xlink:href="#mf24b957d9b" x="31.31578" y="78.034283" style="fill: #ff1f00"/>
     <use xlink:href="#mf24b957d9b" x="37.482455" y="74.465487" style="fill: #ff1f00"/>
     <use xlink:href="#mf24b957d9b" x="42.907085" y="67.776453" style="fill: #ff1f00"/>
     <use xlink:href="#mf24b957d9b" x="48.382328" y="54.401174" style="fill: #ff1f00"/>
     <use xlink:href="#mf24b957d9b" x="53.947783" y="50.424069" style="fill: #ff1f00"/>
     <use xlink:href="#mf24b957d9b" x="59.615761" y="51.342454" style="fill: #ff1f00"/>
     <use xlink:href="#mf24b957d9b" x="65.091003" y="50.979239" style="fill: #ff1f00"/>
     <use xlink:href="#mf24b957d9b" x="70.656458" y="60.501497" style="fill: #ff1f00"/>
     <use xlink:href="#mf24b957d9b" x="76.211358" y="64.742114" style="fill: #ff1f00"/>
     <use xlink:href="#mf24b957d9b" x="81.760328" y="67.417163" style="fill: #ff1f00"/>
     <use xlink:href="#mf24b957d9b" x="87.337852" y="76.044103" style="fill: #ff1f00"/>
     <use xlink:href="#mf24b957d9b" x="92.882153" y="76.90676" style="fill: #ff1f00"/>
     <use xlink:href="#mf24b957d9b" x="98.442713" y="77.418778" style="fill: #ff1f00"/>
     <use xlink:href="#mf24b957d9b" x="104.000951" y="96.80964" style="fill: #ff1f00"/>
     <use xlink:href="#mf24b957d9b" x="109.559189" y="75.009509" style="fill: #ff1f00"/>
     <use xlink:href="#mf24b957d9b" x="115.116263" y="74.775032" style="fill: #ff1f00"/>
     <use xlink:href="#mf24b957d9b" x="120.673066" y="82.041865" style="fill: #ff1f00"/>
     <use xlink:href="#mf24b957d9b" x="126.22981" y="86.983601" style="fill: #ff1f00"/>
     <use xlink:href="#mf24b957d9b" x="131.788264" y="94.003492" style="fill: #ff1f00"/>
     <use xlink:href="#mf24b957d9b" x="137.345093" y="84.109266" style="fill: #ff1f00"/>
     <use xlink:href="#mf24b957d9b" x="142.902458" y="91.746588" style="fill: #ff1f00"/>
     <use xlink:href="#mf24b957d9b" x="148.460176" y="89.372547" style="fill: #ff1f00"/>
     <use xlink:href="#mf24b957d9b" x="154.017372" y="82.935432" style="fill: #ff1f00"/>
     <use xlink:href="#mf24b957d9b" x="159.574783" y="79.393282" style="fill: #ff1f00"/>
     <use xlink:href="#mf24b957d9b" x="165.132163" y="105.500346" style="fill: #ff1f00"/>
    </g>
   </g>
   <g id="line2d_14">
    <path d="M 31.31578 74.588902 
L 37.482455 69.45352 
L 42.907085 59.270701 
L 48.382328 53.223327 
L 53.947783 47.564635 
L 59.615761 51.349248 
L 65.091003 42.867426 
L 70.656458 49.764565 
L 76.211358 65.748802 
L 81.760328 63.660938 
L 87.337852 98.305411 
L 92.882153 87.501743 
L 98.442713 82.144703 
L 104.000951 73.943328 
L 109.559189 77.814292 
L 115.116263 89.349886 
L 120.673066 100.727111 
L 126.22981 83.649686 
L 131.788264 84.854008 
L 137.345093 101.149083 
L 142.902458 66.733482 
L 148.460176 99.757533 
L 154.017372 67.701265 
L 159.574783 60.198534 
L 165.132163 72.803319 
" clip-path="url(#p74d211cf3d)" style="fill: none; stroke: #ff4900; stroke-width: 1.2"/>
   </g>
   <g id="PathCollection_6">
    <defs>
     <path id="mc3361e31f4" d="M 0 1.5 
C 0.397805 1.5 0.77937 1.341951 1.06066 1.06066 
C 1.341951 0.77937 1.5 0.397805 1.5 0 
C 1.5 -0.397805 1.341951 -0.77937 1.06066 -1.06066 
C 0.77937 -1.341951 0.397805 -1.5 0 -1.5 
C -0.397805 -1.5 -0.77937 -1.341951 -1.06066 -1.06066 
C -1.341951 -0.77937 -1.5 -0.397805 -1.5 0 
C -1.5 0.397805 -1.341951 0.77937 -1.06066 1.06066 
C -0.77937 1.341951 -0.397805 1.5 0 1.5 
z
"/>
    </defs>
    <g clip-path="url(#p74d211cf3d)">
     <use xlink:href="#mc3361e31f4" x="31.31578" y="74.588902" style="fill: #ff4900"/>
     <use xlink:href="#mc3361e31f4" x="37.482455" y="69.45352" style="fill: #ff4900"/>
     <use xlink:href="#mc3361e31f4" x="42.907085" y="59.270701" style="fill: #ff4900"/>
     <use xlink:href="#mc3361e31f4" x="48.382328" y="53.223327" style="fill: #ff4900"/>
     <use xlink:href="#mc3361e31f4" x="53.947783" y="47.564635" style="fill: #ff4900"/>
     <use xlink:href="#mc3361e31f4" x="59.615761" y="51.349248" style="fill: #ff4900"/>
     <use xlink:href="#mc3361e31f4" x="65.091003" y="42.867426" style="fill: #ff4900"/>
     <use xlink:href="#mc3361e31f4" x="70.656458" y="49.764565" style="fill: #ff4900"/>
     <use xlink:href="#mc3361e31f4" x="76.211358" y="65.748802" style="fill: #ff4900"/>
     <use xlink:href="#mc3361e31f4" x="81.760328" y="63.660938" style="fill: #ff4900"/>
     <use xlink:href="#mc3361e31f4" x="87.337852" y="98.305411" style="fill: #ff4900"/>
     <use xlink:href="#mc3361e31f4" x="92.882153" y="87.501743" style="fill: #ff4900"/>
     <use xlink:href="#mc3361e31f4" x="98.442713" y="82.144703" style="fill: #ff4900"/>
     <use xlink:href="#mc3361e31f4" x="104.000951" y="73.943328" style="fill: #ff4900"/>
     <use xlink:href="#mc3361e31f4" x="109.559189" y="77.814292" style="fill: #ff4900"/>
     <use xlink:href="#mc3361e31f4" x="115.116263" y="89.349886" style="fill: #ff4900"/>
     <use xlink:href="#mc3361e31f4" x="120.673066" y="100.727111" style="fill: #ff4900"/>
     <use xlink:href="#mc3361e31f4" x="126.22981" y="83.649686" style="fill: #ff4900"/>
     <use xlink:href="#mc3361e31f4" x="131.788264" y="84.854008" style="fill: #ff4900"/>
     <use xlink:href="#mc3361e31f4" x="137.345093" y="101.149083" style="fill: #ff4900"/>
     <use xlink:href="#mc3361e31f4" x="142.902458" y="66.733482" style="fill: #ff4900"/>
     <use xlink:href="#mc3361e31f4" x="148.460176" y="99.757533" style="fill: #ff4900"/>
     <use xlink:href="#mc3361e31f4" x="154.017372" y="67.701265" style="fill: #ff4900"/>
     <use xlink:href="#mc3361e31f4" x="159.574783" y="60.198534" style="fill: #ff4900"/>
     <use xlink:href="#mc3361e31f4" x="165.132163" y="72.803319" style="fill: #ff4900"/>
    </g>
   </g>
   <g id="line2d_15">
    <path d="M 31.31578 76.838498 
L 37.482455 73.708019 
L 42.907085 62.915177 
L 48.382328 52.084491 
L 53.947783 47.770928 
L 59.615761 50.416324 
L 65.091003 55.849879 
L 70.656458 67.086105 
L 76.211358 70.06629 
L 81.760328 77.27879 
L 87.337852 62.717768 
L 92.882153 67.958343 
L 98.442713 83.760903 
L 104.000951 94.983208 
L 109.559189 105.433817 
L 115.116263 107.821807 
L 120.673066 106.971298 
L 126.22981 109.947688 
L 131.788264 132.87261 
L 137.345093 97.752996 
L 142.902458 115.557134 
L 148.460176 100.460185 
L 154.017372 138.498076 
L 159.574783 104.76019 
L 165.132163 100.436 
" clip-path="url(#p74d211cf3d)" style="fill: none; stroke: #d59f00; stroke-width: 1.2"/>
   </g>
   <g id="PathCollection_7">
    <defs>
     <path id="m5aefe737df" d="M 0 1.5 
C 0.397805 1.5 0.77937 1.341951 1.06066 1.06066 
C 1.341951 0.77937 1.5 0.397805 1.5 0 
C 1.5 -0.397805 1.341951 -0.77937 1.06066 -1.06066 
C 0.77937 -1.341951 0.397805 -1.5 0 -1.5 
C -0.397805 -1.5 -0.77937 -1.341951 -1.06066 -1.06066 
C -1.341951 -0.77937 -1.5 -0.397805 -1.5 0 
C -1.5 0.397805 -1.341951 0.77937 -1.06066 1.06066 
C -0.77937 1.341951 -0.397805 1.5 0 1.5 
z
"/>
    </defs>
    <g clip-path="url(#p74d211cf3d)">
     <use xlink:href="#m5aefe737df" x="31.31578" y="76.838498" style="fill: #d59f00"/>
     <use xlink:href="#m5aefe737df" x="37.482455" y="73.708019" style="fill: #d59f00"/>
     <use xlink:href="#m5aefe737df" x="42.907085" y="62.915177" style="fill: #d59f00"/>
     <use xlink:href="#m5aefe737df" x="48.382328" y="52.084491" style="fill: #d59f00"/>
     <use xlink:href="#m5aefe737df" x="53.947783" y="47.770928" style="fill: #d59f00"/>
     <use xlink:href="#m5aefe737df" x="59.615761" y="50.416324" style="fill: #d59f00"/>
     <use xlink:href="#m5aefe737df" x="65.091003" y="55.849879" style="fill: #d59f00"/>
     <use xlink:href="#m5aefe737df" x="70.656458" y="67.086105" style="fill: #d59f00"/>
     <use xlink:href="#m5aefe737df" x="76.211358" y="70.06629" style="fill: #d59f00"/>
     <use xlink:href="#m5aefe737df" x="81.760328" y="77.27879" style="fill: #d59f00"/>
     <use xlink:href="#m5aefe737df" x="87.337852" y="62.717768" style="fill: #d59f00"/>
     <use xlink:href="#m5aefe737df" x="92.882153" y="67.958343" style="fill: #d59f00"/>
     <use xlink:href="#m5aefe737df" x="98.442713" y="83.760903" style="fill: #d59f00"/>
     <use xlink:href="#m5aefe737df" x="104.000951" y="94.983208" style="fill: #d59f00"/>
     <use xlink:href="#m5aefe737df" x="109.559189" y="105.433817" style="fill: #d59f00"/>
     <use xlink:href="#m5aefe737df" x="115.116263" y="107.821807" style="fill: #d59f00"/>
     <use xlink:href="#m5aefe737df" x="120.673066" y="106.971298" style="fill: #d59f00"/>
     <use xlink:href="#m5aefe737df" x="126.22981" y="109.947688" style="fill: #d59f00"/>
     <use xlink:href="#m5aefe737df" x="131.788264" y="132.87261" style="fill: #d59f00"/>
     <use xlink:href="#m5aefe737df" x="137.345093" y="97.752996" style="fill: #d59f00"/>
     <use xlink:href="#m5aefe737df" x="142.902458" y="115.557134" style="fill: #d59f00"/>
     <use xlink:href="#m5aefe737df" x="148.460176" y="100.460185" style="fill: #d59f00"/>
     <use xlink:href="#m5aefe737df" x="154.017372" y="138.498076" style="fill: #d59f00"/>
     <use xlink:href="#m5aefe737df" x="159.574783" y="104.76019" style="fill: #d59f00"/>
     <use xlink:href="#m5aefe737df" x="165.132163" y="100.436" style="fill: #d59f00"/>
    </g>
   </g>
   <g id="line2d_16">
    <path d="M 31.31578 77.323337 
L 37.482455 74.053056 
L 42.907085 69.612279 
L 48.382328 69.307752 
L 53.947783 69.51789 
L 59.615761 64.462263 
L 65.091003 52.337689 
L 70.656458 63.614026 
L 76.211358 62.809025 
L 81.760328 71.088356 
L 87.337852 65.9303 
L 92.882153 67.847197 
L 98.442713 72.760991 
L 104.000951 89.627444 
L 109.559189 83.668034 
L 115.116263 102.115433 
L 120.673066 113.29886 
L 126.22981 105.654941 
L 131.788264 135.836725 
L 137.345093 129.00125 
L 142.902458 131.841822 
L 148.460176 138.257177 
" clip-path="url(#p74d211cf3d)" style="fill: none; stroke: #9a9600; stroke-width: 1.2"/>
   </g>
   <g id="PathCollection_8">
    <defs>
     <path id="m6127f4db61" d="M 0 1.5 
C 0.397805 1.5 0.77937 1.341951 1.06066 1.06066 
C 1.341951 0.77937 1.5 0.397805 1.5 0 
C 1.5 -0.397805 1.341951 -0.77937 1.06066 -1.06066 
C 0.77937 -1.341951 0.397805 -1.5 0 -1.5 
C -0.397805 -1.5 -0.77937 -1.341951 -1.06066 -1.06066 
C -1.341951 -0.77937 -1.5 -0.397805 -1.5 0 
C -1.5 0.397805 -1.341951 0.77937 -1.06066 1.06066 
C -0.77937 1.341951 -0.397805 1.5 0 1.5 
z
"/>
    </defs>
    <g clip-path="url(#p74d211cf3d)">
     <use xlink:href="#m6127f4db61" x="31.31578" y="77.323337" style="fill: #9a9600"/>
     <use xlink:href="#m6127f4db61" x="37.482455" y="74.053056" style="fill: #9a9600"/>
     <use xlink:href="#m6127f4db61" x="42.907085" y="69.612279" style="fill: #9a9600"/>
     <use xlink:href="#m6127f4db61" x="48.382328" y="69.307752" style="fill: #9a9600"/>
     <use xlink:href="#m6127f4db61" x="53.947783" y="69.51789" style="fill: #9a9600"/>
     <use xlink:href="#m6127f4db61" x="59.615761" y="64.462263" style="fill: #9a9600"/>
     <use xlink:href="#m6127f4db61" x="65.091003" y="52.337689" style="fill: #9a9600"/>
     <use xlink:href="#m6127f4db61" x="70.656458" y="63.614026" style="fill: #9a9600"/>
     <use xlink:href="#m6127f4db61" x="76.211358" y="62.809025" style="fill: #9a9600"/>
     <use xlink:href="#m6127f4db61" x="81.760328" y="71.088356" style="fill: #9a9600"/>
     <use xlink:href="#m6127f4db61" x="87.337852" y="65.9303" style="fill: #9a9600"/>
     <use xlink:href="#m6127f4db61" x="92.882153" y="67.847197" style="fill: #9a9600"/>
     <use xlink:href="#m6127f4db61" x="98.442713" y="72.760991" style="fill: #9a9600"/>
     <use xlink:href="#m6127f4db61" x="104.000951" y="89.627444" style="fill: #9a9600"/>
     <use xlink:href="#m6127f4db61" x="109.559189" y="83.668034" style="fill: #9a9600"/>
     <use xlink:href="#m6127f4db61" x="115.116263" y="102.115433" style="fill: #9a9600"/>
     <use xlink:href="#m6127f4db61" x="120.673066" y="113.29886" style="fill: #9a9600"/>
     <use xlink:href="#m6127f4db61" x="126.22981" y="105.654941" style="fill: #9a9600"/>
     <use xlink:href="#m6127f4db61" x="131.788264" y="135.836725" style="fill: #9a9600"/>
     <use xlink:href="#m6127f4db61" x="137.345093" y="129.00125" style="fill: #9a9600"/>
     <use xlink:href="#m6127f4db61" x="142.902458" y="131.841822" style="fill: #9a9600"/>
     <use xlink:href="#m6127f4db61" x="148.460176" y="138.257177" style="fill: #9a9600"/>
    </g>
   </g>
   <g id="line2d_17">
    <path d="M 31.31578 87.573711 
L 37.482455 78.569138 
L 42.907085 69.536568 
L 48.382328 58.107109 
L 53.947783 55.029536 
L 59.615761 58.443325 
L 65.091003 52.089525 
L 70.656458 48.131265 
L 76.211358 32.045116 
L 81.760328 42.031837 
L 87.337852 79.635965 
L 92.882153 61.266884 
L 98.442713 61.967445 
L 104.000951 67.228083 
L 109.559189 88.358045 
L 115.116263 81.804132 
L 120.673066 101.241376 
L 126.22981 92.648804 
L 131.788264 95.117402 
L 137.345093 74.743063 
" clip-path="url(#p74d211cf3d)" style="fill: none; stroke: #759100; stroke-width: 1.2"/>
   </g>
   <g id="PathCollection_9">
    <defs>
     <path id="mbe70b1922e" d="M 0 1.5 
C 0.397805 1.5 0.77937 1.341951 1.06066 1.06066 
C 1.341951 0.77937 1.5 0.397805 1.5 0 
C 1.5 -0.397805 1.341951 -0.77937 1.06066 -1.06066 
C 0.77937 -1.341951 0.397805 -1.5 0 -1.5 
C -0.397805 -1.5 -0.77937 -1.341951 -1.06066 -1.06066 
C -1.341951 -0.77937 -1.5 -0.397805 -1.5 0 
C -1.5 0.397805 -1.341951 0.77937 -1.06066 1.06066 
C -0.77937 1.341951 -0.397805 1.5 0 1.5 
z
"/>
    </defs>
    <g clip-path="url(#p74d211cf3d)">
     <use xlink:href="#mbe70b1922e" x="31.31578" y="87.573711" style="fill: #759100"/>
     <use xlink:href="#mbe70b1922e" x="37.482455" y="78.569138" style="fill: #759100"/>
     <use xlink:href="#mbe70b1922e" x="42.907085" y="69.536568" style="fill: #759100"/>
     <use xlink:href="#mbe70b1922e" x="48.382328" y="58.107109" style="fill: #759100"/>
     <use xlink:href="#mbe70b1922e" x="53.947783" y="55.029536" style="fill: #759100"/>
     <use xlink:href="#mbe70b1922e" x="59.615761" y="58.443325" style="fill: #759100"/>
     <use xlink:href="#mbe70b1922e" x="65.091003" y="52.089525" style="fill: #759100"/>
     <use xlink:href="#mbe70b1922e" x="70.656458" y="48.131265" style="fill: #759100"/>
     <use xlink:href="#mbe70b1922e" x="76.211358" y="32.045116" style="fill: #759100"/>
     <use xlink:href="#mbe70b1922e" x="81.760328" y="42.031837" style="fill: #759100"/>
     <use xlink:href="#mbe70b1922e" x="87.337852" y="79.635965" style="fill: #759100"/>
     <use xlink:href="#mbe70b1922e" x="92.882153" y="61.266884" style="fill: #759100"/>
     <use xlink:href="#mbe70b1922e" x="98.442713" y="61.967445" style="fill: #759100"/>
     <use xlink:href="#mbe70b1922e" x="104.000951" y="67.228083" style="fill: #759100"/>
     <use xlink:href="#mbe70b1922e" x="109.559189" y="88.358045" style="fill: #759100"/>
     <use xlink:href="#mbe70b1922e" x="115.116263" y="81.804132" style="fill: #759100"/>
     <use xlink:href="#mbe70b1922e" x="120.673066" y="101.241376" style="fill: #759100"/>
     <use xlink:href="#mbe70b1922e" x="126.22981" y="92.648804" style="fill: #759100"/>
     <use xlink:href="#mbe70b1922e" x="131.788264" y="95.117402" style="fill: #759100"/>
     <use xlink:href="#mbe70b1922e" x="137.345093" y="74.743063" style="fill: #759100"/>
    </g>
   </g>
   <g id="line2d_18">
    <path d="M 31.31578 87.914565 
L 37.482455 87.876979 
L 42.907085 83.624979 
L 48.382328 61.09452 
L 53.947783 64.47604 
L 59.615761 52.031407 
L 65.091003 49.046869 
L 70.656458 51.942811 
L 76.211358 58.088882 
L 81.760328 57.888827 
L 87.337852 58.961474 
L 92.882153 51.893114 
L 98.442713 75.807917 
L 104.000951 60.015935 
L 109.559189 67.116383 
L 115.116263 73.944336 
L 120.673066 69.7547 
L 126.22981 85.032867 
L 131.788264 85.3481 
L 137.345093 51.168403 
" clip-path="url(#p74d211cf3d)" style="fill: none; stroke: #5b8d00; stroke-width: 1.2"/>
   </g>
   <g id="PathCollection_10">
    <defs>
     <path id="m954c662c76" d="M 0 1.5 
C 0.397805 1.5 0.77937 1.341951 1.06066 1.06066 
C 1.341951 0.77937 1.5 0.397805 1.5 0 
C 1.5 -0.397805 1.341951 -0.77937 1.06066 -1.06066 
C 0.77937 -1.341951 0.397805 -1.5 0 -1.5 
C -0.397805 -1.5 -0.77937 -1.341951 -1.06066 -1.06066 
C -1.341951 -0.77937 -1.5 -0.397805 -1.5 0 
C -1.5 0.397805 -1.341951 0.77937 -1.06066 1.06066 
C -0.77937 1.341951 -0.397805 1.5 0 1.5 
z
"/>
    </defs>
    <g clip-path="url(#p74d211cf3d)">
     <use xlink:href="#m954c662c76" x="31.31578" y="87.914565" style="fill: #5b8d00"/>
     <use xlink:href="#m954c662c76" x="37.482455" y="87.876979" style="fill: #5b8d00"/>
     <use xlink:href="#m954c662c76" x="42.907085" y="83.624979" style="fill: #5b8d00"/>
     <use xlink:href="#m954c662c76" x="48.382328" y="61.09452" style="fill: #5b8d00"/>
     <use xlink:href="#m954c662c76" x="53.947783" y="64.47604" style="fill: #5b8d00"/>
     <use xlink:href="#m954c662c76" x="59.615761" y="52.031407" style="fill: #5b8d00"/>
     <use xlink:href="#m954c662c76" x="65.091003" y="49.046869" style="fill: #5b8d00"/>
     <use xlink:href="#m954c662c76" x="70.656458" y="51.942811" style="fill: #5b8d00"/>
     <use xlink:href="#m954c662c76" x="76.211358" y="58.088882" style="fill: #5b8d00"/>
     <use xlink:href="#m954c662c76" x="81.760328" y="57.888827" style="fill: #5b8d00"/>
     <use xlink:href="#m954c662c76" x="87.337852" y="58.961474" style="fill: #5b8d00"/>
     <use xlink:href="#m954c662c76" x="92.882153" y="51.893114" style="fill: #5b8d00"/>
     <use xlink:href="#m954c662c76" x="98.442713" y="75.807917" style="fill: #5b8d00"/>
     <use xlink:href="#m954c662c76" x="104.000951" y="60.015935" style="fill: #5b8d00"/>
     <use xlink:href="#m954c662c76" x="109.559189" y="67.116383" style="fill: #5b8d00"/>
     <use xlink:href="#m954c662c76" x="115.116263" y="73.944336" style="fill: #5b8d00"/>
     <use xlink:href="#m954c662c76" x="120.673066" y="69.7547" style="fill: #5b8d00"/>
     <use xlink:href="#m954c662c76" x="126.22981" y="85.032867" style="fill: #5b8d00"/>
     <use xlink:href="#m954c662c76" x="131.788264" y="85.3481" style="fill: #5b8d00"/>
     <use xlink:href="#m954c662c76" x="137.345093" y="51.168403" style="fill: #5b8d00"/>
    </g>
   </g>
   <g id="text_7">
    <!-- $ξ\,\sqrt{n}/L$ -->
    <g transform="translate(31.665723 26.079944) scale(0.18 -0.18)">
     <defs>
      <path id="DejaVuSans-Oblique-3be" d="M 2016 397 
Q 2428 394 2628 159 
Q 2844 -88 2772 -463 
Q 2700 -822 2422 -1072 
Q 2119 -1344 1609 -1344 
Q 1656 -1109 1700 -872 
Q 1913 -888 2072 -750 
Q 2194 -641 2216 -525 
Q 2247 -359 2175 -222 
Q 2100 -91 1922 -91 
Q -25 -91 241 1275 
Q 422 2213 1516 2488 
Q 663 2600 822 3413 
Q 941 4028 1678 4284 
L 1028 4284 
L 1141 4863 
L 3606 4863 
L 3494 4284 
Q 1528 4284 1350 3375 
Q 1234 2778 2881 2750 
L 2778 2219 
Q 1009 2288 819 1275 
Q 659 428 2016 397 
z
" transform="scale(0.015625)"/>
      <path id="DejaVuSans-221a" d="M 3488 5191 
L 4078 5191 
L 4078 4891 
L 3719 4891 
L 1863 -128 
L 1656 -128 
L 659 2631 
L 269 2491 
L 191 2741 
L 1075 3047 
L 1875 831 
L 3488 5191 
z
" transform="scale(0.015625)"/>
      <path id="DejaVuSans-Oblique-6e" d="M 3566 2113 
L 3156 0 
L 2578 0 
L 2988 2091 
Q 3016 2238 3031 2350 
Q 3047 2463 3047 2528 
Q 3047 2791 2881 2937 
Q 2716 3084 2419 3084 
Q 1956 3084 1622 2776 
Q 1288 2469 1184 1941 
L 800 0 
L 225 0 
L 903 3500 
L 1478 3500 
L 1363 2950 
Q 1603 3253 1940 3418 
Q 2278 3584 2650 3584 
Q 3113 3584 3367 3334 
Q 3622 3084 3622 2631 
Q 3622 2519 3608 2391 
Q 3594 2263 3566 2113 
z
" transform="scale(0.015625)"/>
      <path id="DejaVuSans-2f" d="M 1625 4666 
L 2156 4666 
L 531 -594 
L 0 -594 
L 1625 4666 
z
" transform="scale(0.015625)"/>
      <path id="DejaVuSans-Oblique-4c" d="M 1075 4666 
L 1709 4666 
L 909 525 
L 3181 525 
L 3078 0 
L 172 0 
L 1075 4666 
z
" transform="scale(0.015625)"/>
     </defs>
     <use xlink:href="#DejaVuSans-Oblique-3be" transform="translate(0 0.890625)"/>
     <use xlink:href="#DejaVuSans-221a" transform="translate(71.997395 0.890625)"/>
     <use xlink:href="#DejaVuSans-Oblique-6e" transform="translate(148.218098 0.75)"/>
     <use xlink:href="#DejaVuSans-2f" transform="translate(224.097004 0.890625)"/>
     <use xlink:href="#DejaVuSans-Oblique-4c" transform="translate(257.788411 0.890625)"/>
     <path d="M 135.718098 75.5 
L 135.718098 81.75 
L 224.097004 81.75 
L 224.097004 75.5 
L 135.718098 75.5 
z
"/>
    </g>
   </g>
   <g id="text_8">
    <!-- $t$ -->
    <g transform="translate(155.617479 151.784013) scale(0.18 -0.18)">
     <defs>
      <path id="DejaVuSans-Oblique-74" d="M 2706 3500 
L 2619 3053 
L 1472 3053 
L 1100 1153 
Q 1081 1047 1072 975 
Q 1063 903 1063 863 
Q 1063 663 1183 572 
Q 1303 481 1569 481 
L 2150 481 
L 2053 0 
L 1503 0 
Q 991 0 739 200 
Q 488 400 488 806 
Q 488 878 497 964 
Q 506 1050 525 1153 
L 897 3053 
L 409 3053 
L 500 3500 
L 978 3500 
L 1172 4494 
L 1747 4494 
L 1556 3500 
L 2706 3500 
z
" transform="scale(0.015625)"/>
     </defs>
     <use xlink:href="#DejaVuSans-Oblique-74" transform="translate(0 0.78125)"/>
    </g>
   </g>
  </g>
 </g>
 <defs>
  <clipPath id="p74d211cf3d">
   <rect x="26.19841" y="2.834646" width="142.948244" height="156.502709"/>
  </clipPath>
 </defs>
</svg>
