<?xml version="1.0" encoding="utf-8" standalone="no"?>
<!DOCTYPE svg PUBLIC "-//W3C//DTD SVG 1.1//EN"
  "http://www.w3.org/Graphics/SVG/1.1/DTD/svg11.dtd">
<svg xmlns:xlink="http://www.w3.org/1999/xlink" width="180pt" height="144pt" viewBox="0 0 180 144" xmlns="http://www.w3.org/2000/svg" version="1.1">
 <metadata>
  <rdf:RDF xmlns:dc="http://purl.org/dc/elements/1.1/" xmlns:cc="http://creativecommons.org/ns#" xmlns:rdf="http://www.w3.org/1999/02/22-rdf-syntax-ns#">
   <cc:Work>
    <dc:type rdf:resource="http://purl.org/dc/dcmitype/StillImage"/>
    <dc:date>2024-03-15T20:34:23.005348</dc:date>
    <dc:format>image/svg+xml</dc:format>
    <dc:creator>
     <cc:Agent>
      <dc:title>Matplotlib v3.7.2, https://matplotlib.org/</dc:title>
     </cc:Agent>
    </dc:creator>
   </cc:Work>
  </rdf:RDF>
 </metadata>
 <defs>
  <style type="text/css">*{stroke-linejoin: round; stroke-linecap: butt}</style>
 </defs>
 <g id="figure_1">
  <g id="patch_1">
   <path d="M 0 144 
L 180 144 
L 180 0 
L 0 0 
z
" style="fill: #ffffff"/>
  </g>
  <g id="axes_1">
   <g id="patch_2">
    <path d="M 33.064646 123.337354 
L 177.165354 123.337354 
L 177.165354 3.965931 
L 33.064646 3.965931 
z
" style="fill: #ffffff"/>
   </g>
   <g id="line2d_1">
    <path d="M 37.142968 15.239781 
L 49.543689 17.12446 
L 61.910745 17.15128 
L 74.248585 23.065047 
L 86.563558 33.671021 
L 98.942474 49.649496 
L 111.290617 60.032845 
L 123.654155 66.105931 
L 136.010983 80.981478 
L 148.370196 90.980017 
L 160.728243 105.067407 
L 173.087032 112.22684 
" clip-path="url(#p046dd456df)" style="fill: none; stroke: #1f77b4; stroke-width: 1.95"/>
   </g>
   <g id="PolyCollection_1">
    <defs>
     <path id="mee33dce686" d="M 37.142968 -128.760219 
L 37.142968 -128.760219 
L 49.543689 -126.87554 
L 61.910745 -126.84872 
L 74.248585 -120.934953 
L 86.563558 -110.328979 
L 98.942474 -94.350504 
L 111.290617 -83.967155 
L 123.654155 -77.894069 
L 136.010983 -63.018522 
L 148.370196 -53.019983 
L 160.728243 -38.932593 
L 173.087032 -31.77316 
L 173.087032 -31.77316 
L 173.087032 -31.77316 
L 160.728243 -38.932593 
L 148.370196 -53.019983 
L 136.010983 -63.018522 
L 123.654155 -77.894069 
L 111.290617 -83.967155 
L 98.942474 -94.350504 
L 86.563558 -110.328979 
L 74.248585 -120.934953 
L 61.910745 -126.84872 
L 49.543689 -126.87554 
L 37.142968 -128.760219 
z
"/>
    </defs>
    <g clip-path="url(#p046dd456df)">
     <use xlink:href="#mee33dce686" x="0" y="144" style="fill: #1f77b4; fill-opacity: 0.5"/>
    </g>
   </g>
   <g id="PathCollection_1">
    <defs>
     <path id="mf1286c4250" d="M 0 3 
C 0.795609 3 1.55874 2.683901 2.12132 2.12132 
C 2.683901 1.55874 3 0.795609 3 0 
C 3 -0.795609 2.683901 -1.55874 2.12132 -2.12132 
C 1.55874 -2.683901 0.795609 -3 0 -3 
C -0.795609 -3 -1.55874 -2.683901 -2.12132 -2.12132 
C -2.683901 -1.55874 -3 -0.795609 -3 0 
C -3 0.795609 -2.683901 1.55874 -2.12132 2.12132 
C -1.55874 2.683901 -0.795609 3 0 3 
z
"/>
    </defs>
    <g clip-path="url(#p046dd456df)">
     <use xlink:href="#mf1286c4250" x="37.142968" y="15.239781" style="fill: #1f77b4"/>
     <use xlink:href="#mf1286c4250" x="49.543689" y="17.12446" style="fill: #1f77b4"/>
     <use xlink:href="#mf1286c4250" x="61.910745" y="17.15128" style="fill: #1f77b4"/>
     <use xlink:href="#mf1286c4250" x="74.248585" y="23.065047" style="fill: #1f77b4"/>
     <use xlink:href="#mf1286c4250" x="86.563558" y="33.671021" style="fill: #1f77b4"/>
     <use xlink:href="#mf1286c4250" x="98.942474" y="49.649496" style="fill: #1f77b4"/>
     <use xlink:href="#mf1286c4250" x="111.290617" y="60.032845" style="fill: #1f77b4"/>
     <use xlink:href="#mf1286c4250" x="123.654155" y="66.105931" style="fill: #1f77b4"/>
     <use xlink:href="#mf1286c4250" x="136.010983" y="80.981478" style="fill: #1f77b4"/>
     <use xlink:href="#mf1286c4250" x="148.370196" y="90.980017" style="fill: #1f77b4"/>
     <use xlink:href="#mf1286c4250" x="160.728243" y="105.067407" style="fill: #1f77b4"/>
     <use xlink:href="#mf1286c4250" x="173.087032" y="112.22684" style="fill: #1f77b4"/>
    </g>
   </g>
   <g id="matplotlib.axis_1">
    <g id="xtick_1">
     <g id="line2d_2">
      <defs>
       <path id="mc0eb116a7e" d="M 0 0 
L 0 -3.75 
" style="stroke: #000000; stroke-width: 0.75"/>
      </defs>
      <g>
       <use xlink:href="#mc0eb116a7e" x="51.23941" y="123.337354" style="stroke: #000000; stroke-width: 0.75"/>
      </g>
     </g>
     <g id="text_1">
      <!-- $10^{2}$ -->
      <g transform="translate(40.67941 135.955479) scale(0.12 -0.12)">
       <defs>
        <path id="DejaVuSans-31" d="M 794 531 
L 1825 531 
L 1825 4091 
L 703 3866 
L 703 4441 
L 1819 4666 
L 2450 4666 
L 2450 531 
L 3481 531 
L 3481 0 
L 794 0 
L 794 531 
z
" transform="scale(0.015625)"/>
        <path id="DejaVuSans-30" d="M 2034 4250 
Q 1547 4250 1301 3770 
Q 1056 3291 1056 2328 
Q 1056 1369 1301 889 
Q 1547 409 2034 409 
Q 2525 409 2770 889 
Q 3016 1369 3016 2328 
Q 3016 3291 2770 3770 
Q 2525 4250 2034 4250 
z
M 2034 4750 
Q 2819 4750 3233 4129 
Q 3647 3509 3647 2328 
Q 3647 1150 3233 529 
Q 2819 -91 2034 -91 
Q 1250 -91 836 529 
Q 422 1150 422 2328 
Q 422 3509 836 4129 
Q 1250 4750 2034 4750 
z
" transform="scale(0.015625)"/>
        <path id="DejaVuSans-32" d="M 1228 531 
L 3431 531 
L 3431 0 
L 469 0 
L 469 531 
Q 828 903 1448 1529 
Q 2069 2156 2228 2338 
Q 2531 2678 2651 2914 
Q 2772 3150 2772 3378 
Q 2772 3750 2511 3984 
Q 2250 4219 1831 4219 
Q 1534 4219 1204 4116 
Q 875 4013 500 3803 
L 500 4441 
Q 881 4594 1212 4672 
Q 1544 4750 1819 4750 
Q 2544 4750 2975 4387 
Q 3406 4025 3406 3419 
Q 3406 3131 3298 2873 
Q 3191 2616 2906 2266 
Q 2828 2175 2409 1742 
Q 1991 1309 1228 531 
z
" transform="scale(0.015625)"/>
       </defs>
       <use xlink:href="#DejaVuSans-31" transform="translate(0 0.765625)"/>
       <use xlink:href="#DejaVuSans-30" transform="translate(63.623047 0.765625)"/>
       <use xlink:href="#DejaVuSans-32" transform="translate(128.203125 39.046875) scale(0.7)"/>
      </g>
     </g>
    </g>
    <g id="xtick_2">
     <g id="line2d_3">
      <g>
       <use xlink:href="#mc0eb116a7e" x="98.066779" y="123.337354" style="stroke: #000000; stroke-width: 0.75"/>
      </g>
     </g>
     <g id="text_2">
      <!-- $10^{3}$ -->
      <g transform="translate(87.506779 135.955479) scale(0.12 -0.12)">
       <defs>
        <path id="DejaVuSans-33" d="M 2597 2516 
Q 3050 2419 3304 2112 
Q 3559 1806 3559 1356 
Q 3559 666 3084 287 
Q 2609 -91 1734 -91 
Q 1441 -91 1130 -33 
Q 819 25 488 141 
L 488 750 
Q 750 597 1062 519 
Q 1375 441 1716 441 
Q 2309 441 2620 675 
Q 2931 909 2931 1356 
Q 2931 1769 2642 2001 
Q 2353 2234 1838 2234 
L 1294 2234 
L 1294 2753 
L 1863 2753 
Q 2328 2753 2575 2939 
Q 2822 3125 2822 3475 
Q 2822 3834 2567 4026 
Q 2313 4219 1838 4219 
Q 1578 4219 1281 4162 
Q 984 4106 628 3988 
L 628 4550 
Q 988 4650 1302 4700 
Q 1616 4750 1894 4750 
Q 2613 4750 3031 4423 
Q 3450 4097 3450 3541 
Q 3450 3153 3228 2886 
Q 3006 2619 2597 2516 
z
" transform="scale(0.015625)"/>
       </defs>
       <use xlink:href="#DejaVuSans-31" transform="translate(0 0.765625)"/>
       <use xlink:href="#DejaVuSans-30" transform="translate(63.623047 0.765625)"/>
       <use xlink:href="#DejaVuSans-33" transform="translate(128.203125 39.046875) scale(0.7)"/>
      </g>
     </g>
    </g>
    <g id="xtick_3">
     <g id="line2d_4">
      <g>
       <use xlink:href="#mc0eb116a7e" x="144.894147" y="123.337354" style="stroke: #000000; stroke-width: 0.75"/>
      </g>
     </g>
     <g id="text_3">
      <!-- $10^{4}$ -->
      <g transform="translate(134.334147 135.955479) scale(0.12 -0.12)">
       <defs>
        <path id="DejaVuSans-34" d="M 2419 4116 
L 825 1625 
L 2419 1625 
L 2419 4116 
z
M 2253 4666 
L 3047 4666 
L 3047 1625 
L 3713 1625 
L 3713 1100 
L 3047 1100 
L 3047 0 
L 2419 0 
L 2419 1100 
L 313 1100 
L 313 1709 
L 2253 4666 
z
" transform="scale(0.015625)"/>
       </defs>
       <use xlink:href="#DejaVuSans-31" transform="translate(0 0.684375)"/>
       <use xlink:href="#DejaVuSans-30" transform="translate(63.623047 0.684375)"/>
       <use xlink:href="#DejaVuSans-34" transform="translate(128.203125 38.965625) scale(0.7)"/>
      </g>
     </g>
    </g>
   </g>
   <g id="matplotlib.axis_2">
    <g id="ytick_1">
     <g id="line2d_5">
      <defs>
       <path id="mcfe1593817" d="M 0 0 
L 3.75 0 
" style="stroke: #000000; stroke-width: 0.75"/>
      </defs>
      <g>
       <use xlink:href="#mcfe1593817" x="33.064646" y="115.300098" style="stroke: #000000; stroke-width: 0.75"/>
      </g>
     </g>
     <g id="text_4">
      <!-- 0.05 -->
      <g transform="translate(2.845896 119.85916) scale(0.12 -0.12)">
       <defs>
        <path id="DejaVuSans-2e" d="M 684 794 
L 1344 794 
L 1344 0 
L 684 0 
L 684 794 
z
" transform="scale(0.015625)"/>
        <path id="DejaVuSans-35" d="M 691 4666 
L 3169 4666 
L 3169 4134 
L 1269 4134 
L 1269 2991 
Q 1406 3038 1543 3061 
Q 1681 3084 1819 3084 
Q 2600 3084 3056 2656 
Q 3513 2228 3513 1497 
Q 3513 744 3044 326 
Q 2575 -91 1722 -91 
Q 1428 -91 1123 -41 
Q 819 9 494 109 
L 494 744 
Q 775 591 1075 516 
Q 1375 441 1709 441 
Q 2250 441 2565 725 
Q 2881 1009 2881 1497 
Q 2881 1984 2565 2268 
Q 2250 2553 1709 2553 
Q 1456 2553 1204 2497 
Q 953 2441 691 2322 
L 691 4666 
z
" transform="scale(0.015625)"/>
       </defs>
       <use xlink:href="#DejaVuSans-30"/>
       <use xlink:href="#DejaVuSans-2e" x="63.623047"/>
       <use xlink:href="#DejaVuSans-30" x="95.410156"/>
       <use xlink:href="#DejaVuSans-35" x="159.033203"/>
      </g>
     </g>
    </g>
    <g id="ytick_2">
     <g id="line2d_6">
      <g>
       <use xlink:href="#mcfe1593817" x="33.064646" y="108.733181" style="stroke: #000000; stroke-width: 0.75"/>
      </g>
     </g>
    </g>
    <g id="ytick_3">
     <g id="line2d_7">
      <g>
       <use xlink:href="#mcfe1593817" x="33.064646" y="103.180932" style="stroke: #000000; stroke-width: 0.75"/>
      </g>
     </g>
     <g id="text_5">
      <!-- 0.07 -->
      <g transform="translate(2.845896 107.739994) scale(0.12 -0.12)">
       <defs>
        <path id="DejaVuSans-37" d="M 525 4666 
L 3525 4666 
L 3525 4397 
L 1831 0 
L 1172 0 
L 2766 4134 
L 525 4134 
L 525 4666 
z
" transform="scale(0.015625)"/>
       </defs>
       <use xlink:href="#DejaVuSans-30"/>
       <use xlink:href="#DejaVuSans-2e" x="63.623047"/>
       <use xlink:href="#DejaVuSans-30" x="95.410156"/>
       <use xlink:href="#DejaVuSans-37" x="159.033203"/>
      </g>
     </g>
    </g>
    <g id="ytick_4">
     <g id="line2d_8">
      <g>
       <use xlink:href="#mcfe1593817" x="33.064646" y="98.371355" style="stroke: #000000; stroke-width: 0.75"/>
      </g>
     </g>
    </g>
    <g id="ytick_5">
     <g id="line2d_9">
      <g>
       <use xlink:href="#mcfe1593817" x="33.064646" y="94.129008" style="stroke: #000000; stroke-width: 0.75"/>
      </g>
     </g>
    </g>
    <g id="ytick_6">
     <g id="line2d_10">
      <g>
       <use xlink:href="#mcfe1593817" x="33.064646" y="90.334098" style="stroke: #000000; stroke-width: 0.75"/>
      </g>
     </g>
     <g id="text_6">
      <!-- 0.1 -->
      <g transform="translate(10.480896 94.893161) scale(0.12 -0.12)">
       <use xlink:href="#DejaVuSans-30"/>
       <use xlink:href="#DejaVuSans-2e" x="63.623047"/>
       <use xlink:href="#DejaVuSans-31" x="95.410156"/>
      </g>
     </g>
    </g>
    <g id="ytick_7">
     <g id="line2d_11">
      <g>
       <use xlink:href="#mcfe1593817" x="33.064646" y="65.368099" style="stroke: #000000; stroke-width: 0.75"/>
      </g>
     </g>
     <g id="text_7">
      <!-- 0.2 -->
      <g transform="translate(10.480896 69.927162) scale(0.12 -0.12)">
       <use xlink:href="#DejaVuSans-30"/>
       <use xlink:href="#DejaVuSans-2e" x="63.623047"/>
       <use xlink:href="#DejaVuSans-32" x="95.410156"/>
      </g>
     </g>
    </g>
    <g id="ytick_8">
     <g id="line2d_12">
      <g>
       <use xlink:href="#mcfe1593817" x="33.064646" y="50.763926" style="stroke: #000000; stroke-width: 0.75"/>
      </g>
     </g>
     <g id="text_8">
      <!-- 0.3 -->
      <g transform="translate(10.480896 55.322988) scale(0.12 -0.12)">
       <use xlink:href="#DejaVuSans-30"/>
       <use xlink:href="#DejaVuSans-2e" x="63.623047"/>
       <use xlink:href="#DejaVuSans-33" x="95.410156"/>
      </g>
     </g>
    </g>
    <g id="ytick_9">
     <g id="line2d_13">
      <g>
       <use xlink:href="#mcfe1593817" x="33.064646" y="40.4021" style="stroke: #000000; stroke-width: 0.75"/>
      </g>
     </g>
    </g>
    <g id="ytick_10">
     <g id="line2d_14">
      <g>
       <use xlink:href="#mcfe1593817" x="33.064646" y="32.364843" style="stroke: #000000; stroke-width: 0.75"/>
      </g>
     </g>
     <g id="text_9">
      <!-- 0.5 -->
      <g transform="translate(10.480896 36.923906) scale(0.12 -0.12)">
       <use xlink:href="#DejaVuSans-30"/>
       <use xlink:href="#DejaVuSans-2e" x="63.623047"/>
       <use xlink:href="#DejaVuSans-35" x="95.410156"/>
      </g>
     </g>
    </g>
    <g id="ytick_11">
     <g id="line2d_15">
      <g>
       <use xlink:href="#mcfe1593817" x="33.064646" y="25.797927" style="stroke: #000000; stroke-width: 0.75"/>
      </g>
     </g>
    </g>
    <g id="ytick_12">
     <g id="line2d_16">
      <g>
       <use xlink:href="#mcfe1593817" x="33.064646" y="20.245678" style="stroke: #000000; stroke-width: 0.75"/>
      </g>
     </g>
     <g id="text_10">
      <!-- 0.7 -->
      <g transform="translate(10.480896 24.80474) scale(0.12 -0.12)">
       <use xlink:href="#DejaVuSans-30"/>
       <use xlink:href="#DejaVuSans-2e" x="63.623047"/>
       <use xlink:href="#DejaVuSans-37" x="95.410156"/>
      </g>
     </g>
    </g>
    <g id="ytick_13">
     <g id="line2d_17">
      <g>
       <use xlink:href="#mcfe1593817" x="33.064646" y="15.436101" style="stroke: #000000; stroke-width: 0.75"/>
      </g>
     </g>
    </g>
    <g id="ytick_14">
     <g id="line2d_18">
      <g>
       <use xlink:href="#mcfe1593817" x="33.064646" y="11.193753" style="stroke: #000000; stroke-width: 0.75"/>
      </g>
     </g>
    </g>
    <g id="ytick_15">
     <g id="line2d_19">
      <g>
       <use xlink:href="#mcfe1593817" x="33.064646" y="7.398844" style="stroke: #000000; stroke-width: 0.75"/>
      </g>
     </g>
     <g id="text_11">
      <!-- 1 -->
      <g transform="translate(21.929646 11.957907) scale(0.12 -0.12)">
       <use xlink:href="#DejaVuSans-31"/>
      </g>
     </g>
    </g>
   </g>
   <g id="line2d_20">
    <path d="M 37.142968 15.089403 
L 49.543689 15.514927 
L 61.910745 15.621305 
L 74.248585 15.786152 
L 86.563558 17.060237 
L 98.942474 19.625743 
L 111.290617 31.802985 
L 123.654155 35.392656 
L 136.010983 53.644601 
L 148.370196 62.924202 
L 160.728243 77.163727 
L 173.087032 85.419739 
" clip-path="url(#p046dd456df)" style="fill: none; stroke: #ff7f0e; stroke-width: 1.95"/>
   </g>
   <g id="PolyCollection_2">
    <defs>
     <path id="ma06d745297" d="M 37.142968 -128.910597 
L 37.142968 -128.910597 
L 49.543689 -128.485073 
L 61.910745 -128.378695 
L 74.248585 -128.213848 
L 86.563558 -126.939763 
L 98.942474 -124.374257 
L 111.290617 -112.197015 
L 123.654155 -108.607344 
L 136.010983 -90.355399 
L 148.370196 -81.075798 
L 160.728243 -66.836273 
L 173.087032 -58.580261 
L 173.087032 -58.580261 
L 173.087032 -58.580261 
L 160.728243 -66.836273 
L 148.370196 -81.075798 
L 136.010983 -90.355399 
L 123.654155 -108.607344 
L 111.290617 -112.197015 
L 98.942474 -124.374257 
L 86.563558 -126.939763 
L 74.248585 -128.213848 
L 61.910745 -128.378695 
L 49.543689 -128.485073 
L 37.142968 -128.910597 
z
"/>
    </defs>
    <g clip-path="url(#p046dd456df)">
     <use xlink:href="#ma06d745297" x="0" y="144" style="fill: #ff7f0e; fill-opacity: 0.5"/>
    </g>
   </g>
   <g id="PathCollection_2">
    <defs>
     <path id="m613e4b7d23" d="M 0 3 
C 0.795609 3 1.55874 2.683901 2.12132 2.12132 
C 2.683901 1.55874 3 0.795609 3 0 
C 3 -0.795609 2.683901 -1.55874 2.12132 -2.12132 
C 1.55874 -2.683901 0.795609 -3 0 -3 
C -0.795609 -3 -1.55874 -2.683901 -2.12132 -2.12132 
C -2.683901 -1.55874 -3 -0.795609 -3 0 
C -3 0.795609 -2.683901 1.55874 -2.12132 2.12132 
C -1.55874 2.683901 -0.795609 3 0 3 
z
"/>
    </defs>
    <g clip-path="url(#p046dd456df)">
     <use xlink:href="#m613e4b7d23" x="37.142968" y="15.089403" style="fill: #ff7f0e"/>
     <use xlink:href="#m613e4b7d23" x="49.543689" y="15.514927" style="fill: #ff7f0e"/>
     <use xlink:href="#m613e4b7d23" x="61.910745" y="15.621305" style="fill: #ff7f0e"/>
     <use xlink:href="#m613e4b7d23" x="74.248585" y="15.786152" style="fill: #ff7f0e"/>
     <use xlink:href="#m613e4b7d23" x="86.563558" y="17.060237" style="fill: #ff7f0e"/>
     <use xlink:href="#m613e4b7d23" x="98.942474" y="19.625743" style="fill: #ff7f0e"/>
     <use xlink:href="#m613e4b7d23" x="111.290617" y="31.802985" style="fill: #ff7f0e"/>
     <use xlink:href="#m613e4b7d23" x="123.654155" y="35.392656" style="fill: #ff7f0e"/>
     <use xlink:href="#m613e4b7d23" x="136.010983" y="53.644601" style="fill: #ff7f0e"/>
     <use xlink:href="#m613e4b7d23" x="148.370196" y="62.924202" style="fill: #ff7f0e"/>
     <use xlink:href="#m613e4b7d23" x="160.728243" y="77.163727" style="fill: #ff7f0e"/>
     <use xlink:href="#m613e4b7d23" x="173.087032" y="85.419739" style="fill: #ff7f0e"/>
    </g>
   </g>
   <g id="patch_3">
    <path d="M 33.064646 123.337354 
L 33.064646 3.965931 
" style="fill: none; stroke: #000000; stroke-width: 1.5; stroke-linejoin: miter; stroke-linecap: square"/>
   </g>
   <g id="patch_4">
    <path d="M 177.165354 123.337354 
L 177.165354 3.965931 
" style="fill: none; stroke: #000000; stroke-width: 1.5; stroke-linejoin: miter; stroke-linecap: square"/>
   </g>
   <g id="patch_5">
    <path d="M 33.064646 123.337354 
L 177.165354 123.337354 
" style="fill: none; stroke: #000000; stroke-width: 1.5; stroke-linejoin: miter; stroke-linecap: square"/>
   </g>
   <g id="patch_6">
    <path d="M 33.064646 3.965931 
L 177.165354 3.965931 
" style="fill: none; stroke: #000000; stroke-width: 1.5; stroke-linejoin: miter; stroke-linecap: square"/>
   </g>
   <g id="line2d_21">
    <path d="M 37.142968 14.9835 
L 49.543689 15.455869 
L 61.910745 15.63488 
L 74.248585 15.885203 
L 86.563558 17.117965 
L 98.942474 16.286674 
L 111.290617 17.101447 
L 123.654155 17.569676 
L 136.010983 26.947792 
L 148.370196 33.432171 
L 160.728243 47.205016 
L 173.087032 59.306513 
" clip-path="url(#p046dd456df)" style="fill: none; stroke: #2ca02c; stroke-width: 1.95"/>
   </g>
   <g id="PolyCollection_3">
    <defs>
     <path id="m5d577bdfc6" d="M 37.142968 -129.0165 
L 37.142968 -129.0165 
L 49.543689 -128.544131 
L 61.910745 -128.36512 
L 74.248585 -128.114797 
L 86.563558 -126.882035 
L 98.942474 -127.713326 
L 111.290617 -126.898553 
L 123.654155 -126.430324 
L 136.010983 -117.052208 
L 148.370196 -110.567829 
L 160.728243 -96.794984 
L 173.087032 -84.693487 
L 173.087032 -84.693487 
L 173.087032 -84.693487 
L 160.728243 -96.794984 
L 148.370196 -110.567829 
L 136.010983 -117.052208 
L 123.654155 -126.430324 
L 111.290617 -126.898553 
L 98.942474 -127.713326 
L 86.563558 -126.882035 
L 74.248585 -128.114797 
L 61.910745 -128.36512 
L 49.543689 -128.544131 
L 37.142968 -129.0165 
z
"/>
    </defs>
    <g clip-path="url(#p046dd456df)">
     <use xlink:href="#m5d577bdfc6" x="0" y="144" style="fill: #2ca02c; fill-opacity: 0.5"/>
    </g>
   </g>
   <g id="PathCollection_3">
    <defs>
     <path id="m4e48fba20f" d="M 0 3 
C 0.795609 3 1.55874 2.683901 2.12132 2.12132 
C 2.683901 1.55874 3 0.795609 3 0 
C 3 -0.795609 2.683901 -1.55874 2.12132 -2.12132 
C 1.55874 -2.683901 0.795609 -3 0 -3 
C -0.795609 -3 -1.55874 -2.683901 -2.12132 -2.12132 
C -2.683901 -1.55874 -3 -0.795609 -3 0 
C -3 0.795609 -2.683901 1.55874 -2.12132 2.12132 
C -1.55874 2.683901 -0.795609 3 0 3 
z
"/>
    </defs>
    <g clip-path="url(#p046dd456df)">
     <use xlink:href="#m4e48fba20f" x="37.142968" y="14.9835" style="fill: #2ca02c"/>
     <use xlink:href="#m4e48fba20f" x="49.543689" y="15.455869" style="fill: #2ca02c"/>
     <use xlink:href="#m4e48fba20f" x="61.910745" y="15.63488" style="fill: #2ca02c"/>
     <use xlink:href="#m4e48fba20f" x="74.248585" y="15.885203" style="fill: #2ca02c"/>
     <use xlink:href="#m4e48fba20f" x="86.563558" y="17.117965" style="fill: #2ca02c"/>
     <use xlink:href="#m4e48fba20f" x="98.942474" y="16.286674" style="fill: #2ca02c"/>
     <use xlink:href="#m4e48fba20f" x="111.290617" y="17.101447" style="fill: #2ca02c"/>
     <use xlink:href="#m4e48fba20f" x="123.654155" y="17.569676" style="fill: #2ca02c"/>
     <use xlink:href="#m4e48fba20f" x="136.010983" y="26.947792" style="fill: #2ca02c"/>
     <use xlink:href="#m4e48fba20f" x="148.370196" y="33.432171" style="fill: #2ca02c"/>
     <use xlink:href="#m4e48fba20f" x="160.728243" y="47.205016" style="fill: #2ca02c"/>
     <use xlink:href="#m4e48fba20f" x="173.087032" y="59.306513" style="fill: #2ca02c"/>
    </g>
   </g>
   <g id="line2d_22">
    <path d="M 37.142968 15.146423 
L 49.543689 15.363356 
L 61.910745 15.773637 
L 74.248585 15.934663 
L 86.563558 15.857908 
L 98.942474 16.271224 
L 111.290617 16.544708 
L 123.654155 17.081621 
L 136.010983 18.586821 
L 148.370196 20.408888 
L 160.728243 29.725652 
L 173.087032 39.232332 
" clip-path="url(#p046dd456df)" style="fill: none; stroke: #d62728; stroke-width: 1.95"/>
   </g>
   <g id="PolyCollection_4">
    <defs>
     <path id="m1dff9c707f" d="M 37.142968 -128.853577 
L 37.142968 -128.853577 
L 49.543689 -128.636644 
L 61.910745 -128.226363 
L 74.248585 -128.065337 
L 86.563558 -128.142092 
L 98.942474 -127.728776 
L 111.290617 -127.455292 
L 123.654155 -126.918379 
L 136.010983 -125.413179 
L 148.370196 -123.591112 
L 160.728243 -114.274348 
L 173.087032 -104.767668 
L 173.087032 -104.767668 
L 173.087032 -104.767668 
L 160.728243 -114.274348 
L 148.370196 -123.591112 
L 136.010983 -125.413179 
L 123.654155 -126.918379 
L 111.290617 -127.455292 
L 98.942474 -127.728776 
L 86.563558 -128.142092 
L 74.248585 -128.065337 
L 61.910745 -128.226363 
L 49.543689 -128.636644 
L 37.142968 -128.853577 
z
"/>
    </defs>
    <g clip-path="url(#p046dd456df)">
     <use xlink:href="#m1dff9c707f" x="0" y="144" style="fill: #d62728; fill-opacity: 0.5"/>
    </g>
   </g>
   <g id="PathCollection_4">
    <defs>
     <path id="m48c7629558" d="M 0 3 
C 0.795609 3 1.55874 2.683901 2.12132 2.12132 
C 2.683901 1.55874 3 0.795609 3 0 
C 3 -0.795609 2.683901 -1.55874 2.12132 -2.12132 
C 1.55874 -2.683901 0.795609 -3 0 -3 
C -0.795609 -3 -1.55874 -2.683901 -2.12132 -2.12132 
C -2.683901 -1.55874 -3 -0.795609 -3 0 
C -3 0.795609 -2.683901 1.55874 -2.12132 2.12132 
C -1.55874 2.683901 -0.795609 3 0 3 
z
"/>
    </defs>
    <g clip-path="url(#p046dd456df)">
     <use xlink:href="#m48c7629558" x="37.142968" y="15.146423" style="fill: #d62728"/>
     <use xlink:href="#m48c7629558" x="49.543689" y="15.363356" style="fill: #d62728"/>
     <use xlink:href="#m48c7629558" x="61.910745" y="15.773637" style="fill: #d62728"/>
     <use xlink:href="#m48c7629558" x="74.248585" y="15.934663" style="fill: #d62728"/>
     <use xlink:href="#m48c7629558" x="86.563558" y="15.857908" style="fill: #d62728"/>
     <use xlink:href="#m48c7629558" x="98.942474" y="16.271224" style="fill: #d62728"/>
     <use xlink:href="#m48c7629558" x="111.290617" y="16.544708" style="fill: #d62728"/>
     <use xlink:href="#m48c7629558" x="123.654155" y="17.081621" style="fill: #d62728"/>
     <use xlink:href="#m48c7629558" x="136.010983" y="18.586821" style="fill: #d62728"/>
     <use xlink:href="#m48c7629558" x="148.370196" y="20.408888" style="fill: #d62728"/>
     <use xlink:href="#m48c7629558" x="160.728243" y="29.725652" style="fill: #d62728"/>
     <use xlink:href="#m48c7629558" x="173.087032" y="39.232332" style="fill: #d62728"/>
    </g>
   </g>
   <g id="line2d_23">
    <path d="M 37.142968 14.945091 
L 49.543689 15.474747 
L 61.910745 15.740043 
L 74.248585 15.94775 
L 86.563558 16.041374 
L 98.942474 16.358505 
L 111.290617 16.51341 
L 123.654155 17.063271 
L 136.010983 18.481941 
L 148.370196 17.616397 
L 160.728243 19.382037 
L 173.087032 24.310955 
" clip-path="url(#p046dd456df)" style="fill: none; stroke: #9467bd; stroke-width: 1.95"/>
   </g>
   <g id="PolyCollection_5">
    <defs>
     <path id="m1a421ce520" d="M 37.142968 -129.054909 
L 37.142968 -129.054909 
L 49.543689 -128.525253 
L 61.910745 -128.259957 
L 74.248585 -128.05225 
L 86.563558 -127.958626 
L 98.942474 -127.641495 
L 111.290617 -127.48659 
L 123.654155 -126.936729 
L 136.010983 -125.518059 
L 148.370196 -126.383603 
L 160.728243 -124.617963 
L 173.087032 -119.689045 
L 173.087032 -119.689045 
L 173.087032 -119.689045 
L 160.728243 -124.617963 
L 148.370196 -126.383603 
L 136.010983 -125.518059 
L 123.654155 -126.936729 
L 111.290617 -127.48659 
L 98.942474 -127.641495 
L 86.563558 -127.958626 
L 74.248585 -128.05225 
L 61.910745 -128.259957 
L 49.543689 -128.525253 
L 37.142968 -129.054909 
z
"/>
    </defs>
    <g clip-path="url(#p046dd456df)">
     <use xlink:href="#m1a421ce520" x="0" y="144" style="fill: #9467bd; fill-opacity: 0.5"/>
    </g>
   </g>
   <g id="PathCollection_5">
    <defs>
     <path id="m4fa4996057" d="M 0 3 
C 0.795609 3 1.55874 2.683901 2.12132 2.12132 
C 2.683901 1.55874 3 0.795609 3 0 
C 3 -0.795609 2.683901 -1.55874 2.12132 -2.12132 
C 1.55874 -2.683901 0.795609 -3 0 -3 
C -0.795609 -3 -1.55874 -2.683901 -2.12132 -2.12132 
C -2.683901 -1.55874 -3 -0.795609 -3 0 
C -3 0.795609 -2.683901 1.55874 -2.12132 2.12132 
C -1.55874 2.683901 -0.795609 3 0 3 
z
"/>
    </defs>
    <g clip-path="url(#p046dd456df)">
     <use xlink:href="#m4fa4996057" x="37.142968" y="14.945091" style="fill: #9467bd"/>
     <use xlink:href="#m4fa4996057" x="49.543689" y="15.474747" style="fill: #9467bd"/>
     <use xlink:href="#m4fa4996057" x="61.910745" y="15.740043" style="fill: #9467bd"/>
     <use xlink:href="#m4fa4996057" x="74.248585" y="15.94775" style="fill: #9467bd"/>
     <use xlink:href="#m4fa4996057" x="86.563558" y="16.041374" style="fill: #9467bd"/>
     <use xlink:href="#m4fa4996057" x="98.942474" y="16.358505" style="fill: #9467bd"/>
     <use xlink:href="#m4fa4996057" x="111.290617" y="16.51341" style="fill: #9467bd"/>
     <use xlink:href="#m4fa4996057" x="123.654155" y="17.063271" style="fill: #9467bd"/>
     <use xlink:href="#m4fa4996057" x="136.010983" y="18.481941" style="fill: #9467bd"/>
     <use xlink:href="#m4fa4996057" x="148.370196" y="17.616397" style="fill: #9467bd"/>
     <use xlink:href="#m4fa4996057" x="160.728243" y="19.382037" style="fill: #9467bd"/>
     <use xlink:href="#m4fa4996057" x="173.087032" y="24.310955" style="fill: #9467bd"/>
    </g>
   </g>
   <g id="line2d_24">
    <path d="M 37.142968 15.232736 
L 49.543689 15.390521 
L 61.910745 15.596716 
L 74.248585 15.873155 
L 86.563558 16.042642 
L 98.942474 16.307783 
L 111.290617 16.560062 
L 123.654155 16.858692 
L 136.010983 18.455475 
L 148.370196 17.817593 
L 160.728243 18.421833 
L 173.087032 19.092957 
" clip-path="url(#p046dd456df)" style="fill: none; stroke: #8c564b; stroke-width: 1.95"/>
   </g>
   <g id="PolyCollection_6">
    <defs>
     <path id="m89b62e6008" d="M 37.142968 -128.767264 
L 37.142968 -128.767264 
L 49.543689 -128.609479 
L 61.910745 -128.403284 
L 74.248585 -128.126845 
L 86.563558 -127.957358 
L 98.942474 -127.692217 
L 111.290617 -127.439938 
L 123.654155 -127.141308 
L 136.010983 -125.544525 
L 148.370196 -126.182407 
L 160.728243 -125.578167 
L 173.087032 -124.907043 
L 173.087032 -124.907043 
L 173.087032 -124.907043 
L 160.728243 -125.578167 
L 148.370196 -126.182407 
L 136.010983 -125.544525 
L 123.654155 -127.141308 
L 111.290617 -127.439938 
L 98.942474 -127.692217 
L 86.563558 -127.957358 
L 74.248585 -128.126845 
L 61.910745 -128.403284 
L 49.543689 -128.609479 
L 37.142968 -128.767264 
z
"/>
    </defs>
    <g clip-path="url(#p046dd456df)">
     <use xlink:href="#m89b62e6008" x="0" y="144" style="fill: #8c564b; fill-opacity: 0.5"/>
    </g>
   </g>
   <g id="PathCollection_6">
    <defs>
     <path id="m8478a98168" d="M 0 3 
C 0.795609 3 1.55874 2.683901 2.12132 2.12132 
C 2.683901 1.55874 3 0.795609 3 0 
C 3 -0.795609 2.683901 -1.55874 2.12132 -2.12132 
C 1.55874 -2.683901 0.795609 -3 0 -3 
C -0.795609 -3 -1.55874 -2.683901 -2.12132 -2.12132 
C -2.683901 -1.55874 -3 -0.795609 -3 0 
C -3 0.795609 -2.683901 1.55874 -2.12132 2.12132 
C -1.55874 2.683901 -0.795609 3 0 3 
z
"/>
    </defs>
    <g clip-path="url(#p046dd456df)">
     <use xlink:href="#m8478a98168" x="37.142968" y="15.232736" style="fill: #8c564b"/>
     <use xlink:href="#m8478a98168" x="49.543689" y="15.390521" style="fill: #8c564b"/>
     <use xlink:href="#m8478a98168" x="61.910745" y="15.596716" style="fill: #8c564b"/>
     <use xlink:href="#m8478a98168" x="74.248585" y="15.873155" style="fill: #8c564b"/>
     <use xlink:href="#m8478a98168" x="86.563558" y="16.042642" style="fill: #8c564b"/>
     <use xlink:href="#m8478a98168" x="98.942474" y="16.307783" style="fill: #8c564b"/>
     <use xlink:href="#m8478a98168" x="111.290617" y="16.560062" style="fill: #8c564b"/>
     <use xlink:href="#m8478a98168" x="123.654155" y="16.858692" style="fill: #8c564b"/>
     <use xlink:href="#m8478a98168" x="136.010983" y="18.455475" style="fill: #8c564b"/>
     <use xlink:href="#m8478a98168" x="148.370196" y="17.817593" style="fill: #8c564b"/>
     <use xlink:href="#m8478a98168" x="160.728243" y="18.421833" style="fill: #8c564b"/>
     <use xlink:href="#m8478a98168" x="173.087032" y="19.092957" style="fill: #8c564b"/>
    </g>
   </g>
   <g id="line2d_25">
    <path d="M 37.142968 14.944799 
L 49.543689 15.27424 
L 61.910745 15.602787 
L 74.248585 15.930557 
L 86.563558 16.25772 
L 98.942474 16.586582 
L 111.290617 16.914626 
L 123.654155 17.243079 
L 136.010983 17.571354 
L 148.370196 17.899693 
L 160.728243 18.228 
L 173.087032 18.556327 
" clip-path="url(#p046dd456df)" style="fill: none; stroke-dasharray: 1.95,3.2175; stroke-dashoffset: 0; stroke: #000000; stroke-width: 1.95"/>
   </g>
   <g id="line2d_26">
    <path d="M 49.543689 24.296294 
L 61.910745 35.247848 
L 74.248585 46.17353 
L 86.563558 57.078962 
L 98.942474 68.041019 
L 111.290617 78.975825 
L 123.654155 89.924264 
L 136.010983 100.866761 
L 148.370196 111.81137 
" clip-path="url(#p046dd456df)" style="fill: none; stroke-dasharray: 7.215,3.12; stroke-dashoffset: 0; stroke: #000000; stroke-width: 1.95"/>
   </g>
   <g id="text_12">
    <!-- $P$ -->
    <g transform="translate(36.289195 10.62692) scale(0.225 -0.225)">
     <defs>
      <path id="DejaVuSans-Oblique-50" d="M 1081 4666 
L 2541 4666 
Q 3178 4666 3512 4369 
Q 3847 4072 3847 3500 
Q 3847 2731 3353 2303 
Q 2859 1875 1966 1875 
L 1172 1875 
L 806 0 
L 172 0 
L 1081 4666 
z
M 1613 4147 
L 1275 2394 
L 2069 2394 
Q 2606 2394 2893 2669 
Q 3181 2944 3181 3456 
Q 3181 3784 2986 3965 
Q 2791 4147 2438 4147 
L 1613 4147 
z
" transform="scale(0.015625)"/>
     </defs>
     <use xlink:href="#DejaVuSans-Oblique-50" transform="translate(0 0.09375)"/>
    </g>
   </g>
   <g id="text_13">
    <!-- $N$ -->
    <g transform="translate(149.994762 120.472378) scale(0.225 -0.225)">
     <defs>
      <path id="DejaVuSans-Oblique-4e" d="M 1081 4666 
L 1931 4666 
L 3219 666 
L 4000 4666 
L 4616 4666 
L 3706 0 
L 2853 0 
L 1569 4025 
L 788 0 
L 172 0 
L 1081 4666 
z
" transform="scale(0.015625)"/>
     </defs>
     <use xlink:href="#DejaVuSans-Oblique-4e" transform="translate(0 0.09375)"/>
    </g>
   </g>
   <g id="legend_1">
    <g id="patch_7">
     <path d="M 39.064646 117.337354 
L 133.144646 117.337354 
L 133.144646 66.003604 
L 39.064646 66.003604 
z
" style="fill: #ffffff; stroke: #000000; stroke-width: 1.5; stroke-linejoin: miter"/>
    </g>
    <g id="line2d_27">
     <path d="M 48.664646 80.521729 
L 60.664646 80.521729 
L 72.664646 80.521729 
" style="fill: none; stroke-dasharray: 1.5,2.475; stroke-dashoffset: 0; stroke: #000000; stroke-width: 1.5; stroke-linejoin: miter"/>
    </g>
    <g id="text_14">
     <!-- $N^{-0.015}$ -->
     <g transform="translate(82.264646 84.721729) scale(0.12 -0.12)">
      <defs>
       <path id="DejaVuSans-2212" d="M 678 2272 
L 4684 2272 
L 4684 1741 
L 678 1741 
L 678 2272 
z
" transform="scale(0.015625)"/>
      </defs>
      <use xlink:href="#DejaVuSans-Oblique-4e" transform="translate(0 0.765625)"/>
      <use xlink:href="#DejaVuSans-2212" transform="translate(81.821458 39.046875) scale(0.7)"/>
      <use xlink:href="#DejaVuSans-30" transform="translate(140.473802 39.046875) scale(0.7)"/>
      <use xlink:href="#DejaVuSans-2e" transform="translate(185.009935 39.046875) scale(0.7)"/>
      <use xlink:href="#DejaVuSans-30" transform="translate(207.260911 39.046875) scale(0.7)"/>
      <use xlink:href="#DejaVuSans-31" transform="translate(251.797044 39.046875) scale(0.7)"/>
      <use xlink:href="#DejaVuSans-35" transform="translate(296.333177 39.046875) scale(0.7)"/>
     </g>
    </g>
    <g id="line2d_28">
     <path d="M 48.664646 101.041729 
L 60.664646 101.041729 
L 72.664646 101.041729 
" style="fill: none; stroke-dasharray: 5.55,2.4; stroke-dashoffset: 0; stroke: #000000; stroke-width: 1.5; stroke-linejoin: miter"/>
    </g>
    <g id="text_15">
     <!-- $1/\sqrt{N}$ -->
     <g transform="translate(82.264646 105.241729) scale(0.12 -0.12)">
      <defs>
       <path id="DejaVuSans-2f" d="M 1625 4666 
L 2156 4666 
L 531 -594 
L 0 -594 
L 1625 4666 
z
" transform="scale(0.015625)"/>
       <path id="STIXSizeOneSym-Regular-221a" d="M 6970 9933 
L 3373 -1888 
L 3104 -1888 
L 1626 2918 
Q 1555 3149 1465 3251 
Q 1376 3354 1229 3354 
Q 1011 3354 794 3181 
L 717 3309 
L 1766 4115 
L 1926 4115 
L 3379 -602 
L 3405 -602 
L 6605 9933 
L 6970 9933 
z
" transform="scale(0.015625)"/>
      </defs>
      <use xlink:href="#DejaVuSans-31" transform="translate(0 0.84375)"/>
      <use xlink:href="#DejaVuSans-2f" transform="translate(63.623047 0.84375)"/>
      <use xlink:href="#STIXSizeOneSym-Regular-221a" transform="translate(97.314453 17.484375) scale(0.563912)"/>
      <use xlink:href="#DejaVuSans-Oblique-4e" transform="translate(169.419327 0.84375)"/>
      <path d="M 156.919327 98.5 
L 156.919327 104.75 
L 256.724014 104.75 
L 256.724014 98.5 
L 156.919327 98.5 
z
"/>
     </g>
    </g>
   </g>
  </g>
 </g>
 <defs>
  <clipPath id="p046dd456df">
   <rect x="33.064646" y="3.965931" width="144.100709" height="119.371423"/>
  </clipPath>
 </defs>
</svg>
