<?xml version="1.0" encoding="utf-8" standalone="no"?>
<!DOCTYPE svg PUBLIC "-//W3C//DTD SVG 1.1//EN"
  "http://www.w3.org/Graphics/SVG/1.1/DTD/svg11.dtd">
<svg xmlns:xlink="http://www.w3.org/1999/xlink" width="208.8pt" height="129.6pt" viewBox="0 0 208.8 129.6" xmlns="http://www.w3.org/2000/svg" version="1.1">
 <metadata>
  <rdf:RDF xmlns:dc="http://purl.org/dc/elements/1.1/" xmlns:cc="http://creativecommons.org/ns#" xmlns:rdf="http://www.w3.org/1999/02/22-rdf-syntax-ns#">
   <cc:Work>
    <dc:type rdf:resource="http://purl.org/dc/dcmitype/StillImage"/>
    <dc:date>2023-11-23T09:56:26.066198</dc:date>
    <dc:format>image/svg+xml</dc:format>
    <dc:creator>
     <cc:Agent>
      <dc:title>Matplotlib v3.7.2, https://matplotlib.org/</dc:title>
     </cc:Agent>
    </dc:creator>
   </cc:Work>
  </rdf:RDF>
 </metadata>
 <defs>
  <style type="text/css">*{stroke-linejoin: round; stroke-linecap: butt}</style>
 </defs>
 <g id="figure_1">
  <g id="patch_1">
   <path d="M 0 129.6 
L 208.8 129.6 
L 208.8 0 
L 0 0 
z
" style="fill: #ffffff"/>
  </g>
  <g id="axes_1">
   <g id="patch_2">
    <path d="M 26.19841 108.937354 
L 195.146689 108.937354 
L 195.146689 2.834646 
L 26.19841 2.834646 
z
" style="fill: #ffffff"/>
   </g>
   <g id="line2d_1">
    <path d="M 32.37043 52.57708 
L 38.913035 51.380462 
L 45.728747 48.851119 
L 52.080605 44.747856 
L 58.75694 42.426863 
L 65.237259 42.259807 
L 71.779864 38.418853 
L 78.383511 42.326304 
L 84.872715 32.885825 
L 91.41532 37.632897 
L 97.921201 42.902165 
L 104.441737 46.72425 
L 110.96372 53.463327 
L 117.488261 44.17223 
L 124.009348 50.835631 
L 130.528887 43.577014 
L 137.049108 46.689214 
L 143.569925 41.941346 
L 150.091764 46.610953 
L 156.612753 43.169198 
L 163.132859 52.005831 
L 169.654229 48.395535 
L 176.174438 45.498732 
L 182.695409 43.889303 
L 189.216122 50.148815 
" clip-path="url(#p4848b22d53)" style="fill: none; stroke: #ff0c00; stroke-width: 1.2"/>
   </g>
   <g id="PathCollection_1">
    <defs>
     <path id="m8189cb7a6e" d="M 0 1.5 
C 0.397805 1.5 0.77937 1.341951 1.06066 1.06066 
C 1.341951 0.77937 1.5 0.397805 1.5 0 
C 1.5 -0.397805 1.341951 -0.77937 1.06066 -1.06066 
C 0.77937 -1.341951 0.397805 -1.5 0 -1.5 
C -0.397805 -1.5 -0.77937 -1.341951 -1.06066 -1.06066 
C -1.341951 -0.77937 -1.5 -0.397805 -1.5 0 
C -1.5 0.397805 -1.341951 0.77937 -1.06066 1.06066 
C -0.77937 1.341951 -0.397805 1.5 0 1.5 
z
"/>
    </defs>
    <g clip-path="url(#p4848b22d53)">
     <use xlink:href="#m8189cb7a6e" x="32.37043" y="52.57708" style="fill: #ff0c00"/>
     <use xlink:href="#m8189cb7a6e" x="38.913035" y="51.380462" style="fill: #ff0c00"/>
     <use xlink:href="#m8189cb7a6e" x="45.728747" y="48.851119" style="fill: #ff0c00"/>
     <use xlink:href="#m8189cb7a6e" x="52.080605" y="44.747856" style="fill: #ff0c00"/>
     <use xlink:href="#m8189cb7a6e" x="58.75694" y="42.426863" style="fill: #ff0c00"/>
     <use xlink:href="#m8189cb7a6e" x="65.237259" y="42.259807" style="fill: #ff0c00"/>
     <use xlink:href="#m8189cb7a6e" x="71.779864" y="38.418853" style="fill: #ff0c00"/>
     <use xlink:href="#m8189cb7a6e" x="78.383511" y="42.326304" style="fill: #ff0c00"/>
     <use xlink:href="#m8189cb7a6e" x="84.872715" y="32.885825" style="fill: #ff0c00"/>
     <use xlink:href="#m8189cb7a6e" x="91.41532" y="37.632897" style="fill: #ff0c00"/>
     <use xlink:href="#m8189cb7a6e" x="97.921201" y="42.902165" style="fill: #ff0c00"/>
     <use xlink:href="#m8189cb7a6e" x="104.441737" y="46.72425" style="fill: #ff0c00"/>
     <use xlink:href="#m8189cb7a6e" x="110.96372" y="53.463327" style="fill: #ff0c00"/>
     <use xlink:href="#m8189cb7a6e" x="117.488261" y="44.17223" style="fill: #ff0c00"/>
     <use xlink:href="#m8189cb7a6e" x="124.009348" y="50.835631" style="fill: #ff0c00"/>
     <use xlink:href="#m8189cb7a6e" x="130.528887" y="43.577014" style="fill: #ff0c00"/>
     <use xlink:href="#m8189cb7a6e" x="137.049108" y="46.689214" style="fill: #ff0c00"/>
     <use xlink:href="#m8189cb7a6e" x="143.569925" y="41.941346" style="fill: #ff0c00"/>
     <use xlink:href="#m8189cb7a6e" x="150.091764" y="46.610953" style="fill: #ff0c00"/>
     <use xlink:href="#m8189cb7a6e" x="156.612753" y="43.169198" style="fill: #ff0c00"/>
     <use xlink:href="#m8189cb7a6e" x="163.132859" y="52.005831" style="fill: #ff0c00"/>
     <use xlink:href="#m8189cb7a6e" x="169.654229" y="48.395535" style="fill: #ff0c00"/>
     <use xlink:href="#m8189cb7a6e" x="176.174438" y="45.498732" style="fill: #ff0c00"/>
     <use xlink:href="#m8189cb7a6e" x="182.695409" y="43.889303" style="fill: #ff0c00"/>
     <use xlink:href="#m8189cb7a6e" x="189.216122" y="50.148815" style="fill: #ff0c00"/>
    </g>
   </g>
   <g id="matplotlib.axis_1">
    <g id="xtick_1">
     <g id="line2d_2">
      <defs>
       <path id="m69f4b558c6" d="M 0 0 
L 0 -3.75 
" style="stroke: #000000; stroke-width: 0.75"/>
      </defs>
      <g>
       <use xlink:href="#m69f4b558c6" x="26.19841" y="108.937354" style="stroke: #000000; stroke-width: 0.75"/>
      </g>
     </g>
     <g id="text_1">
      <!-- $10^{0}$ -->
      <g transform="translate(15.63841 121.555479) scale(0.12 -0.12)">
       <defs>
        <path id="DejaVuSans-31" d="M 794 531 
L 1825 531 
L 1825 4091 
L 703 3866 
L 703 4441 
L 1819 4666 
L 2450 4666 
L 2450 531 
L 3481 531 
L 3481 0 
L 794 0 
L 794 531 
z
" transform="scale(0.015625)"/>
        <path id="DejaVuSans-30" d="M 2034 4250 
Q 1547 4250 1301 3770 
Q 1056 3291 1056 2328 
Q 1056 1369 1301 889 
Q 1547 409 2034 409 
Q 2525 409 2770 889 
Q 3016 1369 3016 2328 
Q 3016 3291 2770 3770 
Q 2525 4250 2034 4250 
z
M 2034 4750 
Q 2819 4750 3233 4129 
Q 3647 3509 3647 2328 
Q 3647 1150 3233 529 
Q 2819 -91 2034 -91 
Q 1250 -91 836 529 
Q 422 1150 422 2328 
Q 422 3509 836 4129 
Q 1250 4750 2034 4750 
z
" transform="scale(0.015625)"/>
       </defs>
       <use xlink:href="#DejaVuSans-31" transform="translate(0 0.765625)"/>
       <use xlink:href="#DejaVuSans-30" transform="translate(63.623047 0.765625)"/>
       <use xlink:href="#DejaVuSans-30" transform="translate(128.203125 39.046875) scale(0.7)"/>
      </g>
     </g>
    </g>
    <g id="xtick_2">
     <g id="line2d_3">
      <g>
       <use xlink:href="#m69f4b558c6" x="68.43548" y="108.937354" style="stroke: #000000; stroke-width: 0.75"/>
      </g>
     </g>
    </g>
    <g id="xtick_3">
     <g id="line2d_4">
      <g>
       <use xlink:href="#m69f4b558c6" x="110.67255" y="108.937354" style="stroke: #000000; stroke-width: 0.75"/>
      </g>
     </g>
     <g id="text_2">
      <!-- $10^{2}$ -->
      <g transform="translate(100.11255 121.555479) scale(0.12 -0.12)">
       <defs>
        <path id="DejaVuSans-32" d="M 1228 531 
L 3431 531 
L 3431 0 
L 469 0 
L 469 531 
Q 828 903 1448 1529 
Q 2069 2156 2228 2338 
Q 2531 2678 2651 2914 
Q 2772 3150 2772 3378 
Q 2772 3750 2511 3984 
Q 2250 4219 1831 4219 
Q 1534 4219 1204 4116 
Q 875 4013 500 3803 
L 500 4441 
Q 881 4594 1212 4672 
Q 1544 4750 1819 4750 
Q 2544 4750 2975 4387 
Q 3406 4025 3406 3419 
Q 3406 3131 3298 2873 
Q 3191 2616 2906 2266 
Q 2828 2175 2409 1742 
Q 1991 1309 1228 531 
z
" transform="scale(0.015625)"/>
       </defs>
       <use xlink:href="#DejaVuSans-31" transform="translate(0 0.765625)"/>
       <use xlink:href="#DejaVuSans-30" transform="translate(63.623047 0.765625)"/>
       <use xlink:href="#DejaVuSans-32" transform="translate(128.203125 39.046875) scale(0.7)"/>
      </g>
     </g>
    </g>
    <g id="xtick_4">
     <g id="line2d_5">
      <g>
       <use xlink:href="#m69f4b558c6" x="152.909619" y="108.937354" style="stroke: #000000; stroke-width: 0.75"/>
      </g>
     </g>
    </g>
    <g id="xtick_5">
     <g id="line2d_6">
      <g>
       <use xlink:href="#m69f4b558c6" x="195.146689" y="108.937354" style="stroke: #000000; stroke-width: 0.75"/>
      </g>
     </g>
     <g id="text_3">
      <!-- $10^{4}$ -->
      <g transform="translate(184.586689 121.555479) scale(0.12 -0.12)">
       <defs>
        <path id="DejaVuSans-34" d="M 2419 4116 
L 825 1625 
L 2419 1625 
L 2419 4116 
z
M 2253 4666 
L 3047 4666 
L 3047 1625 
L 3713 1625 
L 3713 1100 
L 3047 1100 
L 3047 0 
L 2419 0 
L 2419 1100 
L 313 1100 
L 313 1709 
L 2253 4666 
z
" transform="scale(0.015625)"/>
       </defs>
       <use xlink:href="#DejaVuSans-31" transform="translate(0 0.684375)"/>
       <use xlink:href="#DejaVuSans-30" transform="translate(63.623047 0.684375)"/>
       <use xlink:href="#DejaVuSans-34" transform="translate(128.203125 38.965625) scale(0.7)"/>
      </g>
     </g>
    </g>
   </g>
   <g id="matplotlib.axis_2">
    <g id="ytick_1">
     <g id="line2d_7">
      <defs>
       <path id="mead8f7d678" d="M 0 0 
L 3.75 0 
" style="stroke: #000000; stroke-width: 0.75"/>
      </defs>
      <g>
       <use xlink:href="#mead8f7d678" x="26.19841" y="100.095462" style="stroke: #000000; stroke-width: 0.75"/>
      </g>
     </g>
     <g id="text_4">
      <!-- $0.4$ -->
      <g transform="translate(3.49841 104.654524) scale(0.12 -0.12)">
       <defs>
        <path id="DejaVuSans-2e" d="M 684 794 
L 1344 794 
L 1344 0 
L 684 0 
L 684 794 
z
" transform="scale(0.015625)"/>
       </defs>
       <use xlink:href="#DejaVuSans-30" transform="translate(0 0.78125)"/>
       <use xlink:href="#DejaVuSans-2e" transform="translate(63.623047 0.78125)"/>
       <use xlink:href="#DejaVuSans-34" transform="translate(95.410156 0.78125)"/>
      </g>
     </g>
    </g>
    <g id="ytick_2">
     <g id="line2d_8">
      <g>
       <use xlink:href="#mead8f7d678" x="26.19841" y="55.886" style="stroke: #000000; stroke-width: 0.75"/>
      </g>
     </g>
     <g id="text_5">
      <!-- $0.5$ -->
      <g transform="translate(3.49841 60.445062) scale(0.12 -0.12)">
       <defs>
        <path id="DejaVuSans-35" d="M 691 4666 
L 3169 4666 
L 3169 4134 
L 1269 4134 
L 1269 2991 
Q 1406 3038 1543 3061 
Q 1681 3084 1819 3084 
Q 2600 3084 3056 2656 
Q 3513 2228 3513 1497 
Q 3513 744 3044 326 
Q 2575 -91 1722 -91 
Q 1428 -91 1123 -41 
Q 819 9 494 109 
L 494 744 
Q 775 591 1075 516 
Q 1375 441 1709 441 
Q 2250 441 2565 725 
Q 2881 1009 2881 1497 
Q 2881 1984 2565 2268 
Q 2250 2553 1709 2553 
Q 1456 2553 1204 2497 
Q 953 2441 691 2322 
L 691 4666 
z
" transform="scale(0.015625)"/>
       </defs>
       <use xlink:href="#DejaVuSans-30" transform="translate(0 0.78125)"/>
       <use xlink:href="#DejaVuSans-2e" transform="translate(63.623047 0.78125)"/>
       <use xlink:href="#DejaVuSans-35" transform="translate(95.410156 0.78125)"/>
      </g>
     </g>
    </g>
    <g id="ytick_3">
     <g id="line2d_9">
      <g>
       <use xlink:href="#mead8f7d678" x="26.19841" y="11.676538" style="stroke: #000000; stroke-width: 0.75"/>
      </g>
     </g>
     <g id="text_6">
      <!-- $0.6$ -->
      <g transform="translate(3.49841 16.235601) scale(0.12 -0.12)">
       <defs>
        <path id="DejaVuSans-36" d="M 2113 2584 
Q 1688 2584 1439 2293 
Q 1191 2003 1191 1497 
Q 1191 994 1439 701 
Q 1688 409 2113 409 
Q 2538 409 2786 701 
Q 3034 994 3034 1497 
Q 3034 2003 2786 2293 
Q 2538 2584 2113 2584 
z
M 3366 4563 
L 3366 3988 
Q 3128 4100 2886 4159 
Q 2644 4219 2406 4219 
Q 1781 4219 1451 3797 
Q 1122 3375 1075 2522 
Q 1259 2794 1537 2939 
Q 1816 3084 2150 3084 
Q 2853 3084 3261 2657 
Q 3669 2231 3669 1497 
Q 3669 778 3244 343 
Q 2819 -91 2113 -91 
Q 1303 -91 875 529 
Q 447 1150 447 2328 
Q 447 3434 972 4092 
Q 1497 4750 2381 4750 
Q 2619 4750 2861 4703 
Q 3103 4656 3366 4563 
z
" transform="scale(0.015625)"/>
       </defs>
       <use xlink:href="#DejaVuSans-30" transform="translate(0 0.78125)"/>
       <use xlink:href="#DejaVuSans-2e" transform="translate(63.623047 0.78125)"/>
       <use xlink:href="#DejaVuSans-36" transform="translate(95.410156 0.78125)"/>
      </g>
     </g>
    </g>
   </g>
   <g id="line2d_10">
    <path d="M 32.37043 52.581072 
L 38.913035 49.264537 
L 45.728747 47.016913 
L 52.080605 44.201068 
L 58.75694 41.530669 
L 65.237259 43.194387 
L 71.779864 44.850659 
L 78.383511 46.197057 
L 84.872715 49.757891 
L 91.41532 48.705388 
L 97.921201 51.74566 
L 104.441737 51.521809 
L 110.96372 53.118831 
L 117.488261 52.428657 
L 124.009348 50.09791 
L 130.528887 57.506686 
L 137.049108 51.433898 
L 143.569925 49.470731 
L 150.091764 51.965402 
L 156.612753 46.241915 
L 163.132859 49.106508 
L 169.654229 54.158805 
L 176.174438 53.003846 
L 182.695409 42.047803 
L 189.216122 58.123085 
" clip-path="url(#p4848b22d53)" style="fill: none; stroke: #ff0f00; stroke-width: 1.2"/>
   </g>
   <g id="PathCollection_2">
    <defs>
     <path id="m1a6621a33c" d="M 0 1.5 
C 0.397805 1.5 0.77937 1.341951 1.06066 1.06066 
C 1.341951 0.77937 1.5 0.397805 1.5 0 
C 1.5 -0.397805 1.341951 -0.77937 1.06066 -1.06066 
C 0.77937 -1.341951 0.397805 -1.5 0 -1.5 
C -0.397805 -1.5 -0.77937 -1.341951 -1.06066 -1.06066 
C -1.341951 -0.77937 -1.5 -0.397805 -1.5 0 
C -1.5 0.397805 -1.341951 0.77937 -1.06066 1.06066 
C -0.77937 1.341951 -0.397805 1.5 0 1.5 
z
"/>
    </defs>
    <g clip-path="url(#p4848b22d53)">
     <use xlink:href="#m1a6621a33c" x="32.37043" y="52.581072" style="fill: #ff0f00"/>
     <use xlink:href="#m1a6621a33c" x="38.913035" y="49.264537" style="fill: #ff0f00"/>
     <use xlink:href="#m1a6621a33c" x="45.728747" y="47.016913" style="fill: #ff0f00"/>
     <use xlink:href="#m1a6621a33c" x="52.080605" y="44.201068" style="fill: #ff0f00"/>
     <use xlink:href="#m1a6621a33c" x="58.75694" y="41.530669" style="fill: #ff0f00"/>
     <use xlink:href="#m1a6621a33c" x="65.237259" y="43.194387" style="fill: #ff0f00"/>
     <use xlink:href="#m1a6621a33c" x="71.779864" y="44.850659" style="fill: #ff0f00"/>
     <use xlink:href="#m1a6621a33c" x="78.383511" y="46.197057" style="fill: #ff0f00"/>
     <use xlink:href="#m1a6621a33c" x="84.872715" y="49.757891" style="fill: #ff0f00"/>
     <use xlink:href="#m1a6621a33c" x="91.41532" y="48.705388" style="fill: #ff0f00"/>
     <use xlink:href="#m1a6621a33c" x="97.921201" y="51.74566" style="fill: #ff0f00"/>
     <use xlink:href="#m1a6621a33c" x="104.441737" y="51.521809" style="fill: #ff0f00"/>
     <use xlink:href="#m1a6621a33c" x="110.96372" y="53.118831" style="fill: #ff0f00"/>
     <use xlink:href="#m1a6621a33c" x="117.488261" y="52.428657" style="fill: #ff0f00"/>
     <use xlink:href="#m1a6621a33c" x="124.009348" y="50.09791" style="fill: #ff0f00"/>
     <use xlink:href="#m1a6621a33c" x="130.528887" y="57.506686" style="fill: #ff0f00"/>
     <use xlink:href="#m1a6621a33c" x="137.049108" y="51.433898" style="fill: #ff0f00"/>
     <use xlink:href="#m1a6621a33c" x="143.569925" y="49.470731" style="fill: #ff0f00"/>
     <use xlink:href="#m1a6621a33c" x="150.091764" y="51.965402" style="fill: #ff0f00"/>
     <use xlink:href="#m1a6621a33c" x="156.612753" y="46.241915" style="fill: #ff0f00"/>
     <use xlink:href="#m1a6621a33c" x="163.132859" y="49.106508" style="fill: #ff0f00"/>
     <use xlink:href="#m1a6621a33c" x="169.654229" y="54.158805" style="fill: #ff0f00"/>
     <use xlink:href="#m1a6621a33c" x="176.174438" y="53.003846" style="fill: #ff0f00"/>
     <use xlink:href="#m1a6621a33c" x="182.695409" y="42.047803" style="fill: #ff0f00"/>
     <use xlink:href="#m1a6621a33c" x="189.216122" y="58.123085" style="fill: #ff0f00"/>
    </g>
   </g>
   <g id="patch_3">
    <path d="M 26.19841 108.937354 
L 26.19841 2.834646 
" style="fill: none; stroke: #000000; stroke-width: 1.5; stroke-linejoin: miter; stroke-linecap: square"/>
   </g>
   <g id="patch_4">
    <path d="M 195.146689 108.937354 
L 195.146689 2.834646 
" style="fill: none; stroke: #000000; stroke-width: 1.5; stroke-linejoin: miter; stroke-linecap: square"/>
   </g>
   <g id="patch_5">
    <path d="M 26.19841 108.937354 
L 195.146689 108.937354 
" style="fill: none; stroke: #000000; stroke-width: 1.5; stroke-linejoin: miter; stroke-linecap: square"/>
   </g>
   <g id="patch_6">
    <path d="M 26.19841 2.834646 
L 195.146689 2.834646 
" style="fill: none; stroke: #000000; stroke-width: 1.5; stroke-linejoin: miter; stroke-linecap: square"/>
   </g>
   <g id="line2d_11">
    <path d="M 32.37043 49.805868 
L 38.913035 45.81814 
L 45.728747 41.079577 
L 52.080605 39.840012 
L 58.75694 38.27572 
L 65.237259 39.753899 
L 71.779864 43.645975 
L 78.383511 45.338804 
L 84.872715 47.63016 
L 91.41532 54.202878 
L 97.921201 52.774643 
L 104.441737 49.965042 
L 110.96372 45.740352 
L 117.488261 43.59487 
L 124.009348 61.304338 
L 130.528887 52.293345 
L 137.049108 51.072261 
L 143.569925 54.054299 
L 150.091764 42.231563 
L 156.612753 47.776235 
L 163.132859 63.217645 
L 169.654229 54.198854 
L 176.174438 53.322927 
L 182.695409 46.273537 
L 189.216122 57.248842 
" clip-path="url(#p4848b22d53)" style="fill: none; stroke: #ff1000; stroke-width: 1.2"/>
   </g>
   <g id="PathCollection_3">
    <defs>
     <path id="m14732c4fd0" d="M 0 1.5 
C 0.397805 1.5 0.77937 1.341951 1.06066 1.06066 
C 1.341951 0.77937 1.5 0.397805 1.5 0 
C 1.5 -0.397805 1.341951 -0.77937 1.06066 -1.06066 
C 0.77937 -1.341951 0.397805 -1.5 0 -1.5 
C -0.397805 -1.5 -0.77937 -1.341951 -1.06066 -1.06066 
C -1.341951 -0.77937 -1.5 -0.397805 -1.5 0 
C -1.5 0.397805 -1.341951 0.77937 -1.06066 1.06066 
C -0.77937 1.341951 -0.397805 1.5 0 1.5 
z
"/>
    </defs>
    <g clip-path="url(#p4848b22d53)">
     <use xlink:href="#m14732c4fd0" x="32.37043" y="49.805868" style="fill: #ff1000"/>
     <use xlink:href="#m14732c4fd0" x="38.913035" y="45.81814" style="fill: #ff1000"/>
     <use xlink:href="#m14732c4fd0" x="45.728747" y="41.079577" style="fill: #ff1000"/>
     <use xlink:href="#m14732c4fd0" x="52.080605" y="39.840012" style="fill: #ff1000"/>
     <use xlink:href="#m14732c4fd0" x="58.75694" y="38.27572" style="fill: #ff1000"/>
     <use xlink:href="#m14732c4fd0" x="65.237259" y="39.753899" style="fill: #ff1000"/>
     <use xlink:href="#m14732c4fd0" x="71.779864" y="43.645975" style="fill: #ff1000"/>
     <use xlink:href="#m14732c4fd0" x="78.383511" y="45.338804" style="fill: #ff1000"/>
     <use xlink:href="#m14732c4fd0" x="84.872715" y="47.63016" style="fill: #ff1000"/>
     <use xlink:href="#m14732c4fd0" x="91.41532" y="54.202878" style="fill: #ff1000"/>
     <use xlink:href="#m14732c4fd0" x="97.921201" y="52.774643" style="fill: #ff1000"/>
     <use xlink:href="#m14732c4fd0" x="104.441737" y="49.965042" style="fill: #ff1000"/>
     <use xlink:href="#m14732c4fd0" x="110.96372" y="45.740352" style="fill: #ff1000"/>
     <use xlink:href="#m14732c4fd0" x="117.488261" y="43.59487" style="fill: #ff1000"/>
     <use xlink:href="#m14732c4fd0" x="124.009348" y="61.304338" style="fill: #ff1000"/>
     <use xlink:href="#m14732c4fd0" x="130.528887" y="52.293345" style="fill: #ff1000"/>
     <use xlink:href="#m14732c4fd0" x="137.049108" y="51.072261" style="fill: #ff1000"/>
     <use xlink:href="#m14732c4fd0" x="143.569925" y="54.054299" style="fill: #ff1000"/>
     <use xlink:href="#m14732c4fd0" x="150.091764" y="42.231563" style="fill: #ff1000"/>
     <use xlink:href="#m14732c4fd0" x="156.612753" y="47.776235" style="fill: #ff1000"/>
     <use xlink:href="#m14732c4fd0" x="163.132859" y="63.217645" style="fill: #ff1000"/>
     <use xlink:href="#m14732c4fd0" x="169.654229" y="54.198854" style="fill: #ff1000"/>
     <use xlink:href="#m14732c4fd0" x="176.174438" y="53.322927" style="fill: #ff1000"/>
     <use xlink:href="#m14732c4fd0" x="182.695409" y="46.273537" style="fill: #ff1000"/>
     <use xlink:href="#m14732c4fd0" x="189.216122" y="57.248842" style="fill: #ff1000"/>
    </g>
   </g>
   <g id="line2d_12">
    <path d="M 32.37043 53.12831 
L 38.913035 51.560848 
L 45.728747 50.785265 
L 52.080605 45.749993 
L 58.75694 37.066897 
L 65.237259 38.910765 
L 71.779864 42.431284 
L 78.383511 46.601067 
L 84.872715 49.134642 
L 91.41532 53.027643 
L 97.921201 52.311282 
L 104.441737 53.217936 
L 110.96372 49.650131 
L 117.488261 55.943185 
L 124.009348 54.816013 
L 130.528887 58.917229 
L 137.049108 53.957123 
L 143.569925 52.092994 
L 150.091764 57.59457 
L 156.612753 46.893013 
L 163.132859 57.403996 
L 169.654229 52.098781 
L 176.174438 50.353951 
L 182.695409 56.465386 
L 189.216122 55.883003 
" clip-path="url(#p4848b22d53)" style="fill: none; stroke: #ff1500; stroke-width: 1.2"/>
   </g>
   <g id="PathCollection_4">
    <defs>
     <path id="mb25cd4d0c1" d="M 0 1.5 
C 0.397805 1.5 0.77937 1.341951 1.06066 1.06066 
C 1.341951 0.77937 1.5 0.397805 1.5 0 
C 1.5 -0.397805 1.341951 -0.77937 1.06066 -1.06066 
C 0.77937 -1.341951 0.397805 -1.5 0 -1.5 
C -0.397805 -1.5 -0.77937 -1.341951 -1.06066 -1.06066 
C -1.341951 -0.77937 -1.5 -0.397805 -1.5 0 
C -1.5 0.397805 -1.341951 0.77937 -1.06066 1.06066 
C -0.77937 1.341951 -0.397805 1.5 0 1.5 
z
"/>
    </defs>
    <g clip-path="url(#p4848b22d53)">
     <use xlink:href="#mb25cd4d0c1" x="32.37043" y="53.12831" style="fill: #ff1500"/>
     <use xlink:href="#mb25cd4d0c1" x="38.913035" y="51.560848" style="fill: #ff1500"/>
     <use xlink:href="#mb25cd4d0c1" x="45.728747" y="50.785265" style="fill: #ff1500"/>
     <use xlink:href="#mb25cd4d0c1" x="52.080605" y="45.749993" style="fill: #ff1500"/>
     <use xlink:href="#mb25cd4d0c1" x="58.75694" y="37.066897" style="fill: #ff1500"/>
     <use xlink:href="#mb25cd4d0c1" x="65.237259" y="38.910765" style="fill: #ff1500"/>
     <use xlink:href="#mb25cd4d0c1" x="71.779864" y="42.431284" style="fill: #ff1500"/>
     <use xlink:href="#mb25cd4d0c1" x="78.383511" y="46.601067" style="fill: #ff1500"/>
     <use xlink:href="#mb25cd4d0c1" x="84.872715" y="49.134642" style="fill: #ff1500"/>
     <use xlink:href="#mb25cd4d0c1" x="91.41532" y="53.027643" style="fill: #ff1500"/>
     <use xlink:href="#mb25cd4d0c1" x="97.921201" y="52.311282" style="fill: #ff1500"/>
     <use xlink:href="#mb25cd4d0c1" x="104.441737" y="53.217936" style="fill: #ff1500"/>
     <use xlink:href="#mb25cd4d0c1" x="110.96372" y="49.650131" style="fill: #ff1500"/>
     <use xlink:href="#mb25cd4d0c1" x="117.488261" y="55.943185" style="fill: #ff1500"/>
     <use xlink:href="#mb25cd4d0c1" x="124.009348" y="54.816013" style="fill: #ff1500"/>
     <use xlink:href="#mb25cd4d0c1" x="130.528887" y="58.917229" style="fill: #ff1500"/>
     <use xlink:href="#mb25cd4d0c1" x="137.049108" y="53.957123" style="fill: #ff1500"/>
     <use xlink:href="#mb25cd4d0c1" x="143.569925" y="52.092994" style="fill: #ff1500"/>
     <use xlink:href="#mb25cd4d0c1" x="150.091764" y="57.59457" style="fill: #ff1500"/>
     <use xlink:href="#mb25cd4d0c1" x="156.612753" y="46.893013" style="fill: #ff1500"/>
     <use xlink:href="#mb25cd4d0c1" x="163.132859" y="57.403996" style="fill: #ff1500"/>
     <use xlink:href="#mb25cd4d0c1" x="169.654229" y="52.098781" style="fill: #ff1500"/>
     <use xlink:href="#mb25cd4d0c1" x="176.174438" y="50.353951" style="fill: #ff1500"/>
     <use xlink:href="#mb25cd4d0c1" x="182.695409" y="56.465386" style="fill: #ff1500"/>
     <use xlink:href="#mb25cd4d0c1" x="189.216122" y="55.883003" style="fill: #ff1500"/>
    </g>
   </g>
   <g id="line2d_13">
    <path d="M 32.37043 53.817055 
L 38.913035 51.397552 
L 45.728747 46.862648 
L 52.080605 37.794733 
L 58.75694 35.098412 
L 65.237259 35.721041 
L 71.779864 35.474795 
L 78.383511 41.930513 
L 84.872715 44.805485 
L 91.41532 46.619064 
L 97.921201 52.467791 
L 104.441737 53.052639 
L 110.96372 53.399767 
L 117.488261 66.546012 
L 124.009348 51.766377 
L 130.528887 51.607411 
L 137.049108 56.534039 
L 143.569925 59.884343 
L 150.091764 64.643554 
L 156.612753 57.935656 
L 163.132859 63.113462 
L 169.654229 61.503954 
L 176.174438 57.139843 
L 182.695409 54.738403 
L 189.216122 72.43797 
" clip-path="url(#p4848b22d53)" style="fill: none; stroke: #ff1f00; stroke-width: 1.2"/>
   </g>
   <g id="PathCollection_5">
    <defs>
     <path id="me94fe77a74" d="M 0 1.5 
C 0.397805 1.5 0.77937 1.341951 1.06066 1.06066 
C 1.341951 0.77937 1.5 0.397805 1.5 0 
C 1.5 -0.397805 1.341951 -0.77937 1.06066 -1.06066 
C 0.77937 -1.341951 0.397805 -1.5 0 -1.5 
C -0.397805 -1.5 -0.77937 -1.341951 -1.06066 -1.06066 
C -1.341951 -0.77937 -1.5 -0.397805 -1.5 0 
C -1.5 0.397805 -1.341951 0.77937 -1.06066 1.06066 
C -0.77937 1.341951 -0.397805 1.5 0 1.5 
z
"/>
    </defs>
    <g clip-path="url(#p4848b22d53)">
     <use xlink:href="#me94fe77a74" x="32.37043" y="53.817055" style="fill: #ff1f00"/>
     <use xlink:href="#me94fe77a74" x="38.913035" y="51.397552" style="fill: #ff1f00"/>
     <use xlink:href="#me94fe77a74" x="45.728747" y="46.862648" style="fill: #ff1f00"/>
     <use xlink:href="#me94fe77a74" x="52.080605" y="37.794733" style="fill: #ff1f00"/>
     <use xlink:href="#me94fe77a74" x="58.75694" y="35.098412" style="fill: #ff1f00"/>
     <use xlink:href="#me94fe77a74" x="65.237259" y="35.721041" style="fill: #ff1f00"/>
     <use xlink:href="#me94fe77a74" x="71.779864" y="35.474795" style="fill: #ff1f00"/>
     <use xlink:href="#me94fe77a74" x="78.383511" y="41.930513" style="fill: #ff1f00"/>
     <use xlink:href="#me94fe77a74" x="84.872715" y="44.805485" style="fill: #ff1f00"/>
     <use xlink:href="#me94fe77a74" x="91.41532" y="46.619064" style="fill: #ff1f00"/>
     <use xlink:href="#me94fe77a74" x="97.921201" y="52.467791" style="fill: #ff1f00"/>
     <use xlink:href="#me94fe77a74" x="104.441737" y="53.052639" style="fill: #ff1f00"/>
     <use xlink:href="#me94fe77a74" x="110.96372" y="53.399767" style="fill: #ff1f00"/>
     <use xlink:href="#me94fe77a74" x="117.488261" y="66.546012" style="fill: #ff1f00"/>
     <use xlink:href="#me94fe77a74" x="124.009348" y="51.766377" style="fill: #ff1f00"/>
     <use xlink:href="#me94fe77a74" x="130.528887" y="51.607411" style="fill: #ff1f00"/>
     <use xlink:href="#me94fe77a74" x="137.049108" y="56.534039" style="fill: #ff1f00"/>
     <use xlink:href="#me94fe77a74" x="143.569925" y="59.884343" style="fill: #ff1f00"/>
     <use xlink:href="#me94fe77a74" x="150.091764" y="64.643554" style="fill: #ff1f00"/>
     <use xlink:href="#me94fe77a74" x="156.612753" y="57.935656" style="fill: #ff1f00"/>
     <use xlink:href="#me94fe77a74" x="163.132859" y="63.113462" style="fill: #ff1f00"/>
     <use xlink:href="#me94fe77a74" x="169.654229" y="61.503954" style="fill: #ff1f00"/>
     <use xlink:href="#me94fe77a74" x="176.174438" y="57.139843" style="fill: #ff1f00"/>
     <use xlink:href="#me94fe77a74" x="182.695409" y="54.738403" style="fill: #ff1f00"/>
     <use xlink:href="#me94fe77a74" x="189.216122" y="72.43797" style="fill: #ff1f00"/>
    </g>
   </g>
   <g id="line2d_14">
    <path d="M 32.37043 51.481222 
L 38.913035 47.999634 
L 45.728747 41.096081 
L 52.080605 36.996199 
L 58.75694 33.159827 
L 65.237259 35.725647 
L 71.779864 29.975303 
L 78.383511 34.651293 
L 84.872715 45.48798 
L 91.41532 44.07249 
L 97.921201 67.560086 
L 104.441737 60.235623 
L 110.96372 56.603759 
L 117.488261 51.043548 
L 124.009348 53.66791 
L 130.528887 61.488591 
L 137.049108 69.201904 
L 143.569925 57.624079 
L 150.091764 58.440562 
L 156.612753 69.487985 
L 163.132859 46.155555 
L 169.654229 68.544568 
L 176.174438 46.811674 
L 182.695409 41.725116 
L 189.216122 50.270666 
" clip-path="url(#p4848b22d53)" style="fill: none; stroke: #ff4900; stroke-width: 1.2"/>
   </g>
   <g id="PathCollection_6">
    <defs>
     <path id="mca568c24b5" d="M 0 1.5 
C 0.397805 1.5 0.77937 1.341951 1.06066 1.06066 
C 1.341951 0.77937 1.5 0.397805 1.5 0 
C 1.5 -0.397805 1.341951 -0.77937 1.06066 -1.06066 
C 0.77937 -1.341951 0.397805 -1.5 0 -1.5 
C -0.397805 -1.5 -0.77937 -1.341951 -1.06066 -1.06066 
C -1.341951 -0.77937 -1.5 -0.397805 -1.5 0 
C -1.5 0.397805 -1.341951 0.77937 -1.06066 1.06066 
C -0.77937 1.341951 -0.397805 1.5 0 1.5 
z
"/>
    </defs>
    <g clip-path="url(#p4848b22d53)">
     <use xlink:href="#mca568c24b5" x="32.37043" y="51.481222" style="fill: #ff4900"/>
     <use xlink:href="#mca568c24b5" x="38.913035" y="47.999634" style="fill: #ff4900"/>
     <use xlink:href="#mca568c24b5" x="45.728747" y="41.096081" style="fill: #ff4900"/>
     <use xlink:href="#mca568c24b5" x="52.080605" y="36.996199" style="fill: #ff4900"/>
     <use xlink:href="#mca568c24b5" x="58.75694" y="33.159827" style="fill: #ff4900"/>
     <use xlink:href="#mca568c24b5" x="65.237259" y="35.725647" style="fill: #ff4900"/>
     <use xlink:href="#mca568c24b5" x="71.779864" y="29.975303" style="fill: #ff4900"/>
     <use xlink:href="#mca568c24b5" x="78.383511" y="34.651293" style="fill: #ff4900"/>
     <use xlink:href="#mca568c24b5" x="84.872715" y="45.48798" style="fill: #ff4900"/>
     <use xlink:href="#mca568c24b5" x="91.41532" y="44.07249" style="fill: #ff4900"/>
     <use xlink:href="#mca568c24b5" x="97.921201" y="67.560086" style="fill: #ff4900"/>
     <use xlink:href="#mca568c24b5" x="104.441737" y="60.235623" style="fill: #ff4900"/>
     <use xlink:href="#mca568c24b5" x="110.96372" y="56.603759" style="fill: #ff4900"/>
     <use xlink:href="#mca568c24b5" x="117.488261" y="51.043548" style="fill: #ff4900"/>
     <use xlink:href="#mca568c24b5" x="124.009348" y="53.66791" style="fill: #ff4900"/>
     <use xlink:href="#mca568c24b5" x="130.528887" y="61.488591" style="fill: #ff4900"/>
     <use xlink:href="#mca568c24b5" x="137.049108" y="69.201904" style="fill: #ff4900"/>
     <use xlink:href="#mca568c24b5" x="143.569925" y="57.624079" style="fill: #ff4900"/>
     <use xlink:href="#mca568c24b5" x="150.091764" y="58.440562" style="fill: #ff4900"/>
     <use xlink:href="#mca568c24b5" x="156.612753" y="69.487985" style="fill: #ff4900"/>
     <use xlink:href="#mca568c24b5" x="163.132859" y="46.155555" style="fill: #ff4900"/>
     <use xlink:href="#mca568c24b5" x="169.654229" y="68.544568" style="fill: #ff4900"/>
     <use xlink:href="#mca568c24b5" x="176.174438" y="46.811674" style="fill: #ff4900"/>
     <use xlink:href="#mca568c24b5" x="182.695409" y="41.725116" style="fill: #ff4900"/>
     <use xlink:href="#mca568c24b5" x="189.216122" y="50.270666" style="fill: #ff4900"/>
    </g>
   </g>
   <g id="line2d_15">
    <path d="M 32.37043 53.00636 
L 38.913035 50.884018 
L 45.728747 43.566893 
L 52.080605 36.224113 
L 58.75694 33.299685 
L 65.237259 35.093161 
L 71.779864 38.776898 
L 78.383511 46.394619 
L 84.872715 48.415068 
L 91.41532 53.304861 
L 97.921201 43.433058 
L 104.441737 46.985963 
L 110.96372 57.699479 
L 117.488261 65.307763 
L 124.009348 72.392867 
L 130.528887 74.01183 
L 137.049108 73.435219 
L 143.569925 75.453094 
L 150.091764 90.995294 
L 156.612753 67.185571 
L 163.132859 79.256079 
L 169.654229 69.020939 
L 176.174438 94.80914 
L 182.695409 71.936174 
L 189.216122 69.004542 
" clip-path="url(#p4848b22d53)" style="fill: none; stroke: #d59f00; stroke-width: 1.2"/>
   </g>
   <g id="PathCollection_7">
    <defs>
     <path id="m95c732d523" d="M 0 1.5 
C 0.397805 1.5 0.77937 1.341951 1.06066 1.06066 
C 1.341951 0.77937 1.5 0.397805 1.5 0 
C 1.5 -0.397805 1.341951 -0.77937 1.06066 -1.06066 
C 0.77937 -1.341951 0.397805 -1.5 0 -1.5 
C -0.397805 -1.5 -0.77937 -1.341951 -1.06066 -1.06066 
C -1.341951 -0.77937 -1.5 -0.397805 -1.5 0 
C -1.5 0.397805 -1.341951 0.77937 -1.06066 1.06066 
C -0.77937 1.341951 -0.397805 1.5 0 1.5 
z
"/>
    </defs>
    <g clip-path="url(#p4848b22d53)">
     <use xlink:href="#m95c732d523" x="32.37043" y="53.00636" style="fill: #d59f00"/>
     <use xlink:href="#m95c732d523" x="38.913035" y="50.884018" style="fill: #d59f00"/>
     <use xlink:href="#m95c732d523" x="45.728747" y="43.566893" style="fill: #d59f00"/>
     <use xlink:href="#m95c732d523" x="52.080605" y="36.224113" style="fill: #d59f00"/>
     <use xlink:href="#m95c732d523" x="58.75694" y="33.299685" style="fill: #d59f00"/>
     <use xlink:href="#m95c732d523" x="65.237259" y="35.093161" style="fill: #d59f00"/>
     <use xlink:href="#m95c732d523" x="71.779864" y="38.776898" style="fill: #d59f00"/>
     <use xlink:href="#m95c732d523" x="78.383511" y="46.394619" style="fill: #d59f00"/>
     <use xlink:href="#m95c732d523" x="84.872715" y="48.415068" style="fill: #d59f00"/>
     <use xlink:href="#m95c732d523" x="91.41532" y="53.304861" style="fill: #d59f00"/>
     <use xlink:href="#m95c732d523" x="97.921201" y="43.433058" style="fill: #d59f00"/>
     <use xlink:href="#m95c732d523" x="104.441737" y="46.985963" style="fill: #d59f00"/>
     <use xlink:href="#m95c732d523" x="110.96372" y="57.699479" style="fill: #d59f00"/>
     <use xlink:href="#m95c732d523" x="117.488261" y="65.307763" style="fill: #d59f00"/>
     <use xlink:href="#m95c732d523" x="124.009348" y="72.392867" style="fill: #d59f00"/>
     <use xlink:href="#m95c732d523" x="130.528887" y="74.01183" style="fill: #d59f00"/>
     <use xlink:href="#m95c732d523" x="137.049108" y="73.435219" style="fill: #d59f00"/>
     <use xlink:href="#m95c732d523" x="143.569925" y="75.453094" style="fill: #d59f00"/>
     <use xlink:href="#m95c732d523" x="150.091764" y="90.995294" style="fill: #d59f00"/>
     <use xlink:href="#m95c732d523" x="156.612753" y="67.185571" style="fill: #d59f00"/>
     <use xlink:href="#m95c732d523" x="163.132859" y="79.256079" style="fill: #d59f00"/>
     <use xlink:href="#m95c732d523" x="169.654229" y="69.020939" style="fill: #d59f00"/>
     <use xlink:href="#m95c732d523" x="176.174438" y="94.80914" style="fill: #d59f00"/>
     <use xlink:href="#m95c732d523" x="182.695409" y="71.936174" style="fill: #d59f00"/>
     <use xlink:href="#m95c732d523" x="189.216122" y="69.004542" style="fill: #d59f00"/>
    </g>
   </g>
   <g id="line2d_16">
    <path d="M 32.37043 53.335062 
L 38.913035 51.117939 
L 45.728747 48.107267 
L 52.080605 47.900809 
L 58.75694 48.043274 
L 65.237259 44.615757 
L 71.779864 36.395771 
L 78.383511 44.040685 
L 84.872715 43.494927 
L 91.41532 49.107989 
L 97.921201 45.611029 
L 104.441737 46.91061 
L 110.96372 50.24197 
L 117.488261 61.676765 
L 124.009348 57.636518 
L 130.528887 70.143132 
L 137.049108 77.725058 
L 143.569925 72.54278 
L 150.091764 93.004848 
L 156.612753 88.370663 
L 163.132859 90.29646 
L 169.654229 94.645819 
" clip-path="url(#p4848b22d53)" style="fill: none; stroke: #9a9600; stroke-width: 1.2"/>
   </g>
   <g id="PathCollection_8">
    <defs>
     <path id="m296317e9d6" d="M 0 1.5 
C 0.397805 1.5 0.77937 1.341951 1.06066 1.06066 
C 1.341951 0.77937 1.5 0.397805 1.5 0 
C 1.5 -0.397805 1.341951 -0.77937 1.06066 -1.06066 
C 0.77937 -1.341951 0.397805 -1.5 0 -1.5 
C -0.397805 -1.5 -0.77937 -1.341951 -1.06066 -1.06066 
C -1.341951 -0.77937 -1.5 -0.397805 -1.5 0 
C -1.5 0.397805 -1.341951 0.77937 -1.06066 1.06066 
C -0.77937 1.341951 -0.397805 1.5 0 1.5 
z
"/>
    </defs>
    <g clip-path="url(#p4848b22d53)">
     <use xlink:href="#m296317e9d6" x="32.37043" y="53.335062" style="fill: #9a9600"/>
     <use xlink:href="#m296317e9d6" x="38.913035" y="51.117939" style="fill: #9a9600"/>
     <use xlink:href="#m296317e9d6" x="45.728747" y="48.107267" style="fill: #9a9600"/>
     <use xlink:href="#m296317e9d6" x="52.080605" y="47.900809" style="fill: #9a9600"/>
     <use xlink:href="#m296317e9d6" x="58.75694" y="48.043274" style="fill: #9a9600"/>
     <use xlink:href="#m296317e9d6" x="65.237259" y="44.615757" style="fill: #9a9600"/>
     <use xlink:href="#m296317e9d6" x="71.779864" y="36.395771" style="fill: #9a9600"/>
     <use xlink:href="#m296317e9d6" x="78.383511" y="44.040685" style="fill: #9a9600"/>
     <use xlink:href="#m296317e9d6" x="84.872715" y="43.494927" style="fill: #9a9600"/>
     <use xlink:href="#m296317e9d6" x="91.41532" y="49.107989" style="fill: #9a9600"/>
     <use xlink:href="#m296317e9d6" x="97.921201" y="45.611029" style="fill: #9a9600"/>
     <use xlink:href="#m296317e9d6" x="104.441737" y="46.91061" style="fill: #9a9600"/>
     <use xlink:href="#m296317e9d6" x="110.96372" y="50.24197" style="fill: #9a9600"/>
     <use xlink:href="#m296317e9d6" x="117.488261" y="61.676765" style="fill: #9a9600"/>
     <use xlink:href="#m296317e9d6" x="124.009348" y="57.636518" style="fill: #9a9600"/>
     <use xlink:href="#m296317e9d6" x="130.528887" y="70.143132" style="fill: #9a9600"/>
     <use xlink:href="#m296317e9d6" x="137.049108" y="77.725058" style="fill: #9a9600"/>
     <use xlink:href="#m296317e9d6" x="143.569925" y="72.54278" style="fill: #9a9600"/>
     <use xlink:href="#m296317e9d6" x="150.091764" y="93.004848" style="fill: #9a9600"/>
     <use xlink:href="#m296317e9d6" x="156.612753" y="88.370663" style="fill: #9a9600"/>
     <use xlink:href="#m296317e9d6" x="163.132859" y="90.29646" style="fill: #9a9600"/>
     <use xlink:href="#m296317e9d6" x="169.654229" y="94.645819" style="fill: #9a9600"/>
    </g>
   </g>
   <g id="line2d_17">
    <path d="M 32.37043 60.284414 
L 38.913035 54.179666 
L 45.728747 48.055937 
L 52.080605 40.307212 
L 58.75694 38.220738 
L 65.237259 40.535153 
L 71.779864 36.227525 
L 78.383511 33.54398 
L 84.872715 22.638201 
L 91.41532 29.408807 
L 97.921201 54.902933 
L 104.441737 42.449415 
L 110.96372 42.924368 
L 117.488261 46.490875 
L 124.009348 60.816162 
L 130.528887 56.372865 
L 137.049108 69.550556 
L 143.569925 63.725128 
L 150.091764 65.398741 
L 156.612753 51.585737 
" clip-path="url(#p4848b22d53)" style="fill: none; stroke: #759100; stroke-width: 1.2"/>
   </g>
   <g id="PathCollection_9">
    <defs>
     <path id="md2268b1661" d="M 0 1.5 
C 0.397805 1.5 0.77937 1.341951 1.06066 1.06066 
C 1.341951 0.77937 1.5 0.397805 1.5 0 
C 1.5 -0.397805 1.341951 -0.77937 1.06066 -1.06066 
C 0.77937 -1.341951 0.397805 -1.5 0 -1.5 
C -0.397805 -1.5 -0.77937 -1.341951 -1.06066 -1.06066 
C -1.341951 -0.77937 -1.5 -0.397805 -1.5 0 
C -1.5 0.397805 -1.341951 0.77937 -1.06066 1.06066 
C -0.77937 1.341951 -0.397805 1.5 0 1.5 
z
"/>
    </defs>
    <g clip-path="url(#p4848b22d53)">
     <use xlink:href="#md2268b1661" x="32.37043" y="60.284414" style="fill: #759100"/>
     <use xlink:href="#md2268b1661" x="38.913035" y="54.179666" style="fill: #759100"/>
     <use xlink:href="#md2268b1661" x="45.728747" y="48.055937" style="fill: #759100"/>
     <use xlink:href="#md2268b1661" x="52.080605" y="40.307212" style="fill: #759100"/>
     <use xlink:href="#md2268b1661" x="58.75694" y="38.220738" style="fill: #759100"/>
     <use xlink:href="#md2268b1661" x="65.237259" y="40.535153" style="fill: #759100"/>
     <use xlink:href="#md2268b1661" x="71.779864" y="36.227525" style="fill: #759100"/>
     <use xlink:href="#md2268b1661" x="78.383511" y="33.54398" style="fill: #759100"/>
     <use xlink:href="#md2268b1661" x="84.872715" y="22.638201" style="fill: #759100"/>
     <use xlink:href="#md2268b1661" x="91.41532" y="29.408807" style="fill: #759100"/>
     <use xlink:href="#md2268b1661" x="97.921201" y="54.902933" style="fill: #759100"/>
     <use xlink:href="#md2268b1661" x="104.441737" y="42.449415" style="fill: #759100"/>
     <use xlink:href="#md2268b1661" x="110.96372" y="42.924368" style="fill: #759100"/>
     <use xlink:href="#md2268b1661" x="117.488261" y="46.490875" style="fill: #759100"/>
     <use xlink:href="#md2268b1661" x="124.009348" y="60.816162" style="fill: #759100"/>
     <use xlink:href="#md2268b1661" x="130.528887" y="56.372865" style="fill: #759100"/>
     <use xlink:href="#md2268b1661" x="137.049108" y="69.550556" style="fill: #759100"/>
     <use xlink:href="#md2268b1661" x="143.569925" y="63.725128" style="fill: #759100"/>
     <use xlink:href="#md2268b1661" x="150.091764" y="65.398741" style="fill: #759100"/>
     <use xlink:href="#md2268b1661" x="156.612753" y="51.585737" style="fill: #759100"/>
    </g>
   </g>
   <g id="line2d_18">
    <path d="M 32.37043 60.5155 
L 38.913035 60.490018 
L 45.728747 57.607329 
L 52.080605 42.332559 
L 58.75694 44.625098 
L 65.237259 36.188123 
L 71.779864 34.164723 
L 78.383511 36.128059 
L 84.872715 40.294854 
L 91.41532 40.159225 
L 97.921201 40.886438 
L 104.441737 36.094366 
L 110.96372 52.307667 
L 117.488261 41.601321 
L 124.009348 46.415147 
L 130.528887 51.044231 
L 137.049108 48.203822 
L 143.569925 58.561821 
L 150.091764 58.775537 
L 156.612753 35.60304 
" clip-path="url(#p4848b22d53)" style="fill: none; stroke: #5b8d00; stroke-width: 1.2"/>
   </g>
   <g id="PathCollection_10">
    <defs>
     <path id="m13ae53e760" d="M 0 1.5 
C 0.397805 1.5 0.77937 1.341951 1.06066 1.06066 
C 1.341951 0.77937 1.5 0.397805 1.5 0 
C 1.5 -0.397805 1.341951 -0.77937 1.06066 -1.06066 
C 0.77937 -1.341951 0.397805 -1.5 0 -1.5 
C -0.397805 -1.5 -0.77937 -1.341951 -1.06066 -1.06066 
C -1.341951 -0.77937 -1.5 -0.397805 -1.5 0 
C -1.5 0.397805 -1.341951 0.77937 -1.06066 1.06066 
C -0.77937 1.341951 -0.397805 1.5 0 1.5 
z
"/>
    </defs>
    <g clip-path="url(#p4848b22d53)">
     <use xlink:href="#m13ae53e760" x="32.37043" y="60.5155" style="fill: #5b8d00"/>
     <use xlink:href="#m13ae53e760" x="38.913035" y="60.490018" style="fill: #5b8d00"/>
     <use xlink:href="#m13ae53e760" x="45.728747" y="57.607329" style="fill: #5b8d00"/>
     <use xlink:href="#m13ae53e760" x="52.080605" y="42.332559" style="fill: #5b8d00"/>
     <use xlink:href="#m13ae53e760" x="58.75694" y="44.625098" style="fill: #5b8d00"/>
     <use xlink:href="#m13ae53e760" x="65.237259" y="36.188123" style="fill: #5b8d00"/>
     <use xlink:href="#m13ae53e760" x="71.779864" y="34.164723" style="fill: #5b8d00"/>
     <use xlink:href="#m13ae53e760" x="78.383511" y="36.128059" style="fill: #5b8d00"/>
     <use xlink:href="#m13ae53e760" x="84.872715" y="40.294854" style="fill: #5b8d00"/>
     <use xlink:href="#m13ae53e760" x="91.41532" y="40.159225" style="fill: #5b8d00"/>
     <use xlink:href="#m13ae53e760" x="97.921201" y="40.886438" style="fill: #5b8d00"/>
     <use xlink:href="#m13ae53e760" x="104.441737" y="36.094366" style="fill: #5b8d00"/>
     <use xlink:href="#m13ae53e760" x="110.96372" y="52.307667" style="fill: #5b8d00"/>
     <use xlink:href="#m13ae53e760" x="117.488261" y="41.601321" style="fill: #5b8d00"/>
     <use xlink:href="#m13ae53e760" x="124.009348" y="46.415147" style="fill: #5b8d00"/>
     <use xlink:href="#m13ae53e760" x="130.528887" y="51.044231" style="fill: #5b8d00"/>
     <use xlink:href="#m13ae53e760" x="137.049108" y="48.203822" style="fill: #5b8d00"/>
     <use xlink:href="#m13ae53e760" x="143.569925" y="58.561821" style="fill: #5b8d00"/>
     <use xlink:href="#m13ae53e760" x="150.091764" y="58.775537" style="fill: #5b8d00"/>
     <use xlink:href="#m13ae53e760" x="156.612753" y="35.60304" style="fill: #5b8d00"/>
    </g>
   </g>
   <g id="text_7">
    <!-- $ξ\,\sqrt{n}/L$ -->
    <g transform="translate(32.656346 20.535944) scale(0.18 -0.18)">
     <defs>
      <path id="DejaVuSans-Oblique-3be" d="M 2016 397 
Q 2428 394 2628 159 
Q 2844 -88 2772 -463 
Q 2700 -822 2422 -1072 
Q 2119 -1344 1609 -1344 
Q 1656 -1109 1700 -872 
Q 1913 -888 2072 -750 
Q 2194 -641 2216 -525 
Q 2247 -359 2175 -222 
Q 2100 -91 1922 -91 
Q -25 -91 241 1275 
Q 422 2213 1516 2488 
Q 663 2600 822 3413 
Q 941 4028 1678 4284 
L 1028 4284 
L 1141 4863 
L 3606 4863 
L 3494 4284 
Q 1528 4284 1350 3375 
Q 1234 2778 2881 2750 
L 2778 2219 
Q 1009 2288 819 1275 
Q 659 428 2016 397 
z
" transform="scale(0.015625)"/>
      <path id="DejaVuSans-221a" d="M 3488 5191 
L 4078 5191 
L 4078 4891 
L 3719 4891 
L 1863 -128 
L 1656 -128 
L 659 2631 
L 269 2491 
L 191 2741 
L 1075 3047 
L 1875 831 
L 3488 5191 
z
" transform="scale(0.015625)"/>
      <path id="DejaVuSans-Oblique-6e" d="M 3566 2113 
L 3156 0 
L 2578 0 
L 2988 2091 
Q 3016 2238 3031 2350 
Q 3047 2463 3047 2528 
Q 3047 2791 2881 2937 
Q 2716 3084 2419 3084 
Q 1956 3084 1622 2776 
Q 1288 2469 1184 1941 
L 800 0 
L 225 0 
L 903 3500 
L 1478 3500 
L 1363 2950 
Q 1603 3253 1940 3418 
Q 2278 3584 2650 3584 
Q 3113 3584 3367 3334 
Q 3622 3084 3622 2631 
Q 3622 2519 3608 2391 
Q 3594 2263 3566 2113 
z
" transform="scale(0.015625)"/>
      <path id="DejaVuSans-2f" d="M 1625 4666 
L 2156 4666 
L 531 -594 
L 0 -594 
L 1625 4666 
z
" transform="scale(0.015625)"/>
      <path id="DejaVuSans-Oblique-4c" d="M 1075 4666 
L 1709 4666 
L 909 525 
L 3181 525 
L 3078 0 
L 172 0 
L 1075 4666 
z
" transform="scale(0.015625)"/>
     </defs>
     <use xlink:href="#DejaVuSans-Oblique-3be" transform="translate(0 0.890625)"/>
     <use xlink:href="#DejaVuSans-221a" transform="translate(71.997395 0.890625)"/>
     <use xlink:href="#DejaVuSans-Oblique-6e" transform="translate(148.218098 0.75)"/>
     <use xlink:href="#DejaVuSans-2f" transform="translate(224.097004 0.890625)"/>
     <use xlink:href="#DejaVuSans-Oblique-4c" transform="translate(257.788411 0.890625)"/>
     <path d="M 135.718098 75.5 
L 135.718098 81.75 
L 224.097004 81.75 
L 224.097004 75.5 
L 135.718098 75.5 
z
"/>
    </g>
   </g>
   <g id="text_8">
    <!-- $t$ -->
    <g transform="translate(178.683542 105.416013) scale(0.18 -0.18)">
     <defs>
      <path id="DejaVuSans-Oblique-74" d="M 2706 3500 
L 2619 3053 
L 1472 3053 
L 1100 1153 
Q 1081 1047 1072 975 
Q 1063 903 1063 863 
Q 1063 663 1183 572 
Q 1303 481 1569 481 
L 2150 481 
L 2053 0 
L 1503 0 
Q 991 0 739 200 
Q 488 400 488 806 
Q 488 878 497 964 
Q 506 1050 525 1153 
L 897 3053 
L 409 3053 
L 500 3500 
L 978 3500 
L 1172 4494 
L 1747 4494 
L 1556 3500 
L 2706 3500 
z
" transform="scale(0.015625)"/>
     </defs>
     <use xlink:href="#DejaVuSans-Oblique-74" transform="translate(0 0.78125)"/>
    </g>
   </g>
  </g>
 </g>
 <defs>
  <clipPath id="p4848b22d53">
   <rect x="26.19841" y="2.834646" width="168.948279" height="106.102709"/>
  </clipPath>
 </defs>
</svg>
