<?xml version="1.0" encoding="utf-8" standalone="no"?>
<!DOCTYPE svg PUBLIC "-//W3C//DTD SVG 1.1//EN"
  "http://www.w3.org/Graphics/SVG/1.1/DTD/svg11.dtd">
<svg xmlns:xlink="http://www.w3.org/1999/xlink" width="288pt" height="288pt" viewBox="0 0 288 288" xmlns="http://www.w3.org/2000/svg" version="1.1">
 <metadata>
  <rdf:RDF xmlns:dc="http://purl.org/dc/elements/1.1/" xmlns:cc="http://creativecommons.org/ns#" xmlns:rdf="http://www.w3.org/1999/02/22-rdf-syntax-ns#">
   <cc:Work>
    <dc:type rdf:resource="http://purl.org/dc/dcmitype/StillImage"/>
    <dc:date>2023-10-24T12:38:23.768839</dc:date>
    <dc:format>image/svg+xml</dc:format>
    <dc:creator>
     <cc:Agent>
      <dc:title>Matplotlib v3.7.2, https://matplotlib.org/</dc:title>
     </cc:Agent>
    </dc:creator>
   </cc:Work>
  </rdf:RDF>
 </metadata>
 <defs>
  <style type="text/css">*{stroke-linejoin: round; stroke-linecap: butt}</style>
 </defs>
 <g id="figure_1">
  <g id="patch_1">
   <path d="M 0 288 
L 288 288 
L 288 0 
L 0 0 
L 0 288 
z
" style="fill: none"/>
  </g>
  <g id="axes_1">
   <g id="patch_2">
    <path d="M 22.249111 267.337354 
L 285.165354 267.337354 
L 285.165354 2.834646 
L 22.249111 2.834646 
L 22.249111 267.337354 
z
" style="fill: none"/>
   </g>
   <g id="line2d_1">
    <path d="M 47.952592 259.851429 
L 73.656072 255.167703 
L 88.691645 251.191438 
L 114.395125 244.02665 
L 120.111385 241.641782 
L 125.063034 239.303317 
L 129.430698 237.623212 
L 136.872025 233.287417 
L 140.098606 231.825281 
L 143.066772 230.253251 
L 145.814865 228.423515 
L 148.373278 226.970217 
L 150.766514 225.247108 
L 153.014614 224.12849 
L 155.134178 222.894568 
L 160.850438 220.026239 
L 162.575506 218.731305 
L 164.223879 218.443109 
L 165.802087 217.554229 
L 167.315859 215.286188 
L 168.770253 214.643968 
L 170.169751 212.973764 
L 171.518346 212.509484 
L 172.819612 210.821009 
L 177.611078 205.787705 
L 178.718094 205.240872 
L 179.793018 204.216685 
L 180.837659 203.95183 
L 181.853675 202.341888 
L 182.842595 201.080869 
L 183.805825 200.53681 
L 184.744667 199.146333 
L 186.553918 197.602108 
L 187.426483 196.718458 
L 188.278987 196.960422 
L 189.92736 195.761383 
L 190.724859 195.452312 
L 191.505567 194.538297 
L 195.180084 188.375371 
L 196.553659 187.91924 
L 197.221827 187.901018 
L 197.878167 187.364283 
L 198.523093 186.670003 
L 199.156993 186.626961 
L 200.393184 185.200986 
L 200.996161 184.154068 
L 201.589491 183.666878 
L 203.314559 183.073267 
L 203.872198 181.379312 
L 204.421575 180.619754 
L 204.962932 180.259851 
L 206.022498 178.754792 
L 206.54114 178.583251 
L 207.052627 178.135505 
L 207.557156 176.569888 
L 208.054912 176.306801 
L 208.546076 175.661113 
L 209.030818 175.355197 
L 209.509306 174.551253 
L 209.981698 173.328481 
L 210.448148 172.890797 
L 210.908804 171.986941 
L 211.363807 171.568766 
L 211.813294 171.351863 
L 212.257399 171.714558 
L 212.696248 170.873743 
L 213.129963 170.655522 
L 213.558665 170.700176 
L 213.982467 169.862243 
L 214.401481 169.763653 
L 214.815812 169.486444 
L 215.225565 169.764343 
L 215.63084 168.316961 
L 216.031734 167.941045 
L 216.820748 165.913689 
L 217.209048 165.968218 
L 217.593324 165.857143 
L 218.350131 164.051221 
L 219.091802 163.271306 
L 220.532071 159.580636 
L 220.883565 158.359633 
L 221.231758 158.355883 
L 221.576712 157.632038 
L 221.918487 155.929522 
L 222.25714 156.497724 
L 222.592728 155.355736 
L 222.925307 154.94474 
L 223.25493 154.333209 
L 223.581648 154.126439 
L 223.905513 153.788477 
L 224.226573 152.957712 
L 224.544878 153.101523 
L 224.860474 152.365177 
L 225.173407 152.243598 
L 225.48372 151.363936 
L 225.791459 150.903013 
L 226.096665 149.620133 
L 226.399379 149.349462 
L 226.699642 148.923035 
L 226.997493 147.948841 
L 227.292971 148.156034 
L 227.586113 147.59716 
L 227.876956 146.442956 
L 228.451887 146.179592 
L 229.01804 146.069692 
L 230.666413 142.553276 
L 230.934156 142.422943 
L 231.463912 142.801299 
L 231.986206 141.374188 
L 232.501246 140.472665 
L 232.756108 140.674685 
L 233.51035 139.437251 
L 233.758393 139.163869 
L 234.004788 138.359113 
L 234.249556 138.097154 
L 234.49272 138.149139 
L 234.734299 136.67703 
L 234.974315 136.87648 
L 235.449735 135.819242 
L 235.685179 135.738044 
L 235.919137 134.410178 
L 236.151629 134.306437 
L 236.382672 134.55899 
L 236.612284 134.108935 
L 236.840484 133.014017 
L 237.292712 133.102272 
L 237.516775 132.857658 
L 237.96088 131.230653 
L 238.180953 131.141273 
L 238.399728 131.190915 
L 238.833444 130.547337 
L 239.048414 129.400097 
L 239.262146 128.919861 
L 239.474652 128.95314 
L 239.685948 128.408554 
L 239.896046 128.573995 
L 240.104961 127.66414 
L 240.312706 127.256392 
L 240.519293 127.20536 
L 240.929046 126.209845 
L 241.334321 125.433124 
L 241.934047 123.785743 
L 242.13182 123.75105 
L 242.328544 122.532257 
L 242.718887 122.428249 
L 243.105164 120.584831 
L 243.296804 120.64062 
L 243.487459 119.952066 
L 243.865853 119.879812 
L 244.240425 117.907007 
L 244.426301 117.479515 
L 244.611251 117.788292 
L 244.795282 117.113413 
L 244.978405 117.090193 
L 245.160628 116.88515 
L 245.34196 116.907816 
L 245.522409 116.660932 
L 246.235552 113.839433 
L 246.587046 112.279322 
L 247.108117 112.884797 
L 247.280193 112.44943 
L 247.451474 111.217026 
L 247.621967 110.8559 
L 248.128794 110.625866 
L 248.296209 110.07453 
L 248.462871 108.382415 
L 248.628788 109.075191 
L 248.95841 108.38402 
L 249.122129 108.509866 
L 249.769871 106.563934 
L 249.930054 106.473392 
L 250.089548 106.238905 
L 250.406493 105.002919 
L 250.563955 104.981648 
L 250.876887 103.995376 
L 251.032369 104.022141 
L 251.187201 103.864293 
L 251.34139 103.370109 
L 251.49494 102.399334 
L 251.647857 102.244709 
L 251.800145 102.919591 
L 251.951811 102.083466 
L 252.10286 102.66445 
L 252.403123 101.717169 
L 252.552347 101.864079 
L 252.849007 101.80692 
L 252.996452 102.623397 
L 253.143313 102.756246 
L 253.435301 100.924329 
L 253.580437 99.873752 
L 253.725007 100.465756 
L 254.012468 99.798397 
L 254.155368 99.810869 
L 254.297718 100.380308 
L 254.72152 98.05864 
L 256.369893 91.302494 
L 256.504006 91.225642 
L 256.770787 89.8056 
L 257.035661 90.955248 
L 257.167392 90.554053 
L 257.298657 90.739737 
L 257.429459 91.403229 
L 257.819119 89.901798 
L 257.948101 89.024754 
L 258.076636 89.011372 
L 258.204727 88.872659 
L 258.332377 88.198732 
L 258.459589 88.663858 
L 258.712711 87.778407 
L 258.838627 86.556161 
L 259.089184 86.274979 
L 259.213831 86.101087 
L 259.33806 86.273952 
L 259.461874 85.948948 
L 259.708268 85.868086 
L 259.830855 84.048655 
L 260.074818 84.869291 
L 260.317187 84.313483 
L 260.43778 83.799639 
L 260.557982 84.220996 
L 260.797223 83.516154 
L 260.916267 84.060769 
L 261.034931 83.926856 
L 261.153216 83.987629 
L 261.271124 83.708235 
L 261.505823 82.292129 
L 262.201136 84.162515 
L 262.315765 83.647219 
L 262.657539 81.217172 
L 262.770768 80.940597 
L 262.883652 81.606496 
L 262.996193 81.363466 
L 263.108393 81.645065 
L 263.331781 81.256109 
L 263.553832 80.19904 
L 263.77456 79.731178 
L 263.884434 80.053819 
L 263.993983 79.864848 
L 264.212114 78.693518 
L 264.42897 77.950816 
L 264.965626 79.225908 
L 265.072032 78.48989 
L 265.283931 78.771351 
L 265.494627 77.004186 
L 265.599527 77.368982 
L 265.704132 76.42161 
L 265.808442 76.61468 
L 265.91246 77.106657 
L 266.016186 76.761725 
L 266.119624 77.121364 
L 266.325637 75.982808 
L 266.428216 76.05261 
L 266.530512 75.213597 
L 266.632527 76.050354 
L 266.734261 75.991842 
L 267.037802 73.96654 
L 267.23879 73.420769 
L 267.338877 72.79683 
L 267.438695 73.304627 
L 267.538245 72.670895 
L 267.637528 73.157639 
L 267.736546 72.801694 
L 268.129996 74.24394 
L 268.227709 74.111562 
L 268.422368 73.165079 
L 268.519315 73.498835 
L 268.616009 72.736361 
L 268.712452 72.823019 
L 268.808645 72.993856 
L 268.904589 73.785328 
L 269.000285 73.182637 
L 269.095735 73.884757 
L 269.285901 73.094689 
L 269.380619 73.017443 
L 269.569334 72.390022 
L 269.757093 72.821381 
L 270.129782 71.482653 
L 270.222372 71.516073 
L 270.406861 70.35245 
L 270.498763 69.993458 
L 270.590437 70.103777 
L 270.681886 69.851745 
L 270.773109 69.167016 
L 270.864109 69.335005 
L 270.954885 68.728682 
L 271.04544 69.03799 
L 271.135775 68.755001 
L 271.405465 67.022656 
L 271.584176 66.1225 
L 271.673209 65.307893 
L 271.762029 65.456691 
L 271.939033 65.223771 
L 272.027219 64.427603 
L 272.202965 65.288975 
L 272.290526 65.166113 
L 272.465031 64.646793 
L 272.638719 64.100461 
L 272.897735 63.426177 
L 273.069413 64.054855 
L 273.154954 64.001814 
L 273.240299 64.084238 
L 273.325448 64.328397 
L 273.410402 65.706249 
L 273.495161 65.556333 
L 273.579727 65.505508 
L 273.748283 66.152084 
L 273.916077 65.346918 
L 273.99969 66.398092 
L 274.166352 65.321875 
L 274.332269 64.538586 
L 274.57976 62.454521 
L 274.661891 62.633071 
L 274.743841 62.052406 
L 274.82561 63.032548 
L 274.988609 61.958657 
L 275.069841 61.801278 
L 275.150895 61.317021 
L 275.231773 61.442884 
L 275.393 61.223128 
L 275.793029 59.087194 
L 275.872519 59.364668 
L 276.030991 58.792432 
L 276.109973 59.479693 
L 276.188788 59.382425 
L 276.267435 59.463501 
L 276.345916 59.878235 
L 276.424232 59.727602 
L 276.502382 59.885384 
L 276.580368 61.127269 
L 276.65819 59.906861 
L 276.735849 60.128173 
L 276.813346 59.715 
L 276.890682 60.512585 
L 277.121725 58.702206 
L 277.19842 58.788031 
L 277.42756 57.445383 
L 277.503626 58.111761 
L 277.730893 56.270737 
L 277.80634 57.100394 
L 277.881634 56.630569 
L 278.031765 57.312002 
L 278.106603 56.524818 
L 278.181291 56.577494 
L 278.330216 58.424545 
L 278.330216 58.424545 
" clip-path="url(#p1889f3087f)" style="fill: none; stroke: #1f77b4; stroke-width: 1.95"/>
   </g>
   <g id="matplotlib.axis_1">
    <g id="xtick_1">
     <g id="line2d_2">
      <defs>
       <path id="mb5013322c0" d="M 0 0 
L 0 -3.75 
" style="stroke: #000000; stroke-width: 0.75"/>
      </defs>
      <g>
       <use xlink:href="#mb5013322c0" x="47.952592" y="267.337354" style="stroke: #000000; stroke-width: 0.75"/>
      </g>
     </g>
     <g id="text_1">
      <!-- $10^0$ -->
      <g transform="translate(37.392592 279.955479) scale(0.12 -0.12)">
       <defs>
        <path id="DejaVuSans-31" d="M 794 531 
L 1825 531 
L 1825 4091 
L 703 3866 
L 703 4441 
L 1819 4666 
L 2450 4666 
L 2450 531 
L 3481 531 
L 3481 0 
L 794 0 
L 794 531 
z
" transform="scale(0.015625)"/>
        <path id="DejaVuSans-30" d="M 2034 4250 
Q 1547 4250 1301 3770 
Q 1056 3291 1056 2328 
Q 1056 1369 1301 889 
Q 1547 409 2034 409 
Q 2525 409 2770 889 
Q 3016 1369 3016 2328 
Q 3016 3291 2770 3770 
Q 2525 4250 2034 4250 
z
M 2034 4750 
Q 2819 4750 3233 4129 
Q 3647 3509 3647 2328 
Q 3647 1150 3233 529 
Q 2819 -91 2034 -91 
Q 1250 -91 836 529 
Q 422 1150 422 2328 
Q 422 3509 836 4129 
Q 1250 4750 2034 4750 
z
" transform="scale(0.015625)"/>
       </defs>
       <use xlink:href="#DejaVuSans-31" transform="translate(0 0.765625)"/>
       <use xlink:href="#DejaVuSans-30" transform="translate(63.623047 0.765625)"/>
       <use xlink:href="#DejaVuSans-30" transform="translate(128.203125 39.046875) scale(0.7)"/>
      </g>
     </g>
    </g>
    <g id="xtick_2">
     <g id="line2d_3">
      <g>
       <use xlink:href="#mb5013322c0" x="133.337706" y="267.337354" style="stroke: #000000; stroke-width: 0.75"/>
      </g>
     </g>
     <g id="text_2">
      <!-- $10^1$ -->
      <g transform="translate(122.777706 279.955479) scale(0.12 -0.12)">
       <use xlink:href="#DejaVuSans-31" transform="translate(0 0.684375)"/>
       <use xlink:href="#DejaVuSans-30" transform="translate(63.623047 0.684375)"/>
       <use xlink:href="#DejaVuSans-31" transform="translate(128.203125 38.965625) scale(0.7)"/>
      </g>
     </g>
    </g>
    <g id="xtick_3">
     <g id="line2d_4">
      <g>
       <use xlink:href="#mb5013322c0" x="218.722821" y="267.337354" style="stroke: #000000; stroke-width: 0.75"/>
      </g>
     </g>
     <g id="text_3">
      <!-- $10^2$ -->
      <g transform="translate(208.162821 279.955479) scale(0.12 -0.12)">
       <defs>
        <path id="DejaVuSans-32" d="M 1228 531 
L 3431 531 
L 3431 0 
L 469 0 
L 469 531 
Q 828 903 1448 1529 
Q 2069 2156 2228 2338 
Q 2531 2678 2651 2914 
Q 2772 3150 2772 3378 
Q 2772 3750 2511 3984 
Q 2250 4219 1831 4219 
Q 1534 4219 1204 4116 
Q 875 4013 500 3803 
L 500 4441 
Q 881 4594 1212 4672 
Q 1544 4750 1819 4750 
Q 2544 4750 2975 4387 
Q 3406 4025 3406 3419 
Q 3406 3131 3298 2873 
Q 3191 2616 2906 2266 
Q 2828 2175 2409 1742 
Q 1991 1309 1228 531 
z
" transform="scale(0.015625)"/>
       </defs>
       <use xlink:href="#DejaVuSans-31" transform="translate(0 0.765625)"/>
       <use xlink:href="#DejaVuSans-30" transform="translate(63.623047 0.765625)"/>
       <use xlink:href="#DejaVuSans-32" transform="translate(128.203125 39.046875) scale(0.7)"/>
      </g>
     </g>
    </g>
   </g>
   <g id="matplotlib.axis_2">
    <g id="ytick_1">
     <g id="line2d_5">
      <defs>
       <path id="m13de83fb60" d="M 0 0 
L 3.75 0 
" style="stroke: #000000; stroke-width: 0.75"/>
      </defs>
      <g>
       <use xlink:href="#m13de83fb60" x="22.249111" y="246.92007" style="stroke: #000000; stroke-width: 0.75"/>
      </g>
     </g>
     <g id="text_4">
      <!-- $5$ -->
      <g transform="translate(11.069111 251.479133) scale(0.12 -0.12)">
       <defs>
        <path id="DejaVuSans-35" d="M 691 4666 
L 3169 4666 
L 3169 4134 
L 1269 4134 
L 1269 2991 
Q 1406 3038 1543 3061 
Q 1681 3084 1819 3084 
Q 2600 3084 3056 2656 
Q 3513 2228 3513 1497 
Q 3513 744 3044 326 
Q 2575 -91 1722 -91 
Q 1428 -91 1123 -41 
Q 819 9 494 109 
L 494 744 
Q 775 591 1075 516 
Q 1375 441 1709 441 
Q 2250 441 2565 725 
Q 2881 1009 2881 1497 
Q 2881 1984 2565 2268 
Q 2250 2553 1709 2553 
Q 1456 2553 1204 2497 
Q 953 2441 691 2322 
L 691 4666 
z
" transform="scale(0.015625)"/>
       </defs>
       <use xlink:href="#DejaVuSans-35" transform="translate(0 0.09375)"/>
      </g>
     </g>
    </g>
    <g id="ytick_2">
     <g id="line2d_6">
      <g>
       <use xlink:href="#m13de83fb60" x="22.249111" y="207.948425" style="stroke: #000000; stroke-width: 0.75"/>
      </g>
     </g>
     <g id="text_5">
      <!-- $10$ -->
      <g transform="translate(3.389111 212.507488) scale(0.12 -0.12)">
       <use xlink:href="#DejaVuSans-31" transform="translate(0 0.78125)"/>
       <use xlink:href="#DejaVuSans-30" transform="translate(63.623047 0.78125)"/>
      </g>
     </g>
    </g>
    <g id="ytick_3">
     <g id="line2d_7">
      <g>
       <use xlink:href="#m13de83fb60" x="22.249111" y="168.97678" style="stroke: #000000; stroke-width: 0.75"/>
      </g>
     </g>
     <g id="text_6">
      <!-- $15$ -->
      <g transform="translate(3.389111 173.535843) scale(0.12 -0.12)">
       <use xlink:href="#DejaVuSans-31" transform="translate(0 0.09375)"/>
       <use xlink:href="#DejaVuSans-35" transform="translate(63.623047 0.09375)"/>
      </g>
     </g>
    </g>
    <g id="ytick_4">
     <g id="line2d_8">
      <g>
       <use xlink:href="#m13de83fb60" x="22.249111" y="130.005135" style="stroke: #000000; stroke-width: 0.75"/>
      </g>
     </g>
     <g id="text_7">
      <!-- $20$ -->
      <g transform="translate(3.389111 134.564198) scale(0.12 -0.12)">
       <use xlink:href="#DejaVuSans-32" transform="translate(0 0.78125)"/>
       <use xlink:href="#DejaVuSans-30" transform="translate(63.623047 0.78125)"/>
      </g>
     </g>
    </g>
    <g id="ytick_5">
     <g id="line2d_9">
      <g>
       <use xlink:href="#m13de83fb60" x="22.249111" y="91.033491" style="stroke: #000000; stroke-width: 0.75"/>
      </g>
     </g>
     <g id="text_8">
      <!-- $25$ -->
      <g transform="translate(3.389111 95.592553) scale(0.12 -0.12)">
       <use xlink:href="#DejaVuSans-32" transform="translate(0 0.78125)"/>
       <use xlink:href="#DejaVuSans-35" transform="translate(63.623047 0.78125)"/>
      </g>
     </g>
    </g>
    <g id="ytick_6">
     <g id="line2d_10">
      <g>
       <use xlink:href="#m13de83fb60" x="22.249111" y="52.061846" style="stroke: #000000; stroke-width: 0.75"/>
      </g>
     </g>
     <g id="text_9">
      <!-- $30$ -->
      <g transform="translate(3.389111 56.620908) scale(0.12 -0.12)">
       <defs>
        <path id="DejaVuSans-33" d="M 2597 2516 
Q 3050 2419 3304 2112 
Q 3559 1806 3559 1356 
Q 3559 666 3084 287 
Q 2609 -91 1734 -91 
Q 1441 -91 1130 -33 
Q 819 25 488 141 
L 488 750 
Q 750 597 1062 519 
Q 1375 441 1716 441 
Q 2309 441 2620 675 
Q 2931 909 2931 1356 
Q 2931 1769 2642 2001 
Q 2353 2234 1838 2234 
L 1294 2234 
L 1294 2753 
L 1863 2753 
Q 2328 2753 2575 2939 
Q 2822 3125 2822 3475 
Q 2822 3834 2567 4026 
Q 2313 4219 1838 4219 
Q 1578 4219 1281 4162 
Q 984 4106 628 3988 
L 628 4550 
Q 988 4650 1302 4700 
Q 1616 4750 1894 4750 
Q 2613 4750 3031 4423 
Q 3450 4097 3450 3541 
Q 3450 3153 3228 2886 
Q 3006 2619 2597 2516 
z
" transform="scale(0.015625)"/>
       </defs>
       <use xlink:href="#DejaVuSans-33" transform="translate(0 0.78125)"/>
       <use xlink:href="#DejaVuSans-30" transform="translate(63.623047 0.78125)"/>
      </g>
     </g>
    </g>
    <g id="ytick_7">
     <g id="line2d_11">
      <g>
       <use xlink:href="#m13de83fb60" x="22.249111" y="13.090201" style="stroke: #000000; stroke-width: 0.75"/>
      </g>
     </g>
     <g id="text_10">
      <!-- $35$ -->
      <g transform="translate(3.389111 17.649263) scale(0.12 -0.12)">
       <use xlink:href="#DejaVuSans-33" transform="translate(0 0.78125)"/>
       <use xlink:href="#DejaVuSans-35" transform="translate(63.623047 0.78125)"/>
      </g>
     </g>
    </g>
   </g>
   <g id="line2d_12">
    <path d="M 47.952592 256.582682 
L 73.656072 250.923685 
L 88.691645 246.546867 
L 99.359553 242.508939 
L 107.634226 239.048865 
L 114.395125 236.763817 
L 120.111385 235.035413 
L 125.063034 232.653709 
L 129.430698 230.075796 
L 133.337706 227.360232 
L 136.872025 225.627772 
L 140.098606 223.617834 
L 143.066772 221.91206 
L 145.814865 219.193962 
L 148.373278 217.818851 
L 150.766514 216.377297 
L 155.134178 214.29928 
L 157.139114 213.036825 
L 159.041187 211.019573 
L 160.850438 208.828667 
L 162.575506 207.980477 
L 164.223879 206.807728 
L 165.802087 206.375125 
L 168.770253 203.852444 
L 171.518346 201.849626 
L 174.076759 199.315226 
L 175.292681 198.955128 
L 177.611078 197.167648 
L 182.842595 190.935473 
L 183.805825 190.14587 
L 184.744667 188.806475 
L 185.660326 189.095558 
L 186.553918 188.400259 
L 187.426483 187.5626 
L 188.278987 186.275879 
L 189.112331 184.205589 
L 189.92736 183.261949 
L 190.724859 182.878459 
L 191.505567 182.078316 
L 193.01934 179.22758 
L 193.753667 178.891952 
L 194.473734 177.734317 
L 195.180084 177.097142 
L 195.873231 176.738188 
L 196.553659 176.004512 
L 197.221827 176.097733 
L 197.878167 175.027019 
L 198.523093 173.51889 
L 199.78024 172.459932 
L 200.393184 172.466631 
L 200.996161 170.574503 
L 202.173476 169.074612 
L 202.748406 169.176723 
L 203.872198 167.085175 
L 204.421575 167.003042 
L 204.962932 167.075033 
L 207.557156 162.015989 
L 208.054912 161.380451 
L 208.546076 160.425346 
L 209.030818 160.273947 
L 209.509306 159.355451 
L 209.981698 157.420398 
L 210.908804 156.40273 
L 211.363807 155.23296 
L 212.696248 152.902876 
L 213.129963 153.154185 
L 213.558665 152.750548 
L 213.982467 151.694778 
L 214.401481 151.138235 
L 214.815812 150.839618 
L 215.225565 150.248579 
L 216.031734 147.908667 
L 216.428339 148.035365 
L 217.209048 146.45949 
L 217.593324 146.634715 
L 217.973658 146.130419 
L 218.350131 145.045679 
L 218.722821 144.446066 
L 219.457147 141.944424 
L 219.818929 141.820801 
L 220.532071 141.077619 
L 220.883565 140.310037 
L 221.231758 140.180284 
L 221.918487 139.051911 
L 222.925307 136.253447 
L 223.25493 135.698964 
L 223.905513 134.12989 
L 224.226573 133.387174 
L 224.544878 133.129974 
L 225.173407 131.202876 
L 225.48372 129.475622 
L 225.791459 129.107962 
L 226.096665 127.699854 
L 226.399379 127.707629 
L 226.699642 127.074748 
L 226.997493 126.078274 
L 227.586113 124.784248 
L 227.876956 125.013909 
L 228.165536 124.379379 
L 228.736044 124.081441 
L 229.01804 124.56174 
L 229.297907 123.767159 
L 229.575678 124.390321 
L 229.851384 123.858 
L 230.125056 123.650978 
L 230.396722 122.634227 
L 230.934156 119.958976 
L 231.19998 119.51252 
L 231.463912 117.737924 
L 231.725978 117.995797 
L 231.986206 117.516265 
L 232.24462 116.715808 
L 232.501246 115.312459 
L 232.756108 115.807967 
L 233.51035 113.893416 
L 233.758393 114.019985 
L 234.004788 113.063758 
L 234.249556 112.676308 
L 234.49272 111.219361 
L 234.734299 110.849741 
L 235.212787 109.639162 
L 235.449735 109.376404 
L 237.067287 105.034142 
L 237.292712 103.806125 
L 237.516775 103.577197 
L 237.739492 103.939718 
L 237.96088 103.596254 
L 238.61722 100.867978 
L 238.833444 99.606511 
L 239.048414 99.514187 
L 239.262146 98.2438 
L 239.474652 97.894387 
L 240.104961 95.189201 
L 240.312706 95.8887 
L 240.519293 95.485191 
L 240.929046 93.899726 
L 241.334321 92.61697 
L 241.535309 92.95013 
L 241.735214 92.831161 
L 242.13182 91.44379 
L 242.912529 87.788496 
L 243.105164 87.996661 
L 243.296804 87.587405 
L 243.487459 88.087309 
L 243.677139 87.842026 
L 243.865853 86.930215 
L 244.240425 87.163442 
L 244.426301 86.182924 
L 244.611251 86.641217 
L 244.795282 85.279728 
L 244.978405 85.07497 
L 245.160628 85.044383 
L 245.34196 85.633582 
L 245.522409 85.256269 
L 245.701985 85.471325 
L 245.880695 84.114781 
L 246.058548 83.822002 
L 246.235552 83.283538 
L 246.411715 83.257617 
L 246.587046 82.542788 
L 246.761551 83.396395 
L 246.935239 82.841985 
L 247.108117 83.069632 
L 247.621967 80.824984 
L 247.79168 80.616052 
L 247.960621 79.998073 
L 248.128794 80.020619 
L 248.462871 78.629333 
L 248.628788 78.78944 
L 248.793965 78.539959 
L 248.95841 78.536384 
L 249.122129 78.009076 
L 249.285129 78.379164 
L 249.769871 77.621983 
L 250.248359 75.430348 
L 250.406493 75.301626 
L 250.876887 73.927973 
L 251.032369 74.069266 
L 251.187201 73.846805 
L 251.34139 72.564674 
L 251.49494 72.545079 
L 251.647857 72.318718 
L 251.800145 72.426306 
L 252.552347 70.905167 
L 253.143313 67.866599 
L 253.435301 67.896776 
L 253.580437 68.385833 
L 253.725007 68.205883 
L 254.012468 66.162434 
L 254.155368 66.699662 
L 254.297718 66.314128 
L 254.58079 66.221599 
L 254.72152 65.791799 
L 254.861718 66.392652 
L 255.001388 66.245781 
L 255.140534 66.39327 
L 255.279159 66.795783 
L 255.554865 64.972084 
L 255.691953 64.886784 
L 255.828536 64.985233 
L 255.964618 64.885649 
L 256.235293 66.380089 
L 256.369893 65.746575 
L 256.504006 65.683589 
L 256.637636 65.852655 
L 257.035661 65.091818 
L 257.167392 64.193258 
L 257.298657 64.558525 
L 257.819119 61.93621 
L 257.948101 61.881277 
L 258.204727 60.601577 
L 258.332377 61.920889 
L 258.459589 60.465801 
L 258.586366 60.424694 
L 258.712711 61.056812 
L 258.838627 59.648777 
L 258.964117 60.547891 
L 259.089184 60.405156 
L 259.213831 60.592086 
L 259.461874 60.504323 
L 259.585276 60.563693 
L 259.708268 60.286592 
L 259.953037 60.709043 
L 260.074818 60.478595 
L 260.1962 60.561277 
L 260.317187 61.177857 
L 260.557982 60.382496 
L 260.677795 60.8877 
L 260.916267 60.124234 
L 261.153216 60.937452 
L 261.388659 59.260521 
L 261.739046 59.764188 
L 262.086152 57.95825 
L 262.43004 59.980288 
L 262.657539 58.82699 
L 262.770768 57.268956 
L 262.996193 58.620762 
L 263.331781 55.759146 
L 263.442973 55.826105 
L 263.66436 55.208059 
L 263.77456 53.465333 
L 263.884434 53.7512 
L 263.993983 54.359278 
L 264.103209 55.645708 
L 264.320701 54.901528 
L 264.536925 56.077816 
L 264.858915 54.244154 
L 264.965626 55.365371 
L 265.072032 55.264242 
L 265.283931 53.744179 
L 265.389429 53.664607 
L 265.494627 53.249461 
L 265.599527 54.992855 
L 265.704132 54.087841 
L 266.119624 56.754754 
L 266.325637 57.211764 
L 266.428216 58.328414 
L 266.530512 58.007374 
L 266.734261 59.737952 
L 266.936897 58.015345 
L 267.037802 58.070953 
L 267.338877 56.151906 
L 267.538245 57.595929 
L 267.835301 53.918184 
L 267.933793 54.551626 
L 268.032024 54.258145 
L 268.129996 53.197609 
L 268.227709 53.626586 
L 268.422368 53.421144 
L 268.519315 51.770617 
L 268.712452 53.021288 
L 269.000285 54.597898 
L 269.095735 54.081652 
L 269.19094 54.277342 
L 269.285901 54.93851 
L 269.380619 54.654052 
L 269.475097 53.624409 
L 269.569334 53.81869 
L 269.757093 52.07408 
L 269.943906 54.76826 
L 270.03696 54.291631 
L 270.222372 53.258946 
L 270.314731 54.651395 
L 270.406861 52.9369 
L 270.681886 54.455661 
L 271.135775 50.109468 
L 271.22589 50.539226 
L 271.315786 51.532529 
L 271.494928 50.407561 
L 271.584176 50.504204 
L 271.939033 46.49332 
L 272.027219 47.349447 
L 272.115196 46.947397 
L 272.290526 45.158666 
L 272.377881 44.890903 
L 272.465031 43.470275 
L 272.638719 44.517952 
L 272.725259 43.713201 
L 272.811597 45.796522 
L 272.897735 45.37306 
L 272.983673 46.663627 
L 273.069413 46.01298 
L 273.154954 46.982504 
L 273.240299 46.659725 
L 273.410402 47.679419 
L 273.495161 46.999305 
L 273.579727 47.746096 
L 273.748283 47.273446 
L 273.832275 47.199755 
L 273.99969 43.246761 
L 274.083114 43.909541 
L 274.166352 42.920786 
L 274.249403 45.728853 
L 274.332269 44.791426 
L 274.414949 45.921978 
L 274.57976 44.553301 
L 274.661891 42.540364 
L 274.743841 42.995233 
L 274.907199 41.154763 
L 274.988609 43.031506 
L 275.069841 42.599089 
L 275.150895 42.418955 
L 275.231773 42.752398 
L 275.393 39.990934 
L 275.473352 40.126392 
L 275.55353 40.263625 
L 275.633535 41.036267 
L 275.713368 40.80317 
L 275.872519 39.954575 
L 275.95184 38.312291 
L 276.030991 39.619862 
L 276.109973 38.355076 
L 276.345916 40.197121 
L 276.502382 39.312525 
L 276.580368 40.142094 
L 276.890682 35.673875 
L 277.04487 38.600479 
L 277.121725 37.534027 
L 277.274958 40.178774 
L 277.351337 39.682754 
L 277.503626 39.114641 
L 277.655292 37.713048 
L 277.730893 37.248717 
L 277.956776 39.937285 
L 278.031765 37.498917 
L 278.255828 42.825823 
L 278.330216 40.221 
L 278.330216 40.221 
" clip-path="url(#p1889f3087f)" style="fill: none; stroke: #ff7f0e; stroke-width: 1.95"/>
   </g>
   <g id="patch_3">
    <path d="M 22.249111 267.337354 
L 22.249111 2.834646 
" style="fill: none; stroke: #000000; stroke-width: 1.5; stroke-linejoin: miter; stroke-linecap: square"/>
   </g>
   <g id="patch_4">
    <path d="M 285.165354 267.337354 
L 285.165354 2.834646 
" style="fill: none; stroke: #000000; stroke-width: 1.5; stroke-linejoin: miter; stroke-linecap: square"/>
   </g>
   <g id="patch_5">
    <path d="M 22.249111 267.337354 
L 285.165354 267.337354 
" style="fill: none; stroke: #000000; stroke-width: 1.5; stroke-linejoin: miter; stroke-linecap: square"/>
   </g>
   <g id="patch_6">
    <path d="M 22.249111 2.834646 
L 285.165354 2.834646 
" style="fill: none; stroke: #000000; stroke-width: 1.5; stroke-linejoin: miter; stroke-linecap: square"/>
   </g>
   <g id="line2d_13">
    <path d="M 47.952592 253.45007 
L 73.656072 245.500058 
L 88.691645 241.009925 
L 99.359553 237.105807 
L 107.634226 233.302563 
L 114.395125 230.026325 
L 120.111385 227.053675 
L 125.063034 225.56932 
L 129.430698 222.795237 
L 133.337706 219.752944 
L 140.098606 215.694513 
L 143.066772 213.651586 
L 145.814865 210.335746 
L 148.373278 207.867133 
L 150.766514 206.947605 
L 153.014614 204.58759 
L 159.041187 200.533768 
L 160.850438 199.782567 
L 167.315859 193.803954 
L 168.770253 191.8051 
L 170.169751 190.64158 
L 171.518346 190.563571 
L 172.819612 188.495095 
L 174.076759 187.266984 
L 175.292681 185.180387 
L 176.469995 183.451683 
L 177.611078 182.688445 
L 180.837659 178.989268 
L 181.853675 178.676394 
L 182.842595 178.797326 
L 183.805825 177.464322 
L 184.744667 175.54784 
L 185.660326 174.025016 
L 186.553918 173.099137 
L 187.426483 171.085965 
L 188.278987 170.385347 
L 189.112331 169.864093 
L 189.92736 168.255675 
L 190.724859 167.708127 
L 192.270178 167.465773 
L 193.01934 165.231884 
L 194.473734 162.626954 
L 195.180084 161.873806 
L 196.553659 158.386748 
L 197.221827 157.333788 
L 197.878167 155.471449 
L 199.156993 153.108316 
L 199.78024 152.161133 
L 200.393184 150.598072 
L 200.996161 149.808103 
L 202.173476 147.500736 
L 202.748406 148.067497 
L 203.314559 146.441552 
L 203.872198 145.919257 
L 204.962932 143.932617 
L 205.496499 143.166468 
L 206.54114 140.768471 
L 207.052627 139.156595 
L 207.557156 138.822172 
L 208.546076 137.749319 
L 209.509306 135.140454 
L 209.981698 134.466364 
L 211.813294 130.654521 
L 212.257399 129.185871 
L 213.129963 127.228387 
L 213.558665 126.805443 
L 213.982467 127.195898 
L 214.401481 126.81029 
L 214.815812 125.749753 
L 215.63084 122.458259 
L 216.428339 121.376525 
L 216.820748 121.148383 
L 217.593324 119.383249 
L 217.973658 118.776805 
L 218.350131 116.818203 
L 219.091802 115.612348 
L 219.457147 115.412585 
L 220.177214 113.43329 
L 220.532071 113.00216 
L 220.883565 111.592696 
L 221.576712 110.393865 
L 221.918487 109.157167 
L 222.25714 109.191367 
L 223.581648 104.604523 
L 223.905513 104.81108 
L 224.226573 104.274304 
L 225.791459 99.474813 
L 226.096665 98.062197 
L 226.399379 98.078296 
L 226.699642 97.598468 
L 226.997493 97.69396 
L 227.292971 96.753145 
L 227.586113 96.752408 
L 227.876956 94.469111 
L 228.165536 93.653892 
L 228.736044 93.076999 
L 229.01804 92.846177 
L 229.297907 93.077107 
L 229.575678 92.458167 
L 230.125056 89.964394 
L 230.666413 87.524424 
L 230.934156 87.384832 
L 231.19998 87.676819 
L 231.725978 85.376904 
L 231.986206 84.314125 
L 232.24462 83.963292 
L 232.756108 83.773184 
L 233.00923 83.216021 
L 233.51035 84.027606 
L 233.758393 83.945519 
L 234.249556 82.070691 
L 234.49272 82.139675 
L 234.974315 81.091901 
L 235.212787 80.909418 
L 235.685179 78.222323 
L 235.919137 77.62876 
L 236.151629 78.494582 
L 236.612284 76.011439 
L 236.840484 76.040835 
L 237.067287 74.896446 
L 237.292712 75.275406 
L 237.516775 74.590566 
L 237.739492 74.628733 
L 238.180953 73.974525 
L 238.399728 73.894434 
L 238.833444 73.190707 
L 239.048414 73.18367 
L 239.262146 72.81913 
L 239.474652 71.508891 
L 239.685948 72.20983 
L 239.896046 70.746012 
L 240.104961 70.171878 
L 240.312706 70.042238 
L 240.519293 68.992504 
L 240.724735 70.018402 
L 240.929046 70.149329 
L 241.334321 68.540487 
L 241.535309 67.831954 
L 241.735214 67.808602 
L 242.13182 67.047657 
L 242.328544 66.183211 
L 242.524229 66.220348 
L 242.718887 65.719457 
L 242.912529 66.286188 
L 243.105164 65.730194 
L 243.296804 64.281021 
L 243.487459 64.339236 
L 243.677139 63.166078 
L 243.865853 63.103773 
L 244.053612 63.198173 
L 244.240425 64.187247 
L 244.426301 63.922113 
L 244.611251 62.878494 
L 244.978405 64.106536 
L 245.160628 63.431673 
L 245.34196 64.122938 
L 245.522409 64.2408 
L 245.701985 64.724028 
L 245.880695 63.927111 
L 246.235552 63.978232 
L 246.411715 62.326218 
L 246.935239 61.020365 
L 247.280193 58.4795 
L 247.451474 58.752177 
L 247.621967 58.386135 
L 247.79168 58.406749 
L 248.128794 58.032649 
L 248.296209 56.754443 
L 248.462871 57.087651 
L 248.793965 54.192338 
L 248.95841 53.391461 
L 249.122129 53.477278 
L 249.285129 52.053832 
L 249.447415 53.071447 
L 249.608993 51.13335 
L 249.769871 51.763799 
L 249.930054 50.166933 
L 250.089548 49.882122 
L 250.248359 50.357583 
L 250.406493 51.258704 
L 250.563955 50.091483 
L 250.720751 50.082985 
L 250.876887 51.028339 
L 251.032369 50.998342 
L 251.34139 50.255817 
L 251.49494 50.02054 
L 251.800145 48.527465 
L 251.951811 49.216519 
L 252.10286 49.213829 
L 252.403123 49.923211 
L 252.552347 49.226086 
L 252.700974 49.618227 
L 252.849007 48.065296 
L 252.996452 48.161015 
L 253.143313 48.409572 
L 253.289594 48.385353 
L 253.580437 47.267996 
L 254.012468 50.260231 
L 254.297718 52.506226 
L 254.439524 52.04624 
L 254.58079 51.029649 
L 254.72152 51.201888 
L 255.001388 48.859279 
L 255.140534 49.588137 
L 255.417268 46.559636 
L 255.691953 47.057639 
L 255.964618 49.03614 
L 256.100203 49.945266 
L 256.637636 46.808608 
L 256.770787 47.965456 
L 256.90346 45.079078 
L 257.167392 47.494588 
L 257.689687 45.446333 
L 257.819119 45.639375 
L 257.948101 46.570579 
L 258.204727 45.060757 
L 258.332377 46.680822 
L 258.459589 45.234744 
L 258.586366 47.892331 
L 258.712711 47.672114 
L 258.964117 45.205074 
L 259.089184 46.57752 
L 259.33806 43.360579 
L 259.461874 43.876247 
L 259.708268 46.953093 
L 259.830855 47.456947 
L 259.953037 45.531559 
L 260.074818 46.106655 
L 260.1962 45.481506 
L 260.317187 46.480528 
L 260.557982 44.190505 
L 260.797223 43.667736 
L 261.034931 41.777736 
L 261.153216 43.126863 
L 261.388659 42.140181 
L 261.622618 41.990867 
L 261.739046 40.996087 
L 261.855109 41.315462 
L 261.970811 43.282638 
L 262.086152 40.541575 
L 262.315765 41.234578 
L 262.543964 41.510101 
L 262.770768 43.929482 
L 262.996193 41.897262 
L 263.108393 42.912979 
L 263.220256 42.906794 
L 263.331781 44.754892 
L 263.442973 44.471613 
L 263.553832 43.438034 
L 263.66436 40.831815 
L 263.993983 42.854465 
L 264.103209 41.445257 
L 264.320701 45.016166 
L 264.536925 43.321636 
L 264.644566 43.790717 
L 264.858915 41.031951 
L 264.965626 42.071074 
L 265.178133 37.845567 
L 265.283931 38.199529 
L 265.389429 41.030509 
L 265.494627 40.714321 
L 265.808442 37.943378 
L 265.91246 38.042085 
L 266.119624 43.719175 
L 266.222773 43.629034 
L 266.428216 42.52887 
L 266.530512 35.541785 
L 266.734261 38.067896 
L 266.936897 30.192932 
L 267.138432 36.058969 
L 267.23879 36.103381 
L 267.438695 40.58725 
L 267.538245 39.998834 
L 267.637528 38.082601 
L 267.736546 39.432044 
L 267.835301 35.512296 
L 267.933793 41.052125 
L 268.032024 40.135167 
L 268.227709 33.663896 
L 268.519315 41.99441 
L 268.712452 41.088075 
L 268.808645 39.230647 
L 268.904589 33.831403 
L 269.000285 34.571561 
L 269.095735 33.585028 
L 269.19094 34.900975 
L 269.285901 34.8884 
L 269.475097 25.207333 
L 269.569334 29.86648 
L 269.663332 25.578273 
L 269.757093 26.082569 
L 269.943906 33.215808 
L 270.03696 23.474133 
L 270.129782 27.492106 
L 270.222372 21.995801 
L 270.498763 30.373482 
L 270.590437 30.242641 
L 270.681886 30.161007 
L 270.773109 34.160332 
L 270.954885 25.713029 
L 271.04544 25.693806 
L 271.135775 25.235071 
L 271.22589 23.0683 
L 271.673209 40.59445 
L 271.762029 41.183933 
L 271.850636 35.388933 
L 272.027219 42.175068 
L 272.115196 42.055452 
L 272.202965 41.652681 
L 272.290526 42.076239 
L 272.377881 48.915603 
L 272.465031 44.692859 
L 272.551977 47.302621 
L 272.638719 42.821352 
L 272.725259 31.417086 
L 272.983673 51.646398 
L 273.069413 49.619071 
L 273.240299 43.840714 
L 273.410402 46.181315 
L 273.495161 42.223488 
L 273.579727 43.807463 
L 273.664101 54.213088 
L 273.748283 48.688775 
L 273.832275 51.628314 
L 273.916077 51.574576 
L 273.99969 51.797693 
L 274.166352 44.052607 
L 274.249403 51.996909 
L 274.332269 51.931972 
L 274.414949 51.395878 
L 274.497446 39.875848 
L 274.57976 40.064177 
L 274.743841 48.036904 
L 274.907199 40.246633 
L 274.988609 43.953506 
L 275.231773 31.546473 
L 275.393 19.056872 
L 275.633535 35.986518 
L 275.713368 35.379519 
L 275.793029 33.446873 
L 276.109973 10.320571 
L 276.267435 10.320571 
L 276.424232 11.314427 
L 276.580368 11.314427 
L 276.735849 12.089893 
L 276.813346 27.618193 
L 276.890682 19.854935 
L 277.04487 27.618193 
L 277.19842 11.314427 
L 277.351337 11.314427 
L 277.42756 12.645187 
L 277.503626 20.769939 
L 277.655292 12.97888 
L 277.730893 13.090201 
L 277.80634 12.97888 
L 277.881634 20.426433 
L 277.956776 12.645187 
L 278.031765 20.426433 
L 278.106603 12.645187 
L 278.181291 20.426433 
L 278.330216 12.089893 
L 278.330216 12.089893 
" clip-path="url(#p1889f3087f)" style="fill: none; stroke: #2ca02c; stroke-width: 1.95"/>
   </g>
   <g id="line2d_14">
    <path d="M 47.952592 247.904866 
L 73.656072 239.213934 
L 88.691645 233.552986 
L 99.359553 228.934615 
L 107.634226 224.663071 
L 114.395125 220.322563 
L 120.111385 215.735924 
L 125.063034 213.540161 
L 129.430698 210.498187 
L 133.337706 208.455242 
L 136.872025 205.111826 
L 140.098606 203.37768 
L 145.814865 199.666927 
L 148.373278 196.456206 
L 153.014614 192.322545 
L 155.134178 191.278759 
L 157.139114 187.734785 
L 159.041187 185.355735 
L 160.850438 183.630732 
L 162.575506 182.619943 
L 164.223879 181.250416 
L 165.802087 179.751727 
L 167.315859 178.101668 
L 170.169751 172.577001 
L 171.518346 170.800541 
L 172.819612 168.862539 
L 174.076759 168.23459 
L 176.469995 164.002304 
L 177.611078 161.547759 
L 178.718094 160.380129 
L 179.793018 159.640274 
L 181.853675 155.376091 
L 183.805825 153.752214 
L 184.744667 152.762939 
L 185.660326 152.126614 
L 186.553918 149.790601 
L 187.426483 148.573673 
L 188.278987 146.275981 
L 189.112331 145.890126 
L 189.92736 143.55655 
L 190.724859 142.090644 
L 191.505567 140.024873 
L 192.270178 138.892792 
L 193.01934 137.154817 
L 193.753667 136.841935 
L 194.473734 135.108924 
L 195.873231 131.242958 
L 196.553659 129.915515 
L 199.78024 125.617686 
L 200.393184 125.325906 
L 200.996161 124.538209 
L 201.589491 123.296797 
L 202.173476 121.52245 
L 202.748406 120.362407 
L 203.314559 119.762739 
L 203.872198 117.688592 
L 204.962932 114.962014 
L 205.496499 113.563535 
L 206.022498 114.072053 
L 207.557156 110.064919 
L 208.546076 107.832899 
L 209.030818 105.912816 
L 209.509306 105.036276 
L 211.363807 100.133896 
L 211.813294 99.366705 
L 212.257399 97.933988 
L 213.558665 96.437218 
L 214.401481 92.658545 
L 214.815812 91.598802 
L 215.225565 91.587433 
L 215.63084 90.658414 
L 216.031734 90.342791 
L 216.428339 89.516374 
L 216.820748 88.345271 
L 217.209048 87.798621 
L 217.593324 87.754874 
L 217.973658 85.16187 
L 218.722821 82.949978 
L 219.091802 80.697126 
L 219.457147 81.92218 
L 219.818929 81.913062 
L 220.177214 81.025056 
L 220.532071 80.705995 
L 220.883565 79.133775 
L 221.576712 78.02064 
L 221.918487 78.062724 
L 222.25714 76.230247 
L 222.592728 76.320773 
L 223.25493 75.619732 
L 223.581648 74.895645 
L 223.905513 73.892212 
L 224.226573 74.722425 
L 224.544878 74.000045 
L 224.860474 74.206984 
L 225.173407 73.744541 
L 225.48372 72.03386 
L 225.791459 71.734637 
L 226.096665 71.048145 
L 226.399379 71.187564 
L 226.699642 70.539101 
L 226.997493 70.261708 
L 227.292971 68.741571 
L 227.586113 66.642007 
L 227.876956 66.195003 
L 228.165536 65.399812 
L 228.451887 65.80384 
L 228.736044 64.995669 
L 229.01804 64.698303 
L 229.297907 63.605645 
L 229.575678 63.324097 
L 229.851384 61.292069 
L 230.125056 60.46282 
L 230.396722 60.242109 
L 230.666413 60.866535 
L 230.934156 59.685279 
L 231.19998 61.451185 
L 231.463912 60.121856 
L 231.725978 59.595886 
L 231.986206 58.36052 
L 232.24462 58.061957 
L 232.501246 58.282485 
L 233.260637 56.305867 
L 233.758393 55.66899 
L 234.004788 55.525463 
L 234.249556 55.776436 
L 234.49272 55.440735 
L 234.734299 55.94204 
L 234.974315 55.0381 
L 235.212787 54.879041 
L 235.449735 56.299738 
L 235.685179 55.916843 
L 235.919137 53.845166 
L 236.151629 53.939553 
L 236.382672 53.853061 
L 236.612284 54.350316 
L 236.840484 53.771572 
L 237.067287 55.152578 
L 237.292712 54.416154 
L 237.516775 54.278973 
L 237.739492 54.575486 
L 237.96088 55.098194 
L 238.399728 53.07724 
L 238.61722 53.097649 
L 238.833444 52.973136 
L 239.048414 53.616621 
L 239.262146 50.409626 
L 239.474652 49.977481 
L 239.685948 49.848605 
L 239.896046 51.076531 
L 240.104961 50.980764 
L 240.312706 51.526266 
L 240.519293 53.641477 
L 240.724735 53.223177 
L 241.132237 49.667607 
L 241.334321 49.995915 
L 241.535309 49.567532 
L 241.735214 50.119301 
L 242.13182 47.051992 
L 242.328544 47.397354 
L 242.524229 47.021977 
L 242.718887 44.368936 
L 243.105164 45.625699 
L 243.296804 45.526814 
L 243.487459 43.03462 
L 243.677139 43.332973 
L 243.865853 42.151464 
L 244.053612 43.724044 
L 244.240425 40.666952 
L 244.426301 40.847549 
L 244.795282 44.170836 
L 244.978405 42.35048 
L 245.160628 42.804112 
L 245.34196 40.479893 
L 245.522409 41.411047 
L 245.701985 40.9759 
L 245.880695 40.913682 
L 246.235552 44.619351 
L 246.411715 42.489945 
L 246.587046 45.804248 
L 246.761551 41.185245 
L 246.935239 40.016986 
L 247.108117 37.579668 
L 247.280193 37.744629 
L 247.451474 36.588605 
L 247.621967 38.173972 
L 247.79168 38.375336 
L 247.960621 39.628107 
L 248.128794 37.913273 
L 248.296209 37.819899 
L 248.462871 40.139102 
L 248.793965 32.740275 
L 248.95841 31.065533 
L 249.285129 35.344546 
L 249.447415 33.695001 
L 249.608993 33.957208 
L 249.769871 31.791646 
L 249.930054 31.816769 
L 250.089548 32.35534 
L 250.248359 34.676385 
L 250.406493 34.877969 
L 250.563955 38.27331 
L 250.876887 34.831746 
L 251.34139 30.744725 
L 251.647857 42.074611 
L 251.800145 42.008398 
L 252.10286 34.513978 
L 252.253295 35.241837 
L 252.403123 36.831376 
L 252.552347 39.786312 
L 252.700974 39.811724 
L 252.849007 41.13123 
L 252.996452 35.515537 
L 253.143313 37.432119 
L 253.289594 34.726243 
L 253.435301 37.781508 
L 253.580437 36.37272 
L 253.725007 38.098788 
L 253.869016 37.985245 
L 254.012468 41.405353 
L 254.155368 36.216666 
L 254.297718 38.602606 
L 254.439524 38.539295 
L 254.58079 39.875848 
L 254.72152 50.710659 
L 254.861718 47.017158 
L 255.140534 36.162983 
L 255.279159 51.931972 
L 255.417268 44.141835 
L 255.554865 44.141835 
L 255.691953 28.678859 
L 255.691953 28.678859 
" clip-path="url(#p1889f3087f)" style="fill: none; stroke: #d62728; stroke-width: 1.95"/>
   </g>
   <g id="line2d_15">
    <path d="M 47.952592 242.936891 
L 88.691645 228.124883 
L 99.359553 222.548934 
L 107.634226 218.066995 
L 114.395125 213.457473 
L 120.111385 208.998015 
L 125.063034 205.424662 
L 129.430698 203.859349 
L 133.337706 200.02157 
L 136.872025 197.292481 
L 140.098606 194.232087 
L 143.066772 189.992948 
L 145.814865 188.196714 
L 148.373278 185.119883 
L 150.766514 181.855623 
L 153.014614 180.285446 
L 155.134178 178.287457 
L 157.139114 176.086878 
L 159.041187 174.57898 
L 160.850438 172.05684 
L 162.575506 169.310133 
L 164.223879 166.300249 
L 165.802087 164.515945 
L 167.315859 163.966475 
L 168.770253 161.227675 
L 170.169751 158.883456 
L 171.518346 157.216778 
L 172.819612 155.028326 
L 174.076759 152.075516 
L 175.292681 151.422156 
L 176.469995 148.711994 
L 178.718094 145.068612 
L 179.793018 143.972388 
L 180.837659 142.130267 
L 183.805825 136.124724 
L 184.744667 134.810132 
L 185.660326 132.806526 
L 187.426483 130.439611 
L 188.278987 128.339101 
L 189.112331 127.296696 
L 189.92736 126.691504 
L 190.724859 125.821467 
L 191.505567 122.986306 
L 193.01934 118.972819 
L 193.753667 118.372358 
L 194.473734 116.419464 
L 195.180084 114.902306 
L 195.873231 113.838325 
L 196.553659 110.611085 
L 197.221827 109.350656 
L 197.878167 107.659116 
L 198.523093 107.546511 
L 199.156993 106.580616 
L 200.393184 103.306055 
L 200.996161 102.316537 
L 201.589491 101.618516 
L 204.421575 94.048288 
L 205.496499 90.356042 
L 206.022498 89.086097 
L 206.54114 88.443919 
L 207.052627 86.646683 
L 207.557156 85.817842 
L 208.054912 84.395407 
L 208.546076 84.447216 
L 209.030818 84.115544 
L 209.509306 81.744551 
L 209.981698 79.983274 
L 210.448148 79.096873 
L 211.363807 76.539537 
L 212.257399 75.828253 
L 213.129963 72.623962 
L 213.558665 70.040419 
L 214.401481 67.915942 
L 214.815812 68.57049 
L 215.225565 66.91034 
L 215.63084 66.614696 
L 216.031734 64.929368 
L 216.428339 64.805705 
L 216.820748 65.294827 
L 217.209048 64.430912 
L 217.973658 62.085158 
L 218.350131 61.527862 
L 218.722821 61.979368 
L 219.091802 61.782003 
L 219.457147 60.611543 
L 219.818929 61.104616 
L 220.177214 60.778179 
L 220.532071 59.191607 
L 220.883565 58.658193 
L 221.231758 59.08481 
L 221.576712 57.561609 
L 221.918487 56.640441 
L 222.25714 56.572774 
L 222.592728 56.776165 
L 222.925307 56.35422 
L 223.25493 56.958398 
L 223.581648 54.314997 
L 223.905513 53.838834 
L 224.226573 52.445407 
L 224.544878 52.776428 
L 224.860474 54.358779 
L 225.173407 54.493383 
L 225.48372 53.461786 
L 226.096665 53.057734 
L 226.399379 51.084949 
L 226.699642 51.582475 
L 227.292971 48.88437 
L 228.165536 47.699129 
L 228.451887 48.110232 
L 228.736044 46.501112 
L 229.01804 47.410762 
L 229.297907 47.63647 
L 229.851384 44.731745 
L 230.125056 45.367159 
L 230.666413 40.706112 
L 230.934156 40.926995 
L 231.19998 41.433441 
L 231.463912 43.543407 
L 231.725978 42.430475 
L 231.986206 42.074424 
L 232.24462 42.849024 
L 232.501246 42.535179 
L 232.756108 44.296477 
L 233.260637 37.427418 
L 233.51035 41.051208 
L 233.758393 41.044327 
L 234.004788 39.999918 
L 234.249556 40.08357 
L 234.49272 37.622661 
L 234.734299 39.706171 
L 234.974315 38.743821 
L 235.212787 37.168433 
L 235.449735 37.050974 
L 235.685179 35.979831 
L 236.382672 41.709755 
L 236.612284 38.673201 
L 236.840484 39.532122 
L 237.067287 41.533376 
L 237.292712 41.449418 
L 237.516775 40.057896 
L 237.739492 37.744764 
L 237.96088 42.607332 
L 238.180953 52.03935 
L 238.399728 51.008988 
L 238.61722 44.364106 
L 238.833444 47.158198 
L 239.048414 42.464203 
L 239.262146 43.100498 
L 239.474652 40.679166 
L 239.685948 43.559981 
L 239.896046 43.070795 
L 240.104961 52.372545 
L 240.312706 50.313632 
L 240.724735 42.702475 
L 240.929046 45.208115 
L 241.334321 35.749183 
L 241.735214 50.619416 
L 241.934047 53.100308 
L 242.13182 59.112088 
L 242.328544 50.656601 
L 242.524229 47.455333 
L 242.912529 33.632415 
L 243.105164 38.914145 
L 243.296804 33.41701 
L 243.487459 43.432699 
L 243.677139 45.167542 
L 244.053612 33.31031 
L 244.240425 33.31472 
L 244.978405 23.102335 
L 245.160628 24.545718 
L 245.34196 28.621563 
L 245.522409 20.662023 
L 245.880695 32.273653 
L 246.058548 36.414153 
L 246.235552 44.204676 
L 246.411715 44.141835 
L 246.587046 43.765178 
L 246.935239 55.690558 
L 247.108117 59.786607 
L 247.280193 40.370352 
L 247.451474 40.307512 
L 247.621967 44.141835 
L 247.79168 44.141835 
L 248.128794 28.560789 
L 248.296209 36.351431 
L 248.462871 36.473188 
L 248.462871 36.473188 
" clip-path="url(#p1889f3087f)" style="fill: none; stroke: #9467bd; stroke-width: 1.95"/>
   </g>
   <g id="line2d_16">
    <path d="M 47.952592 238.878559 
L 73.656072 227.561077 
L 88.691645 219.383667 
L 99.359553 212.276311 
L 107.634226 207.227421 
L 114.395125 202.412102 
L 125.063034 193.362512 
L 129.430698 188.934285 
L 136.872025 183.307908 
L 140.098606 179.783729 
L 143.066772 176.109975 
L 145.814865 174.640089 
L 148.373278 172.292343 
L 150.766514 170.853414 
L 153.014614 168.213357 
L 157.139114 161.876964 
L 159.041187 157.926295 
L 160.850438 154.95107 
L 162.575506 153.182215 
L 164.223879 151.953218 
L 165.802087 148.93196 
L 167.315859 146.345724 
L 168.770253 143.618469 
L 170.169751 142.046164 
L 172.819612 138.378399 
L 174.076759 136.061216 
L 175.292681 132.930068 
L 176.469995 130.33937 
L 177.611078 129.293449 
L 178.718094 127.846418 
L 179.793018 124.468405 
L 180.837659 122.292654 
L 181.853675 119.646607 
L 182.842595 117.551157 
L 183.805825 116.062841 
L 184.744667 113.089453 
L 186.553918 110.622572 
L 187.426483 107.397919 
L 188.278987 107.224079 
L 189.112331 104.309374 
L 189.92736 102.903337 
L 190.724859 100.514016 
L 191.505567 97.703364 
L 192.270178 96.973444 
L 193.01934 95.036224 
L 193.753667 93.850393 
L 194.473734 92.277469 
L 195.180084 90.252317 
L 195.873231 89.937943 
L 196.553659 87.198968 
L 197.221827 85.980953 
L 197.878167 83.15706 
L 198.523093 81.929364 
L 199.156993 80.245416 
L 199.78024 78.222987 
L 200.996161 76.743602 
L 201.589491 74.612466 
L 202.748406 72.363304 
L 204.421575 69.897217 
L 204.962932 68.098928 
L 205.496499 66.882089 
L 206.022498 67.316633 
L 206.54114 64.459912 
L 207.052627 63.441439 
L 207.557156 63.032215 
L 208.054912 61.192969 
L 208.546076 60.431683 
L 209.030818 58.950139 
L 209.509306 58.782 
L 209.981698 57.134534 
L 210.448148 56.874788 
L 211.363807 54.152453 
L 211.813294 53.125756 
L 212.257399 51.434245 
L 212.696248 52.23131 
L 213.129963 50.406485 
L 213.558665 50.777939 
L 213.982467 49.892933 
L 214.401481 48.288707 
L 214.815812 49.550509 
L 215.225565 48.543429 
L 215.63084 47.975216 
L 216.428339 47.515888 
L 217.209048 49.74882 
L 217.593324 50.646551 
L 217.973658 48.989432 
L 218.722821 48.916164 
L 219.091802 48.365948 
L 219.457147 46.802087 
L 219.818929 49.467638 
L 220.177214 48.191452 
L 220.532071 44.182709 
L 220.883565 42.446017 
L 221.231758 41.310052 
L 221.576712 42.555975 
L 221.918487 44.924013 
L 222.25714 43.422595 
L 222.592728 40.607311 
L 222.925307 42.180537 
L 223.25493 46.010373 
L 223.581648 46.375614 
L 223.905513 44.889913 
L 224.226573 45.68321 
L 224.544878 50.647291 
L 224.860474 47.71906 
L 225.173407 50.869605 
L 225.48372 47.759919 
L 225.791459 46.779902 
L 226.096665 52.789897 
L 226.399379 47.903666 
L 226.699642 47.721659 
L 226.997493 46.163236 
L 227.292971 38.288889 
L 227.586113 44.889572 
L 227.876956 40.630756 
L 228.165536 45.745884 
L 228.451887 45.414215 
L 228.736044 46.630411 
L 229.01804 51.907576 
L 229.297907 43.394957 
L 229.575678 41.738554 
L 229.851384 41.749681 
L 230.125056 49.918494 
L 230.396722 42.164799 
L 230.666413 38.42177 
L 230.934156 36.393246 
L 231.463912 51.542797 
L 231.986206 36.351431 
L 231.986206 36.351431 
" clip-path="url(#p1889f3087f)" style="fill: none; stroke: #8c564b; stroke-width: 1.95"/>
   </g>
   <g id="line2d_17">
    <path d="M 47.952592 233.021269 
L 73.656072 220.607067 
L 88.691645 211.312317 
L 99.359553 204.555377 
L 114.395125 193.228714 
L 120.111385 189.988632 
L 125.063034 184.418543 
L 129.430698 181.464214 
L 133.337706 178.139009 
L 136.872025 173.183899 
L 140.098606 170.113474 
L 143.066772 168.091642 
L 150.766514 156.768778 
L 153.014614 155.004733 
L 155.134178 150.391894 
L 157.139114 146.880415 
L 159.041187 143.834206 
L 160.850438 140.256364 
L 162.575506 137.131105 
L 164.223879 133.681915 
L 165.802087 129.746342 
L 167.315859 128.451222 
L 170.169751 122.504085 
L 171.518346 119.076331 
L 172.819612 117.180397 
L 174.076759 114.777424 
L 176.469995 109.314053 
L 177.611078 108.639068 
L 179.793018 101.193675 
L 180.837659 99.653957 
L 181.853675 99.406511 
L 182.842595 97.214086 
L 183.805825 92.986585 
L 184.744667 90.454019 
L 185.660326 88.888539 
L 186.553918 86.903751 
L 187.426483 84.318101 
L 188.278987 84.061041 
L 189.112331 82.664349 
L 190.724859 78.438936 
L 191.505567 74.847408 
L 192.270178 74.681059 
L 193.01934 72.273392 
L 193.753667 72.21138 
L 194.473734 69.682393 
L 195.180084 66.348351 
L 195.873231 65.975409 
L 197.221827 61.148071 
L 197.878167 62.499364 
L 198.523093 60.375601 
L 199.156993 60.571301 
L 199.78024 59.811664 
L 200.393184 58.084216 
L 200.996161 55.99597 
L 201.589491 55.431834 
L 202.173476 53.204185 
L 202.748406 53.331269 
L 203.314559 53.694343 
L 203.872198 51.038937 
L 204.421575 49.561402 
L 204.962932 50.515176 
L 205.496499 51.084202 
L 206.022498 50.648583 
L 206.54114 51.89721 
L 207.052627 49.491374 
L 207.557156 49.292666 
L 208.054912 48.394954 
L 208.546076 48.156608 
L 209.030818 47.46453 
L 209.509306 47.977434 
L 209.981698 45.472263 
L 210.448148 46.327868 
L 210.908804 48.378046 
L 211.363807 47.144185 
L 211.813294 46.82765 
L 212.257399 45.499815 
L 212.696248 45.41995 
L 213.129963 41.405218 
L 213.982467 37.878713 
L 214.401481 39.59359 
L 214.815812 35.221683 
L 215.225565 36.033147 
L 215.63084 32.526944 
L 216.031734 33.67132 
L 216.428339 33.12062 
L 216.820748 35.874395 
L 217.209048 35.730127 
L 217.593324 41.614181 
L 217.973658 42.368252 
L 218.350131 32.82678 
L 218.722821 41.820318 
L 219.457147 39.987413 
L 219.818929 47.408549 
L 220.177214 39.907324 
L 220.532071 25.396632 
L 220.883565 29.218939 
L 221.231758 19.760667 
L 221.576712 24.194066 
L 221.918487 24.538359 
L 222.25714 24.030921 
L 222.592728 32.260839 
L 222.925307 36.213663 
L 223.25493 36.406013 
L 223.905513 51.753723 
L 224.226573 28.560685 
L 224.544878 28.560358 
L 224.860474 12.089893 
L 225.173407 12.089893 
L 225.48372 12.645187 
L 225.791459 12.089893 
L 226.096665 35.379519 
L 226.399379 20.426433 
L 226.699642 28.206907 
L 227.292971 28.206907 
L 227.586113 12.97888 
L 228.165536 28.560789 
L 228.451887 28.560789 
L 228.736044 12.97888 
L 229.01804 20.88453 
L 229.297907 36.473188 
L 229.575678 36.473188 
L 229.575678 36.473188 
" clip-path="url(#p1889f3087f)" style="fill: none; stroke: #e377c2; stroke-width: 1.95"/>
   </g>
   <g id="line2d_18">
    <path d="M 47.952592 226.949816 
L 73.656072 213.655497 
L 88.691645 204.696978 
L 99.359553 197.185096 
L 107.634226 189.995602 
L 114.395125 182.365608 
L 120.111385 177.538672 
L 125.063034 171.601472 
L 129.430698 169.176504 
L 133.337706 163.297746 
L 136.872025 159.69179 
L 140.098606 157.21434 
L 143.066772 153.224485 
L 145.814865 147.541317 
L 148.373278 144.16145 
L 150.766514 139.322662 
L 153.014614 136.250449 
L 155.134178 132.062333 
L 157.139114 129.075318 
L 159.041187 125.534156 
L 160.850438 123.026283 
L 162.575506 121.157294 
L 164.223879 115.6536 
L 165.802087 112.353609 
L 167.315859 108.752355 
L 168.770253 104.951027 
L 170.169751 103.02202 
L 171.518346 100.236929 
L 172.819612 97.823136 
L 174.076759 96.328506 
L 175.292681 92.385613 
L 176.469995 90.156368 
L 177.611078 87.282156 
L 178.718094 83.88862 
L 179.793018 81.676221 
L 180.837659 78.491238 
L 181.853675 76.415621 
L 182.842595 74.455714 
L 183.805825 72.821662 
L 184.744667 69.852558 
L 185.660326 66.483071 
L 186.553918 64.619896 
L 187.426483 62.059557 
L 188.278987 61.165204 
L 189.112331 59.738089 
L 189.92736 57.590567 
L 190.724859 57.026308 
L 191.505567 55.252073 
L 192.270178 51.425308 
L 193.01934 52.292218 
L 193.753667 52.151384 
L 194.473734 51.801538 
L 195.180084 48.385579 
L 195.873231 45.913354 
L 196.553659 47.077337 
L 197.221827 47.90614 
L 197.878167 48.038818 
L 198.523093 47.577678 
L 199.156993 49.339922 
L 199.78024 49.936677 
L 200.393184 51.321339 
L 200.996161 50.879316 
L 201.589491 50.296613 
L 202.173476 51.608385 
L 202.748406 48.480719 
L 203.314559 48.030339 
L 203.872198 48.802001 
L 204.421575 50.19855 
L 204.962932 52.981876 
L 205.496499 48.505306 
L 206.022498 37.449002 
L 206.54114 35.506345 
L 207.052627 37.491688 
L 207.557156 35.327189 
L 208.054912 24.266897 
L 208.546076 16.702657 
L 209.030818 20.82887 
L 209.509306 24.559187 
L 209.981698 23.346973 
L 210.448148 35.378456 
L 210.908804 39.70993 
L 211.363807 47.913512 
L 211.813294 51.219197 
L 212.257399 51.542797 
L 212.696248 40.246633 
L 213.129963 51.810676 
L 213.558665 36.410347 
L 213.982467 51.430272 
L 214.401481 40.307512 
L 214.815812 44.141835 
" clip-path="url(#p1889f3087f)" style="fill: none; stroke: #7f7f7f; stroke-width: 1.95"/>
   </g>
   <g id="line2d_19">
    <path d="M 47.952592 222.612019 
L 73.656072 207.159326 
L 88.691645 195.544443 
L 99.359553 187.12904 
L 107.634226 180.261291 
L 114.395125 173.41626 
L 120.111385 168.177225 
L 125.063034 162.79474 
L 129.430698 156.427191 
L 133.337706 151.317015 
L 136.872025 146.388851 
L 140.098606 141.934273 
L 143.066772 138.224959 
L 145.814865 133.729295 
L 148.373278 129.969963 
L 150.766514 124.304339 
L 153.014614 120.549637 
L 155.134178 116.189982 
L 157.139114 113.538482 
L 159.041187 107.883937 
L 160.850438 105.351207 
L 162.575506 101.601621 
L 164.223879 98.88637 
L 165.802087 93.778264 
L 167.315859 89.850639 
L 168.770253 86.181222 
L 170.169751 82.481682 
L 171.518346 78.671721 
L 172.819612 76.836456 
L 174.076759 74.832647 
L 175.292681 72.039974 
L 176.469995 67.689102 
L 177.611078 64.127356 
L 178.718094 61.396777 
L 179.793018 60.088952 
L 180.837659 56.365594 
L 181.853675 54.033727 
L 182.842595 51.867917 
L 183.805825 50.976106 
L 184.744667 48.952207 
L 185.660326 47.999968 
L 186.553918 46.733213 
L 187.426483 45.54084 
L 188.278987 44.16712 
L 189.112331 44.680739 
L 189.92736 45.387546 
L 190.724859 43.579748 
L 191.505567 40.393914 
L 192.270178 43.805865 
L 193.01934 45.351709 
L 193.753667 45.262812 
L 194.473734 36.643315 
L 195.180084 36.29126 
L 195.873231 37.982566 
L 196.553659 36.414153 
L 197.221827 28.678859 
L 197.878167 28.560789 
L 198.523093 44.267517 
" clip-path="url(#p1889f3087f)" style="fill: none; stroke: #bcbd22; stroke-width: 1.95"/>
   </g>
   <g id="text_11">
    <!-- $R(t\!^*)$ -->
    <g transform="translate(35.024048 28.57316) scale(0.225 -0.225)">
     <defs>
      <path id="DejaVuSans-Oblique-52" d="M 1613 4147 
L 1294 2491 
L 2106 2491 
Q 2584 2491 2879 2755 
Q 3175 3019 3175 3444 
Q 3175 3784 2976 3965 
Q 2778 4147 2406 4147 
L 1613 4147 
z
M 2772 2241 
Q 2972 2194 3105 2009 
Q 3238 1825 3413 1275 
L 3809 0 
L 3144 0 
L 2778 1197 
Q 2638 1659 2453 1815 
Q 2269 1972 1888 1972 
L 1191 1972 
L 806 0 
L 172 0 
L 1081 4666 
L 2503 4666 
Q 3150 4666 3495 4373 
Q 3841 4081 3841 3531 
Q 3841 3044 3547 2687 
Q 3253 2331 2772 2241 
z
" transform="scale(0.015625)"/>
      <path id="DejaVuSans-28" d="M 1984 4856 
Q 1566 4138 1362 3434 
Q 1159 2731 1159 2009 
Q 1159 1288 1364 580 
Q 1569 -128 1984 -844 
L 1484 -844 
Q 1016 -109 783 600 
Q 550 1309 550 2009 
Q 550 2706 781 3412 
Q 1013 4119 1484 4856 
L 1984 4856 
z
" transform="scale(0.015625)"/>
      <path id="DejaVuSans-Oblique-74" d="M 2706 3500 
L 2619 3053 
L 1472 3053 
L 1100 1153 
Q 1081 1047 1072 975 
Q 1063 903 1063 863 
Q 1063 663 1183 572 
Q 1303 481 1569 481 
L 2150 481 
L 2053 0 
L 1503 0 
Q 991 0 739 200 
Q 488 400 488 806 
Q 488 878 497 964 
Q 506 1050 525 1153 
L 897 3053 
L 409 3053 
L 500 3500 
L 978 3500 
L 1172 4494 
L 1747 4494 
L 1556 3500 
L 2706 3500 
z
" transform="scale(0.015625)"/>
      <path id="DejaVuSans-2a" d="M 3009 3897 
L 1888 3291 
L 3009 2681 
L 2828 2375 
L 1778 3009 
L 1778 1831 
L 1422 1831 
L 1422 3009 
L 372 2375 
L 191 2681 
L 1313 3291 
L 191 3897 
L 372 4206 
L 1422 3572 
L 1422 4750 
L 1778 4750 
L 1778 3572 
L 2828 4206 
L 3009 3897 
z
" transform="scale(0.015625)"/>
      <path id="DejaVuSans-29" d="M 513 4856 
L 1013 4856 
Q 1481 4119 1714 3412 
Q 1947 2706 1947 2009 
Q 1947 1309 1714 600 
Q 1481 -109 1013 -844 
L 513 -844 
Q 928 -128 1133 580 
Q 1338 1288 1338 2009 
Q 1338 2731 1133 3434 
Q 928 4138 513 4856 
z
" transform="scale(0.015625)"/>
     </defs>
     <use xlink:href="#DejaVuSans-Oblique-52" transform="translate(0 0.765625)"/>
     <use xlink:href="#DejaVuSans-28" transform="translate(69.482422 0.765625)"/>
     <use xlink:href="#DejaVuSans-Oblique-74" transform="translate(108.496094 0.765625)"/>
     <use xlink:href="#DejaVuSans-2a" transform="translate(146.064128 39.046875) scale(0.7)"/>
     <use xlink:href="#DejaVuSans-29" transform="translate(197.436199 0.765625)"/>
    </g>
   </g>
   <g id="text_12">
    <!-- $t\!^*$ -->
    <g transform="translate(264.636205 257.368003) scale(0.225 -0.225)">
     <use xlink:href="#DejaVuSans-Oblique-74" transform="translate(0 0.765625)"/>
     <use xlink:href="#DejaVuSans-2a" transform="translate(37.568035 39.046875) scale(0.7)"/>
    </g>
   </g>
  </g>
 </g>
 <defs>
  <clipPath id="p1889f3087f">
   <rect x="22.249111" y="2.834646" width="262.916243" height="264.502709"/>
  </clipPath>
 </defs>
</svg>
